<svg width="102" height="91" viewBox="0 0 102 91" fill="none" xmlns="http://www.w3.org/2000/svg">
<path d="M100.57 35.9561L97.7738 54.584C95.8105 67.7442 91.5924 76.9555 85.1173 82.2179C78.6422 87.4824 67.9954 90.1136 53.1835 90.1136H0.205566L13.3038 0.428711H66.2817C78.8388 0.428711 87.8403 2.34028 93.2863 6.16563C98.7323 9.98877 101.453 16.4254 101.453 25.4712C101.453 28.5968 101.157 32.091 100.57 35.9561ZM73.9317 37.6822C74.5213 34.0644 74.815 31.0624 74.815 28.6762C74.815 24.7295 73.7108 22.0365 71.5046 20.5951C69.2962 19.1581 65.1995 18.4363 59.2169 18.4363H36.4061L28.6059 72.0993H51.4168C58.9696 72.0993 63.9496 70.8875 66.3545 68.4594C68.7573 66.0335 70.5484 60.833 71.7254 52.8534L73.9317 37.6822Z" fill="black"/>
</svg>
