<svg width="59" height="32" viewBox="0 0 59 32" fill="none" xmlns="http://www.w3.org/2000/svg">
<path d="M57.5196 14.5737C57.4777 15.0306 57.4777 15.5074 57.3849 15.9665C56.8328 18.697 56.241 21.4187 55.6999 24.1492C55.2825 26.2616 54.207 27.9833 52.703 29.4777C52.1289 30.0472 51.4686 30.4247 50.7023 30.7293C48.3547 31.6586 45.9077 31.9456 43.4254 31.95C32.401 31.9743 21.3765 31.972 10.3521 31.9478C8.35123 31.9433 6.37914 31.6564 4.47548 30.9721C1.90708 30.0472 0.734373 28.1025 0.469362 25.5376C0.345691 24.3544 0.464961 23.1669 0.705679 21.9749C1.5758 17.6794 2.63146 13.4258 3.39116 9.10163C4.12215 4.94739 6.7678 2.34271 10.913 1.37368C12.2337 1.06465 13.583 0.923368 14.9522 0.923368C26.4559 0.936613 37.9596 0.938829 49.4633 0.918963C50.8392 0.916756 52.1752 1.12204 53.4848 1.47301C57.0824 2.43542 59.2245 5.20344 58.8447 9.13915C58.8292 9.29808 58.8182 9.45922 58.7828 9.61374C57.926 13.3464 58.6879 12.7725 55.1434 12.8034C51.7888 12.8321 48.4319 12.8188 45.0773 12.8034C43.8958 12.7989 43.8959 12.7725 43.6264 11.5297C43.4454 10.6887 43.2201 10.4327 42.4074 10.3179C41.8575 10.2406 41.2943 10.2252 40.7378 10.223C34.1081 10.2163 27.4762 10.2472 20.8465 10.2053C17.9491 10.1877 17.7304 10.7682 17.2534 13.2316C16.7212 15.9687 16.0476 18.6793 15.4513 21.4054C15.1819 22.6415 15.5794 23.2442 16.7852 23.4053C17.4168 23.4892 18.0595 23.5068 18.6977 23.509C25.2479 23.5157 31.8003 23.5157 38.3505 23.509C38.9887 23.509 39.627 23.4583 40.263 23.4053C40.8527 23.3545 41.3098 23.0367 41.6808 22.5974C41.9458 22.2839 42.1159 21.9197 42.032 21.5026C41.926 20.9618 41.4556 21.039 41.089 21.0368C37.7344 21.0236 34.3775 21.028 31.023 21.0258C30.3847 21.0258 29.7443 21.0368 29.1061 21.0103C28.4524 20.9838 28.2712 20.7565 28.4082 20.1075C28.735 18.5469 29.0663 16.9885 29.4329 15.4367C29.6869 14.3595 29.7155 14.364 30.8993 14.3309C31.299 14.3198 31.6988 14.3286 32.0985 14.3286C39.7683 14.3286 47.4382 14.322 55.1058 14.3375C55.8898 14.3353 56.7025 14.1587 57.5196 14.5737Z" fill="black"/>
</svg>
