<svg width="95" height="91" viewBox="0 0 95 91" fill="none" xmlns="http://www.w3.org/2000/svg">
<path d="M94.728 0.461914L84.3506 62.3407C81.2257 80.856 68.7282 90.1137 46.8604 90.1137H31.7967C20.8606 90.1137 12.8837 88.6126 7.86399 85.6062C2.84203 82.602 0.331055 77.6487 0.331055 70.7463C0.331055 69.7729 0.414978 68.614 0.582818 67.2741C0.750659 65.9343 0.889793 64.8593 1.00021 64.047L3.00766 52.476H31.461C31.461 52.476 29.84 63.0007 29.6081 65.3184C29.5441 65.9652 29.6192 62.9499 29.6192 63.6806C29.6192 64.4112 29.6192 64.899 29.6192 65.1418C29.6192 69.2034 32.351 71.2319 37.8213 71.2319H43.6802C47.2491 71.2319 49.8726 70.5013 51.5466 69.04C53.2206 67.5788 54.3337 65.1021 54.8946 61.6101L65.1042 0.461914H94.728Z" fill="black"/>
</svg>
