<svg width="244" height="220" viewBox="0 0 244 220" fill="none" xmlns="http://www.w3.org/2000/svg">
<path d="M130.664 114.595L120.032 118.01C119.544 118.166 119.043 117.804 119.041 117.29L118.809 66.554V66.5474L118.537 6.41237C118.526 3.75251 120.125 1.29793 122.625 0.386287C123.31 0.136856 124.045 0 124.807 0C125.896 0 126.931 0.278128 127.841 0.770368C129.871 1.86963 131.081 4.04829 131.083 6.35498C131.103 25.3868 131.123 44.423 131.141 63.4548V63.5255C131.158 80.3058 131.176 97.0905 131.194 113.871C131.189 114.202 130.977 114.493 130.664 114.595Z" fill="#FC6E27"/>
<path d="M101.189 122.886C101.191 123.323 100.91 123.714 100.493 123.85L89.5613 127.453C89.4884 127.477 89.4156 127.493 89.3427 127.499C88.7663 127.557 88.2341 127.106 88.2296 126.495L87.9757 76.3724V76.2245L87.7526 32.296C87.7482 31.5675 87.0018 31.0819 86.3348 31.3711L58.7957 43.304C58.1266 43.5932 57.3779 43.1032 57.3779 42.3748V33.8566C57.3779 33.5056 57.559 33.1811 57.8572 32.9957L99.2607 7.29325C99.9343 6.87606 100.807 7.35727 100.809 8.15191L101.019 71.7833V71.8165L101.131 105.525L101.189 122.886Z" fill="black"/>
<path d="M118.546 212.892C118.524 216.348 121.048 219.238 124.292 219.414C124.46 219.423 124.63 219.428 124.8 219.428C125.059 219.428 125.313 219.417 125.564 219.397C128.694 219.138 131.074 216.289 131.081 212.951C131.114 190.831 131.147 168.709 131.18 146.589C131.185 143.508 129.151 140.848 126.315 140.228C122.55 139.402 119.016 142.444 118.99 146.534L118.546 212.892Z" fill="#FC6E27"/>
<path d="M192.842 171.369C192.831 173.042 192.566 175.978 191.051 179.232C189.382 182.81 187.07 185.095 185.672 186.084C174.473 193.995 162.379 200.555 150.677 207.707C150.001 208.12 149.133 207.636 149.133 206.844V132.478C153.484 130.915 157.709 129.29 161.794 127.615V183.09C161.794 183.841 162.583 184.331 163.256 184L179.115 176.228C179.457 176.06 179.676 175.718 179.682 175.338L180.537 132.356L180.802 118.96L180.813 118.45C180.829 117.77 181.493 117.298 182.138 117.505L183.059 117.801L192.123 120.715C192.54 120.85 192.825 121.236 192.825 121.675C192.827 122.562 192.831 124.216 192.834 126.405C192.858 137.35 192.9 161.73 192.842 171.369Z" fill="black"/>
<path d="M102.003 145.583V206.844C102.003 207.636 101.135 208.12 100.46 207.707C88.7571 200.555 76.6638 193.995 65.4648 186.084C64.0669 185.095 61.7547 182.81 60.0851 179.232C58.5701 175.978 58.3051 173.043 58.2963 171.369C58.283 169.259 58.2742 166.44 58.2698 163.211C58.2654 159.361 58.2654 154.929 58.2676 150.413C62.2913 150.399 66.5293 150.229 70.9483 149.905L71.1935 162.273L71.4541 175.338C71.4629 175.718 71.6815 176.06 72.0216 176.228L87.8825 184C88.5561 184.331 89.3423 183.841 89.3423 183.09V147.806C93.4677 147.179 97.6946 146.437 102.003 145.583Z" fill="black"/>
<path d="M192.789 125.214C188.867 127.235 184.761 129.222 180.493 131.167C174.548 133.871 168.285 136.489 161.75 138.99C157.633 140.566 153.411 142.095 149.089 143.57C143.937 145.327 138.645 147.007 133.239 148.596C132.537 148.801 131.837 149.006 131.137 149.207C127.031 150.388 122.957 151.49 118.924 152.51C113.176 153.96 107.509 155.249 101.957 156.372C97.664 157.244 93.4393 158.017 89.2963 158.69C83.0443 159.71 76.9778 160.507 71.1498 161.083C66.6954 161.524 62.3802 161.838 58.224 162.021C26.8093 163.42 4.49776 157.527 0.701501 144.62C-4.98516 125.289 24.1438 96.8581 79.2834 76.9456C33.4345 94.0768 11.0413 117.934 15.8114 134.155C18.7751 144.228 34.9429 149.307 58.224 149.221C62.2477 149.207 66.4856 149.037 70.9025 148.713C76.7415 148.287 82.8963 147.587 89.2963 146.616C93.4216 145.989 97.6485 145.247 101.957 144.393C111.124 142.574 120.662 140.241 130.382 137.385C136.824 135.491 143.076 133.449 149.089 131.288C153.44 129.728 157.664 128.103 161.75 126.428C168.497 123.662 174.857 120.759 180.758 117.773C181.52 117.386 182.273 117 183.017 116.612C211.541 101.767 228.603 85.0267 224.977 72.6987C222.472 64.1806 210.527 59.2339 192.822 57.9603C192.824 57.2849 192.824 56.6182 192.822 55.9627C220.089 55.8148 239.066 61.7547 242.538 73.564C246.811 88.0927 226.536 107.846 192.789 125.214Z" fill="#FC6E27"/>
<path d="M192.869 57.3867C192.876 71.591 192.834 90.0114 192.825 93.8875C192.825 94.3267 192.54 94.713 192.123 94.8477L182.138 98.0572C181.491 98.2647 180.829 97.7923 180.813 97.1124L180.018 57.0887L179.994 55.8702L179.682 40.2245C179.676 39.8448 179.457 39.5027 179.115 39.3349L163.256 31.5628C162.583 31.2317 161.794 31.7217 161.794 32.4722V103.854C161.794 104.293 161.512 104.684 161.092 104.818L154.612 106.9L150.458 108.233C149.805 108.445 149.133 107.957 149.133 107.268V8.71887C149.133 7.92643 150.001 7.44303 150.677 7.8558C162.379 15.0076 174.473 21.5679 185.672 29.4791C187.07 30.468 189.382 32.7526 191.051 36.3307C192.566 39.5843 192.831 42.5201 192.842 44.1933C192.86 46.9414 192.867 50.8926 192.869 55.3868C192.871 56.0424 192.871 56.709 192.869 57.3867Z" fill="black"/>
</svg>
