<svg width="101" height="91" viewBox="0 0 101 91" fill="none" xmlns="http://www.w3.org/2000/svg">
<path d="M99.5536 35.8982L96.6782 54.7601C94.6597 67.9843 90.2717 77.2707 83.5161 82.6257C76.7583 87.9786 65.7626 90.6561 50.5333 90.6561H36.0084C22.9964 90.6561 13.7409 88.7291 8.24633 84.875C2.74735 81.0232 0 74.5137 0 65.3443C0 62.1812 0.302632 58.6516 0.90774 54.7579L3.78311 35.896C5.79941 22.674 10.1875 13.3854 16.9452 8.03036C23.7008 2.67532 34.6458 0 49.7757 0H64.3005C77.211 0 86.4643 1.92702 92.0627 5.77885C97.661 9.6329 100.459 16.1027 100.459 25.1881C100.461 28.4374 100.159 32.0044 99.5536 35.8982ZM72.1691 37.8451C72.4717 35.2493 72.6992 33.4039 72.8494 32.3091C72.9995 31.2142 73.0769 30.1392 73.0769 29.0841C73.0769 25.1109 71.9417 22.4135 69.6737 20.992C67.4034 19.5726 63.1411 18.8619 56.8891 18.8619H51.4432C43.6761 18.8619 38.5569 20.0604 36.0879 22.451C33.6145 24.8438 31.7749 29.9759 30.5647 37.8429L28.2944 52.9324C27.6893 56.5039 27.3867 59.4639 27.3867 61.8148C27.3867 65.6291 28.5219 68.2448 30.79 69.6641C33.0602 71.0835 37.2694 71.7942 43.4221 71.7942H48.8681C56.7345 71.7942 61.9022 70.5978 64.3756 68.2051C66.8468 65.8123 68.6864 60.7221 69.8967 52.9346L72.1691 37.8451Z" fill="black"/>
</svg>
