<svg width="59" height="32" viewBox="0 0 59 32" fill="none" xmlns="http://www.w3.org/2000/svg">
<path d="M53.8633 1.64365C52.2379 1.16907 50.6059 0.915221 48.9142 0.924051C43.3247 0.946124 37.733 0.932889 32.1435 0.932889C26.3949 0.932889 20.6464 0.946127 14.8934 0.92626C12.9567 0.919638 11.0375 1.12934 9.25533 1.84453C6.82827 2.82018 4.72585 4.21964 4.00811 6.98766C3.72764 8.06706 3.33676 9.11555 3.085 10.1994C2.36285 13.3051 1.665 16.4153 1.00468 19.5321C0.724212 20.8543 0.527626 22.1986 0.359785 23.5428C0.229488 24.5737 0.302388 25.6067 0.492312 26.6353C0.839035 28.4983 1.86374 29.7919 3.57527 30.624C5.64014 31.6306 7.84636 31.9418 10.0879 31.9484C21.267 31.9816 32.4482 31.9816 43.6295 31.9507C46.114 31.9418 48.5498 31.5467 50.8753 30.5931C51.635 30.2797 52.2688 29.8647 52.8055 29.24C54.1813 27.6397 55.1994 25.8561 55.6301 23.7834C56.4626 19.8124 57.2268 15.8281 58.0792 11.8637C58.3486 10.6099 58.5032 9.36277 58.5717 8.08692C58.7417 4.88184 56.3853 2.37649 53.8633 1.64365ZM43.0686 13.8945C42.6202 16.0731 42.1211 18.2408 41.6154 20.4084C41.3327 21.618 40.8822 21.9734 39.6278 22.0617C39.153 22.0948 38.6716 22.0771 38.1945 22.0771C31.6554 22.0794 25.114 22.0794 18.5727 22.0771C18.0956 22.0771 17.6142 22.097 17.1372 22.0639C15.874 21.9778 15.4875 21.5099 15.5803 20.2053C15.598 19.9669 15.6267 19.7285 15.6774 19.4967C16.1854 17.1636 16.7198 14.8348 17.2035 12.4972C17.4133 11.4863 18.0051 10.9786 19.0011 10.9035C19.7167 10.8505 20.4344 10.8108 21.1499 10.8086C24.2616 10.7998 27.3711 10.8042 30.4805 10.8042C33.8285 10.8064 37.1809 10.7799 40.5289 10.813C43.3358 10.8417 43.6251 11.1971 43.0686 13.8945Z" fill="black"/>
</svg>
