<svg width="58" height="32" viewBox="0 0 58 32" fill="none" xmlns="http://www.w3.org/2000/svg">
<path d="M54.2878 1.99199C53.6429 1.67854 52.9849 1.42911 52.2693 1.2768C51.0105 1.00971 49.7473 0.925831 48.4686 0.928038C41.8456 0.93466 35.2225 0.930248 28.6017 0.930248H19.0259C15.5167 0.930248 12.0031 0.925835 8.49394 0.932457C6.42464 0.936872 6.23028 0.691849 5.82614 2.98088C5.32704 5.79967 4.74402 8.60743 4.17203 11.4152C2.86465 17.8077 1.53741 24.2002 0.218976 30.5905C-0.00849228 31.6986 0.143859 31.948 1.18182 31.9524C5.25195 31.9701 9.31987 31.9701 13.39 31.9502C14.4213 31.9458 14.5848 31.8112 14.8476 30.7494C15.2473 29.127 15.5565 27.4803 15.9496 25.8579C16.4443 23.8183 16.06 23.8978 18.4208 23.8978C27.0381 23.8978 35.6554 23.9 44.2726 23.8956C45.1494 23.8956 46.0283 23.8448 46.9029 23.8514C48.6983 23.8625 50.3436 23.2422 52.0088 22.697C52.6227 22.4939 53.1372 22.1186 53.5237 21.5778C54.5042 20.2181 55.4008 18.8341 55.8271 17.1676C56.5161 14.468 57.0594 11.7397 57.468 8.98489C57.5497 8.43746 57.5674 7.87459 57.5828 7.31834C57.6623 4.82182 56.5205 3.06476 54.2878 1.99199ZM42.1636 12.9868C41.7793 15.0662 41.4569 15.3619 39.3235 15.3686C32.7093 15.3928 26.0929 15.3774 19.4764 15.3752C19.2379 15.3752 18.9972 15.3752 18.7631 15.3288C18.4053 15.2582 18.2088 14.9867 18.264 14.6512C18.4539 13.4746 18.6483 12.2937 18.9066 11.1326C19.165 9.99585 19.2335 9.95612 20.5718 9.95171C23.9198 9.93626 27.2655 9.94509 30.6135 9.94509C33.723 9.94509 36.8302 9.94067 39.9375 9.9495C40.4918 9.9495 41.0527 9.96495 41.6026 10.0356C42.0421 10.093 42.327 10.4373 42.327 10.8545C42.3292 11.5653 42.2939 12.2871 42.1636 12.9868Z" fill="black"/>
</svg>
