<svg width="58" height="32" viewBox="0 0 58 32" fill="none" xmlns="http://www.w3.org/2000/svg">
<path d="M57.7577 7.11108C57.698 4.44018 56.3531 2.62132 53.8421 1.68981C52.1681 1.06954 50.4389 0.921645 48.6655 0.923852C35.4901 0.937096 22.3146 0.930483 9.13693 0.93269C8.5782 0.93269 8.01729 0.934893 7.45856 0.941515C6.91087 0.950344 6.56413 1.22627 6.44045 1.75824C6.11802 3.1577 5.78012 4.55055 5.49082 5.95442C4.48599 10.8702 3.52095 15.7948 2.50066 20.7084C1.805 24.0614 1.03424 27.4011 0.320916 30.7518C0.128783 31.6591 0.356259 31.9438 1.26834 31.9482C5.34068 31.9659 9.41303 31.9703 13.4854 31.9526C14.8325 31.946 14.859 31.8864 15.1461 30.4583C15.5701 28.3503 15.9786 26.2378 16.4225 24.1342C16.6588 23.0239 16.809 22.865 17.8028 22.8584C21.7956 22.8363 25.7862 22.8561 29.7813 22.8385C30.4902 22.8363 30.9893 23.1166 31.3912 23.6751C32.3188 24.9708 33.2839 26.2422 34.1894 27.5534C35.0528 28.8005 36.0068 29.9727 36.9631 31.147C37.4865 31.7915 38.0585 31.9703 38.8182 31.9681C43.3698 31.9549 47.9213 31.9615 52.4751 31.9549C52.7114 31.9549 52.9698 31.9549 53.1774 31.8599C53.3894 31.7672 53.5285 31.5355 53.4071 31.2838C53.3077 31.0719 53.1751 30.8733 53.0338 30.6856C50.9358 27.9044 48.8334 25.1253 46.466 21.9975C48.1554 22.0063 49.4319 21.8099 50.6399 21.4236C53.4534 20.5208 55.5757 18.8608 56.2382 15.7926C56.6888 13.6934 57.1813 11.6008 57.5898 9.49281C57.7444 8.71582 57.7731 7.90352 57.7577 7.11108ZM42.6896 11.0115C42.535 11.7885 42.376 12.5721 42.1375 13.327C41.8725 14.1569 41.274 14.6492 40.3685 14.6889C39.971 14.7088 39.5712 14.7088 39.1737 14.7088C33.0255 14.7088 26.8816 14.711 20.7356 14.7066C20.2564 14.7066 19.7749 14.7088 19.3001 14.6602C18.949 14.6271 18.695 14.36 18.7369 14.0245C18.9048 12.6846 19.108 11.347 19.3244 10.0115C19.3841 9.64292 19.7087 9.51931 20.0377 9.50385C20.7555 9.47516 21.4732 9.46632 22.191 9.46411C25.0641 9.4619 27.9373 9.46411 30.8104 9.46411C33.8448 9.46411 36.877 9.46191 39.9114 9.46632C40.4679 9.46632 41.031 9.45087 41.5832 9.5215C42.4444 9.63408 42.853 10.1947 42.6896 11.0115Z" fill="black"/>
</svg>
