<svg width="60" height="32" viewBox="0 0 60 32" fill="none" xmlns="http://www.w3.org/2000/svg">
<path d="M59.1565 0.930751C58.4719 4.06961 57.9419 6.87516 57.2396 9.63656C56.2569 13.4972 55.7401 17.4462 54.9009 21.3333C54.4128 23.5937 53.843 25.801 52.6196 27.823C51.8422 29.1076 50.8882 30.0458 49.4991 30.6329C47.2487 31.5865 44.8791 31.9286 42.4874 31.9397C31.7102 31.9882 20.9331 31.9794 10.1538 31.9441C8.15519 31.9375 6.19407 31.5843 4.31028 30.8272C1.97597 29.8891 0.836479 28.0967 0.553801 25.7194C0.412462 24.5406 0.478688 23.3464 0.748116 22.1589C1.53873 18.6624 2.28518 15.1572 3.01396 11.6453C3.59478 8.83749 4.1226 6.02091 4.6747 3.20653C4.73654 2.89309 4.80057 2.58186 4.88007 2.27283C5.19808 1.02346 5.25332 0.977106 6.4525 0.930751C6.69101 0.921922 6.93172 0.928542 7.17023 0.928542C10.6838 0.928542 14.1952 0.926339 17.7088 0.932961C18.1836 0.932961 18.6673 0.941782 19.1288 1.03449C19.3011 1.06981 19.5352 1.34132 19.5506 1.52232C19.5838 1.90861 19.5286 2.31256 19.4513 2.69664C18.3912 7.92586 17.3179 13.1529 16.2557 18.3821C16.1298 19.0046 15.9995 19.6315 15.9619 20.2628C15.9156 21 16.3021 21.4592 17.0596 21.5739C17.6868 21.6689 18.3294 21.6976 18.9654 21.6976C24.9525 21.7064 30.9417 21.702 36.9288 21.702C37.3285 21.702 37.7282 21.7152 38.1257 21.6843C39.9234 21.5519 40.2546 21.2737 40.5991 19.4306C41.6923 13.5612 43.1013 7.76031 44.4175 1.93951C44.6207 1.04333 44.698 0.946198 45.7271 0.939576C48.841 0.917502 51.9549 0.928542 55.0687 0.928542C56.3275 0.930749 57.593 0.930751 59.1565 0.930751Z" fill="black"/>
</svg>
