<svg width="35" height="35" viewBox="0 0 35 35" fill="none" xmlns="http://www.w3.org/2000/svg">
<path d="M19.2705 35H13.6656C12.7294 35 11.9678 34.2384 11.9678 33.3022V20.66H8.69777C7.76157 20.66 7 19.8982 7 18.9622V13.545C7 12.6088 7.76157 11.8473 8.69777 11.8473H11.9678V9.13452C11.9678 6.44474 12.8124 4.1563 14.41 2.51701C16.0149 0.870247 18.2577 0 20.8959 0L25.1705 0.00694271C26.1051 0.00854492 26.8653 0.770111 26.8653 1.70471V6.73447C26.8653 7.67067 26.104 8.43224 25.1681 8.43224L22.2901 8.4333C21.4123 8.4333 21.1888 8.60928 21.141 8.66322C21.0623 8.75267 20.9685 9.00555 20.9685 9.70383V11.847H24.9518C25.2517 11.847 25.5422 11.921 25.7919 12.0604C26.3305 12.3613 26.6653 12.9303 26.6653 13.5453L26.6632 18.9625C26.6632 19.8982 25.9016 20.6598 24.9654 20.6598H20.9685V33.3022C20.9685 34.2384 20.2067 35 19.2705 35ZM14.0197 32.9482H18.9164V19.7414C18.9164 19.1163 19.4251 18.6079 20.05 18.6079H24.6114L24.6132 13.8991H20.0497C19.4249 13.8991 18.9164 13.3907 18.9164 12.7656V9.70383C18.9164 8.90221 18.9979 7.99057 19.603 7.30537C20.3341 6.47705 21.4863 6.38145 22.2895 6.38145L24.8135 6.38039V2.05826L20.8943 2.05185C16.6544 2.05185 14.0197 4.76593 14.0197 9.13452V12.7656C14.0197 13.3904 13.5112 13.8991 12.8864 13.8991H9.05185V18.6079H12.8864C13.5112 18.6079 14.0197 19.1163 14.0197 19.7414V32.9482Z" fill="#3C484D"/>
</svg>
