<svg width="50" height="50" viewBox="0 0 50 50" fill="none" xmlns="http://www.w3.org/2000/svg">
<path d="M18.5393 28.2291C18.3431 28.2291 14.2262 28.2304 12.3274 28.2285C11.3499 28.2279 11.0012 27.8766 11.0012 26.8929C10.9999 24.366 10.9993 21.8391 11.0012 19.3122C11.0018 18.341 11.3706 17.9704 12.3356 17.9697C14.2343 17.9685 18.3287 17.9691 18.5393 17.9691C18.5393 17.796 18.5387 14.1479 18.5393 12.4679C18.5406 9.98413 18.9837 7.60663 20.2456 5.42976C21.5374 3.20163 23.4174 1.67538 25.8268 0.792885C27.3699 0.22726 28.9718 0.00163565 30.6093 0.000385655C32.658 -0.000864344 34.7068 0.00101064 36.7562 0.00476063C37.6368 0.00601063 38.0274 0.395385 38.0293 1.28226C38.033 3.65913 38.033 6.03601 38.0293 8.41225C38.028 9.3085 37.6537 9.6685 36.753 9.6785C35.0737 9.69663 33.393 9.68538 31.7155 9.75288C30.0212 9.75288 29.1299 10.5804 29.1299 12.3341C29.0893 14.1891 29.113 16.046 29.113 17.9685C29.2718 17.9685 34.0937 17.9679 36.3474 17.9685C37.3712 17.9685 37.7212 18.3204 37.7212 19.3497C37.7212 21.8629 37.7205 24.3766 37.7187 26.8897C37.718 27.9041 37.3893 28.2279 36.3593 28.2285C34.1055 28.2297 29.3024 28.2291 29.0924 28.2291V48.5697C29.0924 49.6541 28.7512 49.9997 27.6812 49.9997C25.0724 49.9997 22.463 50.0003 19.8543 49.9997C18.9087 49.9997 18.5399 49.6322 18.5399 48.6866C18.5393 42.0622 18.5393 28.4616 18.5393 28.2291Z" fill="#3D6AD6"/>
</svg>
