<svg width="50" height="50" viewBox="0 0 50 50" fill="none" xmlns="http://www.w3.org/2000/svg">
<path d="M27.5293 50H19.5222C18.1848 50 17.0969 48.912 17.0969 47.5746V29.5143H12.4254C11.088 29.5143 10 28.426 10 27.0889V19.3501C10 18.0126 11.088 16.9247 12.4254 16.9247H17.0969V13.0493C17.0969 9.20677 18.3035 5.93758 20.5858 3.59573C22.8784 1.24321 26.0824 0 29.8513 0L35.9579 0.00991816C37.293 0.012207 38.3791 1.10016 38.3791 2.4353V9.62067C38.3791 10.9581 37.2915 12.0461 35.9544 12.0461L31.843 12.0476C30.5891 12.0476 30.2698 12.299 30.2015 12.376C30.089 12.5038 29.9551 12.8651 29.9551 13.8626V16.9243H35.6454C36.0738 16.9243 36.4889 17.03 36.8456 17.2291C37.615 17.659 38.0933 18.4719 38.0933 19.3504L38.0903 27.0893C38.0903 28.426 37.0023 29.5139 35.6649 29.5139H29.9551V47.5746C29.9551 48.912 28.8667 50 27.5293 50ZM20.0281 47.0688H27.0235V28.2021C27.0235 27.309 27.7502 26.5827 28.6428 26.5827H35.1591L35.1617 19.8559H28.6424C27.7498 19.8559 27.0235 19.1296 27.0235 18.2365V13.8626C27.0235 12.7174 27.1398 11.4151 28.0042 10.4362C29.0487 9.25293 30.6947 9.11636 31.8422 9.11636L35.4478 9.11484V2.94037L29.849 2.93121C23.792 2.93121 20.0281 6.80847 20.0281 13.0493V18.2365C20.0281 19.1292 19.3018 19.8559 18.4091 19.8559H12.9312V26.5827H18.4091C19.3018 26.5827 20.0281 27.309 20.0281 28.2021V47.0688Z" fill="#3C484D"/>
</svg>
