<svg width="50" height="50" viewBox="0 0 50 50" fill="none" xmlns="http://www.w3.org/2000/svg">
<path d="M0.763184 49.5965H13.7096V15.5522H0.763184V49.5965ZM3.69287 18.4819H10.7799V46.6667H3.69287V18.4819Z" fill="#3C484D"/>
<path d="M7.23623 0C3.24609 0 0 3.24619 0 7.23623C0 11.2263 3.24609 14.4726 7.23623 14.4726C11.2264 14.4726 14.4726 11.2264 14.4726 7.23623C14.4726 3.24609 11.2263 0 7.23623 0ZM2.92969 7.23623C2.92969 4.86162 4.86152 2.92969 7.23623 2.92969C9.61094 2.92969 11.5429 4.86152 11.5429 7.23623C11.5429 9.61094 9.61094 11.5429 7.23623 11.5429C4.86152 11.5429 2.92969 9.61084 2.92969 7.23623Z" fill="#3C484D"/>
<path d="M49.9688 26.2426C49.508 19.6161 43.9807 14.5098 37.128 14.5098C34.0629 14.5098 31.1694 15.5754 28.8897 17.4662V15.5521H16.4844V49.5964H29.4309V30.9769C29.4309 28.8784 31.138 27.1712 33.2365 27.1712C35.3349 27.1712 37.0421 28.8784 37.0421 30.9777L37.0546 49.5965H50.0001V26.274L49.9688 26.2426ZM26.5012 46.6669H19.4141V18.4819H25.9599V22.6662L28.3041 22.6797L28.7396 22.0035C30.5805 19.1456 33.7163 17.4396 37.128 17.4396C42.5808 17.4396 46.9467 21.5999 47.0675 26.9107L47.0704 46.6669H39.9823L39.9718 30.9769C39.9718 27.263 36.9503 24.2415 33.2365 24.2415C29.5227 24.2415 26.5012 27.263 26.5012 30.9769V46.6669Z" fill="#3C484D"/>
</svg>
