<svg width="44" height="50" viewBox="0 0 44 50" fill="none" xmlns="http://www.w3.org/2000/svg">
<path d="M42.2591 10.9831C37.0108 10.9831 32.741 6.71318 32.741 1.46484C32.741 0.655859 32.0852 0 31.2762 0H23.4311C22.6221 0 21.9662 0.655859 21.9662 1.46484V33.6296C21.9662 36.715 19.456 39.2252 16.3704 39.2252C13.285 39.2252 10.7748 36.715 10.7748 33.6296C10.7748 30.544 13.285 28.0338 16.3704 28.0338C17.1794 28.0338 17.8353 27.3779 17.8353 26.5689V18.7238C17.8353 17.9148 17.1794 17.259 16.3704 17.259C7.34375 17.259 0 24.6028 0 33.6296C9.76563e-05 42.6563 7.34375 50 16.3705 50C25.3973 50 32.7411 42.6563 32.7411 33.6296V19.3923C35.6567 20.9465 38.9006 21.7579 42.2592 21.7579C43.0682 21.7579 43.724 21.1021 43.724 20.2931V12.4479C43.7239 11.639 43.0681 10.9831 42.2591 10.9831ZM40.7942 18.7676C37.667 18.5075 34.6975 17.415 32.1316 15.5692C31.6855 15.2483 31.0973 15.2041 30.6081 15.4547C30.119 15.7054 29.8113 16.2087 29.8113 16.7583V33.6296C29.8113 41.0408 23.7817 47.0703 16.3704 47.0703C8.95918 47.0703 2.92969 41.0408 2.92969 33.6296C2.92969 26.7131 8.18076 21.0001 14.9056 20.268V25.2301C10.9 25.9264 7.84512 29.4279 7.84512 33.6296C7.84512 38.3305 11.6695 42.1549 16.3704 42.1549C21.0714 42.1549 24.8959 38.3305 24.8959 33.6296V2.92969H29.897C30.5677 8.625 35.099 13.1563 40.7941 13.8271V18.7676H40.7942Z" fill="#3C484D"/>
</svg>
