<svg width="44" height="50" viewBox="0 0 44 50" fill="none" xmlns="http://www.w3.org/2000/svg">
<path d="M14.7894 25.673C10.8466 25.673 7.66127 28.8583 7.71954 32.7623C7.75838 35.2678 9.1374 37.4432 11.1671 38.6571C10.4776 37.5986 10.0697 36.3458 10.0503 34.9959C9.992 31.0919 13.1773 27.9066 17.1202 27.9066C17.8971 27.9066 18.6449 28.0328 19.3441 28.2562V20.4385C18.6157 20.3317 17.8679 20.2734 17.1202 20.2734C17.0813 20.2734 17.0522 20.2734 17.0133 20.2734V26.0226C16.3141 25.7992 15.5663 25.673 14.7894 25.673Z" fill="#F00044"/>
<path d="M31.8321 2.23047H31.7739H29.7539C30.3366 5.1536 31.9778 7.69798 34.2697 9.42661C32.7644 7.43578 31.8516 4.94966 31.8321 2.23047Z" fill="#F00044"/>
<path d="M43.7195 14.1277C42.9523 14.1277 42.2142 14.05 41.4859 13.9141V19.5175C38.8444 19.5175 36.2806 19.0028 33.8721 17.9734C32.3183 17.3131 30.8713 16.4682 29.5409 15.4485L29.5797 32.725C29.5603 36.6096 28.0259 40.2514 25.2484 42.9997C22.9857 45.2333 20.1208 46.6609 17.0132 47.1173C16.2848 47.2241 15.537 47.2824 14.7892 47.2824C11.4679 47.2824 8.30203 46.2044 5.72852 44.2136C6.01986 44.5632 6.33062 44.9031 6.67052 45.2333C9.4674 47.9913 13.1772 49.516 17.1297 49.516C17.8775 49.516 18.6252 49.4578 19.3536 49.3509C22.4612 48.8945 25.3261 47.4669 27.5889 45.2333C30.3663 42.485 31.9007 38.8432 31.9201 34.9587L31.7745 17.6821C33.0952 18.7018 34.5422 19.5564 36.1058 20.207C38.5239 21.2267 41.0877 21.7512 43.7195 21.7512" fill="#F00044"/>
<path d="M6.64264 24.5787C9.41039 21.8304 13.091 20.3057 17.0144 20.2766V18.2081C16.2861 18.1012 15.5383 18.043 14.7905 18.043C10.8282 18.043 7.10878 19.5677 4.3119 22.3451C1.56358 25.074 -0.0096667 28.8032 4.46961e-05 32.678C4.46961e-05 36.582 1.54416 40.2432 4.33133 43.011C4.77805 43.448 5.23449 43.8559 5.72006 44.2249C3.52528 41.6125 2.33078 38.3495 2.32107 34.9117C2.33078 31.0368 3.89431 27.3076 6.64264 24.5787Z" fill="#08FFF9"/>
<path d="M41.4871 13.9164V11.8381H41.4677C38.7679 11.8381 36.2818 10.9447 34.2812 9.42969C36.0196 11.7216 38.564 13.3531 41.4871 13.9164Z" fill="#08FFF9"/>
<path d="M16.7248 41.8755C17.6474 41.9241 18.5312 41.7978 19.3469 41.5356C22.1632 40.613 24.1929 37.991 24.1929 34.9027L24.2026 23.3462V2.23362H29.7575C29.6119 1.50527 29.5342 0.7672 29.5245 0H21.8719V21.1029L21.8622 32.6594C21.8622 35.7476 19.8325 38.3697 17.0162 39.2923C16.2004 39.5642 15.3167 39.6905 14.3941 39.6322C13.219 39.5642 12.1216 39.2146 11.1699 38.6513C12.3644 40.4965 14.4038 41.7493 16.7248 41.8755Z" fill="#08FFF9"/>
<path d="M17.0157 47.1204C20.1234 46.664 22.9882 45.2364 25.251 43.0028C28.0284 40.2545 29.5628 36.6127 29.5823 32.7282L29.5434 15.4516C30.8642 16.4713 32.3112 17.3259 33.8747 17.9765C36.2928 18.9962 38.8566 19.5207 41.4884 19.5207V13.9172C38.5653 13.3539 36.0209 11.7224 34.2826 9.43052C31.9907 7.70189 30.3397 5.1575 29.7668 2.23438H24.2021V23.3372L24.1924 34.8938C24.1924 37.982 22.1627 40.6041 19.3464 41.5267C18.5307 41.7986 17.6469 41.9248 16.7244 41.8666C14.3936 41.7403 12.3639 40.4876 11.1694 38.6521C9.13976 37.4479 7.76075 35.2628 7.7219 32.7573C7.66363 28.8533 10.849 25.668 14.7918 25.668C15.5687 25.668 16.3165 25.7942 17.0157 26.0176V20.2684C13.0923 20.2976 9.41168 21.8223 6.64394 24.5706C3.89561 27.2995 2.32236 31.0287 2.33208 34.8938C2.33208 38.3316 3.52658 41.5947 5.73106 44.207C8.3143 46.1979 11.4705 47.2758 14.7918 47.2758C15.5396 47.2855 16.2874 47.2273 17.0157 47.1204Z" fill="black"/>
</svg>
