<svg width="50" height="42" viewBox="0 0 50 42" fill="none" xmlns="http://www.w3.org/2000/svg">
<path d="M0.733882 36.5115C5.41166 39.4799 10.8557 41.0483 16.4766 41.0483C24.708 41.0483 32.251 37.8863 37.7182 32.1453C42.9497 26.6507 45.8275 19.2678 45.6843 11.7753C47.6674 10.0785 50 6.83862 50 3.68081C50 2.47031 48.6864 1.70191 47.6211 2.31873C45.758 3.41344 44.0591 3.69975 42.3118 3.20924C38.7434 -0.268568 33.432 -1.00118 28.9563 1.41139C25.0448 3.5166 22.8702 7.36913 23.0659 11.5796C16.4577 10.7733 10.3526 7.45966 6.09585 2.31031C5.39692 1.47034 4.07064 1.56928 3.51486 2.52083C1.46439 6.03232 1.48544 10.1017 3.26855 13.3879C2.42016 13.5374 1.89596 14.2511 1.89596 15.0237C1.89596 18.3267 3.38224 21.3625 5.77586 23.434C5.32955 23.8635 5.18219 24.5013 5.37166 25.0697C6.42426 28.2318 8.80736 30.7033 11.7862 31.9411C8.54632 33.4885 4.96325 34.0042 1.77386 33.6127C0.123371 33.3895 -0.691345 35.6084 0.733882 36.5115ZM16.9082 32.4822C18.0892 31.5748 17.4619 29.6844 15.9798 29.6528C13.3694 29.598 10.9926 28.3118 9.51261 26.2887C10.2263 26.2423 10.9652 26.1329 11.6683 25.9434C13.2704 25.5097 13.1946 23.1982 11.5673 22.8719C8.61368 22.2782 6.29585 20.1267 5.42639 17.3562C6.22006 17.552 7.02846 17.6615 7.83475 17.6762C9.43261 17.6847 10.0368 15.6363 8.73368 14.7795C5.79691 12.8448 4.54431 9.42803 5.37376 6.21548C10.5021 11.4111 17.4598 14.5416 24.8196 14.8953C25.8743 14.9605 26.6659 13.969 26.4343 12.9648C25.4343 8.63015 27.8553 5.59234 30.4552 4.19237C33.0278 2.80293 37.1582 2.36926 40.3245 5.69128C41.2655 6.68283 44.4401 6.72073 46.0548 6.34389C45.3306 7.70807 44.217 9.00278 43.1749 9.73118C42.7307 10.0427 42.476 10.5606 42.5033 11.1017C42.8423 18.0173 40.2655 24.8929 35.4341 29.9643C30.5668 35.0737 23.8365 37.8884 16.4787 37.8884C13.5525 37.8884 10.6831 37.4126 7.97159 36.4947C11.2136 35.8674 14.2935 34.4948 16.9082 32.4822Z" fill="#3C484D"/>
</svg>
