<svg width="50" height="42" viewBox="0 0 50 42" fill="none" xmlns="http://www.w3.org/2000/svg">
<path d="M50 5.73538C48.1406 6.53846 46.1594 7.07077 44.0937 7.32923C46.2187 6.08 47.8406 4.11692 48.6031 1.75077C46.6219 2.91385 44.4344 3.73538 42.1031 4.19385C40.2219 2.22154 37.5406 1 34.6156 1C28.9406 1 24.3719 5.53538 24.3719 11.0954C24.3719 11.8954 24.4406 12.6646 24.6094 13.3969C16.0875 12.9877 8.54688 8.96615 3.48125 2.84C2.59687 4.35077 2.07813 6.08 2.07813 7.94154C2.07813 11.4369 3.90625 14.5354 6.63125 16.3292C4.98437 16.2985 3.36875 15.8277 2 15.0862C2 15.1169 2 15.1569 2 15.1969C2 20.1015 5.55312 24.1754 10.2125 25.1138C9.37812 25.3385 8.46875 25.4462 7.525 25.4462C6.86875 25.4462 6.20625 25.4092 5.58437 25.2738C6.9125 29.2708 10.6813 32.2092 15.1625 32.3046C11.675 34.9908 7.24688 36.6092 2.45313 36.6092C1.6125 36.6092 0.80625 36.5723 0 36.4708C4.54062 39.3538 9.92188 41 15.725 41C34.5875 41 44.9 25.6154 44.9 12.28C44.9 11.8338 44.8844 11.4031 44.8625 10.9754C46.8969 9.55385 48.6062 7.77846 50 5.73538Z" fill="#03A9F4"/>
</svg>
