<svg width="50" height="32" viewBox="0 0 50 32" fill="none" xmlns="http://www.w3.org/2000/svg">
<path d="M25.3018 31.2497C32.5351 31.2497 29.9559 26.6705 30.5143 25.3539C30.5059 24.3706 30.4976 23.4247 30.5309 22.8497C30.9892 22.9789 32.0705 23.5268 34.3038 25.6976C37.7517 29.1768 38.6329 31.2497 41.4183 31.2497H46.5453C48.1703 31.2497 49.0161 30.5767 49.439 30.0122C49.8474 29.4663 50.2474 28.508 49.8099 27.0164C48.6661 23.4247 41.9954 17.2227 41.5808 16.5686C41.6433 16.4477 41.7433 16.2873 41.7954 16.204H41.7912C43.1079 14.4644 48.1328 6.93534 48.8724 3.92287C48.8745 3.91871 48.8766 3.91246 48.8766 3.90621C49.2765 2.53122 48.9099 1.63957 48.5307 1.1354C47.9599 0.381246 47.0516 0 45.8245 0H40.6975C38.9808 0 37.6788 0.864574 37.0204 2.44164C35.9184 5.24369 32.8226 11.0061 30.5018 13.0457C30.4309 10.1561 30.4788 7.94991 30.5163 6.31035C30.5913 3.11247 30.833 0 27.5143 0H19.456C17.3769 0 15.3873 2.27081 17.5415 4.96661C19.4248 7.32909 18.2186 8.64574 18.6248 15.1998C17.0415 13.5019 14.2248 8.91657 12.2332 3.05622C11.6749 1.47082 10.829 0.00208316 8.44782 0.00208316H3.3208C1.24165 0.00208316 0 1.1354 0 3.0333C0 7.29575 9.43531 31.2497 25.3018 31.2497ZM8.44782 3.12705C8.8999 3.12705 8.94574 3.12705 9.28115 4.07912C11.3207 10.0853 15.8957 18.9727 19.2373 18.9727C21.7477 18.9727 21.7477 16.3998 21.7477 15.4311L21.7456 7.71866C21.6081 5.16661 20.6789 3.89579 20.0685 3.12497L27.3768 3.1333C27.381 3.16872 27.3351 11.6645 27.3976 13.7228C27.3976 16.6456 29.7184 18.3206 33.3413 14.654C37.1642 10.3395 39.8079 3.88954 39.9141 3.62704C40.0704 3.25205 40.2058 3.12497 40.6975 3.12497H45.8245H45.8453C45.8433 3.13122 45.8432 3.13747 45.8412 3.14371C45.3724 5.33119 40.7454 12.3019 39.1975 14.4665C39.1725 14.4998 39.1496 14.5353 39.1267 14.5707C38.4454 15.6832 37.8913 16.9123 39.2204 18.6415C39.3412 18.7873 39.6579 19.129 40.1162 19.604C41.5412 21.0748 46.4287 26.1039 46.862 28.1039C46.5745 28.1497 46.262 28.1164 41.4183 28.1268C40.3871 28.1268 39.5808 26.5851 36.5038 23.481C33.7371 20.7894 31.9413 19.6894 30.3059 19.6894C27.131 19.6894 27.3622 22.2664 27.3914 25.3831C27.4018 28.7622 27.381 27.6934 27.4039 27.9059C27.2185 27.9789 26.6872 28.1247 25.3018 28.1247C12.0832 28.1247 3.47496 7.14367 3.14372 3.1333C3.2583 3.12288 4.83536 3.12913 8.44782 3.12705Z" fill="#3C484D"/>
</svg>
