<svg width="50" height="32" viewBox="0 0 50 32" fill="none" xmlns="http://www.w3.org/2000/svg">
<path d="M24.465 31.1183H27.4527C27.4527 31.1183 28.3559 31.0088 28.8153 30.4645C29.2404 29.9647 29.2247 29.0267 29.2247 29.0267C29.2247 29.0267 29.1654 24.6346 31.028 23.9876C32.8625 23.3508 35.2189 28.2325 37.716 30.1119C39.6036 31.5326 41.0381 31.221 41.0381 31.221L47.7167 31.1183C47.7167 31.1183 51.2107 30.8821 49.5544 27.873C49.42 27.6266 48.5887 25.6479 44.5884 21.581C40.4006 17.3223 40.9631 18.0138 46.0072 10.6503C49.0793 6.16571 50.3076 3.42704 49.9231 2.25626C49.5575 1.14026 47.298 1.43466 47.298 1.43466L39.7849 1.48259C39.7849 1.48259 39.2286 1.40043 38.813 1.67087C38.4098 1.93789 38.1504 2.55409 38.1504 2.55409C38.1504 2.55409 36.9597 6.02535 35.3721 8.97626C32.0249 15.2033 30.6842 15.5319 30.1373 15.1451C28.8653 14.2448 29.1841 11.5232 29.1841 9.59246C29.1841 3.55713 30.0185 1.04098 27.5559 0.390549C26.7371 0.17488 26.137 0.0311 24.0462 0.00713666C21.3648 -0.0236733 19.0927 0.0174066 17.8083 0.705496C16.952 1.16422 16.2925 2.1878 16.6957 2.24599C17.1926 2.31788 18.3177 2.57806 18.9146 3.46812C19.6865 4.61494 19.6584 7.19613 19.6584 7.19613C19.6584 7.19613 20.1022 14.2995 18.624 15.1828C17.6083 15.7887 16.2175 14.5529 13.2329 8.90094C11.7047 6.00823 10.5484 2.80742 10.5484 2.80742C10.5484 2.80742 10.3265 2.21176 9.92956 1.89339C9.44827 1.50656 8.77322 1.38332 8.77322 1.38332L1.62894 1.43124C1.62894 1.43124 0.556989 1.46548 0.16321 1.97555C-0.186816 2.43085 0.135083 3.36885 0.135083 3.36885C0.135083 3.36885 5.72925 17.7023 12.061 24.929C17.8708 31.5531 24.465 31.1183 24.465 31.1183Z" fill="#1E88E5"/>
</svg>
