<svg width="50" height="38" viewBox="0 0 50 38" fill="none" xmlns="http://www.w3.org/2000/svg">
<path d="M32.696 16.6986L21.6499 10.6546C21.0147 10.3071 20.264 10.3201 19.6415 10.6889C19.0185 11.0582 18.647 11.7105 18.647 12.4345V24.4187C18.647 25.1393 19.0162 25.7904 19.635 26.1601C19.9581 26.3531 20.3163 26.45 20.6752 26.45C21.0041 26.45 21.3336 26.3688 21.6369 26.2055L32.6834 20.2657C33.3392 19.9128 33.7485 19.2311 33.7515 18.4861C33.7542 17.7411 33.3498 17.0564 32.696 16.6986ZM21.577 22.9111V13.9543L29.8327 18.4716L21.577 22.9111Z" fill="#3C484D"/>
<path d="M49.6319 8.93815L49.6296 8.91526C49.5873 8.51281 49.1657 4.93313 47.4255 3.11239C45.414 0.970833 43.1336 0.710673 42.0369 0.585933C41.9461 0.575633 41.8629 0.566097 41.7885 0.556179L41.7012 0.547023C35.0911 0.0663753 25.1085 0.000762934 25.0086 0.000381467L24.9998 0L24.991 0.000381467C24.8911 0.000762934 14.9085 0.0663753 8.23892 0.547023L8.1508 0.556179C8.07985 0.565715 8.00165 0.574489 7.91658 0.584407C6.83245 0.709528 4.57646 0.97007 2.55926 3.18906C0.901788 4.99035 0.422665 8.49336 0.373456 8.88703L0.367734 8.93815C0.352857 9.10561 0 13.0923 0 17.0947V20.8361C0 24.8384 0.352857 28.8252 0.367734 28.993L0.370404 29.0182C0.412747 29.4141 0.833886 32.9282 2.56613 34.7497C4.45744 36.8196 6.84886 37.0935 8.13516 37.2407C8.33848 37.264 8.51358 37.2838 8.63298 37.3048L8.74856 37.3208C12.5651 37.684 24.5314 37.8629 25.0387 37.8701L25.054 37.8705L25.0692 37.8701C25.1692 37.8697 35.1514 37.8041 41.7615 37.3235L41.8488 37.3143C41.9324 37.3033 42.0262 37.2933 42.1292 37.2827C43.2072 37.1682 45.451 36.9306 47.4404 34.7417C49.0978 32.94 49.5773 29.437 49.6262 29.0437L49.6319 28.9926C49.6468 28.8248 50 24.8384 50 20.8361V17.0947C49.9996 13.0923 49.6468 9.10599 49.6319 8.93815ZM47.0696 20.8361C47.0696 24.5405 46.7461 28.3556 46.7156 28.7058C46.5912 29.6705 46.0858 31.8868 45.2782 32.7646C44.0331 34.1344 42.754 34.2702 41.8202 34.369C41.7073 34.3808 41.6028 34.3923 41.5082 34.4041C35.1148 34.8664 25.5091 34.9374 25.0666 34.9401C24.5703 34.9328 12.7791 34.7524 9.07891 34.4087C8.88932 34.3778 8.68447 34.3541 8.46856 34.3297C7.37337 34.2042 5.87421 34.0326 4.72141 32.7646L4.69433 32.7356C3.90088 31.9089 3.40993 29.8364 3.28519 28.7172C3.26192 28.4525 2.93005 24.5924 2.93005 20.8361V17.0947C2.93005 13.3944 3.25277 9.58359 3.28405 9.22616C3.43244 8.08977 3.94742 6.00772 4.72141 5.16621C6.00467 3.75478 7.35773 3.59838 8.25265 3.495C8.3381 3.48508 8.41783 3.47593 8.49145 3.46639C14.9779 3.00176 24.6527 2.93272 24.9998 2.93005C25.3469 2.93234 35.0183 3.00176 41.4471 3.46639C41.5261 3.47631 41.6123 3.48623 41.705 3.49691C42.6255 3.60181 44.0167 3.7605 45.2935 5.12234L45.3053 5.13492C46.0987 5.96156 46.5897 8.07031 46.7144 9.21204C46.7366 9.4619 47.0696 13.3304 47.0696 17.0947V20.8361Z" fill="#3C484D"/>
</svg>
