<svg width="54" height="38" viewBox="0 0 54 38" fill="none" xmlns="http://www.w3.org/2000/svg">
<rect x="12" y="4" width="30" height="30" fill="white"/>
<path d="M42.5478 0H11.153C4.99334 0 0 4.99334 0 11.153V26.847C0 33.0067 4.99334 38 11.153 38H42.5478C48.7074 38 53.7007 33.0067 53.7007 26.847V11.153C53.7007 4.99334 48.7074 0 42.5478 0ZM35.0051 19.7636L20.3207 26.7671C19.9295 26.9537 19.4775 26.6685 19.4775 26.235V11.7901C19.4775 11.3505 19.9413 11.0656 20.3334 11.2643L35.0178 18.7056C35.4544 18.9268 35.4468 19.553 35.0051 19.7636Z" fill="#F61C0D"/>
</svg>
