<svg width="216" height="216" viewBox="0 0 216 216" fill="none" xmlns="http://www.w3.org/2000/svg">
<g clip-path="url(#clip0_6281_11807)">
<path d="M7.5 65.088C11.643 65.088 15 61.73 15 57.588V25.61L63.305 73.905C64.77 75.369 66.689 76.101 68.608 76.101C70.528 76.101 72.448 75.369 73.912 73.904C76.841 70.975 76.841 66.226 73.911 63.298L25.604 15.002H57.589C61.731 15.002 65.089 11.644 65.089 7.50195C65.089 3.35995 61.732 0.00195312 57.589 0.00195312H7.5C3.357 0.00195312 0 3.35995 0 7.50195V57.589C0 61.73 3.357 65.088 7.5 65.088Z" fill="white"/>
<path d="M207.85 150.262C203.707 150.262 200.35 153.62 200.35 157.762V189.741L150.558 139.949C147.628 137.02 142.88 137.02 139.951 139.949C137.022 142.878 137.022 147.627 139.951 150.555L189.742 200.346H157.765C153.622 200.346 150.265 203.704 150.265 207.846C150.265 211.988 153.622 215.346 157.765 215.346H207.851C211.994 215.346 215.351 211.988 215.351 207.846V157.762C215.35 153.62 211.992 150.262 207.85 150.262Z" fill="white"/>
<path d="M64.792 139.949L15.005 189.74V157.762C15.005 153.62 11.648 150.262 7.505 150.262C3.362 150.262 0.00500488 153.62 0.00500488 157.762V207.848C0.00500488 211.99 3.362 215.348 7.505 215.348H57.589C61.731 215.348 65.089 211.99 65.089 207.848C65.089 203.706 61.732 200.348 57.589 200.348H25.611L75.399 150.555C78.328 147.626 78.328 142.877 75.398 139.948C72.471 137.02 67.722 137.02 64.792 139.949Z" fill="white"/>
<path d="M207.85 0.00195312H157.764C153.621 0.00195312 150.264 3.35995 150.264 7.50195C150.264 11.644 153.621 15.002 157.764 15.002H189.743L141.445 63.303C138.516 66.232 138.516 70.981 141.446 73.91C142.91 75.374 144.83 76.106 146.749 76.106C148.668 76.106 150.588 75.373 152.053 73.909L200.351 25.608V57.588C200.351 61.73 203.708 65.088 207.851 65.088C211.994 65.088 215.351 61.73 215.351 57.588V7.50195C215.35 3.35895 211.992 0.00195312 207.85 0.00195312Z" fill="white"/>
</g>
<defs>
<clipPath id="clip0_6281_11807">
<rect width="215.35" height="215.35" fill="white"/>
</clipPath>
</defs>
</svg>
