<svg width="215" height="215" viewBox="0 0 215 215" fill="none" xmlns="http://www.w3.org/2000/svg">
<g clip-path="url(#clip0_6282_11828)">
<path d="M107.5 0C48.2255 0 0 48.2255 0 107.5C0 166.774 48.2255 215 107.5 215C166.774 215 215 166.774 215 107.5C215 48.2255 166.774 0 107.5 0ZM107.5 201.562C55.6329 201.562 13.4375 159.367 13.4375 107.5C13.4375 55.6329 55.6329 13.4375 107.5 13.4375C159.367 13.4375 201.562 55.6329 201.562 107.5C201.562 159.367 159.367 201.562 107.5 201.562ZM152.563 102.75C155.188 105.375 155.188 109.626 152.563 112.25L118.969 145.844C117.657 147.156 115.937 147.812 114.219 147.812C112.5 147.812 110.78 147.156 109.469 145.844C106.843 143.219 106.843 138.967 109.469 136.344L131.593 114.219H67.1875C63.4771 114.219 60.4688 111.214 60.4688 107.5C60.4688 103.786 63.4771 100.781 67.1875 100.781H131.593L109.469 78.6564C106.843 76.0311 106.843 71.7798 109.469 69.1561C112.094 66.5324 116.345 66.5307 118.969 69.1561L152.563 102.75Z" fill="white"/>
</g>
<defs>
<clipPath id="clip0_6282_11828">
<rect width="215" height="215" fill="white"/>
</clipPath>
</defs>
</svg>
