<svg width="66" height="66" viewBox="0 0 66 66" fill="none" xmlns="http://www.w3.org/2000/svg">
<path d="M57.8618 8.13901C54.5629 4.84812 50.0934 3 45.4337 3C40.774 3 36.3045 4.84812 33.0055 8.13901L31.3482 9.79587C31.1305 10.0135 30.9578 10.2718 30.84 10.5562C30.7222 10.8405 30.6615 11.1453 30.6615 11.453C30.6615 11.7608 30.7221 12.0656 30.8398 12.3499C30.9576 12.6343 31.1302 12.8927 31.3478 13.1103L34.6614 16.4238C35.1009 16.8633 35.6969 17.1102 36.3183 17.1102C36.9398 17.1103 37.5358 16.8635 37.9753 16.4241L39.6332 14.7668C41.1716 13.2286 43.2581 12.3645 45.4335 12.3646C47.609 12.3647 49.6953 13.229 51.2336 14.7672C52.7719 16.3055 53.6361 18.3919 53.6362 20.5673C53.6363 22.7428 52.7722 24.8292 51.2341 26.3676L42.9471 34.6522C41.4952 36.0879 39.5627 36.9345 37.523 37.0284C35.4833 37.1222 33.4811 36.4566 31.9036 35.1603L30.1052 33.6583C29.8689 33.4609 29.5961 33.3121 29.3023 33.2202C29.0085 33.1283 28.6995 33.0952 28.3929 33.1228C28.0863 33.1503 27.7882 33.2381 27.5155 33.3809C27.2428 33.5237 27.001 33.7189 26.8037 33.9552L23.8002 37.5538C23.4019 38.031 23.2095 38.6468 23.2653 39.2659C23.3211 39.8849 23.6205 40.4565 24.0977 40.8548L25.8961 42.3557C29.2562 45.1848 33.5584 46.645 37.9463 46.4456C42.3343 46.2463 46.4863 44.4021 49.5761 41.28L57.863 32.9953C61.1588 29.6989 63.0102 25.2283 63.01 20.5669C63.0098 15.9055 61.158 11.4351 57.8618 8.13901Z" fill="black"/>
<path d="M31.3493 49.5665C30.9098 49.1271 30.3139 48.8802 29.6924 48.8801C29.0709 48.8801 28.4749 49.1269 28.0354 49.5662L26.3775 51.2236C24.8391 52.7617 22.7527 53.6258 20.5772 53.6257C18.4017 53.6256 16.3154 52.7614 14.7771 51.2231C13.2388 49.6848 12.3746 47.5985 12.3745 45.423C12.3744 43.2476 13.2385 41.1611 14.7766 39.6227L23.0636 31.3381C24.5149 29.9014 26.4476 29.0541 28.4877 28.9602C30.5277 28.8663 32.5301 29.5326 34.1072 30.8301L35.9056 32.3321C36.1418 32.5294 36.4146 32.6783 36.7084 32.7702C37.0022 32.8621 37.3112 32.8952 37.6178 32.8676C37.9244 32.84 38.2225 32.7523 38.4952 32.6095C38.7679 32.4666 39.0098 32.2715 39.207 32.0351L42.2105 28.4366C42.6088 27.9594 42.8012 27.3435 42.7453 26.7244C42.6895 26.1054 42.3901 25.5339 41.9129 25.1356L40.1145 23.6347C36.7545 20.8054 32.4523 19.3451 28.0643 19.5444C23.6762 19.7437 19.5241 21.5881 16.4345 24.7104L8.14775 32.995C4.8516 36.2913 2.99989 40.762 3 45.4236C3.00011 50.0851 4.85201 54.5558 8.14831 57.8519C11.4446 61.1481 15.9153 62.9998 20.5769 62.9997C25.2385 62.9996 29.7091 61.1476 33.0052 57.8513L34.6626 56.1945C34.8802 55.9769 35.0529 55.7185 35.1707 55.4342C35.2886 55.1499 35.3492 54.8451 35.3492 54.5373C35.3493 54.2295 35.2887 53.9248 35.1709 53.6404C35.0531 53.356 34.8805 53.0977 34.6629 52.88L31.3493 49.5665Z" fill="black"/>
</svg>
