<svg width="66" height="66" viewBox="0 0 66 66" fill="none" xmlns="http://www.w3.org/2000/svg">
<path d="M50.0085 3H16.175C13.4195 3 11 5.33242 11 8.09323V59.5915C11 60.5156 11.25 61.2858 11.6529 61.8809C12.1347 62.5923 12.9104 63 13.7423 62.9997C14.5288 62.9997 15.3662 62.6395 16.1395 61.9598L31.2766 48.7358C31.7441 48.325 32.4156 48.0896 33.1139 48.0896C33.8118 48.0896 34.482 48.325 34.9508 48.737L50.0373 61.9579C50.8134 62.6395 51.593 63 52.3782 63C53.7059 63 55 61.9463 55 59.5918V8.09323C55 5.33242 52.764 3 50.0085 3Z" fill="black"/>
</svg>
