<svg width="66" height="66" viewBox="0 0 66 66" fill="none" xmlns="http://www.w3.org/2000/svg">
<path d="M15.0001 3C13.9399 3 12.9201 3.421 12.1701 4.17199C11.42 4.92199 11 5.939 11 6.99996V60.266C11 61.776 12.22 63 13.73 63H13.7401C14.5501 63 15.32 62.6781 15.89 62.106C18.54 59.458 26.36 51.638 29.59 48.414C30.49 47.509 31.7199 47 33.0001 47C34.2801 47 35.5101 47.509 36.41 48.414C39.65 51.648 47.51 59.5061 50.1301 62.13C50.69 62.6871 51.4399 63 52.23 63C53.7601 63 55 61.7609 55 60.232V6.99996C55 5.939 54.58 4.92199 53.83 4.17199C53.0799 3.421 52.0602 3 51 3H15.0001Z" stroke="black" stroke-width="2" stroke-miterlimit="10" stroke-linecap="round" stroke-linejoin="round"/>
</svg>
