<svg width="512" height="461" viewBox="0 0 512 461" fill="none" xmlns="http://www.w3.org/2000/svg">
<path d="M371.36 240.729L163.36 428.01C161.873 429.36 160.103 430.432 158.153 431.163C156.203 431.895 154.112 432.271 152 432.271C149.888 432.271 147.797 431.895 145.847 431.163C143.897 430.432 142.127 429.36 140.64 428.01C139.14 426.671 137.95 425.077 137.138 423.322C136.325 421.566 135.907 419.683 135.907 417.781C135.907 415.88 136.325 413.997 137.138 412.241C137.95 410.486 139.14 408.892 140.64 407.553L337.44 230.5L140.64 53.4473C137.627 50.7345 135.935 47.0553 135.935 43.2189C135.935 41.3193 136.35 39.4383 137.157 37.6833C137.965 35.9283 139.148 34.3336 140.64 32.9904C142.132 31.6472 143.903 30.5817 145.852 29.8548C147.801 29.1278 149.89 28.7537 152 28.7537C156.261 28.7537 160.347 30.2777 163.36 32.9904L371.36 220.272C372.86 221.611 374.05 223.204 374.862 224.96C375.675 226.715 376.093 228.598 376.093 230.5C376.093 232.402 375.675 234.285 374.862 236.04C374.05 237.796 372.86 239.389 371.36 240.729Z" fill="white"/>
</svg>
