<svg width="166" height="151" viewBox="0 0 166 151" fill="none" xmlns="http://www.w3.org/2000/svg">
<path fill-rule="evenodd" clip-rule="evenodd" d="M0.999982 150.526C0.999982 150.526 -1.5 103.5 16.7167 85.7483C35.935 64.8993 71.667 73.3486 76.9366 68.2874C82.2062 63.2262 79.386 23.0184 100.483 11.7503C122.433 0.0263252 166 0.101367 166 0.101367C102.54 -0.069106 0.999973 0.0259169 0.999973 0.0259169L0.999982 150.526Z" fill="white"/>
<path d="M46 25.8518V38.7893C46 39.2597 45.6186 39.6411 45.1482 39.6411C44.6778 39.6411 44.2965 39.2597 44.2965 38.7893V27.9082L27.4541 44.7505C27.2877 44.9168 27.0698 45 26.8518 45C26.6338 45 26.4159 44.9168 26.2495 44.7505C25.9168 44.4179 25.9168 43.8786 26.2495 43.5459L43.0919 26.7035H32.2107C31.7403 26.7035 31.3589 26.3221 31.3589 25.8518C31.3589 25.3814 31.7403 25 32.2107 25H45.1482C45.6186 25 46 25.3814 46 25.8518Z" fill="#FC6E27"/>
</svg>
