<svg width="423" height="478" viewBox="0 0 423 478" fill="none" xmlns="http://www.w3.org/2000/svg">
<mask id="mask0_6399_111" style="mask-type:luminance" maskUnits="userSpaceOnUse" x="0" y="0" width="423" height="478">
<path d="M423 0H0V477.562H423V0Z" fill="white"/>
</mask>
<g mask="url(#mask0_6399_111)">
<path fill-rule="evenodd" clip-rule="evenodd" d="M1.5 477.5C1.5 477.5 -9.006 358.16 38.5 304.5C87.472 249.185 181.072 272.928 194.5 259.5C207.928 246.072 197.082 155.586 254.5 109.5C311.076 64.091 422.5 76.5 422.5 76.5V0.5L0.5 3.5L1.5 477.5Z" fill="white" stroke="white"/>
</g>
<path d="M124 155.129V187.473C124 188.649 123.046 189.603 121.871 189.603C120.695 189.603 119.741 188.649 119.741 187.473V160.271L77.6352 202.376C77.2193 202.792 76.6745 203 76.1295 203C75.5845 203 75.0396 202.792 74.6237 202.376C73.7921 201.545 73.7921 200.196 74.6237 199.365L116.73 157.259H89.5266C88.3507 157.259 87.3972 156.305 87.3972 155.129C87.3972 153.953 88.3507 153 89.5266 153H121.871C123.046 153 124 153.953 124 155.129Z" fill="#FC6E27"/>
</svg>
