<?xml version="1.0" encoding="utf-8"?>
<!-- Generator: Adobe Illustrator 26.1.0, SVG Export Plug-In . SVG Version: 6.00 Build 0)  -->
<svg version="1.1" id="Layer_1" xmlns="http://www.w3.org/2000/svg" xmlns:xlink="http://www.w3.org/1999/xlink" x="0px" y="0px"
	 viewBox="0 0 32 32" style="enable-background:new 0 0 32 32;" xml:space="preserve">
<style type="text/css">
	.st0{fill:#FFFFFF;}
	.st1{fill:#1B1B1B;}
	.st2{fill:#ED6F30;}
</style>
<g>
	<circle class="st0" cx="16" cy="16" r="14"/>
</g>
<g>
	<path class="st1" d="M14.04,17.27c0,0.04-0.03,0.08-0.07,0.09l-1.05,0.35c-0.01,0-0.01,0-0.02,0c-0.06,0.01-0.11-0.04-0.11-0.1
		l-0.02-4.83v-0.01l-0.02-4.24c0-0.07-0.07-0.12-0.14-0.09L9.95,9.59C9.89,9.62,9.81,9.57,9.81,9.5V8.68c0-0.03,0.02-0.07,0.05-0.08
		l3.99-2.48C13.92,6.08,14,6.13,14,6.2l0.02,6.14v0l0.01,3.25L14.04,17.27z"/>
	<path class="st2" d="M16.88,16.47l-1.02,0.33c-0.05,0.02-0.1-0.02-0.1-0.07l-0.02-4.89v0l-0.03-5.8c0-0.26,0.15-0.49,0.39-0.58
		c0.07-0.02,0.14-0.04,0.21-0.04c0.1,0,0.2,0.03,0.29,0.07c0.2,0.11,0.31,0.32,0.31,0.54c0,1.84,0,3.67,0.01,5.51v0.01
		c0,1.62,0,3.24,0.01,4.86C16.93,16.43,16.91,16.46,16.88,16.47z"/>
	<path class="st2" d="M15.71,25.95c0,0.33,0.24,0.61,0.55,0.63c0.02,0,0.03,0,0.05,0c0.02,0,0.05,0,0.07,0
		c0.3-0.02,0.53-0.3,0.53-0.62c0-2.13,0.01-4.27,0.01-6.4c0-0.3-0.2-0.55-0.47-0.61l0,0c-0.36-0.08-0.7,0.21-0.71,0.61L15.71,25.95z
		"/>
	<path class="st1" d="M22.87,22.03c0,0.16-0.03,0.43-0.17,0.74c-0.16,0.34-0.38,0.55-0.52,0.65c-1.08,0.75-2.25,1.36-3.37,2.04
		c-0.07,0.04-0.15-0.01-0.15-0.08v-7c0.42-0.15,0.83-0.3,1.22-0.46v5.22c0,0.07,0.08,0.12,0.14,0.09l1.53-0.73
		c0.03-0.02,0.05-0.05,0.05-0.08l0.08-4.05l0.03-1.26l0-0.05c0-0.06,0.07-0.11,0.13-0.09l0.09,0.03l0.87,0.27
		c0.04,0.01,0.07,0.05,0.07,0.09c0,0.08,0,0.24,0,0.45C22.87,18.83,22.88,21.12,22.87,22.03z"/>
	<path class="st1" d="M14.12,19.46v5.91c0,0.08-0.08,0.12-0.15,0.08c-1.13-0.69-2.29-1.32-3.37-2.09c-0.13-0.1-0.36-0.32-0.52-0.66
		c-0.15-0.31-0.17-0.6-0.17-0.76c0-0.2,0-0.48,0-0.79c0-0.37,0-0.8,0-1.23c0.39,0,0.8-0.02,1.22-0.05l0.02,1.19l0.03,1.26
		c0,0.04,0.02,0.07,0.05,0.09l1.53,0.75c0.06,0.03,0.14-0.02,0.14-0.09v-3.4C13.29,19.61,13.7,19.54,14.12,19.46z"/>
	<path class="st2" d="M22.87,17.43c-0.38,0.2-0.77,0.39-1.19,0.57c-0.57,0.26-1.18,0.51-1.81,0.75c-0.4,0.15-0.8,0.3-1.22,0.44
		c-0.5,0.17-1.01,0.33-1.53,0.48c-0.07,0.02-0.14,0.04-0.2,0.06c-0.4,0.11-0.79,0.22-1.18,0.32c-0.55,0.14-1.1,0.26-1.64,0.37
		c-0.41,0.08-0.82,0.16-1.22,0.22c-0.6,0.1-1.19,0.18-1.75,0.23c-0.43,0.04-0.85,0.07-1.25,0.09c-3.03,0.13-5.18-0.43-5.55-1.68
		c-0.55-1.86,2.26-4.61,7.58-6.53l0,0c-4.42,1.65-6.58,3.95-6.12,5.52c0.29,0.97,1.84,1.46,4.09,1.45c0.39,0,0.8-0.02,1.22-0.05
		c0.56-0.04,1.16-0.11,1.77-0.2c0.4-0.06,0.81-0.13,1.22-0.21c0.88-0.18,1.8-0.4,2.74-0.68c0.62-0.18,1.22-0.38,1.8-0.59
		c0.42-0.15,0.83-0.31,1.22-0.47c0.65-0.27,1.26-0.55,1.83-0.83c0.07-0.04,0.15-0.07,0.22-0.11c2.75-1.43,4.39-3.05,4.05-4.24
		c-0.24-0.82-1.39-1.3-3.1-1.42c0-0.07,0-0.13,0-0.19c2.63-0.01,4.46,0.56,4.79,1.7C28.08,13.85,26.12,15.76,22.87,17.43z"/>
	<path class="st1" d="M22.88,10.95c0,1.37,0,3.15,0,3.52c0,0.04-0.03,0.08-0.07,0.09l-0.96,0.31c-0.06,0.02-0.13-0.03-0.13-0.09
		l-0.08-3.86l0-0.12L21.6,9.3c0-0.04-0.02-0.07-0.05-0.09l-1.53-0.75c-0.06-0.03-0.14,0.02-0.14,0.09v6.89
		c0,0.04-0.03,0.08-0.07,0.09l-0.62,0.2l-0.4,0.13c-0.06,0.02-0.13-0.03-0.13-0.09V6.26c0-0.08,0.08-0.12,0.15-0.08
		c1.13,0.69,2.29,1.32,3.37,2.09c0.13,0.1,0.36,0.32,0.52,0.66c0.15,0.31,0.17,0.6,0.17,0.76c0,0.27,0,0.65,0,1.08
		C22.88,10.82,22.88,10.89,22.88,10.95z"/>
</g>
</svg>
