<?xml version="1.0" encoding="utf-8"?>
<!-- Generator: Adobe Illustrator 26.1.0, SVG Export Plug-In . SVG Version: 6.00 Build 0)  -->
<svg version="1.1" id="Layer_1" xmlns="http://www.w3.org/2000/svg" xmlns:xlink="http://www.w3.org/1999/xlink" x="0px" y="0px"
	 viewBox="0 0 192 192" style="enable-background:new 0 0 192 192;" xml:space="preserve">
<style type="text/css">
	.st0{fill:#FFFFFF;}
	.st1{fill:#1B1B1B;}
	.st2{fill:#ED6F30;}
</style>
<g>
	<g>
		<circle class="st0" cx="96" cy="96" r="92.2"/>
	</g>
	<g>
		<path class="st1" d="M83.72,103.95c0,0.26-0.17,0.5-0.42,0.58l-6.59,2.17c-0.04,0.01-0.09,0.02-0.13,0.03
			c-0.35,0.03-0.67-0.24-0.67-0.61l-0.15-30.24V75.8l-0.13-26.5c0-0.44-0.45-0.73-0.85-0.56l-16.6,7.2
			c-0.4,0.17-0.85-0.12-0.85-0.56v-5.14c0-0.21,0.11-0.41,0.29-0.52l24.96-15.5c0.41-0.25,0.93,0.04,0.93,0.52l0.13,38.39v0.02
			l0.07,20.33L83.72,103.95z"/>
		<path class="st2" d="M101.49,98.94L95.08,101c-0.29,0.09-0.6-0.12-0.6-0.43l-0.14-30.61v0l-0.16-36.28
			c-0.01-1.6,0.96-3.08,2.46-3.64c0.41-0.15,0.86-0.23,1.32-0.23c0.66,0,1.28,0.17,1.83,0.46c1.22,0.66,1.95,1.98,1.95,3.37
			c0.01,11.48,0.02,22.96,0.04,34.45v0.04c0.01,10.12,0.02,20.25,0.03,30.37C101.81,98.71,101.68,98.88,101.49,98.94z"/>
		<path class="st2" d="M94.19,158.24c-0.01,2.08,1.51,3.83,3.47,3.94c0.1,0.01,0.2,0.01,0.31,0.01c0.16,0,0.31-0.01,0.46-0.02
			c1.89-0.16,3.32-1.87,3.33-3.89c0.02-13.34,0.04-26.69,0.06-40.03c0-1.86-1.22-3.46-2.93-3.84l0,0c-2.27-0.5-4.4,1.34-4.42,3.8
			L94.19,158.24z"/>
		<path class="st1" d="M138.98,133.71c-0.01,0.99-0.17,2.71-1.08,4.63c-1.01,2.11-2.4,3.45-3.24,4.04
			c-6.75,4.66-14.04,8.52-21.1,12.74c-0.41,0.24-0.93-0.04-0.93-0.51v-43.8c2.62-0.92,5.17-1.88,7.63-2.86v32.67
			c0,0.44,0.48,0.73,0.88,0.54l9.56-4.58c0.21-0.1,0.34-0.3,0.34-0.52l0.52-25.31l0.16-7.89l0.01-0.3c0.01-0.4,0.41-0.68,0.8-0.56
			l0.55,0.17l5.46,1.72c0.25,0.08,0.42,0.31,0.42,0.57c0,0.52,0,1.5,0.01,2.79C138.99,113.68,139.02,128.04,138.98,133.71z"/>
		<path class="st1" d="M84.21,117.64v36.96c0,0.48-0.52,0.77-0.93,0.52c-7.06-4.31-14.35-8.27-21.1-13.04
			c-0.84-0.6-2.24-1.97-3.24-4.13c-0.91-1.96-1.07-3.73-1.08-4.74c-0.01-1.27-0.01-2.97-0.02-4.92c0-2.32,0-5,0-7.72
			c2.43-0.01,4.98-0.11,7.65-0.31l0.15,7.46l0.16,7.88c0.01,0.23,0.14,0.44,0.34,0.54l9.56,4.69c0.41,0.2,0.88-0.1,0.88-0.55v-21.29
			C79.07,118.6,81.62,118.15,84.21,117.64z"/>
		<path class="st2" d="M138.95,104.95c-2.36,1.22-4.84,2.42-7.41,3.59c-3.58,1.63-7.36,3.21-11.3,4.72
			c-2.48,0.95-5.03,1.87-7.63,2.76c-3.11,1.06-6.3,2.07-9.56,3.03c-0.42,0.12-0.85,0.25-1.27,0.37c-2.48,0.71-4.93,1.38-7.36,1.99
			c-3.47,0.87-6.88,1.65-10.23,2.33c-2.59,0.53-5.14,0.99-7.63,1.4c-3.77,0.62-7.43,1.1-10.94,1.44c-2.69,0.27-5.29,0.46-7.79,0.57
			c-18.94,0.84-32.39-2.71-34.68-10.5C19.7,105,37.27,87.84,70.51,75.83l0,0c-27.64,10.33-41.15,24.73-38.27,34.51
			c1.79,6.08,11.54,9.14,25.57,9.09c2.43-0.01,4.98-0.11,7.64-0.31c3.52-0.26,7.23-0.68,11.09-1.26c2.49-0.38,5.04-0.83,7.63-1.34
			c5.53-1.1,11.28-2.5,17.14-4.23c3.88-1.14,7.65-2.37,11.28-3.68c2.62-0.94,5.17-1.92,7.63-2.93c4.07-1.67,7.9-3.42,11.46-5.22
			c0.46-0.23,0.91-0.47,1.36-0.7c17.2-8.95,27.49-19.05,25.3-26.49c-1.51-5.14-8.71-8.12-19.39-8.89c0-0.41,0-0.81,0-1.21
			c16.44-0.09,27.88,3.49,29.98,10.62C171.53,82.56,159.3,94.47,138.95,104.95z"/>
		<path class="st1" d="M139,64.43c0,8.57-0.02,19.68-0.03,22.02c0,0.26-0.17,0.5-0.42,0.58l-6.02,1.94
			c-0.39,0.13-0.79-0.16-0.8-0.57l-0.48-24.14l-0.01-0.74l-0.19-9.44c0-0.23-0.14-0.44-0.34-0.54l-9.56-4.69
			c-0.41-0.2-0.88,0.1-0.88,0.55v43.06c0,0.26-0.17,0.5-0.42,0.58l-3.91,1.26l-2.5,0.8c-0.39,0.13-0.8-0.17-0.8-0.58V35.07
			c0-0.48,0.52-0.77,0.93-0.52c7.06,4.31,14.35,8.27,21.1,13.04c0.84,0.6,2.24,1.97,3.24,4.13c0.91,1.96,1.07,3.73,1.08,4.74
			c0.01,1.66,0.01,4.04,0.02,6.75C139,63.62,139,64.02,139,64.43z"/>
	</g>
</g>
</svg>
