<svg width="930" height="220" viewBox="0 0 930 220" fill="none" xmlns="http://www.w3.org/2000/svg">
<path d="M101.189 122.886C101.191 123.323 100.91 123.714 100.493 123.85L89.5613 127.453C89.4884 127.477 89.4156 127.493 89.3427 127.499C88.7663 127.557 88.2341 127.106 88.2296 126.495L87.9757 76.3724V76.2245L87.7526 32.296C87.7482 31.5675 87.0018 31.0819 86.3348 31.3711L58.7957 43.304C58.1266 43.5932 57.3779 43.1032 57.3779 42.3748V33.8566C57.3779 33.5056 57.559 33.1811 57.8572 32.9957L99.2607 7.29325C99.9343 6.87606 100.807 7.35727 100.809 8.15191L101.019 71.7833V71.8165L101.131 105.525L101.189 122.886Z" fill="black"/>
<path d="M130.664 114.595L120.032 118.01C119.544 118.166 119.043 117.804 119.041 117.29L118.809 66.554V66.5474L118.537 6.41237C118.526 3.75251 120.125 1.29793 122.625 0.386287C123.31 0.136856 124.045 0 124.807 0C125.896 0 126.931 0.278128 127.841 0.770368C129.871 1.86963 131.081 4.04829 131.083 6.35498C131.103 25.3868 131.123 44.423 131.141 63.4548V63.5255C131.158 80.3058 131.176 97.0905 131.194 113.871C131.189 114.202 130.977 114.493 130.664 114.595Z" fill="#FC6E27"/>
<path d="M118.546 212.892C118.524 216.348 121.048 219.238 124.292 219.414C124.46 219.423 124.63 219.428 124.8 219.428C125.059 219.428 125.313 219.417 125.564 219.397C128.694 219.138 131.074 216.289 131.081 212.951C131.114 190.831 131.147 168.709 131.18 146.589C131.185 143.508 129.151 140.848 126.315 140.228C122.55 139.402 119.016 142.444 118.99 146.534L118.546 212.892Z" fill="#FC6E27"/>
<path d="M192.842 171.37C192.831 173.043 192.566 175.978 191.051 179.232C189.382 182.81 187.07 185.095 185.672 186.084C174.473 193.995 162.379 200.555 150.677 207.707C150.001 208.12 149.133 207.636 149.133 206.844V132.478C153.484 130.915 157.709 129.291 161.794 127.615V183.091C161.794 183.841 162.583 184.331 163.256 184L179.115 176.228C179.457 176.06 179.676 175.718 179.682 175.338L180.537 132.357L180.802 118.96L180.813 118.45C180.829 117.77 181.493 117.298 182.138 117.506L183.059 117.801L192.123 120.715C192.54 120.85 192.825 121.236 192.825 121.675C192.827 122.563 192.831 124.216 192.834 126.406C192.858 137.35 192.9 161.73 192.842 171.37Z" fill="black"/>
<path d="M102.003 145.583V206.844C102.003 207.636 101.135 208.12 100.46 207.707C88.7571 200.555 76.6638 193.995 65.4648 186.084C64.0669 185.095 61.7547 182.81 60.0851 179.232C58.5701 175.978 58.3051 173.043 58.2963 171.369C58.283 169.259 58.2742 166.44 58.2698 163.211C58.2654 159.361 58.2654 154.929 58.2676 150.413C62.2913 150.399 66.5293 150.229 70.9483 149.905L71.1935 162.273L71.4541 175.338C71.4629 175.718 71.6815 176.06 72.0216 176.228L87.8825 184C88.5561 184.331 89.3423 183.841 89.3423 183.09V147.806C93.4677 147.179 97.6946 146.437 102.003 145.583Z" fill="black"/>
<path d="M192.789 125.214C188.867 127.236 184.761 129.222 180.493 131.167C174.548 133.871 168.285 136.489 161.75 138.99C157.633 140.566 153.411 142.096 149.089 143.57C143.937 145.327 138.645 147.007 133.239 148.596C132.537 148.801 131.837 149.007 131.137 149.208C127.031 150.389 122.957 151.49 118.924 152.51C113.176 153.96 107.509 155.249 101.957 156.373C97.664 157.245 93.4393 158.017 89.2963 158.69C83.0443 159.71 76.9778 160.507 71.1498 161.083C66.6954 161.525 62.3802 161.838 58.224 162.021C26.8093 163.421 4.49776 157.527 0.701501 144.621C-4.98516 125.289 24.1438 96.8583 79.2834 76.9459C33.4345 94.077 11.0413 117.934 15.8114 134.156C18.7751 144.228 34.9429 149.307 58.224 149.221C62.2477 149.208 66.4856 149.038 70.9025 148.713C76.7415 148.287 82.8963 147.587 89.2963 146.616C93.4216 145.989 97.6485 145.248 101.957 144.393C111.124 142.575 120.662 140.241 130.382 137.385C136.824 135.491 143.076 133.449 149.089 131.288C153.44 129.728 157.664 128.103 161.75 126.428C168.497 123.662 174.857 120.759 180.758 117.773C181.52 117.387 182.273 117 183.017 116.612C211.541 101.767 228.603 85.027 224.977 72.699C222.472 64.1808 210.527 59.2342 192.822 57.9605C192.824 57.2851 192.824 56.6185 192.822 55.9629C220.089 55.815 239.066 61.755 242.538 73.5642C246.811 88.093 226.536 107.846 192.789 125.214Z" fill="#FC6E27"/>
<path d="M192.869 57.3867C192.876 71.591 192.834 90.0114 192.825 93.8875C192.825 94.3267 192.54 94.713 192.123 94.8477L182.138 98.0572C181.491 98.2647 180.829 97.7923 180.813 97.1124L180.018 57.0887L179.994 55.8702L179.682 40.2245C179.676 39.8448 179.457 39.5027 179.115 39.3349L163.256 31.5628C162.583 31.2317 161.794 31.7217 161.794 32.4722V103.854C161.794 104.293 161.512 104.684 161.092 104.818L154.612 106.9L150.458 108.233C149.805 108.445 149.133 107.957 149.133 107.268V8.71887C149.133 7.92643 150.001 7.44303 150.677 7.8558C162.379 15.0076 174.473 21.5679 185.672 29.4791C187.07 30.468 189.382 32.7526 191.051 36.3307C192.566 39.5843 192.831 42.5201 192.842 44.1933C192.86 46.9414 192.867 50.8926 192.869 55.3868C192.871 56.0424 192.871 56.709 192.869 57.3867Z" fill="black"/>
<path d="M614.261 144.921C511.519 144.921 408.775 144.921 306.033 144.921C305.234 144.921 304.43 144.969 303.637 144.898C301.614 144.715 300.468 143.519 300.366 141.479C300.311 140.367 300.318 139.245 300.364 138.131C300.441 136.226 301.557 135.016 303.425 134.756C303.818 134.701 304.222 134.714 304.622 134.709C305.421 134.703 306.221 134.705 307.018 134.705C511.784 134.705 716.552 134.705 921.318 134.705C922.277 134.705 923.235 134.718 924.194 134.707C925.194 134.698 926.071 135.043 926.87 135.614C927.623 136.153 928.116 136.853 928.122 137.808C928.133 139.164 928.171 140.521 928.105 141.874C928.045 143.093 927.385 143.954 926.241 144.424C925.499 144.728 924.75 144.967 923.926 144.927C923.129 144.89 922.33 144.921 921.53 144.921C819.109 144.921 716.685 144.921 614.261 144.921Z" fill="black"/>
<path d="M516.52 176.574C516.478 177.031 516.478 177.508 516.385 177.967C515.833 180.697 515.241 183.419 514.7 186.149C514.283 188.262 513.207 189.984 511.703 191.478C511.129 192.047 510.469 192.425 509.702 192.73C507.355 193.659 504.908 193.946 502.425 193.95C491.401 193.974 480.377 193.972 469.352 193.948C467.351 193.944 465.379 193.657 463.475 192.972C460.907 192.047 459.734 190.103 459.469 187.538C459.346 186.355 459.465 185.167 459.706 183.975C460.576 179.68 461.631 175.426 462.391 171.102C463.122 166.948 465.768 164.343 469.913 163.374C471.234 163.065 472.583 162.924 473.952 162.924C485.456 162.937 496.96 162.939 508.463 162.919C509.839 162.917 511.175 163.122 512.485 163.473C516.082 164.436 518.225 167.204 517.845 171.139C517.829 171.298 517.818 171.459 517.783 171.614C516.926 175.347 517.688 174.773 514.143 174.804C510.789 174.832 507.432 174.819 504.077 174.804C502.896 174.799 502.896 174.773 502.626 173.53C502.445 172.689 502.22 172.433 501.407 172.318C500.857 172.241 500.294 172.225 499.738 172.223C493.108 172.217 486.476 172.247 479.847 172.206C476.949 172.188 476.73 172.768 476.253 175.232C475.721 177.969 475.048 180.68 474.451 183.406C474.182 184.642 474.579 185.244 475.785 185.406C476.417 185.489 477.059 185.507 477.698 185.509C484.248 185.516 490.8 185.516 497.35 185.509C497.989 185.509 498.627 185.459 499.263 185.406C499.853 185.355 500.31 185.037 500.681 184.598C500.946 184.284 501.116 183.92 501.032 183.503C500.926 182.962 500.456 183.039 500.089 183.037C496.734 183.024 493.378 183.028 490.023 183.026C489.385 183.026 488.744 183.037 488.106 183.011C487.452 182.984 487.271 182.757 487.408 182.108C487.735 180.547 488.066 178.989 488.433 177.437C488.687 176.36 488.716 176.364 489.899 176.331C490.299 176.32 490.699 176.329 491.098 176.329C498.768 176.329 506.438 176.322 514.106 176.338C514.89 176.336 515.703 176.159 516.52 176.574Z" fill="black"/>
<path d="M638.863 163.643C637.238 163.169 635.606 162.915 633.914 162.924C628.325 162.946 622.733 162.932 617.143 162.932C611.395 162.932 605.646 162.946 599.893 162.926C597.957 162.919 596.038 163.129 594.255 163.844C591.828 164.82 589.726 166.219 589.008 168.987C588.728 170.067 588.337 171.115 588.085 172.199C587.363 175.305 586.665 178.415 586.005 181.532C585.724 182.854 585.528 184.198 585.36 185.542C585.229 186.573 585.302 187.606 585.492 188.635C585.839 190.498 586.864 191.791 588.575 192.624C590.64 193.63 592.846 193.941 595.088 193.948C606.267 193.981 617.448 193.981 628.63 193.95C631.114 193.941 633.55 193.546 635.875 192.593C636.635 192.279 637.269 191.864 637.805 191.24C639.181 189.639 640.199 187.856 640.63 185.783C641.463 181.812 642.227 177.828 643.079 173.863C643.349 172.609 643.503 171.362 643.572 170.086C643.742 166.881 641.385 164.376 638.863 163.643ZM628.069 175.894C627.62 178.073 627.121 180.24 626.615 182.408C626.333 183.618 625.882 183.973 624.628 184.061C624.153 184.094 623.672 184.077 623.195 184.077C616.655 184.079 610.114 184.079 603.573 184.077C603.096 184.077 602.614 184.097 602.137 184.063C600.874 183.977 600.488 183.509 600.58 182.205C600.598 181.966 600.627 181.728 600.677 181.496C601.185 179.163 601.72 176.834 602.203 174.497C602.413 173.486 603.005 172.978 604.001 172.903C604.717 172.85 605.434 172.81 606.15 172.808C609.262 172.799 612.371 172.804 615.481 172.804C618.829 172.806 622.181 172.779 625.529 172.813C628.336 172.841 628.625 173.197 628.069 175.894Z" fill="black"/>
<path d="M579.758 169.111C579.698 166.44 578.353 164.621 575.842 163.69C574.168 163.069 572.439 162.921 570.666 162.924C557.49 162.937 544.315 162.93 531.137 162.932C530.578 162.932 530.017 162.935 529.459 162.941C528.911 162.95 528.564 163.226 528.44 163.758C528.118 165.157 527.78 166.55 527.491 167.954C526.486 172.87 525.521 177.795 524.501 182.708C523.805 186.061 523.034 189.401 522.321 192.752C522.129 193.659 522.356 193.944 523.268 193.948C527.341 193.966 531.413 193.97 535.485 193.952C536.833 193.946 536.859 193.886 537.146 192.458C537.57 190.35 537.979 188.238 538.423 186.134C538.659 185.024 538.809 184.865 539.803 184.858C543.796 184.836 547.786 184.856 551.781 184.838C552.49 184.836 552.989 185.116 553.391 185.675C554.319 186.971 555.284 188.242 556.189 189.553C557.053 190.8 558.007 191.972 558.963 193.147C559.486 193.791 560.059 193.97 560.818 193.968C565.37 193.955 569.921 193.961 574.475 193.955C574.711 193.955 574.97 193.955 575.177 193.86C575.389 193.767 575.529 193.535 575.407 193.284C575.308 193.072 575.175 192.873 575.034 192.685C572.936 189.904 570.833 187.125 568.466 183.997C570.155 184.006 571.432 183.81 572.64 183.423C575.453 182.521 577.576 180.861 578.238 177.792C578.689 175.693 579.181 173.601 579.59 171.493C579.744 170.716 579.773 169.903 579.758 169.111ZM564.69 173.011C564.535 173.788 564.376 174.572 564.137 175.327C563.872 176.157 563.274 176.649 562.369 176.689C561.971 176.709 561.571 176.709 561.174 176.709C555.025 176.709 548.882 176.711 542.736 176.706C542.256 176.706 541.775 176.709 541.3 176.66C540.949 176.627 540.695 176.36 540.737 176.024C540.905 174.684 541.108 173.347 541.324 172.011C541.384 171.643 541.709 171.519 542.038 171.504C542.755 171.475 543.473 171.466 544.191 171.464C547.064 171.462 549.937 171.464 552.81 171.464C555.845 171.464 558.877 171.462 561.911 171.466C562.468 171.466 563.031 171.451 563.583 171.521C564.444 171.634 564.853 172.195 564.69 173.011Z" fill="black"/>
<path d="M765.288 163.992C764.643 163.679 763.985 163.429 763.269 163.277C762.011 163.01 760.747 162.926 759.469 162.928C752.846 162.935 746.223 162.93 739.602 162.93H730.026C726.517 162.93 723.003 162.926 719.494 162.932C717.425 162.937 717.23 162.692 716.826 164.981C716.327 167.8 715.744 170.607 715.172 173.415C713.865 179.808 712.537 186.2 711.219 192.59C710.992 193.699 711.144 193.948 712.182 193.952C716.252 193.97 720.32 193.97 724.39 193.95C725.421 193.946 725.585 193.811 725.848 192.749C726.247 191.127 726.556 189.48 726.95 187.858C727.444 185.818 727.06 185.898 729.421 185.898C738.038 185.898 746.655 185.9 755.273 185.896C756.149 185.896 757.028 185.845 757.903 185.851C759.698 185.862 761.344 185.242 763.009 184.697C763.623 184.494 764.137 184.119 764.524 183.578C765.504 182.218 766.401 180.834 766.827 179.168C767.516 176.468 768.059 173.74 768.468 170.985C768.55 170.437 768.567 169.875 768.583 169.318C768.662 166.822 767.521 165.065 765.288 163.992ZM753.164 174.987C752.779 177.066 752.457 177.362 750.324 177.369C743.709 177.393 737.093 177.377 730.476 177.375C730.238 177.375 729.997 177.375 729.763 177.329C729.405 177.258 729.209 176.987 729.264 176.651C729.454 175.475 729.648 174.294 729.907 173.133C730.165 171.996 730.233 171.956 731.572 171.952C734.92 171.936 738.266 171.945 741.614 171.945C744.723 171.945 747.83 171.941 750.937 171.949C751.492 171.949 752.053 171.965 752.603 172.036C753.042 172.093 753.327 172.437 753.327 172.855C753.329 173.565 753.294 174.287 753.164 174.987Z" fill="black"/>
<path d="M708.157 162.93C707.472 166.069 706.942 168.875 706.24 171.636C705.257 175.497 704.74 179.446 703.901 183.333C703.413 185.593 702.843 187.801 701.62 189.822C700.842 191.107 699.888 192.045 698.499 192.632C696.249 193.586 693.879 193.928 691.487 193.939C680.71 193.988 669.933 193.979 659.154 193.944C657.155 193.937 655.194 193.584 653.31 192.827C650.976 191.889 649.836 190.096 649.554 187.719C649.412 186.54 649.479 185.346 649.748 184.158C650.539 180.662 651.285 177.157 652.014 173.645C652.595 170.837 653.123 168.02 653.675 165.206C653.737 164.893 653.801 164.581 653.88 164.272C654.198 163.023 654.253 162.977 655.452 162.93C655.691 162.921 655.932 162.928 656.17 162.928C659.684 162.928 663.195 162.926 666.709 162.932C667.184 162.932 667.667 162.941 668.129 163.034C668.301 163.069 668.535 163.341 668.551 163.522C668.584 163.908 668.529 164.312 668.451 164.696C667.391 169.925 666.318 175.152 665.256 180.382C665.13 181.004 664.999 181.631 664.962 182.262C664.916 183 665.302 183.459 666.06 183.573C666.687 183.668 667.329 183.697 667.965 183.697C673.952 183.706 679.942 183.701 685.929 183.701C686.328 183.701 686.728 183.715 687.126 183.684C688.923 183.551 689.255 183.273 689.599 181.43C690.692 175.561 692.101 169.76 693.418 163.939C693.621 163.043 693.698 162.946 694.727 162.939C697.841 162.917 700.955 162.928 704.069 162.928C705.328 162.93 706.593 162.93 708.157 162.93Z" fill="black"/>
<path d="M613.634 145.02C510.777 145.02 407.918 145.007 305.061 145.073C301.082 145.075 300.168 143.411 300.199 140.338C300.245 135.689 301.201 134.453 305.081 134.411C306.21 134.398 307.336 134.409 308.465 134.409C513.292 134.409 718.123 134.409 922.95 134.409C927.913 134.409 930.446 138.559 928.202 142.991C927.235 144.903 925.494 145.203 923.62 145.185C922.502 145.174 921.387 145.026 920.272 145.026C818.06 145.02 715.846 145.02 613.634 145.02Z" fill="#FC6E27"/>
<path d="M927.196 61.3531L924.32 80.2149C922.302 93.4392 917.914 102.726 911.158 108.081C904.4 113.433 893.405 116.111 878.175 116.111H863.651C850.638 116.111 841.383 114.184 835.888 110.33C830.389 106.478 827.642 99.9685 827.642 90.7992C827.642 87.636 827.945 84.1065 828.55 80.2127L831.425 61.3508C833.441 48.1288 837.83 38.8402 844.587 33.4852C851.343 28.1301 862.288 25.4548 877.418 25.4548H891.943C904.853 25.4548 914.106 27.3819 919.705 31.2337C925.303 35.0877 928.101 41.5575 928.101 50.643C928.103 53.8922 927.801 57.4593 927.196 61.3531ZM899.811 63.2999C900.114 60.7041 900.341 58.8587 900.491 57.7639C900.642 56.669 900.719 55.5941 900.719 54.5389C900.719 50.5657 899.584 47.8683 897.316 46.4468C895.045 45.0275 890.783 44.3167 884.531 44.3167H879.085C871.318 44.3167 866.199 45.5153 863.73 47.9058C861.257 50.2986 859.417 55.4307 858.207 63.2977L855.936 78.3872C855.331 81.9587 855.029 84.9188 855.029 87.2696C855.029 91.0839 856.164 93.6996 858.432 95.119C860.702 96.5383 864.912 97.2491 871.064 97.2491H876.51C884.377 97.2491 889.544 96.0527 892.018 93.6599C894.489 91.2671 896.329 86.177 897.539 78.3894L899.811 63.2999Z" fill="black"/>
<path d="M393.728 26.4614L383.351 88.3402C380.226 106.856 367.728 116.113 345.86 116.113H330.797C319.861 116.113 311.884 114.612 306.864 111.606C301.842 108.602 299.331 103.648 299.331 96.7458C299.331 95.7724 299.415 94.6135 299.583 93.2737C299.751 91.9338 299.89 90.8588 300 90.0465L302.008 78.4756H330.461C330.461 78.4756 328.84 89.0002 328.608 91.3179C328.544 91.9647 328.619 88.9495 328.619 89.6801C328.619 90.4107 328.619 90.8986 328.619 91.1414C328.619 95.2029 331.351 97.2314 336.821 97.2314H342.68C346.249 97.2314 348.873 96.5008 350.547 95.0395C352.221 93.5783 353.334 91.1016 353.895 87.6096L364.104 26.4614H393.728Z" fill="black"/>
<path d="M486.031 116.054L458.726 115.912L456.135 103.11L417.172 103.392L409.343 116.095L381.749 116.109L431.757 27.1346L465.621 27.1125L486.031 116.054ZM452.779 84.0182L445.475 51.8879L430.719 84.0336L452.779 84.0182Z" fill="black"/>
<path d="M583.629 26.7129L541.024 116.113H500.036L484.61 26.7129H511.789L523.48 83.7178L556.598 26.7129H583.629Z" fill="black"/>
<path d="M620.083 27.1611L605.757 116.111H577.264L591.59 27.1611H620.083Z" fill="black"/>
<path d="M821.205 61.9556L818.41 80.5835C816.446 93.7437 812.228 102.955 805.753 108.217C799.278 113.482 788.631 116.113 773.819 116.113H720.841L733.939 26.4282H786.917C799.475 26.4282 808.476 28.3398 813.922 32.1651C819.368 35.9883 822.089 42.4249 822.089 51.4707C822.089 54.5963 821.795 58.0905 821.205 61.9556ZM794.57 63.6818C795.159 60.0639 795.453 57.0619 795.453 54.6758C795.453 50.729 794.349 48.036 792.143 46.5946C789.934 45.1576 785.837 44.4358 779.855 44.4358H757.044L749.244 98.0988H772.055C779.608 98.0988 784.588 96.887 786.992 94.4589C789.395 92.033 791.186 86.8325 792.363 78.8529L794.57 63.6818Z" fill="black"/>
<path d="M718.57 61.9556L715.774 80.5835C713.811 93.7437 709.592 102.955 703.117 108.217C696.642 113.482 685.995 116.113 671.184 116.113H618.206L631.304 26.4282H684.282C696.839 26.4282 705.84 28.3398 711.286 32.1651C716.732 35.9883 719.453 42.4249 719.453 51.4707C719.453 54.5963 719.157 58.0905 718.57 61.9556ZM691.932 63.6818C692.521 60.0639 692.815 57.0619 692.815 54.6758C692.815 50.729 691.711 48.036 689.505 46.5946C687.296 45.1576 683.2 44.4358 677.217 44.4358H654.406L646.606 98.0988H669.417C676.97 98.0988 681.95 96.887 684.355 94.4589C686.757 92.033 688.548 86.8325 689.725 78.8529L691.932 63.6818Z" fill="black"/>
</svg>
