<svg width="635" height="150" viewBox="0 0 635 150" fill="none" xmlns="http://www.w3.org/2000/svg">
<path d="M69.1725 84.0046C69.174 84.3034 68.9823 84.5705 68.697 84.664L61.2241 87.1266C61.1743 87.1432 61.1245 87.1538 61.0746 87.1583C60.6806 87.1975 60.3168 86.8897 60.3138 86.4717L60.1402 52.2082V52.1071L59.9877 22.0776C59.9847 21.5797 59.4744 21.2477 59.0185 21.4454L40.1928 29.6027C39.7354 29.8004 39.2236 29.4654 39.2236 28.9675V23.1445C39.2236 22.9045 39.3474 22.6827 39.5512 22.556L67.8546 4.98586C68.315 4.70067 68.9114 5.02962 68.9129 5.57284L69.0563 49.0711V49.0937L69.1333 72.1368L69.1725 84.0046Z" fill="black"/>
<path d="M89.3214 78.3367L82.0538 80.671C81.7202 80.7782 81.3775 80.5307 81.376 80.1791L81.2175 45.4961V45.4916L81.0318 4.38348C81.0242 2.5652 82.1172 0.887258 83.8262 0.264065C84.2942 0.0935544 84.7969 0 85.3177 0C86.062 0 86.77 0.190127 87.392 0.526622C88.7794 1.27807 89.6067 2.7674 89.6082 4.34424C89.6218 17.3543 89.6354 30.3675 89.6475 43.3776V43.4258C89.6596 54.8968 89.6716 66.3708 89.6837 77.8418C89.6807 78.0681 89.5358 78.2673 89.3214 78.3367Z" fill="#FC6E27"/>
<path d="M81.0382 145.531C81.0231 147.894 82.7486 149.87 84.9664 149.99C85.0811 149.996 85.1973 149.999 85.3136 149.999C85.4902 149.999 85.6638 149.992 85.8359 149.978C87.9751 149.802 89.6026 147.854 89.6071 145.572C89.6297 130.451 89.6524 115.328 89.675 100.207C89.678 98.1007 88.2876 96.2825 86.3492 95.8585C83.7752 95.2941 81.3597 97.3734 81.3416 100.17L81.0382 145.531Z" fill="#FC6E27"/>
<path d="M131.827 117.148C131.819 118.292 131.638 120.299 130.602 122.523C129.461 124.969 127.88 126.53 126.925 127.206C119.269 132.615 111.002 137.099 103.003 141.988C102.541 142.27 101.947 141.94 101.947 141.398V90.5618C104.921 89.4935 107.809 88.3829 110.602 87.2376V125.16C110.602 125.673 111.141 126.008 111.602 125.782L122.443 120.469C122.677 120.354 122.826 120.12 122.831 119.861L123.415 90.4788L123.596 81.3211L123.604 80.9725C123.614 80.5078 124.068 80.1848 124.509 80.3267L125.139 80.5289L131.335 82.5207C131.62 82.6127 131.815 82.8768 131.815 83.1771C131.816 83.7837 131.819 84.9139 131.821 86.4107C131.837 93.8921 131.866 110.558 131.827 117.148Z" fill="black"/>
<path d="M69.7291 99.5195V141.397C69.7291 141.939 69.1358 142.269 68.6739 141.987C60.6741 137.098 52.4071 132.614 44.7516 127.206C43.796 126.53 42.2153 124.968 41.074 122.522C40.0384 120.298 39.8572 118.291 39.8512 117.147C39.8421 115.704 39.8361 113.778 39.8331 111.57C39.83 108.938 39.83 105.908 39.8316 102.821C42.5822 102.812 45.4792 102.696 48.5001 102.474L48.6677 110.929L48.8458 119.86C48.8519 120.12 49.0013 120.353 49.2338 120.468L60.0763 125.781C60.5367 126.008 61.0742 125.673 61.0742 125.159V101.039C63.8942 100.61 66.7837 100.103 69.7291 99.5195Z" fill="black"/>
<path d="M131.79 85.5955C129.109 86.9776 126.302 88.3357 123.384 89.665C119.32 91.5135 115.039 93.3031 110.572 95.0127C107.758 96.0901 104.871 97.1358 101.917 98.1437C98.3948 99.3448 94.7776 100.493 91.082 101.58C90.6019 101.72 90.1233 101.86 89.6448 101.998C86.8383 102.805 84.053 103.558 81.2963 104.255C77.3667 105.246 73.4929 106.127 69.6976 106.896C66.7628 107.492 63.8748 108.02 61.0427 108.48C56.7688 109.177 52.6218 109.722 48.6378 110.116C45.5928 110.417 42.6429 110.632 39.8017 110.757C18.3268 111.714 3.07465 107.685 0.479544 98.862C-3.40784 85.6468 16.5046 66.2117 54.1979 52.5997C22.8558 64.3105 7.54778 80.619 10.8087 91.7081C12.8346 98.5934 23.8869 102.065 39.8017 102.007C42.5523 101.998 45.4494 101.881 48.4687 101.66C52.4603 101.368 56.6677 100.89 61.0427 100.226C63.8627 99.7975 66.7522 99.2905 69.6976 98.7066C75.9642 97.4632 82.4844 95.8683 89.1285 93.9157C93.5321 92.6211 97.806 91.2253 101.917 89.748C104.891 88.6812 107.779 87.5707 110.572 86.4254C115.184 84.5347 119.532 82.5504 123.565 80.5089C124.086 80.2448 124.601 79.9807 125.11 79.7152C144.609 69.5676 156.272 58.1239 153.793 49.6965C152.081 43.8735 143.916 40.492 131.813 39.6213C131.814 39.1596 131.814 38.7039 131.813 38.2557C150.452 38.1547 163.425 42.2152 165.798 50.288C168.719 60.2198 154.859 73.7232 131.79 85.5955Z" fill="#FC6E27"/>
<path d="M131.845 39.2298C131.849 48.9398 131.821 61.5319 131.815 64.1816C131.815 64.4819 131.62 64.746 131.335 64.838L124.509 67.032C124.067 67.1738 123.614 66.8509 123.604 66.3862L123.06 39.026L123.043 38.1931L122.831 27.4977C122.826 27.2382 122.677 27.0043 122.443 26.8896L111.602 21.5766C111.141 21.3503 110.602 21.6853 110.602 22.1983V70.9945C110.602 71.2948 110.409 71.5618 110.122 71.6539L105.693 73.0768L102.853 73.9882C102.406 74.1331 101.947 73.7996 101.947 73.3288V5.96061C101.947 5.4189 102.541 5.08844 103.003 5.37061C111.002 10.2596 119.269 14.7442 126.925 20.1522C127.88 20.8282 129.461 22.39 130.602 24.836C131.638 27.0601 131.819 29.067 131.827 30.2108C131.839 32.0894 131.843 34.7904 131.845 37.8627C131.846 38.3108 131.846 38.7665 131.845 39.2298Z" fill="black"/>
<path d="M419.907 99.0676C349.673 99.0676 279.437 99.0676 209.203 99.0676C208.657 99.0676 208.107 99.1008 207.565 99.0525C206.183 98.9272 205.399 98.1094 205.33 96.7151C205.292 95.9546 205.296 95.1881 205.328 94.4261C205.381 93.1239 206.143 92.297 207.42 92.1189C207.689 92.0812 207.965 92.0903 208.239 92.0872C208.785 92.0827 209.332 92.0842 209.877 92.0842C349.854 92.0842 489.833 92.0842 629.81 92.0842C630.466 92.0842 631.121 92.0933 631.776 92.0857C632.46 92.0797 633.059 92.3151 633.606 92.7059C634.121 93.0741 634.457 93.5524 634.462 94.2058C634.469 95.1323 634.495 96.0603 634.45 96.9852C634.409 97.8182 633.958 98.4066 633.175 98.728C632.668 98.9363 632.156 99.0992 631.593 99.0721C631.048 99.0464 630.502 99.0676 629.955 99.0676C559.94 99.0676 489.924 99.0676 419.907 99.0676Z" fill="black"/>
<path d="M353.091 120.705C353.062 121.018 353.062 121.344 352.999 121.658C352.621 123.524 352.217 125.385 351.847 127.251C351.562 128.695 350.826 129.872 349.798 130.894C349.406 131.283 348.954 131.541 348.43 131.749C346.826 132.385 345.153 132.581 343.456 132.584C335.92 132.6 328.383 132.599 320.847 132.582C319.479 132.579 318.131 132.383 316.83 131.915C315.074 131.283 314.273 129.954 314.091 128.2C314.007 127.392 314.088 126.58 314.253 125.765C314.848 122.829 315.569 119.921 316.089 116.965C316.588 114.125 318.397 112.344 321.231 111.682C322.133 111.471 323.056 111.374 323.992 111.374C331.856 111.383 339.72 111.385 347.584 111.371C348.524 111.37 349.437 111.51 350.333 111.75C352.792 112.408 354.256 114.3 353.997 116.99C353.986 117.099 353.978 117.209 353.954 117.315C353.369 119.866 353.889 119.474 351.466 119.495C349.173 119.515 346.878 119.506 344.585 119.495C343.778 119.492 343.778 119.474 343.593 118.625C343.47 118.05 343.316 117.875 342.76 117.796C342.384 117.743 341.999 117.733 341.619 117.731C337.087 117.727 332.553 117.748 328.021 117.719C326.04 117.707 325.891 118.104 325.565 119.788C325.201 121.659 324.741 123.512 324.333 125.376C324.149 126.221 324.421 126.633 325.245 126.743C325.677 126.8 326.116 126.812 326.552 126.814C331.03 126.818 335.509 126.818 339.987 126.814C340.423 126.814 340.859 126.779 341.294 126.743C341.697 126.708 342.01 126.491 342.263 126.19C342.445 125.976 342.561 125.727 342.503 125.442C342.431 125.072 342.109 125.125 341.859 125.124C339.566 125.115 337.271 125.118 334.978 125.116C334.541 125.116 334.104 125.124 333.667 125.105C333.221 125.087 333.097 124.932 333.19 124.488C333.414 123.422 333.64 122.356 333.891 121.295C334.064 120.559 334.084 120.562 334.893 120.539C335.166 120.532 335.44 120.538 335.713 120.538C340.956 120.538 346.199 120.533 351.441 120.544C351.977 120.542 352.532 120.422 353.091 120.705Z" fill="black"/>
<path d="M436.725 111.867C435.614 111.543 434.498 111.369 433.342 111.375C429.521 111.39 425.698 111.381 421.877 111.381C417.948 111.381 414.018 111.39 410.085 111.377C408.761 111.372 407.449 111.515 406.231 112.004C404.572 112.671 403.135 113.628 402.644 115.52C402.452 116.258 402.185 116.975 402.013 117.716C401.519 119.839 401.042 121.965 400.591 124.096C400.399 124.999 400.265 125.918 400.15 126.837C400.061 127.542 400.111 128.248 400.241 128.951C400.478 130.225 401.178 131.109 402.348 131.678C403.76 132.366 405.268 132.579 406.8 132.583C414.442 132.606 422.086 132.606 429.729 132.585C431.427 132.579 433.093 132.309 434.682 131.657C435.202 131.443 435.635 131.159 436.002 130.732C436.942 129.638 437.638 128.419 437.933 127.002C438.502 124.287 439.024 121.564 439.607 118.853C439.791 117.996 439.897 117.144 439.943 116.272C440.06 114.081 438.449 112.368 436.725 111.867ZM429.346 120.242C429.039 121.731 428.698 123.213 428.352 124.695C428.159 125.521 427.851 125.764 426.993 125.825C426.669 125.847 426.34 125.835 426.014 125.835C421.544 125.837 417.072 125.837 412.6 125.835C412.274 125.835 411.945 125.849 411.619 125.826C410.755 125.767 410.491 125.448 410.555 124.556C410.567 124.393 410.586 124.23 410.621 124.071C410.968 122.476 411.334 120.885 411.664 119.287C411.808 118.595 412.212 118.248 412.893 118.197C413.382 118.161 413.873 118.134 414.362 118.132C416.489 118.126 418.615 118.129 420.74 118.129C423.029 118.131 425.321 118.113 427.609 118.135C429.528 118.155 429.726 118.398 429.346 120.242Z" fill="black"/>
<path d="M396.32 115.605C396.28 113.779 395.36 112.535 393.644 111.899C392.499 111.475 391.317 111.374 390.105 111.375C381.098 111.384 372.092 111.38 363.083 111.381C362.701 111.381 362.318 111.383 361.936 111.387C361.562 111.393 361.325 111.582 361.24 111.945C361.02 112.902 360.789 113.854 360.591 114.814C359.904 118.174 359.244 121.541 358.547 124.9C358.071 127.192 357.544 129.475 357.057 131.765C356.925 132.386 357.081 132.58 357.704 132.583C360.488 132.595 363.272 132.598 366.056 132.586C366.977 132.582 366.995 132.541 367.191 131.565C367.481 130.124 367.76 128.68 368.064 127.242C368.225 126.483 368.328 126.374 369.007 126.369C371.737 126.354 374.465 126.368 377.196 126.356C377.68 126.354 378.022 126.546 378.296 126.928C378.93 127.813 379.59 128.683 380.209 129.579C380.799 130.431 381.452 131.233 382.105 132.035C382.463 132.476 382.854 132.598 383.373 132.597C386.485 132.588 389.596 132.592 392.709 132.588C392.871 132.588 393.047 132.588 393.189 132.523C393.334 132.459 393.429 132.301 393.346 132.129C393.278 131.984 393.188 131.848 393.091 131.72C391.657 129.819 390.22 127.919 388.601 125.781C389.756 125.787 390.629 125.653 391.455 125.389C393.378 124.771 394.829 123.637 395.282 121.539C395.59 120.104 395.926 118.674 396.206 117.233C396.311 116.702 396.331 116.146 396.32 115.605ZM386.02 118.271C385.914 118.802 385.806 119.338 385.642 119.854C385.461 120.421 385.052 120.758 384.433 120.785C384.161 120.798 383.888 120.798 383.616 120.798C379.414 120.798 375.214 120.8 371.012 120.797C370.685 120.797 370.356 120.798 370.031 120.765C369.791 120.743 369.617 120.56 369.646 120.331C369.761 119.415 369.9 118.5 370.048 117.587C370.088 117.335 370.31 117.251 370.535 117.24C371.026 117.221 371.516 117.215 372.007 117.213C373.971 117.212 375.935 117.213 377.899 117.213C379.974 117.213 382.046 117.212 384.121 117.215C384.501 117.215 384.886 117.204 385.264 117.252C385.852 117.329 386.132 117.713 386.02 118.271Z" fill="black"/>
<path d="M523.148 112.105C522.707 111.891 522.257 111.72 521.768 111.616C520.908 111.434 520.044 111.376 519.17 111.378C514.642 111.382 510.115 111.379 505.589 111.379H499.043C496.644 111.379 494.242 111.376 491.843 111.381C490.429 111.384 490.296 111.216 490.02 112.781C489.678 114.708 489.28 116.627 488.889 118.547C487.995 122.917 487.088 127.287 486.187 131.655C486.031 132.412 486.135 132.583 486.845 132.586C489.627 132.598 492.408 132.598 495.19 132.584C495.895 132.581 496.007 132.489 496.187 131.764C496.46 130.655 496.671 129.529 496.94 128.42C497.278 127.026 497.015 127.08 498.629 127.08C504.52 127.08 510.411 127.081 516.302 127.078C516.901 127.078 517.502 127.044 518.1 127.048C519.327 127.056 520.452 126.632 521.59 126.259C522.01 126.12 522.361 125.864 522.626 125.494C523.296 124.564 523.909 123.618 524.2 122.479C524.671 120.634 525.043 118.769 525.322 116.885C525.378 116.511 525.39 116.126 525.4 115.746C525.455 114.04 524.674 112.838 523.148 112.105ZM514.86 119.621C514.597 121.043 514.377 121.245 512.918 121.249C508.397 121.266 503.874 121.255 499.351 121.254C499.188 121.254 499.023 121.254 498.863 121.222C498.619 121.174 498.484 120.988 498.522 120.759C498.652 119.955 498.785 119.147 498.961 118.354C499.138 117.577 499.185 117.549 500.1 117.546C502.388 117.536 504.676 117.542 506.964 117.542C509.09 117.542 511.214 117.539 513.338 117.545C513.717 117.545 514.1 117.555 514.476 117.604C514.777 117.643 514.972 117.878 514.972 118.164C514.973 118.649 514.949 119.143 514.86 119.621Z" fill="black"/>
<path d="M484.094 111.378C483.626 113.524 483.263 115.442 482.783 117.33C482.111 119.969 481.758 122.668 481.184 125.326C480.851 126.871 480.461 128.38 479.625 129.762C479.093 130.64 478.441 131.281 477.492 131.683C475.953 132.335 474.333 132.568 472.699 132.576C465.331 132.609 457.964 132.603 450.595 132.579C449.229 132.575 447.889 132.333 446.601 131.816C445.005 131.174 444.226 129.949 444.033 128.324C443.936 127.518 443.982 126.702 444.166 125.89C444.706 123.5 445.216 121.104 445.715 118.703C446.112 116.783 446.472 114.858 446.85 112.934C446.892 112.72 446.936 112.507 446.99 112.296C447.208 111.442 447.245 111.41 448.065 111.378C448.228 111.372 448.393 111.377 448.556 111.377C450.958 111.377 453.358 111.375 455.76 111.38C456.085 111.38 456.415 111.386 456.731 111.449C456.848 111.473 457.008 111.659 457.019 111.783C457.042 112.047 457.004 112.323 456.951 112.586C456.226 116.16 455.493 119.733 454.767 123.308C454.681 123.734 454.591 124.162 454.566 124.594C454.534 125.098 454.798 125.412 455.316 125.49C455.745 125.555 456.184 125.575 456.619 125.575C460.712 125.581 464.806 125.578 468.899 125.578C469.172 125.578 469.445 125.587 469.717 125.565C470.946 125.475 471.172 125.285 471.408 124.025C472.155 120.013 473.118 116.047 474.018 112.068C474.157 111.455 474.21 111.389 474.913 111.384C477.042 111.369 479.17 111.377 481.299 111.377C482.16 111.378 483.025 111.378 484.094 111.378Z" fill="black"/>
<path d="M419.264 99.2564C348.951 99.2564 278.637 99.2473 208.325 99.2926C205.604 99.2941 204.979 98.1564 205.001 96.0559C205.032 92.8781 205.686 92.0331 208.338 92.0045C209.11 91.9954 209.88 92.0029 210.651 92.0029C350.671 92.0029 490.692 92.0029 630.712 92.0029C634.104 92.0029 635.836 94.8397 634.302 97.8697C633.641 99.1764 632.451 99.3816 631.169 99.3696C630.405 99.362 629.643 99.2609 628.881 99.2609C559.009 99.2564 489.136 99.2564 419.264 99.2564Z" fill="#FC6E27"/>
<path d="M633.828 41.9413L631.862 54.8352C630.483 63.8753 627.483 70.2234 622.865 73.8841C618.245 77.5433 610.729 79.3736 600.318 79.3736H590.389C581.494 79.3736 575.167 78.0563 571.411 75.4217C567.652 72.7886 565.773 68.3387 565.773 62.0706C565.773 59.9083 565.98 57.4955 566.394 54.8337L568.36 41.9398C569.738 32.9012 572.738 26.5516 577.357 22.8909C581.975 19.2302 589.457 17.4014 599.8 17.4014H609.729C618.555 17.4014 624.88 18.7187 628.707 21.3518C632.534 23.9864 634.447 28.4091 634.447 34.6199C634.448 36.8411 634.242 39.2795 633.828 41.9413ZM615.108 43.2722C615.315 41.4977 615.47 40.2362 615.573 39.4877C615.676 38.7393 615.729 38.0045 615.729 37.2832C615.729 34.5671 614.953 32.7232 613.402 31.7514C611.85 30.7812 608.937 30.2953 604.663 30.2953H600.94C595.63 30.2953 592.131 31.1146 590.443 32.7488C588.752 34.3845 587.495 37.8928 586.667 43.2707L585.115 53.5858C584.702 56.0273 584.495 58.0507 584.495 59.6578C584.495 62.2652 585.271 64.0533 586.821 65.0236C588.373 65.9938 591.251 66.4797 595.457 66.4797H599.18C604.557 66.4797 608.09 65.6619 609.78 64.0262C611.47 62.3905 612.727 58.9108 613.555 53.5873L615.108 43.2722Z" fill="black"/>
<path d="M269.151 18.0898L262.057 60.39C259.921 73.047 251.378 79.3755 236.429 79.3755H226.131C218.656 79.3755 213.203 78.3494 209.771 76.2942C206.338 74.2406 204.622 70.8545 204.622 66.1361C204.622 65.4706 204.679 64.6784 204.794 63.7625C204.908 62.8466 205.004 62.1117 205.079 61.5564L206.451 53.6465H225.902C225.902 53.6465 224.794 60.8412 224.635 62.4256C224.592 62.8677 224.643 60.8065 224.643 61.3059C224.643 61.8054 224.643 62.1389 224.643 62.3049C224.643 65.0813 226.51 66.468 230.25 66.468H234.255C236.695 66.468 238.488 65.9686 239.632 64.9696C240.777 63.9707 241.538 62.2777 241.921 59.8905L248.9 18.0898H269.151Z" fill="black"/>
<path d="M332.249 79.3349L313.584 79.2384L311.813 70.4865L285.178 70.6797L279.826 79.3636L260.962 79.3727L295.147 18.5502L318.297 18.5352L332.249 79.3349ZM309.518 57.4357L304.526 35.4715L294.438 57.4462L309.518 57.4357Z" fill="black"/>
<path d="M398.967 18.2617L369.842 79.3754H341.822L331.277 18.2617H349.857L357.849 57.2301L380.488 18.2617H398.967Z" fill="black"/>
<path d="M423.886 18.5684L414.093 79.3742H394.615L404.408 18.5684H423.886Z" fill="black"/>
<path d="M561.373 42.3528L559.462 55.0868C558.12 64.0831 555.236 70.3799 550.81 73.9772C546.384 77.576 539.106 79.3747 528.98 79.3747H492.765L501.719 18.0664H537.934C546.518 18.0664 552.671 19.3731 556.394 21.9881C560.117 24.6016 561.977 29.0017 561.977 35.1853C561.977 37.322 561.776 39.7107 561.373 42.3528ZM543.165 43.5328C543.568 41.0597 543.769 39.0075 543.769 37.3763C543.769 34.6783 543.014 32.8374 541.506 31.8521C539.996 30.8698 537.196 30.3764 533.106 30.3764H517.513L512.181 67.0602H527.774C532.937 67.0602 536.341 66.2318 537.985 64.572C539.628 62.9137 540.852 59.3586 541.657 53.9038L543.165 43.5328Z" fill="black"/>
<path d="M491.212 42.3528L489.301 55.0868C487.959 64.0831 485.075 70.3799 480.649 73.9772C476.223 77.576 468.944 79.3747 458.819 79.3747H422.604L431.557 18.0664H467.773C476.357 18.0664 482.51 19.3731 486.233 21.9881C489.956 24.6016 491.816 29.0017 491.816 35.1853C491.816 37.322 491.614 39.7107 491.212 42.3528ZM473.002 43.5328C473.406 41.0597 473.606 39.0075 473.606 37.3763C473.606 34.6783 472.851 32.8374 471.343 31.8521C469.834 30.8698 467.033 30.3764 462.943 30.3764H447.35L442.018 67.0602H457.611C462.774 67.0602 466.179 66.2318 467.823 64.572C469.465 62.9137 470.69 59.3586 471.494 53.9038L473.002 43.5328Z" fill="black"/>
</svg>
