<svg width="462" height="513" viewBox="0 0 462 513" fill="none" xmlns="http://www.w3.org/2000/svg">
<path d="M220.772 371.86L33.4904 163.86C32.1402 162.373 31.0684 160.603 30.337 158.653C29.6056 156.703 29.2291 154.612 29.2291 152.5C29.2291 150.388 29.6056 148.297 30.337 146.347C31.0684 144.397 32.1402 142.627 33.4904 141.14C34.8297 139.64 36.423 138.45 38.1786 137.638C39.9341 136.825 41.8171 136.407 43.7189 136.407C45.6207 136.407 47.5036 136.825 49.2592 137.638C51.0147 138.45 52.608 139.64 53.9473 141.14L231 337.94L408.053 141.14C410.766 138.127 414.445 136.435 418.281 136.435C420.181 136.435 422.062 136.85 423.817 137.657C425.572 138.465 427.167 139.648 428.51 141.14C429.853 142.632 430.919 144.403 431.645 146.352C432.372 148.301 432.747 150.39 432.747 152.5C432.747 156.761 431.223 160.847 428.51 163.86L241.229 371.86C239.889 373.36 238.296 374.55 236.54 375.362C234.785 376.175 232.902 376.593 231 376.593C229.098 376.593 227.215 376.175 225.46 375.362C223.704 374.55 222.111 373.36 220.772 371.86Z" fill="#707070"/>
</svg>
