<svg width="1024" height="1024" viewBox="0 0 1024 1024" fill="none" xmlns="http://www.w3.org/2000/svg">
<rect width="1024" height="1024" fill="black"/>
<path d="M426.29 581.671C426.299 583.512 425.118 585.158 423.359 585.734L377.313 600.908C377.006 601.011 376.699 601.076 376.392 601.104C373.964 601.345 371.722 599.449 371.704 596.873L370.634 385.747V385.124L369.694 200.088C369.676 197.02 366.532 194.975 363.722 196.193L247.722 246.457C244.904 247.675 241.75 245.611 241.75 242.542V206.662C241.75 205.184 242.513 203.817 243.769 203.036L418.169 94.772C421.006 93.0147 424.68 95.0416 424.69 98.3889L425.573 366.417V366.557L426.048 508.544L426.29 581.671Z" fill="white"/>
<path d="M550.329 546.697L505.548 561.08C503.492 561.74 501.381 560.216 501.371 558.049L500.394 344.339V344.311L499.25 91.0102C499.204 79.8063 505.939 69.4671 516.469 65.6271C519.353 64.5765 522.45 64 525.66 64C530.246 64 534.608 65.1715 538.441 67.2449C546.99 71.8753 552.088 81.0522 552.097 90.7684C552.181 170.934 552.264 251.119 552.339 331.285V331.582C552.413 402.264 552.488 472.965 552.562 543.647C552.543 545.042 551.65 546.269 550.329 546.697Z" fill="#FC6E27"/>
<path d="M499.376 960.772C499.283 975.333 509.915 987.503 523.58 988.247C524.287 988.284 525.003 988.303 525.72 988.303C526.808 988.303 527.878 988.257 528.938 988.173C542.12 987.085 552.148 975.082 552.176 961.023C552.315 867.85 552.455 774.667 552.594 681.493C552.613 668.514 544.045 657.31 532.101 654.697C516.241 651.22 501.357 664.032 501.245 681.261L499.376 960.772Z" fill="#FC6E27"/>
<path d="M812.237 785.843C812.19 792.891 811.074 805.257 804.693 818.962C797.66 834.034 787.92 843.657 782.032 847.823C734.86 881.146 683.92 908.779 634.627 938.904C631.781 940.643 628.125 938.607 628.125 935.269V622.025C646.451 615.442 664.246 608.599 681.455 601.542V835.215C681.455 838.376 684.776 840.44 687.613 839.045L754.413 806.308C755.855 805.601 756.776 804.16 756.804 802.561L760.404 621.514L761.52 565.085L761.567 562.937C761.632 560.073 764.432 558.084 767.148 558.958L771.027 560.204L809.204 572.477C810.962 573.044 812.162 574.671 812.162 576.521C812.172 580.259 812.19 587.223 812.2 596.447C812.302 642.545 812.479 745.24 812.237 785.843Z" fill="white"/>
<path d="M429.604 677.25V935.293C429.604 938.63 425.949 940.667 423.102 938.928C373.809 908.803 322.87 881.17 275.697 847.847C269.809 843.681 260.069 834.058 253.037 818.986C246.656 805.281 245.539 792.915 245.502 785.867C245.446 776.978 245.409 765.105 245.39 751.502C245.372 735.287 245.372 716.617 245.381 697.594C262.33 697.538 280.181 696.822 298.795 695.455L299.828 747.551L300.925 802.585C300.963 804.184 301.883 805.625 303.316 806.332L370.125 839.069C372.963 840.464 376.274 838.4 376.274 835.239V686.613C393.651 683.972 411.456 680.848 429.604 677.25Z" fill="white"/>
<path d="M812.066 591.46C795.545 599.977 778.252 608.345 760.271 616.536C735.229 627.926 708.848 638.953 681.323 649.487C663.983 656.126 646.197 662.569 627.993 668.78C606.291 676.181 584.003 683.257 561.231 689.951C558.272 690.816 555.324 691.681 552.375 692.527C535.082 697.501 517.919 702.141 500.933 706.436C476.719 712.545 452.85 717.975 429.464 722.707C411.38 726.38 393.585 729.634 376.134 732.47C349.799 736.766 324.246 740.122 299.697 742.549C280.935 744.408 262.758 745.729 245.251 746.5C112.926 752.395 18.9455 727.57 2.95486 673.206C-20.9985 591.776 101.698 472.021 333.957 388.146C140.833 460.306 46.5081 560.796 66.601 629.125C79.0846 671.551 147.186 692.945 245.251 692.583C262.2 692.527 280.051 691.811 298.655 690.444C323.251 688.65 349.176 685.702 376.134 681.611C393.511 678.971 411.315 675.847 429.464 672.248C468.078 664.587 508.254 654.759 549.193 642.728C576.328 634.75 602.663 626.15 627.993 617.048C646.318 610.474 664.114 603.631 681.323 596.574C709.741 584.924 736.532 572.697 761.387 560.117C764.597 558.49 767.769 556.863 770.904 555.227C891.052 492.699 962.921 422.185 947.647 370.257C937.098 334.377 886.782 313.541 812.206 308.176C812.215 305.331 812.215 302.523 812.206 299.761C927.061 299.138 1007 324.159 1021.62 373.902C1039.62 435.1 954.214 518.305 812.066 591.46Z" fill="#FC6E27"/>
<path d="M812.348 305.769C812.376 365.6 812.2 443.191 812.162 459.518C812.162 461.368 810.962 462.995 809.204 463.562L767.148 477.081C764.423 477.955 761.632 475.965 761.567 473.102L758.218 304.514L758.116 299.381L756.804 233.478C756.776 231.879 755.855 230.438 754.413 229.731L687.613 196.994C684.776 195.599 681.455 197.663 681.455 200.824V501.497C681.455 503.348 680.265 504.993 678.497 505.56L651.204 514.328L633.706 519.944C630.953 520.837 628.125 518.782 628.125 515.881V100.77C628.125 97.4324 631.781 95.3962 634.627 97.1349C683.92 127.26 734.86 154.893 782.032 188.216C787.92 192.382 797.66 202.005 804.693 217.077C811.074 230.782 812.19 243.148 812.237 250.196C812.311 261.771 812.339 278.415 812.348 297.345C812.358 300.106 812.358 302.914 812.348 305.769Z" fill="white"/>
</svg>
