<svg width="50" height="50" viewBox="0 0 50 50" fill="none" xmlns="http://www.w3.org/2000/svg">
<path d="M40.6602 12H9.33984C7.49454 12 6 13.5038 6 15.3398V35.3789C6 37.2258 7.50553 38.7188 9.33984 38.7188H40.6602C42.49 38.7188 44 37.2321 44 35.3789V15.3398C44 13.5071 42.5114 12 40.6602 12ZM40.1924 14.2266C39.5101 14.9053 27.7671 26.5864 27.3616 26.9897C26.7308 27.6206 25.8921 27.9679 25 27.9679C24.1079 27.9679 23.2692 27.6205 22.6363 26.9877C22.3636 26.7164 10.7502 15.1642 9.80757 14.2266H40.1924ZM8.22656 34.9257V15.7944L17.8481 25.3653L8.22656 34.9257ZM9.80898 36.4922L19.4268 26.9356L21.064 28.5641C22.1153 29.6155 23.5132 30.1945 25 30.1945C26.4868 30.1945 27.8847 29.6155 28.934 28.5662L30.5732 26.9356L40.191 36.4922H9.80898ZM41.7734 34.9257L32.1519 25.3653L41.7734 15.7944V34.9257Z" fill="#555555"/>
</svg>
