<svg width="50" height="50" viewBox="0 0 50 50" fill="none" xmlns="http://www.w3.org/2000/svg">
<path d="M24.6667 6C17.6824 6 12 11.6824 12 18.6667C12 20.7634 12.5242 22.8422 13.5207 24.6861L23.974 43.5918C24.1132 43.8438 24.3784 44 24.6667 44C24.955 44 25.2202 43.8438 25.3594 43.5918L35.8165 24.6799C36.8092 22.8422 37.3334 20.7633 37.3334 18.6666C37.3334 11.6824 31.651 6 24.6667 6ZM24.6667 25C21.1746 25 18.3334 22.1588 18.3334 18.6667C18.3334 15.1746 21.1746 12.3334 24.6667 12.3334C28.1588 12.3334 31 15.1746 31 18.6667C31 22.1588 28.1588 25 24.6667 25Z" fill="#555555"/>
</svg>
