<svg width="50" height="50" viewBox="0 0 50 50" fill="none" xmlns="http://www.w3.org/2000/svg">
<path d="M31.0143 38.6191C30.7979 35.8452 30.0552 33.5534 27.3017 33.3534L25.6482 33.2433C24.4429 33.1583 20.6259 34.5762 21.3233 24.6031C22.0148 14.6378 25.6038 16.5675 26.8052 16.6583L28.4645 16.7723C31.2132 16.9616 32.2698 14.7962 32.8686 12.0784L33.2337 10.4346C33.8238 7.71581 33.7514 5.47029 31.0008 5.27519L29.5095 5.17475C28.3844 4.998 25.0233 4.71985 21.6536 7.20682C17.6087 10.1893 15.2608 15.8886 14.6852 24.1424C14.1028 32.3934 15.6385 38.366 19.2332 41.8835C22.2205 44.8071 25.5912 45.006 26.726 44.9877L28.2211 45.09C30.9669 45.2822 31.3542 43.0695 31.1398 40.2919L31.0143 38.6191Z" fill="#555555"/>
</svg>
