<svg height="512" viewBox="0 0 100 100" width="512" xmlns="http://www.w3.org/2000/svg"><g id="Layer_9_copy_6" fill="rgb(0,0,0)" data-name="Layer 9 copy 6"><path d="m75 38.73v-15.36a10.7 10.7 0 0 0 -10.67-10.69h-3.84v-1.68a5.08 5.08 0 0 0 -5.08-5h-1.73a5.08 5.08 0 0 0 -5.08 5v1.66h-18.9v-1.15a5.08 5.08 0 0 0 -5.08-5.07h-1.73a5.07 5.07 0 0 0 -5.07 5.07v1.17h-3.82a10.7 10.7 0 0 0 -10.72 10.69v46.63a10.71 10.71 0 0 0 10.72 10.69h30.82a28 28 0 1 0 30.2-42zm-23.4-27.73a2.08 2.08 0 0 1 2.08-2h1.73a2.08 2.08 0 0 1 2.08 2v10.74a2.08 2.08 0 0 1 -2.08 2.07h-1.73a2.08 2.08 0 0 1 -2.08-2.07zm-30.78.49a2.07 2.07 0 0 1 2.07-2.07h1.73a2.08 2.08 0 0 1 2.08 2.07v10.74a2.08 2.08 0 0 1 -2.08 2.07h-1.73a2.07 2.07 0 0 1 -2.07-2.07zm-14.54 11.88a7.7 7.7 0 0 1 7.72-7.69h3.85v6.55a5.08 5.08 0 0 0 5.07 5.07h1.73a5.09 5.09 0 0 0 5.08-5.07v-6.55h18.87v6.06a5.08 5.08 0 0 0 5.08 5.07h1.73a5.08 5.08 0 0 0 5.08-5.07v-6.06h3.84a7.7 7.7 0 0 1 7.67 7.69v7.05h-65.72zm7.72 54.32a7.7 7.7 0 0 1 -7.72-7.69v-36.58h65.72v4.79a28.08 28.08 0 0 0 -3.31-.21 29.25 29.25 0 0 0 -4.31.33h-50.79a1.5 1.5 0 0 0 -1.5 1.5v29.35a1.5 1.5 0 0 0 1.5 1.5h27.47a27.71 27.71 0 0 0 2.16 7zm26.75-10h-8.62v-11.69h10.4a27.78 27.78 0 0 0 -1.86 10c0 .58.02 1.13.05 1.68zm-11.62-14.69h-14v-11.67h14zm-14 3h14v11.68h-14zm17-3v-11.67h14v8a27.8 27.8 0 0 0 -2.24 3.67zm23.32-11.67a28.51 28.51 0 0 0 -6.28 4.67v-4.67zm13.24 49.72a25 25 0 1 1 25-25 25 25 0 0 1 -25 25z"/><path d="m64 47.19a1.32 1.32 0 0 0 .34 0 18.54 18.54 0 0 1 2.88-.44 1.5 1.5 0 1 0 -.23-3 22.93 22.93 0 0 0 -3.32.51 1.5 1.5 0 0 0 .33 3z"/><path d="m49.61 62.64a19.7 19.7 0 0 1 1.3-4.29 19.8 19.8 0 0 1 7.83-9 1.5 1.5 0 1 0 -1.55-2.57 22.37 22.37 0 0 0 -10.53 15.34 1.49 1.49 0 0 0 1.22 1.74h.26a1.5 1.5 0 0 0 1.47-1.22z"/><path d="m87.69 58-11-11a4 4 0 0 0 -5.49 0l-.29.29a3.89 3.89 0 0 0 -1.14 2.75 3.78 3.78 0 0 0 .3 1.49l-2.71 2.7a6 6 0 0 0 -1.65 5.12l.61 3.85-.41.42-3.91-.62a5.92 5.92 0 0 0 -5.11 1.66l-2.72 2.72a4 4 0 0 0 -4.22.82l-.29.3a3.87 3.87 0 0 0 0 5.49l11 11a3.86 3.86 0 0 0 5.48 0l.3-.29a3.86 3.86 0 0 0 1.18-2.7 4 4 0 0 0 -.29-1.5l2.7-2.7a5.92 5.92 0 0 0 1.66-5.11l-.62-3.86.41-.41 3.86.61a6 6 0 0 0 5.12-1.65l2.7-2.71a3.78 3.78 0 0 0 1.49.3 3.89 3.89 0 0 0 2.75-1.14l.29-.29a3.87 3.87 0 0 0 0-5.49zm-23.32 24.61-.3.29a.9.9 0 0 1 -1.24 0l-11-11a.86.86 0 0 1 0-1.24l.29-.3a.91.91 0 0 1 1.25 0l11 11a.88.88 0 0 1 .26.63.9.9 0 0 1 -.26.62zm14-17.37a2.91 2.91 0 0 1 -2.51.82l-4.62-.74a1.51 1.51 0 0 0 -1.29.42l-1.5 1.5a1.49 1.49 0 0 0 -.42 1.3l.73 4.61a2.9 2.9 0 0 1 -.81 2.52l-2.5 2.5-8.86-8.86 2.5-2.5a2.93 2.93 0 0 1 2.48-.81l4.61.74a1.5 1.5 0 0 0 1.3-.42l1.5-1.5a1.51 1.51 0 0 0 .42-1.29l-.74-4.62a2.9 2.9 0 0 1 .81-2.51l2.5-2.5 8.86 8.86zm7.24-3.83-.3.29a.9.9 0 0 1 -1.24 0l-11-11a.87.87 0 0 1 -.26-.62.84.84 0 0 1 .26-.62l.29-.3a.91.91 0 0 1 1.25 0l11 11a.88.88 0 0 1 0 1.25z"/></g></svg>