<svg width="512" height="258" viewBox="0 0 512 258" fill="none" xmlns="http://www.w3.org/2000/svg">
<path d="M3.38416 136.838L119.747 253.202C123.927 258.083 131.273 258.652 136.154 254.471C141.035 250.291 141.604 242.945 137.423 238.064C137.033 237.609 136.609 237.184 136.154 236.795L39.6891 140.213L500.373 140.213C506.799 140.213 512.009 135.003 512.009 128.576C512.009 122.149 506.799 116.94 500.373 116.94L39.6891 116.94L136.154 20.4746C141.035 16.2946 141.604 8.94862 137.423 4.06763C133.242 -0.813385 125.897 -1.38235 121.016 2.79865C120.561 3.18864 120.136 3.61263 119.747 4.06763L3.38315 120.432C-1.12787 124.969 -1.12787 132.299 3.38416 136.838Z" fill="#FC6E27"/>
</svg>
