<svg width="439" height="439" viewBox="0 0 439 439" fill="none" xmlns="http://www.w3.org/2000/svg">
<path d="M259.522 219.332L430.33 48.5189C441.446 37.4082 441.446 19.4437 430.33 8.33302C419.219 -2.77767 401.255 -2.77767 390.144 8.33302L219.331 179.146L48.5228 8.33302C37.4069 -2.77767 19.4476 -2.77767 8.33693 8.33302C-2.77898 19.4437 -2.77898 37.4082 8.33693 48.5189L179.145 219.332L8.33693 390.145C-2.77898 401.256 -2.77898 419.221 8.33693 430.331C13.8741 435.874 21.1546 438.658 28.4299 438.658C35.7051 438.658 42.9804 435.874 48.5228 430.331L219.331 259.518L390.144 430.331C395.686 435.874 402.962 438.658 410.237 438.658C417.512 438.658 424.788 435.874 430.33 430.331C441.446 419.221 441.446 401.256 430.33 390.145L259.522 219.332Z" fill="black"/>
</svg>
