<svg width="512" height="258" viewBox="0 0 512 258" fill="none" xmlns="http://www.w3.org/2000/svg">
<path d="M508.625 120.432L392.262 4.06764C388.082 -0.813359 380.736 -1.38236 375.855 2.79864C370.974 6.97864 370.405 14.3246 374.586 19.2056C374.976 19.6606 375.4 20.0856 375.855 20.4746L472.32 117.057H11.636C5.21 117.057 0 122.267 0 128.694C0 135.121 5.21 140.33 11.636 140.33H472.32L375.855 236.795C370.974 240.975 370.405 248.321 374.586 253.202C378.767 258.083 386.112 258.652 390.993 254.471C391.448 254.081 391.873 253.657 392.262 253.202L508.626 136.838C513.137 132.301 513.137 124.971 508.625 120.432Z" fill="#FC6E27"/>
</svg>
