<svg width="50" height="50" viewBox="0 0 50 50" fill="none" xmlns="http://www.w3.org/2000/svg">
<path fill-rule="evenodd" clip-rule="evenodd" d="M22.6708 32.5609C22.6708 31.1728 22.1197 29.8422 21.1379 28.8621C20.1578 27.8803 18.8272 27.3292 17.4391 27.3292C13.9757 27.3292 8.69512 27.3292 5.23172 27.3292C3.84357 27.3292 2.51297 27.8803 1.53289 28.8621C0.551071 29.8422 0 31.1728 0 32.5609V44.7683C0 46.1564 0.551071 47.487 1.53289 48.4671C2.51297 49.4489 3.84357 50 5.23172 50H17.4391C18.8272 50 20.1578 49.4489 21.1379 48.4671C22.1197 47.487 22.6708 46.1564 22.6708 44.7683V32.5609ZM48.8294 32.5609C48.8294 31.1728 48.2783 29.8422 47.2965 28.8621C46.3164 27.8803 44.9858 27.3292 43.5977 27.3292C40.1343 27.3292 34.8537 27.3292 31.3903 27.3292C30.0022 27.3292 28.6716 27.8803 27.6915 28.8621C26.7097 29.8422 26.1586 31.1728 26.1586 32.5609V44.7683C26.1586 46.1564 26.7097 47.487 27.6915 48.4671C28.6716 49.4489 30.0022 50 31.3903 50H43.5977C44.9858 50 46.3164 49.4489 47.2965 48.4671C48.2783 47.487 48.8294 46.1564 48.8294 44.7683V32.5609ZM19.183 32.5609V44.7683C19.183 45.2304 18.9999 45.6751 18.672 46.0012C18.3459 46.3291 17.9012 46.5122 17.4391 46.5122H5.23172C4.76959 46.5122 4.32489 46.3291 3.99878 46.0012C3.67092 45.6751 3.48781 45.2304 3.48781 44.7683V32.5609C3.48781 32.0988 3.67092 31.6541 3.99878 31.328C4.32489 31.0001 4.76959 30.817 5.23172 30.817H17.4391C17.9012 30.817 18.3459 31.0001 18.672 31.328C18.9999 31.6541 19.183 32.0988 19.183 32.5609ZM45.3416 32.5609V44.7683C45.3416 45.2304 45.1585 45.6751 44.8306 46.0012C44.5045 46.3291 44.0598 46.5122 43.5977 46.5122H31.3903C30.9282 46.5122 30.4835 46.3291 30.1574 46.0012C29.8295 45.6751 29.6464 45.2304 29.6464 44.7683V32.5609C29.6464 32.0988 29.8295 31.6541 30.1574 31.328C30.4835 31.0001 30.9282 30.817 31.3903 30.817H43.5977C44.0598 30.817 44.5045 31.0001 44.8306 31.328C45.1585 31.6541 45.3416 32.0988 45.3416 32.5609ZM41.1928 23.4804L48.4684 16.2048C50.5105 14.1627 50.5105 10.8493 48.4684 8.80716L41.1928 1.53159C39.1507 -0.510529 35.8373 -0.510529 33.7952 1.53159L26.5196 8.80716C24.4775 10.8493 24.4775 14.1627 26.5196 16.2048L33.7952 23.4804C35.8373 25.5225 39.1507 25.5225 41.1928 23.4804ZM22.6708 6.40232C22.6708 5.01417 22.1197 3.68356 21.1379 2.70349C20.1578 1.72167 18.8272 1.1706 17.4391 1.1706C13.9757 1.1706 8.69512 1.1706 5.23172 1.1706C3.84357 1.1706 2.51297 1.72167 1.53289 2.70349C0.551071 3.68356 0 5.01417 0 6.40232V18.6097C0 19.9978 0.551071 21.3284 1.53289 22.3085C2.51297 23.2903 3.84357 23.8414 5.23172 23.8414H17.4391C18.8272 23.8414 20.1578 23.2903 21.1379 22.3085C22.1197 21.3284 22.6708 19.9978 22.6708 18.6097V6.40232ZM46.0025 13.7389L38.7269 21.0145C38.0468 21.6946 36.9412 21.6946 36.2611 21.0145L28.9855 13.7389C28.3054 13.0588 28.3054 11.9532 28.9855 11.273L36.2611 3.99747C36.9412 3.31735 38.0468 3.31735 38.7269 3.99747L46.0025 11.273C46.6826 11.9532 46.6826 13.0588 46.0025 13.7389ZM19.183 6.40232V18.6097C19.183 19.0718 18.9999 19.5165 18.672 19.8426C18.3459 20.1705 17.9012 20.3536 17.4391 20.3536H5.23172C4.76959 20.3536 4.32489 20.1705 3.99878 19.8426C3.67092 19.5165 3.48781 19.0718 3.48781 18.6097V6.40232C3.48781 5.94018 3.67092 5.49549 3.99878 5.16937C4.32489 4.84152 4.76959 4.65841 5.23172 4.65841H17.4391C17.9012 4.65841 18.3459 4.84152 18.672 5.16937C18.9999 5.49549 19.183 5.94018 19.183 6.40232Z" fill="black"/>
</svg>
