<svg width="50" height="50" viewBox="0 0 50 50" fill="none" xmlns="http://www.w3.org/2000/svg">
<path d="M25.8242 27.6611C24.33 27.6542 22.8454 27.4201 21.4215 26.9668C19.1465 26.2057 17.4567 24.2797 16.998 21.9249C16.4961 19.5074 17.4108 16.9512 19.5069 14.9121C19.7319 14.693 19.9656 14.4832 20.2081 14.2826C22.3544 12.4857 25.2479 11.8613 27.9442 12.6131C30.5545 13.4462 32.3582 15.8318 32.4484 18.5703C32.5462 20.1467 32.0324 21.7001 31.0139 22.9073C30.2285 23.8967 28.9558 24.3641 27.7166 24.1181C27.2099 24.013 26.7677 23.7061 26.492 23.2681C26.2446 22.8426 26.1811 22.3347 26.3163 21.8615C26.8992 19.6579 27.4919 16.3092 27.4978 16.2752C27.5392 16.0406 27.7026 15.846 27.9265 15.7645C28.1503 15.6831 28.4006 15.7273 28.5831 15.8804C28.7655 16.0336 28.8524 16.2724 28.811 16.507C28.7863 16.6463 28.2027 19.9449 27.6054 22.2023C27.5627 22.3274 27.5734 22.4645 27.635 22.5814C27.7272 22.709 27.8662 22.7947 28.0216 22.8197C28.7802 22.9463 29.5464 22.642 30.0114 22.0294C30.8023 21.0833 31.1985 19.8689 31.118 18.6384C31.0528 16.4585 29.6233 14.5554 27.548 13.8854C25.2826 13.2623 22.8557 13.7946 21.059 15.3086C20.8448 15.4864 20.6365 15.6725 20.4367 15.8672C19.4004 16.8753 17.7455 18.967 18.3031 21.6534C18.6778 23.5303 20.0182 25.0685 21.8262 25.6962C24.9527 26.6935 29.4452 26.8136 31.8122 23.8704C32.0448 23.5904 32.459 23.5486 32.7427 23.7767C33.0265 24.0048 33.0748 24.4183 32.8512 24.7056C31.1009 26.8823 28.4373 27.6611 25.8242 27.6611Z" fill="#FC6E27"/>
<path d="M23.5414 24.2053C22.8368 24.2174 22.1495 23.9864 21.5953 23.551C20.3158 22.5271 20.2806 20.7482 20.6393 19.5367C20.7601 19.1333 20.9223 18.7434 21.1233 18.3733C21.6235 17.3642 22.4233 16.5342 23.4132 15.9969C24.646 15.3572 26.1522 15.5998 27.1219 16.5942C27.6029 17.1214 27.9653 17.7456 28.1845 18.4248C28.3006 18.7695 28.119 19.1436 27.7764 19.2656C27.4338 19.3876 27.0566 19.2125 26.9287 18.872C26.7706 18.3703 26.508 17.9077 26.1579 17.515C25.5926 16.9369 24.7118 16.8054 24.0022 17.1931C23.2598 17.6118 22.6632 18.2475 22.2924 19.0149C22.1365 19.3024 22.0106 19.6052 21.9167 19.9185C21.6577 20.7948 21.7146 21.9384 22.4294 22.5108C23.2109 23.1383 24.5293 22.873 25.271 22.2331C25.8238 21.7355 26.2988 21.1577 26.68 20.5191C26.8035 20.3122 27.029 20.188 27.2699 20.1943C27.5107 20.2006 27.7294 20.3363 27.8419 20.5494C27.9545 20.7624 27.9432 21.0196 27.8126 21.2221C27.361 21.9746 26.7988 22.6549 26.1448 23.2401C25.4158 23.8552 24.4951 24.1965 23.5414 24.2053Z" fill="#FC6E27"/>
<path d="M42.9973 44.9998H6.99986C5.89587 44.9986 5.00121 44.1039 5 42.9999V18.335C5.00001 18.0765 5.14947 17.8413 5.3835 17.7315C5.61752 17.6217 5.89393 17.6571 6.09272 17.8224L22.4496 31.4164C23.9296 32.6387 26.069 32.6383 27.5485 31.4155L43.9039 17.8224C44.1027 17.6568 44.3793 17.6212 44.6136 17.731C44.8478 17.8409 44.9973 18.0763 44.9972 18.335V42.9999C44.996 44.1039 44.1013 44.9986 42.9973 44.9998ZM6.33324 19.7558V42.9999C6.33372 43.3679 6.63189 43.6661 6.99986 43.6666H42.9973C43.3653 43.6662 43.6636 43.368 43.6639 42.9999V19.7558L28.3997 32.4416C26.4261 34.0726 23.5725 34.073 21.5984 32.4426L6.33324 19.7558Z" fill="#FC6E27"/>
<path d="M5.66727 19.0023C5.37691 19.0025 5.11978 18.8148 5.03156 18.5382C4.94334 18.2615 5.04433 17.9596 5.28123 17.7917L11.2808 13.5387C11.5812 13.3305 11.9932 13.403 12.2045 13.7012C12.4158 13.9994 12.3475 14.4121 12.0516 14.6265L6.05198 18.8795C5.93964 18.9595 5.80515 19.0024 5.66727 19.0023Z" fill="#FC6E27"/>
<path d="M44.3299 19.0023C44.192 19.0024 44.0575 18.9595 43.9452 18.8795L37.9456 14.6265C37.6496 14.4121 37.5814 13.9994 37.7927 13.7012C38.004 13.403 38.4159 13.3305 38.7163 13.5387L44.7159 17.7917C44.9528 17.9596 45.0538 18.2615 44.9656 18.5382C44.8773 18.8148 44.6202 19.0025 44.3299 19.0023Z" fill="#FC6E27"/>
<path d="M31.1571 9.66916C31.0191 9.66923 30.8845 9.62634 30.772 9.54643L27.5855 7.28659C26.1064 6.03667 23.9449 6.02365 22.4508 7.25566L19.2244 9.5465C19.0301 9.6843 18.777 9.70797 18.5605 9.60858C18.344 9.5092 18.197 9.30187 18.1748 9.06469C18.1526 8.82751 18.2586 8.59651 18.453 8.45871L21.6394 6.19887C23.6083 4.58896 26.4425 4.60176 28.3968 6.2294L31.5432 8.45844C31.7803 8.62628 31.8815 8.92835 31.7932 9.20511C31.7049 9.48187 31.4476 9.6696 31.1571 9.66916Z" fill="#FC6E27"/>
<path d="M6.10083 44.6393C5.81989 44.6396 5.56896 44.4637 5.47339 44.1995C5.37782 43.9353 5.45813 43.6396 5.67419 43.46L20.8865 30.8209C21.0692 30.6655 21.3215 30.6203 21.5469 30.7025C21.7723 30.7848 21.9361 30.9819 21.9757 31.2185C22.0154 31.4552 21.9248 31.6949 21.7386 31.8462L6.52633 44.4853C6.4069 44.5848 6.25632 44.6393 6.10083 44.6393Z" fill="#FC6E27"/>
<path d="M43.8954 44.6393C43.74 44.6393 43.5896 44.5848 43.4703 44.4853L28.258 31.8462C28.0718 31.6949 27.9812 31.4552 28.0209 31.2185C28.0606 30.9819 28.2244 30.7848 28.4498 30.7025C28.6752 30.6203 28.9274 30.6655 29.1102 30.8209L44.322 43.46C44.5381 43.6396 44.6184 43.9353 44.5228 44.1995C44.4273 44.4637 44.1763 44.6395 43.8954 44.6393Z" fill="#FC6E27"/>
<path d="M38.3314 23.9886C37.9632 23.9886 37.6648 23.6902 37.6648 23.322V9.67482C37.6629 9.68882 37.6361 9.66995 37.5915 9.66962H12.4066C12.3771 9.66781 12.3482 9.67817 12.3266 9.69828L12.3332 23.322C12.3332 23.6902 12.0348 23.9886 11.6666 23.9886C11.2985 23.9886 11 23.6902 11 23.322V9.66962C11.0215 8.9136 11.6505 8.31741 12.4066 8.33638H37.5915C38.3475 8.31749 38.9764 8.91363 38.998 9.66962V23.322C38.998 23.6902 38.6996 23.9886 38.3314 23.9886Z" fill="#FC6E27"/>
</svg>
