<svg width="50" height="50" viewBox="0 0 50 50" fill="none" xmlns="http://www.w3.org/2000/svg">
<path d="M42.7094 44.418C42.711 44.4465 42.7102 44.4742 42.707 44.5027C42.7086 44.4845 42.7094 44.4662 42.7094 44.448V44.418Z" fill="#FC6E27"/>
<path d="M42.6934 21.8125C42.6965 21.8283 42.6989 21.8434 42.6997 21.8592C42.6989 21.8544 42.6981 21.8489 42.6973 21.8442C42.6965 21.8331 42.6949 21.8228 42.6934 21.8125Z" fill="#FC6E27"/>
<path d="M42.6969 21.8446C42.6962 21.832 42.6938 21.8193 42.6914 21.8066C42.6922 21.8082 42.6922 21.8106 42.693 21.813C42.6946 21.8233 42.6962 21.8335 42.6969 21.8446Z" fill="#FC6E27"/>
<path d="M42.6937 21.8141C42.6929 21.8118 42.6929 21.8094 42.6921 21.8078C42.689 21.7896 42.6842 21.773 42.6787 21.7556C42.6755 21.7429 42.6708 21.7295 42.666 21.7168C42.6787 21.7477 42.6882 21.7809 42.6937 21.8141Z" fill="#FC6E27"/>
<path d="M42.6912 21.8081C42.688 21.7907 42.6833 21.7733 42.6777 21.7559C42.6833 21.7733 42.688 21.7899 42.6912 21.8081Z" fill="#FC6E27"/>
<path d="M42.6777 22.078C42.6833 22.0598 42.688 22.0416 42.692 22.0234C42.6888 22.0416 42.6841 22.0598 42.6777 22.078Z" fill="#FC6E27"/>
<path d="M42.6649 21.7162C42.6697 21.7288 42.6744 21.7423 42.6776 21.7549C42.6728 21.7383 42.6673 21.7217 42.6602 21.7051C42.6617 21.709 42.6633 21.713 42.6649 21.7162Z" fill="#FC6E27"/>
<path d="M42.6582 22.1284C42.6653 22.1118 42.6717 22.0936 42.6772 22.0762C42.6724 22.0936 42.6661 22.111 42.6582 22.1284Z" fill="#FC6E27"/>
<path d="M42.6662 21.716C42.6646 21.7129 42.663 21.7089 42.6615 21.7049C42.6559 21.6915 42.6496 21.6772 42.6417 21.6638C42.6385 21.6559 42.6353 21.6487 42.6306 21.6416C42.6274 21.6361 42.6243 21.6305 42.6211 21.625C42.6401 21.6535 42.6551 21.6836 42.6662 21.716Z" fill="#FC6E27"/>
<path d="M42.6419 21.6647C42.6396 21.6576 42.6356 21.6497 42.6309 21.6426C42.6356 21.6497 42.6388 21.6568 42.6419 21.6647Z" fill="#FC6E27"/>
<path d="M42.6172 22.206C42.6267 22.1933 42.6338 22.1806 42.6401 22.168C42.633 22.1806 42.6259 22.1941 42.6172 22.206Z" fill="#FC6E27"/>
<path d="M42.6299 21.6421C42.6252 21.6326 42.6196 21.6239 42.6133 21.6152C42.6157 21.6184 42.618 21.6216 42.6204 21.6255C42.6236 21.6311 42.6267 21.6366 42.6299 21.6421Z" fill="#FC6E27"/>
<path d="M42.7056 44.502C42.6969 44.5969 42.6637 44.6911 42.6035 44.7742C42.5758 44.8106 42.5458 44.8431 42.5117 44.8708C42.5244 44.8597 42.5363 44.8486 42.5481 44.8367C42.6376 44.7457 42.693 44.6278 42.7056 44.502Z" fill="#FC6E27"/>
<path d="M42.621 21.6252C42.6187 21.6212 42.6163 21.6181 42.6139 21.6149C42.61 21.6086 42.606 21.6023 42.6005 21.5959C42.5957 21.5872 42.5894 21.5793 42.5823 21.5714C42.5775 21.5643 42.572 21.5579 42.5656 21.5516C42.5633 21.5484 42.5601 21.5445 42.5569 21.5413C42.5546 21.5389 42.5522 21.5366 42.5498 21.5342C42.5459 21.5294 42.5411 21.5247 42.5364 21.5199L42.5039 21.4883C42.5174 21.4994 42.53 21.5112 42.5427 21.5239C42.5728 21.554 42.5997 21.588 42.621 21.6252Z" fill="#FC6E27"/>
<path d="M42.5811 21.5706C42.5763 21.5642 42.5708 21.5571 42.5645 21.5508C42.5708 21.5571 42.5763 21.5634 42.5811 21.5706Z" fill="#FC6E27"/>
<path d="M42.5469 22.2962C42.5587 22.2843 42.569 22.2724 42.5793 22.2598C42.5698 22.2724 42.5595 22.2843 42.5469 22.2962Z" fill="#FC6E27"/>
<path d="M42.5647 21.5506C42.5599 21.5443 42.5544 21.5387 42.5488 21.5332C42.5512 21.5356 42.5536 21.538 42.556 21.5403C42.5591 21.5435 42.5623 21.5474 42.5647 21.5506Z" fill="#FC6E27"/>
<path d="M42.4629 44.9067C42.4779 44.8964 42.4922 44.8861 42.5064 44.875C42.4922 44.8869 42.4779 44.8972 42.4629 44.9067Z" fill="#FC6E27"/>
<path d="M42.4238 44.9327C42.4381 44.9248 42.4515 44.9169 42.4642 44.9082C42.4507 44.9177 42.4373 44.9256 42.4238 44.9327Z" fill="#FC6E27"/>
<path d="M42.3301 44.9716C42.3419 44.9685 42.3538 44.9645 42.3649 44.959C42.3538 44.9637 42.3419 44.9685 42.3301 44.9716Z" fill="#FC6E27"/>
<path d="M42.2715 44.9872C42.2841 44.9848 42.296 44.9817 42.3071 44.9785C42.2952 44.9817 42.2834 44.9848 42.2715 44.9872Z" fill="#FC6E27"/>
<path d="M42.2012 44.9985L42.2225 44.9961C42.2154 44.9969 42.2083 44.9977 42.2012 44.9985Z" fill="#FC6E27"/>
<path d="M25.7432 5.16205C25.9576 5.37653 25.9553 5.72398 25.7408 5.93847L25.3538 6.32232L24.9667 5.93847C24.7523 5.72398 24.7499 5.37653 24.9644 5.16205C24.9786 5.1478 24.9929 5.13514 25.0079 5.12248C25.0364 5.09953 25.0665 5.07974 25.0981 5.06312C25.0981 5.06312 25.0981 5.06312 25.0989 5.06233C25.1464 5.03779 25.1971 5.02038 25.2485 5.01009C25.3181 4.99664 25.3894 4.99664 25.459 5.01009C25.5105 5.02038 25.5611 5.03779 25.6086 5.06233L25.6094 5.06312C25.6411 5.07974 25.6711 5.09953 25.6996 5.12248C25.7139 5.13356 25.7273 5.14622 25.7408 5.15968L25.7432 5.16205Z" fill="#FC6E27"/>
<path d="M42.7084 44.4179V44.448C42.7084 44.4662 42.7076 44.4844 42.706 44.5026C42.6933 44.6284 42.6379 44.7464 42.5485 44.8374C42.5366 44.8493 42.5247 44.8603 42.5121 44.8714C42.5105 44.873 42.5089 44.8746 42.5073 44.8754C42.4931 44.8865 42.4788 44.8968 42.4638 44.907C42.4511 44.9157 42.4377 44.9237 42.4234 44.9316C42.4044 44.9427 42.3847 44.9522 42.3641 44.9593C42.353 44.9648 42.3411 44.9688 42.3293 44.9719C42.3229 44.9751 42.3158 44.9767 42.3079 44.9791C42.2968 44.9822 42.2849 44.9854 42.2723 44.9878C42.2557 44.9917 42.239 44.9941 42.2224 44.9957C42.2153 44.9965 42.2082 44.9973 42.201 44.9981C42.1868 44.9988 42.1733 44.9996 42.1591 44.9996C42.0467 44.9996 41.9319 44.9656 41.8354 44.892L40.4844 43.8987H41.6098V43.3613L42.486 44.0056C42.6221 44.1069 42.6989 44.2604 42.7084 44.4179Z" fill="#FC6E27"/>
<path d="M42.7032 21.9131L42.7088 44.419C42.6993 44.2615 42.6225 44.1079 42.4864 44.0066L41.6102 43.3624L41.6055 23.166L42.5259 22.3184C42.5331 22.3112 42.541 22.3041 42.5465 22.297C42.5592 22.2851 42.5695 22.2733 42.579 22.2606C42.5821 22.2566 42.5861 22.2519 42.5885 22.2479C42.598 22.2368 42.6059 22.2258 42.6122 22.2147C42.6146 22.2123 42.6162 22.2091 42.6169 22.2068C42.6257 22.1949 42.6328 22.1814 42.6399 22.1688C42.6462 22.1561 42.6526 22.1427 42.6581 22.13C42.666 22.1126 42.6724 22.0952 42.6771 22.0778C42.6834 22.0596 42.6882 22.0414 42.6913 22.0232C42.6985 21.9875 42.7024 21.9511 42.7024 21.9147C42.7024 21.8973 42.7016 21.8807 42.7001 21.8633C42.7024 21.8799 42.7032 21.8965 42.7032 21.9131Z" fill="#FC6E27"/>
<path d="M42.7001 21.8619C42.7016 21.8793 42.7024 21.8959 42.7024 21.9133C42.7024 21.9497 42.6985 21.9861 42.6913 22.0218C42.6874 22.04 42.6826 22.0582 42.6771 22.0764C42.6716 22.0938 42.6652 22.112 42.6581 22.1286C42.6526 22.1413 42.6462 22.1547 42.6399 22.1674C42.6336 22.18 42.6264 22.1927 42.6169 22.2054C42.6162 22.2077 42.6146 22.2109 42.6122 22.2133C42.6059 22.2244 42.598 22.2354 42.5885 22.2465C42.5861 22.2505 42.5821 22.2552 42.579 22.2592C42.5687 22.2719 42.5584 22.2837 42.5465 22.2956C42.4397 22.4088 42.2956 22.4634 42.1547 22.4634C42.0154 22.4634 41.8769 22.4112 41.7701 22.3067L41.6055 22.146V21.9117C41.6055 21.7455 41.6791 21.5967 41.7962 21.4962C41.801 21.4907 41.8057 21.4867 41.8105 21.4836C41.8223 21.4741 41.835 21.4646 41.8477 21.4567C41.8603 21.4472 41.8738 21.4392 41.888 21.4321C41.8912 21.429 41.8943 21.4274 41.8975 21.4266C41.911 21.4195 41.9244 21.4123 41.9387 21.4068C41.9395 21.406 41.9403 21.4052 41.9418 21.406C41.9521 21.4013 41.9624 21.3973 41.9727 21.3941C41.983 21.3902 41.9933 21.3862 42.0036 21.3838C42.0186 21.3791 42.0336 21.3759 42.0495 21.3728C42.0661 21.3696 42.0835 21.3672 42.1017 21.3656C42.2632 21.3506 42.4294 21.4076 42.5497 21.5334C42.5552 21.539 42.5608 21.5445 42.5655 21.5508C42.5718 21.5572 42.5774 21.5643 42.5821 21.5706C42.5892 21.5785 42.5956 21.5865 42.6003 21.5952C42.6059 21.6015 42.6098 21.6078 42.6138 21.6142C42.6201 21.6229 42.6257 21.6316 42.6304 21.6411C42.6352 21.6482 42.6391 21.6561 42.6415 21.6632C42.6494 21.6767 42.6557 21.6909 42.6613 21.7044C42.6684 21.721 42.6739 21.7376 42.6787 21.7542C42.6842 21.7717 42.689 21.7891 42.6921 21.8065C42.6945 21.8191 42.6969 21.8318 42.6977 21.8445C42.6985 21.8492 42.6993 21.8548 42.7001 21.8595V21.8619Z" fill="#FC6E27"/>
<path d="M42.5361 21.52C42.5408 21.5247 42.5456 21.5295 42.5495 21.5342C42.4292 21.4084 42.263 21.3514 42.1016 21.3664C42.119 21.3641 42.1364 21.3633 42.1546 21.3633C42.2868 21.3633 42.4086 21.4108 42.5036 21.4883L42.5361 21.52Z" fill="#FC6E27"/>
<path d="M42.5465 22.2961C42.541 22.3032 42.5331 22.3103 42.5259 22.3174L41.6055 23.1651V22.1465L41.7701 22.3071C41.8769 22.4116 42.0154 22.4639 42.1547 22.4639C42.2956 22.4639 42.4397 22.4092 42.5465 22.2961Z" fill="#FC6E27"/>
<path d="M36.6953 15.832L42.5038 21.4886C42.4088 21.411 42.2869 21.3635 42.1548 21.3635C42.1366 21.3635 42.1192 21.3643 42.1017 21.3667C42.0835 21.3683 42.0661 21.3706 42.0495 21.3738C42.0337 21.377 42.0186 21.3801 42.0036 21.3849C41.9933 21.3873 41.983 21.3912 41.9727 21.3952C41.9624 21.3983 41.9522 21.4015 41.9419 21.407C41.9403 21.4062 41.9395 21.407 41.9387 21.4078C41.9245 21.4134 41.911 21.4197 41.8975 21.4276C41.8944 21.4284 41.8912 21.43 41.888 21.4332C41.8746 21.4395 41.8603 21.4482 41.8477 21.4577C41.835 21.4656 41.8224 21.4743 41.8105 21.4846C41.8057 21.4878 41.801 21.4917 41.7962 21.4973C41.7907 21.5004 41.786 21.5052 41.7804 21.5099L41.3546 21.9025L36.6953 17.3651V15.832Z" fill="#FC6E27"/>
<path d="M42.1588 44.9994H8.54883C8.66121 44.9994 8.77598 44.9653 8.8757 44.8917L10.2267 43.8984H40.484L41.8351 44.8917C41.9316 44.9653 42.0464 44.9994 42.1588 44.9994Z" fill="#FC6E27"/>
<path d="M41.9723 21.3945C41.962 21.3977 41.9517 21.4017 41.9414 21.4064C41.9517 21.4009 41.962 21.3977 41.9723 21.3945Z" fill="#FC6E27"/>
<path d="M41.9376 21.4082C41.9234 21.4137 41.9099 21.4209 41.8965 21.428C41.9099 21.4201 41.9234 21.4137 41.9376 21.4082Z" fill="#FC6E27"/>
<path d="M41.888 21.4336C41.8738 21.4407 41.8603 21.4486 41.8477 21.4581C41.8603 21.4486 41.8746 21.4399 41.888 21.4336Z" fill="#FC6E27"/>
<path d="M41.8477 21.457C41.8351 21.4649 41.8224 21.4744 41.8105 21.4839C41.8224 21.4737 41.8351 21.4649 41.8477 21.457Z" fill="#FC6E27"/>
<path d="M41.7951 21.4961C41.678 21.5966 41.6044 21.7454 41.6044 21.9116V22.1459L41.3535 21.9013L41.7793 21.5088C41.7849 21.504 41.7896 21.4993 41.7951 21.4961Z" fill="#FC6E27"/>
<path d="M41.6092 43.3621V43.8995H40.4838L28.5938 35.1555L29.4177 34.3965L41.6092 43.3621Z" fill="#FC6E27"/>
<path d="M41.606 22.1469V23.1655L36.5352 27.8383C36.6349 27.7385 36.6958 27.6008 36.6958 27.4497V26.196L41.3551 21.9023L41.606 22.1469Z" fill="#FC6E27"/>
<path d="M36.6954 26.1953V27.449C36.6954 27.6001 36.6345 27.7379 36.5347 27.8376C36.4358 27.9365 36.2989 27.9982 36.1469 27.9982C35.8438 27.9982 35.5977 27.7521 35.5977 27.449V27.2068L36.6954 26.1953Z" fill="#FC6E27"/>
<path d="M36.6954 17.3648V26.1958L35.5977 27.2073V16.0977C35.6056 16.229 35.661 16.3573 35.7623 16.4562L36.6954 17.3648Z" fill="#FC6E27"/>
<path d="M36.6954 15.8317V17.3647L35.7623 16.4562C35.661 16.3572 35.6056 16.229 35.5977 16.0976V16.028C35.6048 15.9013 35.6562 15.7771 35.752 15.6797C35.9633 15.4629 36.3115 15.4573 36.5284 15.6694L36.6954 15.8317Z" fill="#FC6E27"/>
<path d="M36.6948 10.0778V15.8324L36.5278 15.6702C36.311 15.4581 35.9627 15.4636 35.7514 15.6805C35.6556 15.7778 35.6042 15.9021 35.5971 16.0287V10.627H29.916C30.0601 10.627 30.2009 10.5716 30.3054 10.4648C30.5199 10.2503 30.5175 9.90286 30.303 9.68838L30.1424 9.5293H36.1463C36.4495 9.5293 36.6948 9.77465 36.6948 10.0778Z" fill="#FC6E27"/>
<path d="M36.5351 27.8378L29.4191 34.3958L28.8817 34.0009C28.6641 33.8426 28.3696 33.8663 28.1797 34.0436L35.598 27.207V27.4492C35.598 27.7523 35.8441 27.9985 36.1473 27.9985C36.2992 27.9985 36.4361 27.9368 36.5351 27.8378Z" fill="#FC6E27"/>
<path d="M35.5969 16.0273V16.097C35.5953 16.0732 35.5953 16.0503 35.5969 16.0273Z" fill="#FC6E27"/>
<path d="M32.2177 19.9552C32.2177 20.6715 32.0895 21.3537 31.8386 21.9893C31.5877 22.624 31.2062 23.2279 30.7013 23.7827C30.2517 24.279 29.7761 24.6581 29.2869 24.9066C28.801 25.1551 28.2834 25.2801 27.7547 25.2801C27.4207 25.2801 27.1461 25.2311 26.9419 25.129C26.7408 25.0293 26.5912 24.886 26.4979 24.7024C26.4377 24.5853 26.3902 24.3763 26.3617 24.0779L26.3483 23.9576L26.2699 24.0494C25.951 24.4175 25.5877 24.7182 25.1927 24.9406C24.801 25.163 24.4037 25.2754 24.0087 25.2754C23.575 25.2754 23.1484 25.1472 22.7377 24.8939C22.3277 24.6399 21.9905 24.2426 21.7341 23.7147C21.4753 23.1836 21.3447 22.5932 21.3447 21.96C21.3447 21.1788 21.5489 20.3842 21.9509 19.5967C22.3514 18.8124 22.858 18.214 23.4515 17.8215C24.0451 17.4297 24.6284 17.2311 25.1848 17.2311C25.6083 17.2311 26.019 17.3434 26.4037 17.5658C26.7875 17.7874 27.1247 18.1301 27.4049 18.5852L27.4729 18.6952L27.5014 18.567L27.6423 17.9212C27.7025 17.6442 27.951 17.4455 28.2335 17.4455C28.4163 17.4455 28.5889 17.5263 28.7036 17.6703C28.8192 17.8136 28.8635 17.9972 28.8239 18.1776L27.9146 22.4127C27.7135 23.3593 27.6898 23.5366 27.6898 23.5864C27.6898 23.7352 27.7468 23.8658 27.8592 23.9735C27.9723 24.0779 28.1077 24.1325 28.2675 24.1325C28.5446 24.1325 28.8975 23.9782 29.3392 23.6648C29.9146 23.2619 30.3744 22.7135 30.7092 22.036C31.044 21.3593 31.2141 20.6501 31.2141 19.9315C31.2141 19.0926 30.9965 18.2948 30.5651 17.5658C30.137 16.8361 29.4856 16.2425 28.6332 15.8064C27.784 15.3696 26.8295 15.1472 25.8022 15.1472C24.6284 15.1472 23.541 15.4273 22.5707 15.9758C21.6011 16.5274 20.8374 17.3252 20.3016 18.3525C19.7681 19.3775 19.4959 20.4911 19.4959 21.6648C19.4959 22.8939 19.7657 23.9679 20.3016 24.8567C20.8374 25.7455 21.6241 26.4127 22.6363 26.8385C23.6455 27.262 24.7772 27.4764 26.0032 27.4764C27.3154 27.4764 28.4298 27.254 29.3186 26.8124C30.1077 26.4206 30.7298 25.9473 31.1666 25.4036C31.2632 25.2833 31.4096 25.2152 31.5663 25.2152C31.7729 25.2152 31.9534 25.3332 32.0372 25.5184C32.1211 25.7067 32.0895 25.9212 31.9534 26.0756C31.7626 26.2924 31.5402 26.5117 31.2893 26.7238C30.6775 27.262 29.9383 27.6933 29.0938 28.0075C28.2462 28.3209 27.2141 28.4808 26.0214 28.4808C24.9213 28.4808 23.8932 28.3367 22.9656 28.0542C22.0404 27.7716 21.2402 27.3435 20.5889 26.7784C19.9383 26.2141 19.4389 25.5548 19.1096 24.8203C18.6933 23.8872 18.4844 22.8646 18.4844 21.7827C18.4844 20.5773 18.7353 19.4115 19.2299 18.3185C19.5331 17.6466 19.9011 17.0482 20.33 16.5354C20.759 16.0233 21.2561 15.584 21.8101 15.2287C22.3641 14.8725 22.9862 14.6034 23.6581 14.4253C24.3301 14.2481 25.0724 14.1562 25.8647 14.1562C27.0907 14.1562 28.2074 14.4103 29.1825 14.9121C30.1552 15.4139 30.934 16.1697 31.4959 17.1606C31.9747 18.0154 32.2177 18.954 32.2177 19.9552ZM26.7535 21.9679C26.9339 21.4606 27.0226 20.9509 27.0226 20.4412C27.0226 19.7613 26.8532 19.2334 26.5161 18.8599C26.1789 18.4855 25.7681 18.2979 25.2822 18.2979C24.9632 18.2979 24.6593 18.3787 24.3775 18.5409C24.095 18.7032 23.8204 18.9643 23.556 19.3252C23.2925 19.6861 23.078 20.1222 22.9181 20.6375C22.759 21.1527 22.6775 21.626 22.6775 22.0542C22.6775 22.7396 22.8398 23.273 23.1642 23.6521C23.488 24.0312 23.8623 24.222 24.2802 24.222C24.5604 24.222 24.8556 24.1381 25.1643 23.9711C25.4808 23.8009 25.7784 23.5524 26.061 23.2232C26.3435 22.8939 26.573 22.4752 26.7535 21.9679Z" fill="#FC6E27"/>
<path d="M30.303 9.68838C30.5175 9.90286 30.5199 10.2503 30.3054 10.4648C30.2009 10.5716 30.06 10.627 29.916 10.627C29.7775 10.627 29.6366 10.5748 29.529 10.4672L28.584 9.5293H30.1424L30.303 9.68838Z" fill="#FC6E27"/>
<path d="M25.7429 5.16211L30.1418 9.52857H28.5834L25.3535 6.32238L25.7405 5.93853C25.955 5.72404 25.9574 5.37659 25.7429 5.16211Z" fill="#FC6E27"/>
<path d="M29.917 10.627H20.7852C20.9237 10.627 21.0645 10.5716 21.1722 10.4672L22.1188 9.5293H28.5849L29.5299 10.4672C29.6376 10.5748 29.7785 10.627 29.917 10.627Z" fill="#FC6E27"/>
<path d="M29.4174 34.3952L28.5935 35.1542L28.2294 34.8867C27.9856 34.7062 27.9334 34.3635 28.1115 34.1182C28.1321 34.0905 28.1542 34.0659 28.178 34.043C28.3679 33.8657 28.6623 33.8419 28.88 34.0002L29.4174 34.3952Z" fill="#FC6E27"/>
<path d="M28.5941 35.1542L25.733 37.7913C25.6309 37.8855 25.4979 37.9377 25.3594 37.9377H25.346C25.2074 37.9377 25.0745 37.8855 24.9748 37.7913L22.1152 35.1558L22.4809 34.8867C22.7262 34.7062 22.7785 34.3635 22.598 34.1182C22.5846 34.1 22.5711 34.0833 22.5561 34.0675L25.3539 36.6461L28.1786 34.043C28.1548 34.0659 28.1327 34.0905 28.1121 34.1182C27.934 34.3635 27.9862 34.7062 28.23 34.8867L28.5941 35.1542Z" fill="#FC6E27"/>
<path d="M25.3548 6.32238L22.1186 9.52857H20.5586L24.9654 5.16211C24.7509 5.37659 24.7533 5.72404 24.9678 5.93853L25.3548 6.32238Z" fill="#FC6E27"/>
<path d="M22.5985 34.1199C22.779 34.3652 22.7267 34.7079 22.4814 34.8884L22.1157 35.1575L21.291 34.3985L21.83 34.002C22.0334 33.8508 22.3088 33.8627 22.498 34.0154L22.555 34.0677C22.5558 34.0685 22.5566 34.0692 22.5566 34.0692C22.5716 34.0851 22.585 34.1017 22.5985 34.1199Z" fill="#FC6E27"/>
<path d="M22.555 34.0659L22.498 34.0137C22.5186 34.0295 22.5376 34.0469 22.555 34.0659Z" fill="#FC6E27"/>
<path d="M15.1109 27.207L22.4976 34.0143C22.3084 33.8616 22.033 33.8497 21.8296 34.0009L21.2906 34.3974L14.1738 27.8378C14.2728 27.9368 14.4097 27.9985 14.5616 27.9985C14.8648 27.9985 15.1109 27.7523 15.1109 27.4492V27.207Z" fill="#FC6E27"/>
<path d="M22.1171 9.5293L21.1705 10.4672C21.0628 10.5716 20.922 10.627 20.7835 10.627C20.6426 10.627 20.5009 10.5716 20.3941 10.4648C20.1796 10.2503 20.1819 9.90286 20.3964 9.68838L20.5571 9.5293H22.1171Z" fill="#FC6E27"/>
<path d="M22.1147 35.1574L10.2263 43.8999H9.09766V43.364L21.29 34.3984L22.1147 35.1574Z" fill="#FC6E27"/>
<path d="M20.7846 10.627H15.1114V16.0311C15.1043 15.9045 15.0529 15.7802 14.9571 15.6829C14.7458 15.466 14.3975 15.4613 14.1807 15.6726L14.0137 15.8348V10.0778C14.0137 9.77465 14.259 9.5293 14.5622 9.5293H20.5582L20.3975 9.68838C20.1831 9.90286 20.1807 10.2503 20.3952 10.4648C20.502 10.5716 20.6437 10.627 20.7846 10.627Z" fill="#FC6E27"/>
<path d="M15.1113 16.0312C15.1129 16.0542 15.1129 16.0779 15.1113 16.1009V16.0312Z" fill="#FC6E27"/>
<path d="M15.1114 27.2068V27.449C15.1114 27.7521 14.8653 27.9982 14.5622 27.9982C14.4102 27.9982 14.2733 27.9365 14.1743 27.8376C14.0746 27.7379 14.0137 27.6001 14.0137 27.449V26.1953L15.1114 27.2068Z" fill="#FC6E27"/>
<path d="M15.1114 16.0996V27.2069L14.0137 26.1954V17.3667L14.9468 16.4581C15.0481 16.3592 15.1035 16.231 15.1114 16.0996Z" fill="#FC6E27"/>
<path d="M15.1114 16.0296V16.0993C15.1035 16.2307 15.0481 16.3589 14.9468 16.4578L14.0137 17.3664V15.8333L14.1807 15.6711C14.3975 15.4598 14.7458 15.4645 14.9571 15.6814C15.0529 15.7787 15.1043 15.903 15.1114 16.0296Z" fill="#FC6E27"/>
<path d="M14.1744 27.8383L9.10352 23.1655V22.1477L9.3552 21.9023L14.0137 26.196V27.4497C14.0137 27.6008 14.0746 27.7385 14.1744 27.8383Z" fill="#FC6E27"/>
<path d="M14.0138 15.834V17.367L9.35528 21.9021L8.92868 21.5095C8.92473 21.5056 8.92077 21.5024 8.91602 21.4992C8.9089 21.4929 8.90178 21.4866 8.89386 21.481C8.88357 21.4715 8.87249 21.4644 8.86141 21.4573C8.84796 21.4478 8.8345 21.4399 8.82105 21.4327C8.81788 21.4304 8.81472 21.4288 8.81155 21.4272C8.79968 21.4209 8.7886 21.4153 8.77673 21.4106C8.77198 21.4082 8.76723 21.4058 8.76327 21.405C8.75615 21.4011 8.74902 21.3987 8.7419 21.3963C8.73003 21.3916 8.71737 21.3876 8.7047 21.3845C8.68967 21.3797 8.67384 21.3758 8.65801 21.3734C8.65326 21.3726 8.64851 21.3718 8.64297 21.371C8.6311 21.3686 8.61923 21.367 8.60656 21.3663C8.58915 21.3639 8.57174 21.3631 8.55433 21.3631C8.42849 21.3631 8.31135 21.4058 8.21875 21.4778L14.0138 15.834Z" fill="#FC6E27"/>
<path d="M10.2272 43.8991L8.87614 44.8924C8.77642 44.966 8.66166 45 8.54927 45C8.53502 45 8.52157 44.9992 8.50732 44.9984C8.5002 44.9976 8.49308 44.9968 8.48595 44.9961C8.46933 44.9945 8.45271 44.9921 8.43609 44.9881C8.42343 44.9858 8.41156 44.9826 8.40048 44.9794C8.39256 44.9771 8.38544 44.9755 8.37911 44.9723C8.36724 44.9691 8.35536 44.9652 8.34428 44.9596C8.32371 44.9525 8.30471 44.943 8.28492 44.9319C8.27305 44.9256 8.26118 44.9185 8.24931 44.9106C8.23744 44.9027 8.22636 44.8947 8.21528 44.886C8.20261 44.8765 8.18995 44.8663 8.17887 44.8552C8.17649 44.8528 8.17333 44.8504 8.17095 44.8481C8.16383 44.8409 8.15671 44.8338 8.15038 44.8267C8.14246 44.8188 8.13534 44.8101 8.12822 44.8021C8.12109 44.7934 8.11397 44.7847 8.10764 44.7752C8.09893 44.7626 8.09023 44.7507 8.08231 44.738C8.0744 44.7254 8.06648 44.7119 8.06015 44.6993C8.05224 44.6834 8.04511 44.6668 8.03878 44.6502C8.03245 44.6367 8.0277 44.6233 8.02374 44.609C8.01979 44.5964 8.01662 44.5829 8.01345 44.5695C8.01187 44.5623 8.01029 44.5544 8.00871 44.5465C8.00712 44.5354 8.00554 44.5251 8.00396 44.5141C8.00158 44.4919 8 44.4705 8 44.4484C8.00079 44.2798 8.07835 44.1136 8.22477 44.0059L9.09854 43.3633V43.8991H10.2272Z" fill="#FC6E27"/>
<path d="M9.35527 21.9029L9.10359 22.1482V21.9131C9.10359 21.762 9.04265 21.6243 8.94293 21.5245C8.93422 21.5158 8.92551 21.5079 8.91602 21.5C8.92076 21.5032 8.92472 21.5063 8.92868 21.5103L9.35527 21.9029Z" fill="#FC6E27"/>
<path d="M9.10282 21.9116V22.1466L8.93819 22.3065C8.83135 22.411 8.69284 22.4632 8.55355 22.4632C8.43087 22.4632 8.30899 22.4228 8.20926 22.3413L8.18235 22.3168C8.13803 22.2756 8.10242 22.2297 8.07472 22.1799C8.0296 22.0983 8.00665 22.0073 8.00586 21.9163C8.00586 21.8981 8.00665 21.8799 8.00823 21.8625C8.0209 21.7374 8.07472 21.6163 8.17206 21.5222L8.20135 21.4937C8.31611 21.3955 8.46253 21.3528 8.60578 21.3655C8.61765 21.3662 8.63032 21.3678 8.64219 21.3702C8.64773 21.371 8.65248 21.3718 8.65723 21.3726C8.67306 21.3757 8.68889 21.3789 8.70392 21.3837C8.71659 21.3868 8.72925 21.3908 8.74112 21.3955C8.74824 21.3979 8.75537 21.4003 8.76249 21.4042C8.76645 21.405 8.7712 21.4074 8.77595 21.4098C8.78782 21.4145 8.79969 21.4201 8.81077 21.4264C8.81393 21.428 8.8171 21.4296 8.82027 21.4319C8.83451 21.4391 8.84797 21.447 8.86063 21.4565C8.87171 21.4636 8.88279 21.4707 8.89308 21.4802C8.90099 21.485 8.90812 21.4913 8.91524 21.4984C8.92474 21.5063 8.93344 21.5142 8.94215 21.523C9.04187 21.6227 9.10282 21.7604 9.10282 21.9116Z" fill="#FC6E27"/>
<path d="M9.10254 22.1484V23.1662L8.20898 22.3431C8.30871 22.4247 8.43059 22.465 8.55327 22.465C8.69256 22.465 8.83107 22.4128 8.93791 22.3083L9.10254 22.1484Z" fill="#FC6E27"/>
<path d="M9.10329 23.1652L9.09854 43.3632L8.22477 44.0058C8.07835 44.1135 8.00079 44.2797 8 44.4482L8.00554 21.9124C8.00554 21.8957 8.00633 21.8799 8.00871 21.8633C8.00712 21.8807 8.00633 21.8989 8.00633 21.9171C8.00633 22.0081 8.02849 22.0991 8.07519 22.1807C8.09735 22.2234 8.12663 22.263 8.16225 22.2994C8.17729 22.3152 8.19312 22.3294 8.20974 22.3421L9.10329 23.1652Z" fill="#FC6E27"/>
<path d="M8.91474 21.4987C8.90762 21.4915 8.90049 21.4852 8.89258 21.4805C8.90049 21.486 8.90762 21.4923 8.91474 21.4987Z" fill="#FC6E27"/>
<path d="M8.86068 21.4581C8.84801 21.4486 8.83456 21.4407 8.82031 21.4336C8.83377 21.4407 8.84722 21.4486 8.86068 21.4581Z" fill="#FC6E27"/>
<path d="M8.81217 21.4268C8.80109 21.4204 8.78922 21.4149 8.77734 21.4102C8.78922 21.4149 8.8003 21.4204 8.81217 21.4268Z" fill="#FC6E27"/>
<path d="M8.7049 21.3841C8.68986 21.3794 8.67403 21.3762 8.6582 21.373C8.67403 21.3754 8.68986 21.3794 8.7049 21.3841Z" fill="#FC6E27"/>
<path d="M8.64188 21.3719C8.63 21.3696 8.61734 21.368 8.60547 21.3672C8.61813 21.368 8.63 21.3696 8.64188 21.3719Z" fill="#FC6E27"/>
<path d="M8.60561 21.3664C8.46235 21.3538 8.31593 21.3965 8.20117 21.4947L8.21779 21.478C8.31039 21.406 8.42753 21.3633 8.55337 21.3633C8.57078 21.3633 8.58819 21.3641 8.60561 21.3664Z" fill="#FC6E27"/>
<path d="M8.48633 44.9961L8.5077 44.9985C8.50057 44.9977 8.49345 44.9969 8.48633 44.9961Z" fill="#FC6E27"/>
<path d="M8.40039 44.9785C8.41147 44.9817 8.42334 44.9848 8.43601 44.9872C8.42413 44.9848 8.41226 44.9817 8.40039 44.9785Z" fill="#FC6E27"/>
<path d="M8.34375 44.959C8.35483 44.9645 8.3667 44.9685 8.37857 44.9716C8.3667 44.9685 8.35483 44.9637 8.34375 44.959Z" fill="#FC6E27"/>
<path d="M8.21848 21.4785L8.20186 21.4951C8.18445 21.5094 8.16783 21.5252 8.152 21.5418C8.12746 21.5687 8.10609 21.5964 8.08789 21.6257C8.12113 21.5687 8.16624 21.5189 8.21848 21.4785Z" fill="#FC6E27"/>
<path d="M8.18186 22.3186L8.20877 22.3431C8.19215 22.3304 8.17632 22.3162 8.16128 22.3004C8.12566 22.264 8.09638 22.2244 8.07422 22.1816C8.10192 22.2315 8.13754 22.2774 8.18186 22.3186Z" fill="#FC6E27"/>
<path d="M8.20093 21.4941L8.17164 21.5226C8.07429 21.6168 8.02048 21.7379 8.00781 21.863C8.0094 21.8463 8.01177 21.8305 8.01414 21.8139C8.02681 21.7482 8.05055 21.6841 8.08696 21.6247C8.10516 21.5954 8.12653 21.5677 8.15107 21.5408C8.1669 21.5242 8.18352 21.5084 8.20093 21.4941Z" fill="#FC6E27"/>
<path d="M8.21609 44.8863C8.20343 44.8768 8.19156 44.8665 8.17969 44.8555C8.19077 44.8665 8.20343 44.8768 8.21609 44.8863Z" fill="#FC6E27"/>
<path d="M8.15039 44.8262C8.15672 44.8333 8.16385 44.8404 8.17097 44.8475C8.16701 44.8444 8.16385 44.8412 8.15989 44.8373C8.15593 44.8333 8.15276 44.8301 8.15039 44.8262Z" fill="#FC6E27"/>
<path d="M8.10742 44.7754C8.11375 44.7849 8.12088 44.7936 8.128 44.8023C8.12009 44.7936 8.11296 44.7849 8.10742 44.7754Z" fill="#FC6E27"/>
<path d="M8.08203 44.7383C8.08995 44.7509 8.09865 44.7628 8.10736 44.7755C8.09707 44.7636 8.08915 44.7509 8.08203 44.7383Z" fill="#FC6E27"/>
<path d="M8.06055 44.6992C8.06688 44.7119 8.07479 44.7253 8.08271 44.738C8.074 44.7253 8.06688 44.7127 8.06055 44.6992Z" fill="#FC6E27"/>
<path d="M8.02344 44.6094C8.02739 44.6236 8.03214 44.6371 8.03848 44.6505C8.03214 44.6371 8.02739 44.6228 8.02344 44.6094Z" fill="#FC6E27"/>
<path d="M8.08844 21.625C8.05203 21.6844 8.02829 21.7485 8.01562 21.8142C8.0275 21.7461 8.05203 21.682 8.08844 21.625Z" fill="#FC6E27"/>
<path d="M8.01414 21.8145C8.01177 21.8311 8.0094 21.8469 8.00781 21.8635C8.0086 21.8469 8.01019 21.8311 8.01414 21.8145Z" fill="#FC6E27"/>
<path d="M8.00781 44.5469C8.0094 44.5548 8.01098 44.5627 8.01256 44.5698C8.01098 44.5619 8.0094 44.5548 8.00781 44.5469Z" fill="#FC6E27"/>
<path d="M8.00586 21.918C8.00665 22.009 8.0296 22.1 8.07472 22.1815C8.02802 22.1 8.00586 22.009 8.00586 21.918Z" fill="#FC6E27"/>
<path d="M8.00391 44.5137C8.00549 44.5248 8.00707 44.535 8.00866 44.5461C8.00628 44.535 8.0047 44.5248 8.00391 44.5137Z" fill="#FC6E27"/>
</svg>
