<svg width="50" height="50" viewBox="0 0 50 50" fill="none" xmlns="http://www.w3.org/2000/svg">
<path d="M25.0625 5C17.3084 5 11 11.3084 11 19.0625C11 21.6823 11.7257 24.2391 13.0991 26.4572L24.262 44.446C24.4759 44.7906 24.8526 45 25.2577 45C25.2609 45 25.2639 45 25.267 45C25.6757 44.9968 26.0532 44.7809 26.2631 44.4303L37.1415 26.2672C38.4391 24.0959 39.125 21.6046 39.125 19.0625C39.125 11.3084 32.8166 5 25.0625 5ZM35.1302 25.0639L25.24 41.577L15.0912 25.2223C13.948 23.3761 13.3281 21.2461 13.3281 19.0625C13.3281 12.6008 18.6008 7.32812 25.0625 7.32812C31.5242 7.32812 36.7891 12.6008 36.7891 19.0625C36.7891 21.1813 36.2101 23.2569 35.1302 25.0639Z" fill="#FC6E27"/>
<path d="M25.0625 12.0312C21.1855 12.0312 18.0312 15.1855 18.0312 19.0625C18.0312 22.9148 21.1341 26.0938 25.0625 26.0938C29.0393 26.0938 32.0938 22.8724 32.0938 19.0625C32.0938 15.1855 28.9395 12.0312 25.0625 12.0312ZM25.0625 23.7656C22.4643 23.7656 20.3594 21.6537 20.3594 19.0625C20.3594 16.4778 22.4778 14.3594 25.0625 14.3594C27.6472 14.3594 29.7578 16.4778 29.7578 19.0625C29.7578 21.6159 27.7019 23.7656 25.0625 23.7656Z" fill="#FC6E27"/>
</svg>
