<svg width="50" height="50" viewBox="0 0 50 50" fill="none" xmlns="http://www.w3.org/2000/svg">
<path d="M5.77793 26.1465L4.55379 24.7671C4.437 24.6357 4.37481 24.4647 4.37994 24.2889C4.38507 24.1132 4.45712 23.946 4.58138 23.8216L5.06897 23.3361V21.1485L3.20207 19.2816C3.07272 19.1523 3.00004 18.9769 3 18.794V15.3458C2.99998 15.1798 3.0598 15.0194 3.16849 14.894C3.27718 14.7686 3.42745 14.6866 3.59172 14.663L8.06207 14.0244L9.27931 11.5892C9.34609 11.4555 9.45452 11.347 9.58828 11.2803L12.3469 9.90094C12.4426 9.85322 12.5482 9.82843 12.6552 9.82853H13.3448V9.13887C13.3448 8.95597 13.4175 8.78055 13.5468 8.65121C13.6762 8.52188 13.8516 8.44922 14.0345 8.44922H16.1034C16.217 8.4492 16.3287 8.4772 16.4288 8.53074C16.5289 8.58428 16.6142 8.66169 16.6772 8.75612L18.0566 10.8251C18.145 10.9578 18.1848 11.117 18.1691 11.2757C18.1533 11.4344 18.0831 11.5827 17.9703 11.6954L17.4828 12.183V12.7796L19.08 13.312C19.111 13.3222 19.1411 13.3347 19.1703 13.3492L20.5497 14.0389C20.713 14.121 20.837 14.2646 20.8945 14.4382L21.4283 16.0354H24.3793C24.5155 16.0356 24.6486 16.0759 24.7621 16.1513L26.4979 17.3085L27.5193 16.7975C27.6151 16.7498 27.7206 16.725 27.8276 16.7251H29.611L30.5862 15.7499V14.6561H31.9655V16.0354C31.9655 16.2183 31.8928 16.3937 31.7634 16.523L30.3841 17.9023C30.2548 18.0317 30.0794 18.1044 29.8966 18.1044H27.9903L26.7566 18.7216C26.6479 18.7757 26.527 18.8001 26.4059 18.7925C26.2848 18.7849 26.1679 18.7455 26.0669 18.6782L24.1724 17.4147H20.931C20.7863 17.4146 20.6454 17.369 20.528 17.2844C20.4107 17.1997 20.323 17.0803 20.2772 16.943L19.6779 15.1451L18.5972 14.6051L16.5752 13.9313C16.4378 13.8855 16.3183 13.7977 16.2336 13.6802C16.149 13.5627 16.1034 13.4216 16.1034 13.2768V11.8975C16.1035 11.7146 16.1762 11.5392 16.3055 11.4099L16.5952 11.1203L15.7345 9.82853H14.7241V10.5182C14.7241 10.7011 14.6515 10.8765 14.5221 11.0058C14.3928 11.1352 14.2174 11.2078 14.0345 11.2078H12.8179L10.4103 12.4113L9.13448 14.963C9.08465 15.0628 9.01136 15.1489 8.92092 15.2142C8.83047 15.2794 8.72556 15.3217 8.61517 15.3375L4.37931 15.9437V18.5085L6.24621 20.3754C6.37555 20.5047 6.44824 20.6801 6.44828 20.863V23.6216C6.44824 23.8045 6.37555 23.9799 6.24621 24.1092L6.01655 24.3389L6.80828 25.2306L5.77793 26.1465Z" fill="#FC6E27"/>
<path d="M23 38.1034C22.8433 38.1035 22.6913 38.0503 22.569 37.9524L19.1207 35.1938C19.045 35.1332 18.9829 35.0573 18.9385 34.971C18.8941 34.8848 18.8684 34.7902 18.8631 34.6933C18.8577 34.5965 18.8729 34.4996 18.9075 34.409C18.9422 34.3184 18.9955 34.2361 19.0641 34.1676L20.2414 32.9903V32.2414L18.0476 30.5959L16.3234 31.171C16.2525 31.1948 16.1782 31.2069 16.1034 31.2069H10.5862C10.4888 31.2068 10.3926 31.1861 10.3038 31.1462C10.215 31.1063 10.1357 31.048 10.071 30.9752L7 27.5234L8.03448 26.6076L10.8959 29.8276H15.9917L17.9545 29.1738C18.0601 29.1379 18.1729 29.1284 18.283 29.1462C18.3932 29.164 18.4973 29.2085 18.5862 29.2759L21.3448 31.3448C21.4305 31.4091 21.5 31.4924 21.5479 31.5881C21.5958 31.6839 21.6207 31.7895 21.6207 31.8965V33.2759C21.6207 33.4588 21.548 33.6341 21.4186 33.7634L20.5841 34.5979L23.1172 36.6241L26.1924 35.3938C26.3177 35.3438 26.455 35.3316 26.5871 35.3589C26.7192 35.3861 26.8405 35.4515 26.9359 35.5469L28.1131 36.7241H33.1083L38.8621 32.249V28.6552L36.2193 24.691C36.165 24.6096 36.1286 24.5176 36.1125 24.4211C36.0965 24.3245 36.1012 24.2257 36.1263 24.1311C36.1514 24.0365 36.1964 23.9483 36.2582 23.8725C36.32 23.7966 36.3973 23.7347 36.4848 23.691L38.8621 22.5048V22.2414H35.4138C35.2309 22.2414 35.0555 22.1687 34.9261 22.0394C34.7968 21.91 34.7241 21.7346 34.7241 21.5517V20.1724C34.7242 20.0534 34.755 19.9364 34.8136 19.8329C34.8722 19.7293 34.9566 19.6427 35.0586 19.5814L38.5069 17.5124C38.6388 17.4332 38.7934 17.4003 38.9461 17.4191C39.0988 17.4378 39.2409 17.5071 39.3497 17.6159L39.6166 17.8828L44.2572 14.4014L43.7255 12.8041C43.691 12.7005 43.6816 12.5902 43.6981 12.4822C43.7145 12.3742 43.7564 12.2717 43.8203 12.1831C43.8841 12.0945 43.9681 12.0223 44.0653 11.9725C44.1625 11.9227 44.2701 11.8966 44.3793 11.8966H45.7586V9.13793H45.4379L44.2655 10.9C44.2153 10.9754 44.1507 11.0401 44.0754 11.0905C44.0001 11.1409 43.9156 11.1759 43.8268 11.1937C43.738 11.2114 43.6465 11.2115 43.5577 11.1939C43.4688 11.1762 43.3843 11.1413 43.309 11.091L41.24 9.71172C41.1239 9.63448 41.034 9.52387 40.9821 9.39448L39.7745 6.37931H36.671L36.0924 9.27586C36.0605 9.4321 35.9755 9.57246 35.8517 9.67305C35.728 9.77365 35.5733 9.82826 35.4138 9.82759H34.7241V10.5172H36.1034C36.2322 10.5165 36.3586 10.5519 36.4683 10.6193C36.578 10.6867 36.6666 10.7835 36.7241 10.8986L37.4138 12.2779C37.4599 12.3703 37.4847 12.4719 37.4863 12.5752C37.4879 12.6785 37.4663 12.7808 37.4231 12.8746C37.3799 12.9684 37.3161 13.0513 37.2366 13.1172C37.157 13.183 37.0637 13.2302 36.9635 13.2552L34.2786 13.9262L32.9683 14.5828L32.3517 13.3483L33.731 12.6586C33.7761 12.6362 33.8235 12.6189 33.8724 12.6069L35.7966 12.1241L35.6772 11.8966H34.0345C33.8516 11.8966 33.6762 11.8239 33.5468 11.6946C33.4175 11.5652 33.3448 11.3898 33.3448 11.2069V9.13793C33.3448 8.95502 33.4175 8.77961 33.5468 8.65027C33.6762 8.52094 33.8516 8.44828 34.0345 8.44828H34.849L35.4276 5.55172C35.4594 5.39595 35.544 5.25595 35.6672 5.15541C35.7903 5.05487 35.9445 4.99997 36.1034 5H40.2414C40.3792 4.99989 40.5139 5.0411 40.6281 5.1183C40.7423 5.1955 40.8308 5.30515 40.8821 5.4331L42.1814 8.68276L43.4986 9.56069L44.4952 8.06552C44.5582 7.97109 44.6435 7.89368 44.7436 7.84014C44.8437 7.78661 44.9555 7.7586 45.069 7.75862H46.4483C46.6312 7.75862 46.8066 7.83128 46.9359 7.96062C47.0653 8.08995 47.1379 8.26537 47.1379 8.44828V12.5862C47.1379 12.7691 47.0653 12.9445 46.9359 13.0739C46.8066 13.2032 46.6312 13.2759 46.4483 13.2759H45.3366L45.7228 14.4372C45.7685 14.5745 45.77 14.7227 45.7269 14.8608C45.6839 14.9989 45.5984 15.12 45.4828 15.2069L39.9655 19.3448C39.8327 19.4444 39.6684 19.4927 39.5029 19.481C39.3373 19.4692 39.1815 19.3981 39.0641 19.2807L38.7552 18.9717L36.1034 20.5628V20.8621H39.5517C39.7346 20.8621 39.9101 20.9347 40.0394 21.0641C40.1687 21.1934 40.2414 21.3688 40.2414 21.5517V22.931C40.2421 23.0598 40.2067 23.1862 40.1393 23.2958C40.0719 23.4055 39.9752 23.4942 39.86 23.5517L37.8 24.5779L40.1255 28.0655C40.2009 28.179 40.2412 28.3121 40.2414 28.4483V32.5862C40.2413 32.6912 40.2174 32.7948 40.1712 32.8891C40.1251 32.9834 40.058 33.0659 39.9752 33.1303L33.7683 37.9579C33.6472 38.0522 33.4982 38.1034 33.3448 38.1034H27.8276C27.6447 38.1034 27.4693 38.0307 27.34 37.9014L26.2821 36.8441L23.2559 38.0545C23.1745 38.0869 23.0876 38.1035 23 38.1034Z" fill="#FC6E27"/>
<path d="M29.6006 44.9997H28.802C28.3349 44.9719 27.8978 44.7606 27.5859 44.4117C27.274 44.0629 27.1127 43.6049 27.1372 43.1376C27.1332 42.6756 27.2908 42.2267 27.5827 41.8686L29.08 40.0714C29.2276 39.8897 29.4135 39.7427 29.6243 39.641C29.8352 39.5392 30.0658 39.485 30.3 39.4824H30.9896C31.4567 39.5102 31.8939 39.7215 32.2058 40.0704C32.5176 40.4192 32.6789 40.8772 32.6544 41.3445V42.03C32.6585 42.3179 32.5983 42.6031 32.4783 42.8648C32.3583 43.1266 32.1814 43.3583 31.9606 43.5431L30.5724 44.6548C30.2975 44.8776 29.9545 44.9993 29.6006 44.9997ZM28.6427 42.7535C28.5589 42.8638 28.5145 42.9991 28.5165 43.1376C28.5165 43.4314 28.6855 43.6204 28.802 43.6204H29.6006C29.6414 43.6176 29.6801 43.6016 29.711 43.5748L31.0993 42.4631C31.1579 42.4073 31.2039 42.3396 31.2342 42.2645C31.2646 42.1895 31.2785 42.1088 31.2751 42.0279V41.3445C31.2751 41.0507 31.1062 40.8617 30.9896 40.8617H30.3C30.2681 40.8653 30.2374 40.8756 30.2098 40.8918C30.1823 40.9081 30.1584 40.9301 30.14 40.9562L28.6427 42.7535Z" fill="#FC6E27"/>
<path d="M42.0239 40.1726C41.8021 40.1717 41.5827 40.1263 41.3788 40.039C41.175 39.9516 40.9907 39.8242 40.837 39.6643L40.0287 38.8236C39.7206 38.5025 39.5492 38.0742 39.5508 37.6291V35.6002C39.5493 35.1556 39.7201 34.7277 40.0273 34.4064L40.626 33.7857C40.8706 33.5286 41.1922 33.3579 41.5422 33.2996C41.8923 33.2413 42.2519 33.2983 42.5667 33.4622L42.7784 33.5726C43.0548 33.7175 43.286 33.9357 43.4466 34.2034C43.6072 34.471 43.691 34.7777 43.6887 35.0898V38.4691C43.6931 38.9156 43.5204 39.3456 43.2083 39.6649C42.8963 39.9842 42.4703 40.1668 42.0239 40.1726ZM41.6198 34.7409L41.0232 35.3615C40.9631 35.4265 40.9298 35.5117 40.9301 35.6002V37.6291C40.9295 37.7174 40.9628 37.8026 41.0232 37.8671L41.8315 38.7078C41.875 38.7444 41.9282 38.7674 41.9847 38.7741C42.0412 38.7808 42.0983 38.7707 42.1492 38.7453C42.2 38.7198 42.2423 38.6801 42.2707 38.6309C42.2992 38.5817 42.3127 38.5252 42.3094 38.4684V35.0891C42.3108 35.0294 42.2959 34.9704 42.2664 34.9184C42.2369 34.8664 42.1939 34.8234 42.1418 34.794L41.9301 34.6836C41.8794 34.6576 41.8214 34.6491 41.7653 34.6593C41.7092 34.6695 41.6581 34.6986 41.6198 34.7409Z" fill="#FC6E27"/>
<path d="M25.1311 28.4475C25.0143 28.4474 24.8995 28.4178 24.7973 28.3612L23.0001 27.3681L21.2028 28.3612C21.0895 28.4239 20.9609 28.4534 20.8317 28.4464C20.7024 28.4394 20.5777 28.3962 20.4719 28.3216C20.3661 28.2471 20.2833 28.1443 20.2332 28.0249C20.183 27.9056 20.1675 27.7745 20.1883 27.6468L20.5394 25.495L19.058 23.9778C18.9692 23.8871 18.9072 23.7736 18.8788 23.6499C18.8504 23.5262 18.8567 23.397 18.897 23.2766C18.9373 23.1563 19.01 23.0493 19.1072 22.9677C19.2043 22.886 19.3221 22.8327 19.4476 22.8137L21.4663 22.5054L22.3794 20.5681C22.4351 20.4497 22.5233 20.3495 22.6339 20.2793C22.7444 20.2091 22.8726 20.1719 23.0035 20.1719C23.1344 20.1719 23.2626 20.2091 23.3732 20.2793C23.4837 20.3495 23.572 20.4497 23.6276 20.5681L24.5373 22.5054L26.5559 22.8137C26.6814 22.8327 26.7992 22.886 26.8964 22.9677C26.9936 23.0493 27.0663 23.1563 27.1066 23.2766C27.1469 23.397 27.1532 23.5262 27.1247 23.6499C27.0963 23.7736 27.0343 23.8871 26.9456 23.9778L25.4642 25.495L25.8152 27.6468C25.8314 27.7457 25.8258 27.847 25.7988 27.9435C25.7718 28.0401 25.724 28.1296 25.6589 28.2058C25.5938 28.282 25.5128 28.3431 25.4217 28.3849C25.3305 28.4266 25.2313 28.448 25.1311 28.4475ZM23.0001 25.8902C23.1166 25.8903 23.2312 25.92 23.3332 25.9764L24.2214 26.4675L24.0435 25.3737C24.0262 25.2672 24.034 25.1581 24.0665 25.0552C24.0989 24.9523 24.1551 24.8585 24.2304 24.7812L25.0173 23.975L23.9614 23.813C23.8496 23.7959 23.7436 23.7515 23.6529 23.6838C23.5622 23.6161 23.4896 23.5271 23.4414 23.4247L23.0001 22.4847L22.5587 23.4247C22.5105 23.5271 22.4379 23.6161 22.3472 23.6838C22.2565 23.7515 22.1506 23.7959 22.0387 23.813L20.9828 23.975L21.7697 24.7812C21.845 24.8585 21.9012 24.9523 21.9336 25.0552C21.9661 25.1581 21.974 25.2672 21.9566 25.3737L21.7787 26.4675L22.667 25.9764C22.7689 25.92 22.8835 25.8903 23.0001 25.8902Z" fill="#FC6E27"/>
<path d="M28.518 20.1719H27.1387V21.5512H28.518V20.1719Z" fill="#FC6E27"/>
<path d="M31.2758 22.2422H29.8965V23.6215H31.2758V22.2422Z" fill="#FC6E27"/>
<path d="M31.2758 26.3789H29.8965V27.7582H31.2758V26.3789Z" fill="#FC6E27"/>
<path d="M28.518 28.4492H27.1387V29.8285H28.518V28.4492Z" fill="#FC6E27"/>
</svg>
