<svg width="50" height="50" viewBox="0 0 50 50" fill="none" xmlns="http://www.w3.org/2000/svg">
<path d="M13.0752 31.5893C17.0205 36.3054 21.7698 40.0187 27.1904 42.6461C29.2542 43.6241 32.0143 44.7845 35.0893 44.9834C35.2799 44.9917 35.4623 45 35.6529 45C37.7167 45 39.3744 44.2872 40.7254 42.8201C40.7337 42.8119 40.7503 42.7953 40.7586 42.7787C41.2393 42.1985 41.7864 41.6763 42.3583 41.121C42.7478 40.748 43.1457 40.3585 43.5269 39.9606C45.2924 38.1206 45.2924 35.7833 43.5103 34.0012L38.529 29.0199C37.6836 28.1413 36.6724 27.6772 35.6115 27.6772C34.5505 27.6772 33.5311 28.1413 32.6608 29.0116L29.6935 31.9789C29.42 31.8214 29.1382 31.6805 28.873 31.5479C28.5414 31.3821 28.2348 31.2246 27.9612 31.0506C25.2592 29.3349 22.8058 27.097 20.4602 24.2209C19.275 22.7207 18.4793 21.4608 17.9239 20.1761C18.7031 19.4716 19.4324 18.7339 20.137 18.0128C20.3856 17.7559 20.6426 17.499 20.8995 17.242C21.7946 16.3469 22.2754 15.3108 22.2754 14.2582C22.2754 13.2056 21.8029 12.1695 20.8995 11.2743L18.4295 8.80439C18.1394 8.5143 17.8659 8.23249 17.5841 7.9424C17.0371 7.37878 16.4652 6.79859 15.9016 6.27642C15.0479 5.43929 14.045 5 12.984 5C11.9314 5 10.9202 5.43929 10.0334 6.28471L6.93348 9.38458C5.80625 10.5118 5.16804 11.8794 5.03542 13.4625C4.87794 15.4434 5.24264 17.5487 6.18752 20.0932C7.63799 24.0303 9.82614 27.6855 13.0752 31.5893ZM7.0578 13.6366C7.15726 12.5342 7.57997 11.6142 8.37566 10.8185L11.459 7.73518C11.9397 7.27103 12.4702 7.03067 12.984 7.03067C13.4896 7.03067 14.0035 7.27103 14.476 7.75176C15.0313 8.26564 15.5535 8.80439 16.1171 9.3763C16.3989 9.66639 16.689 9.95649 16.9791 10.2549L19.449 12.7248C19.9629 13.2387 20.2281 13.7609 20.2281 14.2748C20.2281 14.7886 19.9629 15.3108 19.449 15.8247C19.1921 16.0816 18.9351 16.3469 18.6782 16.6038C17.9074 17.3829 17.1863 18.1206 16.3906 18.8251C16.374 18.8417 16.3657 18.85 16.3491 18.8666C15.6612 19.5545 15.769 20.2093 15.9347 20.7066C15.943 20.7315 15.9513 20.748 15.9596 20.7729C16.5978 22.3063 17.4847 23.765 18.8688 25.5056C21.3554 28.5723 23.9745 30.9511 26.8589 32.7828C27.2153 33.0149 27.5965 33.1973 27.953 33.3796C28.2845 33.5454 28.5912 33.7029 28.8647 33.8769C28.8978 33.8935 28.9227 33.9101 28.9559 33.9266C29.2294 34.0676 29.4946 34.1339 29.7598 34.1339C30.4229 34.1339 30.8539 33.7111 30.9948 33.5702L34.0947 30.4704C34.5754 29.9896 35.0976 29.7327 35.6115 29.7327C36.2414 29.7327 36.7553 30.1223 37.0785 30.4704L42.0764 35.46C43.0711 36.4546 43.0628 37.5321 42.0516 38.5848C41.7035 38.9577 41.3388 39.3141 40.9492 39.6871C40.369 40.2507 39.764 40.8309 39.2169 41.4857C38.2638 42.5135 37.1283 42.9942 35.6612 42.9942C35.5203 42.9942 35.3711 42.9859 35.2302 42.9776C32.5116 42.8036 29.9836 41.7426 28.0856 40.8392C22.9302 38.3444 18.4047 34.8052 14.65 30.3129C11.5584 26.5914 9.47803 23.1268 8.10215 19.4136C7.24844 17.1343 6.92519 15.3025 7.0578 13.6366Z" fill="#FC6E27"/>
</svg>
