<svg width="50" height="50" viewBox="0 0 50 50" fill="none" xmlns="http://www.w3.org/2000/svg">
<path d="M14.5649 16.661C15.0451 16.661 15.4344 16.2717 15.4344 15.7914C15.4344 15.3112 15.0451 14.9219 14.5649 14.9219C14.0846 14.9219 13.6953 15.3112 13.6953 15.7914C13.6953 16.2717 14.0846 16.661 14.5649 16.661Z" stroke="#FC6E27" stroke-width="2" stroke-linecap="round" stroke-linejoin="round"/>
<path d="M23.2602 16.661C23.7404 16.661 24.1298 16.2717 24.1298 15.7914C24.1298 15.3112 23.7404 14.9219 23.2602 14.9219C22.7799 14.9219 22.3906 15.3112 22.3906 15.7914C22.3906 16.2717 22.7799 16.661 23.2602 16.661Z" stroke="#FC6E27" stroke-width="2" stroke-linecap="round" stroke-linejoin="round"/>
<path d="M45.0002 29.7058C45.0002 24.4885 39.5567 20.1406 32.8263 20.1406C26.0958 20.1406 20.6523 24.4885 20.6523 29.7058C20.6523 34.9232 26.0958 39.2711 32.8263 39.2711C34.2076 39.2732 35.5827 39.086 36.9132 38.7145L41.5219 41.0102L40.0784 37.3754C41.502 36.6443 42.707 35.5498 43.5714 34.2029C44.4357 32.856 44.9286 31.3046 45.0002 29.7058Z" stroke="#FC6E27" stroke-width="2" stroke-linecap="round" stroke-linejoin="round"/>
<path d="M28.477 27.0966C28.9572 27.0966 29.3466 26.7072 29.3466 26.227C29.3466 25.7467 28.9572 25.3574 28.477 25.3574C27.9967 25.3574 27.6074 25.7467 27.6074 26.227C27.6074 26.7072 27.9967 27.0966 28.477 27.0966Z" stroke="#FC6E27" stroke-width="2" stroke-linecap="round" stroke-linejoin="round"/>
<path d="M37.1743 27.0966C37.6545 27.0966 38.0438 26.7072 38.0438 26.227C38.0438 25.7467 37.6545 25.3574 37.1743 25.3574C36.694 25.3574 36.3047 25.7467 36.3047 26.227C36.3047 26.7072 36.694 27.0966 37.1743 27.0966Z" stroke="#FC6E27" stroke-width="2" stroke-linecap="round" stroke-linejoin="round"/>
<path d="M33.6957 20.1739C33.6957 13.4435 27.2783 8 19.3478 8C11.4174 8 5 13.4087 5 20.1391C5.06449 22.0754 5.61221 23.9649 6.59331 25.6355C7.57442 27.3061 8.95774 28.7048 10.6174 29.7043L8.47826 34.0522L13.4348 31.2174C15.3217 31.9428 17.3262 32.3142 19.3478 32.313C19.9289 32.3081 20.5094 32.2733 21.087 32.2087" stroke="#FC6E27" stroke-width="2" stroke-linecap="round" stroke-linejoin="round"/>
</svg>
