<svg width="50" height="50" viewBox="0 0 50 50" fill="none" xmlns="http://www.w3.org/2000/svg">
<path d="M19.2498 5C9.73653 5 2 11.4086 2 19.2857C2 23.4486 4.13897 27.3114 7.9138 30.0543L6.46482 32.9343C6.19457 33.4686 6.28945 34.1171 6.70344 34.5514C6.97944 34.8429 7.36181 35 7.74993 35C7.93968 35 8.1323 34.9629 8.3163 34.8857L13.3992 32.7229C15.7826 33.44 18.324 33.6571 20.8741 33.5114C21.6676 33.4714 22.2771 32.7971 22.234 32.0086C22.1909 31.2171 21.4376 30.5714 20.7218 30.66C18.3413 30.78 15.9781 30.5714 13.7816 29.8429C13.4481 29.7343 13.0859 29.7514 12.761 29.8857L10.7916 30.7257L11.0504 30.2086C11.381 29.5514 11.1539 28.7486 10.5243 28.36C6.93344 26.1314 4.87496 22.8257 4.87496 19.2857C4.87496 12.9829 11.3235 7.85714 19.2498 7.85714C27.1761 7.85714 33.6246 12.9829 33.6246 19.2857C33.6246 19.7143 33.6045 20.1171 33.5326 20.52C33.3917 21.2971 33.915 22.04 34.6941 22.1771C35.4876 22.3229 36.2207 21.8 36.3616 21.0229C36.4622 20.4543 36.4996 19.8857 36.4996 19.2857C36.4996 11.4086 28.763 5 19.2498 5Z" fill="#FC6E27"/>
<path d="M43.1246 39.2614C46.198 37.1014 47.9977 33.9871 47.9977 30.7157C47.9977 24.4128 41.5492 19.2871 33.6229 19.2871C25.6966 19.2871 19.248 24.4128 19.248 30.7157C19.248 37.6957 27.068 43.33 36.2218 41.9471L43.1189 44.8871C43.3 44.9614 43.4955 45.0014 43.6853 45.0014C44.0734 45.0014 44.4557 44.8443 44.7317 44.55C45.1486 44.1157 45.2435 43.47 44.9732 42.9328L43.1246 39.2614ZM40.5458 37.51C39.8845 37.8871 39.6344 38.71 39.9737 39.3871L40.6435 40.7243L36.9693 39.1557C36.7911 39.0814 36.5956 39.0414 36.403 39.0414C36.3196 39.0414 36.2391 39.0471 36.1586 39.0614C35.276 39.2157 34.4451 39.2871 33.6229 39.2871C27.2807 39.2871 22.123 35.4414 22.123 30.7157C22.123 25.99 27.2807 22.1443 33.6229 22.1443C39.965 22.1443 45.1227 25.99 45.1227 30.7157C45.1227 33.3785 43.4553 35.8557 40.5458 37.51Z" fill="#FC6E27"/>
<path d="M13.5573 13.5703H13.5286C12.7351 13.5703 12.1055 14.2103 12.1055 14.9989C12.1055 15.7875 12.7638 16.4275 13.5573 16.4275C14.3508 16.4275 14.9948 15.7875 14.9948 14.9989C14.9948 14.2103 14.3508 13.5703 13.5573 13.5703Z" fill="#FC6E27"/>
<path d="M25.0573 13.5703H25.0286C24.2351 13.5703 23.6055 14.2103 23.6055 14.9989C23.6055 15.7875 24.2638 16.4275 25.0573 16.4275C25.8508 16.4275 26.4948 15.7875 26.4948 14.9989C26.4948 14.2103 25.8508 13.5703 25.0573 13.5703Z" fill="#FC6E27"/>
<path d="M29.3698 26.4297H29.3411C28.5447 26.4297 27.918 27.0697 27.918 27.8583C27.918 28.6468 28.5763 29.2868 29.3698 29.2868C30.1633 29.2868 30.8073 28.6468 30.8073 27.8583C30.8073 27.0697 30.1633 26.4297 29.3698 26.4297Z" fill="#FC6E27"/>
<path d="M37.9948 26.4297H37.9661C37.1726 26.4297 36.543 27.0697 36.543 27.8583C36.543 28.6468 37.2042 29.2868 37.9948 29.2868C38.7883 29.2868 39.4323 28.6468 39.4323 27.8583C39.4323 27.0697 38.7883 26.4297 37.9948 26.4297Z" fill="#FC6E27"/>
</svg>
