<svg width="50" height="50" viewBox="0 0 50 50" fill="none" xmlns="http://www.w3.org/2000/svg">
<path d="M35.1163 28.6777C34.8696 28.5389 34.59 28.3816 34.2532 28.1789C34.0652 28.0654 33.8288 27.9102 33.5784 27.7458C32.2928 26.902 31.3187 26.3047 30.4894 26.3047C30.2952 26.3047 30.1115 26.3376 29.944 26.4022C29.2176 26.682 28.621 27.4294 28.0441 28.1521C27.8326 28.4168 27.53 28.7959 27.3464 28.9653C26.618 28.8329 25.0817 27.8812 23.4238 26.2233C21.764 24.5635 20.8121 23.0254 20.6814 22.2987C20.8506 22.1144 21.2326 21.8096 21.499 21.5968C22.219 21.022 22.9634 20.4277 23.2448 19.7034C23.6036 18.7729 22.9459 17.66 21.9014 16.0687C21.737 15.8183 21.5817 15.5817 21.469 15.3952C21.2656 15.0571 21.1083 14.7773 20.9696 14.5307C20.4001 13.5186 20.0238 12.8496 18.6099 12.8496C17.6922 12.8496 16.3947 13.7168 15.5159 14.5768C14.2387 15.8268 13.5352 17.27 13.5352 18.6434C13.5376 22.3735 15.6193 26.6486 19.2466 30.3769C19.2528 30.3831 19.2591 30.3848 19.2655 30.391C22.9938 34.0184 27.2713 36.0931 31.0013 36.0931H31.0027C32.3742 36.0931 33.8179 35.3976 35.0679 34.1211C35.9285 33.2423 36.7969 31.9543 36.7969 31.0372C36.797 29.6235 36.1284 29.2473 35.1163 28.6777ZM31.0016 34.1659C27.8245 34.1636 23.9487 32.2381 20.6322 29.0151C17.4088 25.6982 15.4834 21.8222 15.4813 18.6453C15.4813 16.7237 17.975 14.8966 18.6272 14.7965C18.7604 14.7971 18.8303 14.8049 18.8635 14.8106C18.9497 14.9098 19.1211 15.2144 19.2737 15.4856C19.4117 15.731 19.5837 16.0365 19.8026 16.4003C19.935 16.6196 20.1 16.8709 20.2746 17.1369C20.6052 17.6406 21.2697 18.6529 21.3817 19.0851C21.1944 19.3502 20.6132 19.8142 20.2851 20.0761C19.4452 20.7466 18.7199 21.3256 18.7199 22.1438C18.722 24.1203 21.2677 26.8195 22.0479 27.5997C22.8281 28.3798 25.5273 30.9256 27.5079 30.9276C28.3209 30.9249 28.8974 30.2026 29.5651 29.3663C29.8285 29.0365 30.2952 28.4519 30.5614 28.2655C30.9931 28.3767 32.0067 29.042 32.5107 29.3729C32.7768 29.5475 33.028 29.7124 33.2486 29.8456C33.6112 30.0638 33.9166 30.2357 34.1621 30.3738C34.4332 30.5264 34.7378 30.6978 34.8371 30.784C34.8427 30.8172 34.8505 30.8871 34.8512 31.0202C34.7503 31.6717 32.9226 34.1636 31.0016 34.1659Z" fill="#FC6E27"/>
<path d="M44.5119 24.9365C44.4436 19.678 42.3328 14.7091 38.5687 10.9449C34.7351 7.11131 29.6748 5 24.3198 5C19.1505 5 14.3147 6.98909 10.7029 10.6007C7.49794 13.8057 5.53161 18.0803 5.16585 22.6372C4.81896 26.9606 5.91957 31.3358 8.26975 35.0144L5.06047 43.6893C4.9258 44.0534 5.02038 44.4628 5.30129 44.7309C5.48588 44.9071 5.72768 45 5.97328 45C6.10133 45 6.23055 44.9629 6.35306 44.9109L14.7114 41.354C17.9022 43.34 21.5507 44.3635 25.2971 44.3635H25.2975C30.4659 44.3635 35.3016 42.3982 38.9129 38.7869C42.5918 35.108 44.5803 30.2043 44.5119 24.9365ZM37.5366 37.4345C34.2927 40.6784 29.9459 42.4648 25.297 42.4647C21.7578 42.4646 18.3144 41.4287 15.339 39.4688C15.1777 39.3626 14.9912 39.3085 14.8037 39.3085C14.675 39.3085 14.5458 39.334 14.4239 39.3857L7.66744 42.2514L10.2655 35.2288C10.3742 34.9349 10.3346 34.6066 10.1594 34.3468C5.3841 27.2723 6.19143 17.8644 12.079 11.9769C15.3231 8.73278 19.6703 6.94608 24.3198 6.94608C29.1549 6.94608 33.7266 8.8549 37.1925 12.321C40.596 15.7243 42.5042 20.2135 42.5659 24.9618C42.6275 29.7003 40.8414 34.1299 37.5366 37.4345Z" fill="#FC6E27"/>
</svg>
