<svg width="50" height="50" viewBox="0 0 50 50" fill="none" xmlns="http://www.w3.org/2000/svg">
<path d="M25 5.00002C21.3729 5.00038 17.8142 5.9871 14.7048 7.85455C11.5954 9.722 9.05232 12.3999 7.34786 15.6015C5.6434 18.8032 4.8417 22.4081 5.02857 26.0304C5.21543 29.6527 6.38383 33.1559 8.40869 36.1652L5 45L14.0956 41.7478C16.7042 43.4506 19.6745 44.5204 22.7697 44.8721C25.8649 45.2238 28.9995 44.8476 31.9235 43.7736C34.8476 42.6995 37.4804 40.9572 39.612 38.6856C41.7437 36.414 43.3152 33.6759 44.2014 30.6895C45.0875 27.7031 45.2638 24.5509 44.7163 21.4843C44.1687 18.4177 42.9123 15.5214 41.0473 13.0262C39.1824 10.5311 36.7603 8.50607 33.9742 7.11259C31.1882 5.71912 28.1151 4.9957 25 5.00002Z" stroke="#FC6E27" stroke-width="2" stroke-linecap="round" stroke-linejoin="round"/>
<path d="M20.6532 29.3486C22.914 31.6095 27.9053 34.566 30.2184 34.566C31.233 34.5764 32.2201 34.2359 33.0124 33.602C33.8048 32.9682 34.3537 32.0799 34.5662 31.0877V29.3486C34.5662 29.3486 32.4271 28.3051 31.0879 27.6095C29.7488 26.9138 27.6097 29.3486 27.6097 29.3486C25.9821 28.8183 24.4957 27.9265 23.2619 26.7399C22.0753 25.5061 21.1834 24.0197 20.6532 22.3921C20.6532 22.3921 23.088 20.2529 22.3923 18.9138C21.6966 17.5747 20.6532 15.4355 20.6532 15.4355H18.914C17.9218 15.6481 17.0336 16.197 16.3997 16.9893C15.7658 17.7817 15.4253 18.7687 15.4358 19.7834C15.4358 22.0964 18.3923 27.0877 20.6532 29.3486Z" stroke="#FC6E27" stroke-width="2" stroke-linecap="round" stroke-linejoin="round"/>
</svg>
