<svg width="60" height="60" viewBox="0 0 60 60" fill="none" xmlns="http://www.w3.org/2000/svg">
<path d="M25.4063 10.5329C28.3125 10.5329 30.6563 8.18182 30.6563 5.26646C30.6563 2.3511 28.3125 0 25.4063 0C22.5 0 20.1562 2.3511 20.1562 5.26646C20.1562 8.18182 22.5938 10.5329 25.4063 10.5329ZM25.4063 1.88088C27.2813 1.88088 28.7813 3.38558 28.7813 5.26646C28.7813 7.14733 27.2813 8.65204 25.4063 8.65204C23.5313 8.65204 22.0312 7.14733 22.0312 5.26646C22.0312 3.38558 23.625 1.88088 25.4063 1.88088Z" fill="black"/>
<path d="M23.9063 52.1942C23.5313 51.8181 22.9688 51.8181 22.5938 52.1942L19.9688 54.8275C19.5938 55.2036 19.5938 55.7679 19.9688 56.1441C20.3438 56.5203 20.9063 56.5203 21.2813 56.1441L22.3125 55.1096V59.0594C22.3125 59.6237 22.6875 59.9999 23.25 59.9999C23.8125 59.9999 24.1875 59.6237 24.1875 59.0594V55.1096L25.2188 56.1441C25.5938 56.5203 26.1563 56.5203 26.5313 56.1441C26.9063 55.7679 26.9063 55.2036 26.5313 54.8275L23.9063 52.1942Z" fill="black"/>
<path d="M37.6875 43.6366C37.3125 43.2604 36.75 43.2604 36.375 43.6366L33.75 46.2699C33.375 46.646 33.375 47.2103 33.75 47.5865C34.125 47.9626 34.6875 47.9626 35.0625 47.5865L36.0937 46.552V59.0598C36.0937 59.6241 36.4687 60.0003 37.0312 60.0003C37.5937 60.0003 37.9688 59.6241 37.9688 59.0598V46.552L39 47.5865C39.375 47.9626 39.9375 47.9626 40.3125 47.5865C40.6875 47.2103 40.6875 46.646 40.3125 46.2699L37.6875 43.6366Z" fill="black"/>
<path d="M52.5937 35.455C52.2187 35.0788 51.6562 35.0788 51.2812 35.455L48.6563 38.0882C48.2813 38.4644 48.2813 39.0287 48.6563 39.4048C49.0313 39.781 49.5937 39.781 49.9687 39.4048L51 38.3703V58.966C51 59.5302 51.375 59.9064 51.9375 59.9064C52.5 59.9064 52.875 59.5302 52.875 58.966V38.3703L53.9062 39.4048C54.2812 39.781 54.8438 39.781 55.2188 39.4048C55.5938 39.0287 55.5938 38.4644 55.2188 38.0882L52.5937 35.455Z" fill="black"/>
<path d="M59.0625 30.4698H43.3125C42.75 30.4698 42.375 30.846 42.375 31.4102V39.5921H39V32.1626C39.0937 29.4353 37.3125 27.0842 34.6875 26.4259L30.2812 25.2974L30.4688 18.8084L33 20.5952C36.75 23.2284 40.2187 20.5952 42.4687 20.125C43.6875 19.7488 44.4375 18.4322 44.25 17.2096C43.9688 15.6109 42.375 14.5764 40.7812 15.1406L38.1563 15.987C35.9063 16.7394 34.875 14.5764 32.0625 12.6955C30 11.0027 28.3125 11.7551 20.9062 11.0968C19.3125 11.0027 17.8125 11.661 16.7812 12.8836L10.3125 20.4071C10.125 20.6892 9.9375 20.9714 9.84375 21.2535L8.4375 26.9902C7.96875 28.871 9.46875 30.6579 11.3438 30.5638C12.5625 30.5638 13.5937 29.7174 13.9687 28.4949C15.9375 22.382 15.75 22.6642 15.8437 22.5701L19.2188 18.9024V26.2378C19.2188 26.9902 19.4062 27.7425 19.6875 28.4008L17.9063 46.0811C17.8125 47.0215 18.1875 47.8679 18.75 48.4322H14.4375C13.875 48.4322 13.5 48.8083 13.5 49.3726V57.5544H0.9375C0.375 57.5544 0 57.9306 0 58.4949C0 59.0591 0.375 59.4353 0.9375 59.4353H14.4375C15 59.4353 15.375 59.0591 15.375 58.4949V50.3131H28.7813C29.3438 50.3131 29.7188 49.9369 29.7188 49.3726V41.4729H43.3125C43.875 41.4729 44.25 41.0968 44.25 40.5325V32.3507H59.0625C59.625 32.3507 60 31.9745 60 31.4102C60 30.846 59.625 30.4698 59.0625 30.4698ZM14.5312 21.3475C14.3437 21.6297 14.1563 21.9118 14.0625 22.1939L12.1875 28.0247C12.0937 28.4008 11.7188 28.683 11.25 28.777C10.5938 28.777 10.0312 28.2127 10.2187 27.5544C11.8125 21.5356 11.7188 21.7237 11.8125 21.6297L18.2812 14.1062C18.9375 13.3538 19.875 12.9776 20.9062 12.9776C28.5937 13.6359 29.625 13.0717 30.9375 14.2002C33.375 15.7989 35.25 19.0905 38.8125 17.8679L41.4375 17.0215C41.9063 16.8334 42.375 17.2096 42.4687 17.6798C42.5625 18.056 42.2813 18.4322 41.9063 18.5262C39.4688 19.0905 36.8438 21.1594 34.125 19.2786L30.1875 16.4573C29.9063 16.2692 29.5313 16.2692 29.25 16.3632C28.9688 16.5513 28.7813 16.8334 28.7813 17.2096L28.5938 26.2378C28.5938 26.708 28.875 27.0842 29.3437 27.1783L34.5 28.4949C36.2812 28.9651 37.4062 30.5638 37.3125 32.3507V39.7801H34.6875V34.2315C34.6875 32.8209 33.75 31.6924 32.3438 31.4102L23.8125 29.6234C22.3125 29.3413 21.2813 27.9306 21.2813 26.4259V16.5513C21.2813 16.1751 21 15.7989 20.7188 15.7049C20.3438 15.5168 19.9688 15.7049 19.6875 15.987L14.5312 21.3475ZM23.3437 31.3162L24.8438 31.6924L22.5 46.5513C22.4062 47.2096 21.75 47.7739 21.0938 47.6798C20.3437 47.5858 19.7813 47.0215 19.875 46.2692L21.4687 30.4698C21.9375 30.846 22.5937 31.1281 23.3437 31.3162ZM28.7813 39.6861C28.2188 39.6861 27.8438 40.0623 27.8438 40.6265V48.5262H23.5313C23.9063 48.056 24.1875 47.4917 24.375 46.9275L26.7188 32.0685L31.875 33.1971C32.3438 33.2911 32.7188 33.7613 32.7188 34.2315V39.7801H28.7813V39.6861Z" fill="black"/>
</svg>
