<svg width="60" height="60" viewBox="0 0 60 60" fill="none" xmlns="http://www.w3.org/2000/svg">
<path d="M59.0378 29.6065L49.4777 6.72454L40.2531 10.5787C40.3689 9.49074 40.3689 7.95139 39.7786 6.84028C38.4591 4.375 35.3804 3.4375 32.9152 4.75694C30.4499 6.07639 29.5124 9.15509 30.8318 11.6204C31.2948 12.4884 31.9892 13.1944 32.8457 13.669L22.9846 17.7778C22.7647 17.0833 22.4291 16.4236 22.0008 15.8333C22.1281 15.7639 22.2323 15.6829 22.3365 15.5787C22.5795 15.3356 22.73 15.0116 22.73 14.6644L22.6837 10.8449H23.4707C23.6559 10.8449 23.8295 10.7639 23.9568 10.6366C24.0957 10.5093 24.1652 10.3241 24.1652 10.1389L24.0263 0L22.6374 0.0231481L22.7647 9.45602L4.21146 9.59491L4.08414 0L2.69525 0.0231481L2.82257 10.3125C2.83414 10.6944 3.13507 10.9838 3.51701 10.9954H4.3272C4.3272 11.0301 4.3735 14.8148 4.3735 14.8148C4.38507 15.2315 4.5934 15.6134 4.92905 15.8565L4.41979 16.6667C4.22303 16.9792 3.95683 17.7546 3.95683 17.7546H3.94525L1.91979 25.3125L2.4522 26.956L1.69988 27.2917C1.00544 27.6042 0.449884 28.1713 0.183681 28.8889C-0.0825231 29.6065 -0.059375 30.3935 0.253125 31.088L10.5425 54.0741L20.1837 49.7569C20.5309 49.6065 20.774 49.2824 20.8087 48.9005C20.8434 48.5185 20.6698 48.1481 20.3573 47.9398C19.1189 47.0718 18.2624 46.1343 18.0078 45.3704C17.3596 43.4491 18.3897 41.3542 20.3226 40.706C22.2439 40.0579 24.3388 41.088 24.9869 43.0208C25.2994 43.9352 25.23 44.9421 24.8017 45.8102C24.6166 46.1806 24.686 46.6204 24.9753 46.9097C25.2531 47.2106 25.6929 47.3032 26.0633 47.1296L34.0726 43.5417C34.4545 43.3796 34.7786 43.1019 35.0101 42.7546L36.2253 42.2569C36.3642 43.4028 36.7925 44.4907 37.4753 45.4282C37.348 45.4977 37.2439 45.5903 37.1397 45.6944C36.8851 45.9375 36.7462 46.2731 36.7462 46.6204L36.8041 50.4282H36.017C35.8318 50.4282 35.6582 50.5093 35.5309 50.6366C35.392 50.7639 35.3226 50.9491 35.3341 51.1343L35.4615 59.8727H36.8503L36.723 51.8287L55.2763 51.6782L55.4036 59.8843H56.7925L56.6652 50.9838C56.6536 50.6019 56.3527 50.3009 55.9707 50.2894H55.1605C55.1605 50.2662 55.1721 50.2315 55.1721 50.2083L55.1142 46.4815C55.1142 46.0648 54.9059 45.6713 54.5587 45.4398C54.8249 45.0116 55.0332 44.6875 55.0679 44.6181C55.2647 44.3171 55.4152 43.9815 55.5078 43.6227L55.5309 43.5417H55.5425L57.5679 35.9722L56.8272 33.6343L57.4985 33.3565C58.9568 32.7546 59.6513 31.0995 59.0494 29.6412C59.0494 29.6296 59.0378 29.6181 59.0378 29.6065ZM10.5541 23.3333L10.4383 23.5301C9.65127 24.919 8.22766 25.5324 8.21609 25.5324L7.70683 25.7407C7.70683 25.7407 8.50544 30.5671 8.72535 31.9676C8.85266 32.8009 8.7022 33.6574 8.28553 34.3866C7.98461 34.8148 7.4985 35.0694 6.97766 35.0694C6.61887 35.0579 6.4684 34.8727 6.41053 34.7685L4.15359 27.7199L3.72535 26.3889L3.36655 25.2778L5.32257 17.9977C5.38044 17.7894 5.47303 17.5926 5.58877 17.4074C5.58877 17.4074 5.94757 16.8287 6.35266 16.2037L20.4267 16.088C21.0286 16.7245 21.4684 17.5 21.7115 18.3449L10.5541 23.3333ZM21.0865 14.7106H21.0633V14.6875L6.05174 14.8032C5.94757 14.8148 5.85498 14.7801 5.77396 14.7222V14.5833L5.72766 11.088C5.80868 11.0417 5.90127 11.0069 5.99387 11.0069L21.0286 10.8912C21.1328 10.8796 21.2253 10.9144 21.3064 10.9722L21.3642 14.6296C21.2832 14.6759 21.1791 14.7106 21.0865 14.7106ZM33.5054 42.2685L26.4105 45.4514C27.0934 42.7315 25.4499 39.9769 22.73 39.294C20.0101 38.6111 17.2554 40.2546 16.5726 42.9745C16.3295 43.912 16.3758 44.9074 16.6767 45.8218C17.0703 46.9676 18.1235 47.9861 19.0841 48.7269L11.2253 52.2454L1.50312 30.5208C1.34109 30.162 1.32951 29.7569 1.47998 29.3866C1.61887 29.0162 1.89664 28.7269 2.25544 28.5648L2.86887 28.287L5.13738 35.3588C5.48461 36.0185 6.1559 36.4468 6.90822 36.4583C6.90822 36.4583 8.71377 36.4931 9.45451 35.1157V35.0926C10.0332 34.0741 10.2531 32.8935 10.0679 31.7361C9.89433 30.625 9.41979 27.7199 9.22303 26.5509C10.149 26.0417 10.936 25.3009 11.5147 24.4213L23.2624 19.1551C23.2624 19.1551 23.5865 18.9699 23.8411 19.0278C23.9916 19.0856 24.1304 19.2593 24.1999 19.4097L27.8341 27.7199C27.9846 28.1019 28.3666 28.3333 28.7716 28.3102C29.1767 28.287 29.524 28.0093 29.6513 27.6273C29.9638 26.5741 30.7277 25.7292 31.7462 25.3125C33.5517 24.5023 35.6814 25.3009 36.4915 27.1065C37.2439 28.7731 36.6304 30.7292 35.0564 31.6667C34.0494 32.2338 32.2902 32.0949 31.5841 32.0139C31.2138 31.9676 30.8434 32.1296 30.6119 32.4306C30.6119 32.4421 30.2763 32.8241 30.4962 33.4838L33.9337 41.1458C34.061 41.4352 34.0147 41.7824 33.8179 42.0255C33.7485 42.1296 33.6328 42.2222 33.5054 42.2685ZM53.7253 46.6782L53.7832 50.1736C53.7022 50.2315 53.6096 50.2662 53.5054 50.2546L38.4707 50.3704C38.3665 50.3819 38.274 50.3472 38.1929 50.2894L38.1351 46.6898L53.7253 46.6782ZM54.1652 43.2639C54.1073 43.4722 54.0147 43.669 53.899 43.8542V43.8773C53.899 43.8773 53.5517 44.4444 53.1466 45.0694L53.0078 45.2893H39.1767L39.061 45.1736C38.1698 44.2245 37.6374 42.9861 37.5679 41.6782L47.5911 37.5C47.3712 37.8935 47.1628 38.3102 46.9661 38.7269L48.2277 39.3171C48.4823 38.7731 48.7601 38.2407 49.0494 37.7315C49.3388 37.2222 49.7323 36.7824 50.1837 36.412C50.5193 36.1343 50.8781 35.9144 51.2716 35.7292L51.7809 35.5208L51.6999 34.9769C51.6883 34.9653 51.6536 34.7106 51.5841 34.3287C51.3758 33.0787 50.936 30.3704 50.7624 29.3056C50.6351 28.4722 50.7855 27.6157 51.2022 26.8866C51.5031 26.4583 51.9892 26.1921 52.5101 26.1921C52.8689 26.2037 53.0193 26.3889 53.0772 26.5046L55.1142 32.8472L55.5425 34.1782L56.1212 35.9954L54.1652 43.2639ZM57.7647 31.2731C57.6142 31.6319 57.3249 31.9213 56.9661 32.0718L56.399 32.3148L54.3388 25.9028C53.9915 25.2431 53.3203 24.8264 52.5795 24.8032C50.7971 24.8495 50.0216 26.1574 50.0216 26.1574C49.4429 27.1759 49.223 28.3565 49.4082 29.5139C49.5818 30.6366 50.0564 33.5301 50.2531 34.6991C49.9869 34.8495 49.7323 35.0231 49.4892 35.2083L35.3689 41.1111C35.3341 40.9259 32.1166 33.6806 32.1166 33.6806C33.2624 33.7616 34.5818 33.7037 35.5656 33.1829L36.0054 32.9167C36.5378 32.5579 37.0008 32.1065 37.3596 31.5741L37.5101 31.3426C37.7763 30.9028 37.973 30.4282 38.1003 29.9306C38.1119 29.9074 38.1119 29.8843 38.1119 29.8611H38.1235C38.2508 29.4097 38.3087 28.9468 38.3087 28.4722C38.3087 27.963 38.2277 27.4421 38.0772 26.956C37.2439 24.2824 34.3966 22.8009 31.723 23.6343C30.4383 24.0394 29.3619 24.9421 28.7369 26.1458L27.9152 24.3056C27.649 23.6458 25.8781 19.7569 25.4846 18.8542C25.392 18.6806 25.2878 18.5069 25.1605 18.3565L34.3156 14.5833C34.6976 14.4213 34.9291 14.0394 34.9059 13.6343C34.8943 13.2292 34.6165 12.8819 34.2346 12.7662C32.2902 12.1759 31.1906 10.1273 31.7809 8.1713C31.8388 7.98611 31.9082 7.8125 31.9892 7.63889C32.4406 6.68981 33.274 5.97222 34.2925 5.69444C35.9591 5.21991 37.73 5.96065 38.5517 7.48843C39.0957 8.50694 38.9105 10.2546 38.8064 10.9606C38.7601 11.3426 38.9105 11.713 39.2115 11.9444C39.5124 12.1759 39.9059 12.2338 40.2531 12.0833L48.7253 8.54167L57.7531 30.1389C57.9152 30.4977 57.9152 30.9144 57.7647 31.2731Z" fill="black"/>
<path d="M15.5408 54.3875L14.3066 55.0244L15.9096 58.1304L17.1438 57.4935L15.5408 54.3875Z" fill="black"/>
<path d="M5.89009 54.4428L4.28711 57.5488L5.52128 58.1858L7.12425 55.0798L5.89009 54.4428Z" fill="black"/>
<path d="M10.0366 56.4324L9.95117 59.9268L11.3396 59.9607L11.425 56.4664L10.0366 56.4324Z" fill="black"/>
<path d="M44.9041 1.96071L43.6699 2.59766L45.2729 5.70364L46.5071 5.0667L44.9041 1.96071Z" fill="black"/>
<path d="M55.2963 2.0073L53.6934 5.11328L54.9275 5.75023L56.5305 2.64424L55.2963 2.0073Z" fill="black"/>
<path d="M49.3979 0.150208L49.3125 3.64453L50.701 3.67846L50.7864 0.184142L49.3979 0.150208Z" fill="black"/>
</svg>
