<svg width="60" height="60" viewBox="0 0 60 60" fill="none" xmlns="http://www.w3.org/2000/svg">
<path d="M41.1688 54.9587C42.9069 57.9669 46.1777 60 49.9212 60C55.4787 60 60 55.5224 60 50.0188C60 44.5152 55.4786 40.0377 49.9212 40.0377C49.1528 40.0377 48.4054 40.1261 47.6858 40.2882V28.7613H54.2957C54.8353 28.7613 55.2729 28.328 55.2729 27.7936V24.2772C55.2729 23.7428 54.8353 23.3095 54.2957 23.3095H50.6339V23.0326C50.6339 21.1757 49.1086 19.6652 47.2337 19.6652H46.1107V16.1751C46.1107 15.9122 46.0027 15.6608 45.8116 15.4783L40.8621 10.7533L42.9673 2.97248C43.1064 2.45849 43.0344 1.92092 42.7648 1.45834C42.4952 0.995768 42.0609 0.665288 41.542 0.527749L39.8112 0.068682C39.2921 -0.0692196 38.7491 0.00202958 38.2821 0.269002C37.8151 0.535975 37.4814 0.966131 37.3424 1.48012L33.3875 16.0968C33.2484 16.6108 33.3203 17.1485 33.5899 17.6111C33.8596 18.0736 34.2939 18.404 34.8128 18.5417L36.5438 19.001C36.7178 19.0472 36.8926 19.0691 37.0649 19.0691C37.9549 19.0691 38.7714 18.4802 39.0123 17.5894L40.2839 12.8899L44.1561 16.5865V19.6652H43.0331C41.1582 19.6652 39.6329 21.1757 39.6329 23.0326V23.3095H32.3377C32.5614 22.8554 32.6872 22.3457 32.6872 21.8074C32.6872 19.9115 31.1297 18.3691 29.2152 18.3691H17.7722L14.4968 16.276V15.5939C14.4968 14.0167 13.722 12.6146 12.528 11.7375C14.3259 10.732 15.5433 8.82277 15.5433 6.63619C15.5433 3.40759 12.8909 0.780811 9.63053 0.780811C6.37019 0.780811 3.71768 3.4076 3.71768 6.63631C3.71768 8.82072 4.93272 10.7282 6.72773 11.7346C5.53712 12.6114 4.76427 14.0149 4.76427 15.594V29.2129C4.76427 32.9611 6.67093 36.2761 9.57373 38.2584H5.83786C3.69654 38.2584 1.95442 36.5331 1.95442 34.4126V16.7232C1.95442 16.1888 1.51688 15.7555 0.977211 15.7555C0.437546 15.7555 0 16.1888 0 16.7232V34.4126C0 37.6004 2.6188 40.1938 5.83786 40.1938H11.9087V53.991C11.9087 54.5254 12.3462 54.9587 12.8859 54.9587H16.1669C16.7065 54.9587 17.1441 54.5254 17.1441 53.991V40.1938H19.1809C19.455 40.1938 20.0971 40.1938 20.5766 41.8096L24.2728 54.2638C24.3951 54.6757 24.7768 54.9586 25.2103 54.9586H41.1688V54.9587ZM37.1244 17.0885C37.1162 17.1188 37.0789 17.1392 37.0494 17.1313L35.3185 16.672C35.3033 16.668 35.2912 16.6584 35.2824 16.6432C35.2736 16.6281 35.2712 16.6128 35.2752 16.5978L39.2301 1.9808C39.2341 1.9658 39.2439 1.9537 39.2592 1.94511C39.2697 1.93906 39.2802 1.93616 39.2906 1.93616C39.2954 1.93616 39.3001 1.93677 39.3049 1.93797C39.3049 1.9381 39.305 1.9381 39.305 1.9381L41.036 2.39741C41.0512 2.4014 41.0632 2.41107 41.072 2.4262C41.081 2.44132 41.0833 2.45668 41.0792 2.47168L37.1244 17.0885ZM53.3184 25.2449V26.8258H21.9929V25.2449H53.3184ZM27.6255 39.5615C26.6846 36.9135 25.6117 34.9804 24.3018 33.5609C22.4358 31.5387 20.0916 30.5557 17.1353 30.5557H15.8529C15.1178 30.5557 14.4968 29.9407 14.4968 29.2127V24.4481L14.8858 24.6967C15.4441 25.0516 16.0903 25.2406 16.7545 25.2434L20.0386 25.244V27.7936C20.0386 28.328 20.4761 28.7613 21.0158 28.7613H27.6256L27.6255 39.5615ZM41.5873 23.0326C41.5873 22.243 42.2359 21.6007 43.0331 21.6007H47.2337C48.031 21.6007 48.6795 22.243 48.6795 23.0326V23.3095H41.5873V23.0326ZM16.7609 23.3079C16.4693 23.3063 16.186 23.2235 15.9434 23.0692L10.9233 19.8612C10.2214 19.4151 10.0168 18.4867 10.4674 17.7916C10.6857 17.4548 11.0232 17.2224 11.418 17.1372C11.8129 17.0521 12.2173 17.1241 12.5554 17.3388L17.1965 20.3045H29.2153C30.0522 20.3045 30.7329 20.9787 30.7329 21.8074C30.7329 22.63 30.0622 23.2993 29.2342 23.3095L16.7609 23.3079ZM9.63041 2.71639C11.813 2.71639 13.5887 4.47488 13.5887 6.63631C13.5887 8.79773 11.813 10.5562 9.63041 10.5562C7.44781 10.5562 5.6721 8.79773 5.6721 6.63631C5.6721 4.47488 7.44781 2.71639 9.63041 2.71639ZM13.863 53.0233V40.1938H15.1895V53.0233H13.863ZM22.4517 41.2639C21.7144 38.7798 20.266 38.2584 19.1808 38.2584H16.1667H15.8528C10.8163 38.2584 6.71869 34.2005 6.71869 29.2129V15.594C6.71869 14.0103 8.0196 12.722 9.61868 12.722C11.1135 12.722 12.3491 13.8301 12.521 15.2538C12.0276 15.1406 11.5109 15.1362 11.0013 15.2463C10.0965 15.4417 9.32271 15.9745 8.8225 16.7462C7.78983 18.3393 8.25853 20.4675 9.86543 21.4888L12.5421 23.1993V29.2127C12.5421 31.0203 14.0272 32.4912 15.8527 32.4912H17.135C21.6489 32.4912 24.3071 35.1922 26.3102 41.8144L27.6254 46.1623V53.0232H25.9415L22.4517 41.2639ZM29.5799 53.0233V28.7613H45.7314V40.9445C42.2602 42.5227 39.8423 45.9952 39.8423 50.0188C39.8423 51.0654 40.0068 52.0747 40.3098 53.0233H29.5799ZM49.9212 58.0644C45.4414 58.0644 41.7968 54.4551 41.7968 50.0187C41.7968 45.5823 45.4414 41.973 49.9212 41.973C54.4009 41.973 58.0456 45.5823 58.0456 50.0187C58.0456 54.4551 54.4009 58.0644 49.9212 58.0644ZM55.7466 45.6954C55.3056 45.2609 54.7227 45.0187 54.0978 45.0253C53.4765 45.0278 52.8937 45.2697 52.4569 45.7065L48.7221 49.4418L47.383 48.1157C46.9435 47.6803 46.3591 47.4407 45.7374 47.4407C45.1156 47.4407 44.5312 47.6803 44.0919 48.1155C43.6524 48.5508 43.4103 49.1295 43.4103 49.7452C43.4103 50.3609 43.6524 50.9396 44.0919 51.3749L47.083 54.3368C47.5225 54.7722 48.1069 55.0118 48.7286 55.0118C49.3502 55.0118 49.9347 54.7722 50.3741 54.337C51.5088 53.2133 52.653 52.064 53.7595 50.9524C54.425 50.2842 55.0904 49.6158 55.7574 48.949C56.6587 48.0484 56.6538 46.5887 55.7466 45.6954ZM54.3692 47.5868C53.7009 48.2547 53.0344 48.9242 52.3679 49.5936C51.2636 50.7028 50.1219 51.8495 48.9921 52.9683C48.8972 53.0622 48.7863 53.0764 48.7286 53.0764C48.6708 53.0764 48.5599 53.0623 48.465 52.9682L45.4738 50.0061C45.3789 49.9123 45.3647 49.8023 45.3647 49.7452C45.3647 49.6881 45.3789 49.5782 45.4739 49.4842C45.5688 49.3902 45.6797 49.3761 45.7374 49.3761C45.795 49.3761 45.9061 49.3902 46.001 49.4843L48.0347 51.4981C48.2185 51.6802 48.4666 51.7864 48.7281 51.7815C48.9881 51.7808 49.2371 51.6778 49.4201 51.4947L53.8458 47.0683C53.9387 46.9752 54.0483 46.961 54.1053 46.9608C54.1657 46.9591 54.2735 46.9741 54.3685 47.0677C54.513 47.21 54.5132 47.4429 54.3692 47.5868Z" fill="black"/>
</svg>
