<svg width="60" height="60" viewBox="0 0 60 60" fill="none" xmlns="http://www.w3.org/2000/svg">
<path d="M32.261 30.4081C33.2195 29.9063 33.982 29.0977 34.4268 28.1115C34.8716 27.1253 34.9729 26.0185 34.7146 24.9679C34.4562 23.9173 33.8531 22.9837 33.0016 22.3163C32.1502 21.6488 31.0995 21.2861 30.0177 21.2861C28.9358 21.2861 27.8852 21.6488 27.0337 22.3163C26.1822 22.9837 25.5791 23.9173 25.3208 24.9679C25.0624 26.0185 25.1637 27.1253 25.6085 28.1115C26.0533 29.0977 26.8159 29.9063 27.7743 30.4081C26.452 30.8735 25.3065 31.7373 24.4955 32.8808C23.6845 34.0242 23.248 35.3909 23.2461 36.7927C23.2461 37.0493 23.348 37.2954 23.5294 37.4768C23.7108 37.6582 23.9569 37.7601 24.2135 37.7601H35.8219C36.0784 37.7601 36.3245 37.6582 36.5059 37.4768C36.6873 37.2954 36.7892 37.0493 36.7892 36.7927C36.7873 35.3909 36.3508 34.0242 35.5398 32.8808C34.7289 31.7373 33.5833 30.8735 32.261 30.4081ZM30.0177 23.2496C30.5916 23.2496 31.1527 23.4198 31.63 23.7387C32.1072 24.0576 32.4792 24.5108 32.6989 25.0411C32.9185 25.5714 32.976 26.1549 32.864 26.7179C32.752 27.2808 32.4756 27.7979 32.0698 28.2038C31.6639 28.6097 31.1468 28.8861 30.5838 28.998C30.0209 29.11 29.4374 29.0525 28.9071 28.8329C28.3768 28.6132 27.9235 28.2413 27.6047 27.764C27.2858 27.2868 27.1156 26.7257 27.1156 26.1517C27.1156 25.382 27.4213 24.6439 27.9656 24.0996C28.5098 23.5554 29.248 23.2496 30.0177 23.2496ZM25.2776 35.8254C25.4996 34.732 26.0928 33.7489 26.9567 33.0429C27.8205 32.3368 28.9019 31.9511 30.0177 31.9511C31.1334 31.9511 32.2148 32.3368 33.0787 33.0429C33.9425 33.7489 34.5357 34.732 34.7578 35.8254H25.2776Z" fill="black"/>
<path d="M50.3331 40.6623C48.1021 40.6606 45.9397 41.4337 44.2155 42.8495L39.5586 38.1926C41.399 36.0497 42.46 33.347 42.569 30.5243L52.4478 30.1586C52.7232 31.0516 53.3147 31.8136 54.1115 32.302C54.9083 32.7903 55.8557 32.9716 56.7765 32.8118C57.6972 32.652 58.5282 32.1621 59.1138 31.4338C59.6994 30.7055 59.9995 29.7888 59.958 28.8552C59.9164 27.9216 59.5361 27.0351 58.8881 26.3617C58.2401 25.6883 57.3689 25.2742 56.4376 25.1968C55.5063 25.1194 54.5787 25.3841 53.8284 25.9413C53.0782 26.4985 52.5567 27.31 52.3617 28.2239L42.5061 28.5886C42.295 26.7568 41.6837 24.9938 40.7154 23.4246C39.7472 21.8553 38.4457 20.5182 36.9031 19.5079L38.7518 16.1473C40.1278 16.6276 41.634 16.5734 42.9719 15.9954C44.3098 15.4174 45.3818 14.3579 45.9753 13.0268C46.5688 11.6957 46.6405 10.1902 46.1763 8.80873C45.712 7.42723 44.7457 6.27057 43.4688 5.56799C42.192 4.86541 40.6977 4.6682 39.2823 5.01546C37.8668 5.36271 36.6335 6.22907 35.8268 7.44283C35.02 8.65659 34.6987 10.1291 34.9266 11.5686C35.1544 13.0081 35.9148 14.3095 37.0569 15.2148L35.2073 18.5773C33.0322 17.5813 30.6167 17.231 28.2482 17.5681C25.8797 17.9053 23.6578 18.9157 21.847 20.4792L17.1901 15.8223C18.7637 13.8978 19.5373 11.4421 19.3511 8.96321C19.1648 6.4843 18.0329 4.17181 16.1895 2.50406C14.346 0.836307 11.9321 -0.0591054 9.44697 0.00303037C6.96185 0.0651661 4.59568 1.0801 2.83789 2.83789C1.0801 4.59568 0.0651661 6.96185 0.00303037 9.44697C-0.0591054 11.9321 0.836307 14.346 2.50406 16.1895C4.17181 18.0329 6.4843 19.1648 8.96321 19.3511C11.4421 19.5373 13.8978 18.7637 15.8223 17.1901L20.4792 21.847C19.2468 23.2697 18.3535 24.9536 17.8664 26.7717C17.3792 28.5898 17.3111 30.4947 17.667 32.343L9.17065 34.6298C8.63208 33.5847 7.72861 32.7737 6.63168 32.3506C5.53474 31.9275 4.32067 31.9219 3.21981 32.3346C2.11895 32.7474 1.20791 33.5499 0.659555 34.5899C0.111196 35.6299 -0.0363278 36.8349 0.244975 37.9765C0.526277 39.118 1.21683 40.1166 2.18561 40.7827C3.1544 41.4489 4.334 41.7362 5.50059 41.5902C6.66719 41.4442 7.73961 40.8751 8.51438 39.9908C9.28914 39.1065 9.71234 37.9685 9.70367 36.7929C9.70367 36.6961 9.68045 36.5994 9.67368 36.5026L18.1759 34.2138C19.1547 36.9619 21.0548 39.2863 23.5535 40.7919L21.5055 44.88C19.8786 44.3352 18.1056 44.4268 16.5435 45.1365C14.9814 45.8462 13.7461 47.1213 13.0863 48.7051C12.4265 50.2889 12.3911 52.0639 12.9872 53.6727C13.5834 55.2816 14.7668 56.6049 16.2994 57.3763C17.832 58.1478 19.5999 58.31 21.2472 57.8305C22.8946 57.3509 24.2992 56.2651 25.1783 54.7916C26.0573 53.3182 26.3456 51.5664 25.9851 49.889C25.6246 48.2115 24.642 46.7329 23.2352 45.7507L25.2783 41.6626C27.4147 42.5384 29.7519 42.8057 32.0308 42.4346C34.3098 42.0636 36.4415 41.0688 38.1897 39.5605L42.8466 44.2174C41.4585 45.9181 40.6905 48.0405 40.6688 50.2357C40.6472 52.4309 41.3731 54.5681 42.7274 56.2959C44.0817 58.0236 45.9836 59.2391 48.1204 59.7424C50.2572 60.2457 52.5017 60.0069 54.4847 59.0652C56.4678 58.1236 58.0713 56.5351 59.0317 54.561C59.9921 52.5869 60.2521 50.3448 59.769 48.2034C59.2859 46.0619 58.0884 44.1486 56.3735 42.7781C54.6586 41.4075 52.5284 40.6614 50.3331 40.6623ZM56.1373 27.1192C56.52 27.1192 56.894 27.2326 57.2122 27.4452C57.5303 27.6578 57.7783 27.96 57.9248 28.3135C58.0712 28.667 58.1095 29.0561 58.0349 29.4314C57.9602 29.8067 57.7759 30.1514 57.5054 30.422C57.2348 30.6926 56.89 30.8768 56.5147 30.9515C56.1394 31.0261 55.7504 30.9878 55.3969 30.8414C55.0434 30.6949 54.7412 30.447 54.5286 30.1288C54.316 29.8106 54.2026 29.4366 54.2026 29.0539C54.2026 28.5408 54.4064 28.0487 54.7692 27.6859C55.1321 27.323 55.6242 27.1192 56.1373 27.1192ZM40.6594 6.80447C41.4247 6.80447 42.1729 7.03141 42.8092 7.45659C43.4455 7.88177 43.9415 8.4861 44.2343 9.19316C44.5272 9.90021 44.6038 10.6782 44.4545 11.4288C44.3052 12.1794 43.9367 12.8689 43.3955 13.4101C42.8544 13.9512 42.1649 14.3198 41.4143 14.4691C40.6637 14.6184 39.8857 14.5417 39.1786 14.2489C38.4716 13.956 37.8673 13.46 37.4421 12.8237C37.0169 12.1874 36.79 11.4392 36.79 10.6739C36.79 9.64769 37.1976 8.66348 37.9233 7.93781C38.649 7.21214 39.6332 6.80447 40.6594 6.80447ZM4.86683 39.695C4.29285 39.695 3.73176 39.5247 3.25451 39.2059C2.77726 38.887 2.40529 38.4337 2.18564 37.9034C1.96599 37.3731 1.90852 36.7896 2.02049 36.2267C2.13247 35.6637 2.40887 35.1466 2.81474 34.7408C3.2206 34.3349 3.73771 34.0585 4.30066 33.9465C4.86361 33.8345 5.44713 33.892 5.97742 34.1117C6.50771 34.3313 6.96095 34.7033 7.27984 35.1805C7.59873 35.6578 7.76893 36.2189 7.76893 36.7929C7.76893 37.5625 7.46318 38.3007 6.91893 38.8449C6.37468 39.3892 5.63652 39.695 4.86683 39.695ZM24.2142 51.3034C24.2142 52.26 23.9305 53.1951 23.399 53.9906C22.8675 54.786 22.1121 55.4059 21.2283 55.772C20.3445 56.1381 19.372 56.2339 18.4337 56.0473C17.4955 55.8606 16.6336 55.4 15.9572 54.7235C15.2807 54.0471 14.8201 53.1852 14.6334 52.247C14.4468 51.3087 14.5426 50.3362 14.9087 49.4524C15.2748 48.5686 15.8947 47.8132 16.6901 47.2817C17.4856 46.7502 18.4207 46.4665 19.3773 46.4665C20.6597 46.4681 21.8891 46.9781 22.7958 47.8849C23.7026 48.7916 24.2126 50.021 24.2142 51.3034ZM1.96473 9.70657C1.96173 8.44915 2.26516 7.20993 2.84878 6.09615C3.4324 4.98236 4.27862 4.02756 5.31423 3.31437C6.34983 2.60117 7.54362 2.15106 8.7923 2.00299C10.041 1.85491 11.3069 2.01333 12.4806 2.46453C13.6543 2.91574 14.7004 3.64613 15.5283 4.59253C16.3562 5.53892 16.9411 6.6728 17.2322 7.89605C17.5234 9.1193 17.5121 10.3951 17.1994 11.613C16.8866 12.8309 16.2818 13.9543 15.4373 14.8859C15.4819 14.7771 15.5058 14.661 15.5079 14.5434C15.5103 13.7809 15.3614 13.0255 15.0698 12.3209C14.7783 11.6163 14.3498 10.9766 13.8092 10.4389C13.4237 10.0534 12.986 9.72387 12.509 9.45989C13.0319 8.91173 13.3823 8.22216 13.5169 7.4767C13.6515 6.73123 13.5643 5.96265 13.2662 5.26627C12.968 4.56989 12.472 3.97634 11.8397 3.55921C11.2074 3.14209 10.4665 2.91974 9.70899 2.91974C8.95147 2.91974 8.21061 3.14209 7.57828 3.55921C6.94595 3.97634 6.44996 4.56989 6.15182 5.26627C5.85368 5.96265 5.76649 6.73123 5.90108 7.4767C6.03567 8.22216 6.38611 8.91173 6.90894 9.45989C5.99818 9.96024 5.23845 10.6959 4.70908 11.5901C4.17971 12.4843 3.9001 13.5043 3.89947 14.5434C3.90143 14.6597 3.92437 14.7748 3.96718 14.883C2.67952 13.4664 1.96564 11.6209 1.96473 9.70657ZM9.70367 8.7392C9.32101 8.7392 8.94695 8.62573 8.62879 8.41314C8.31062 8.20055 8.06264 7.89839 7.91621 7.54486C7.76977 7.19133 7.73146 6.80232 7.80611 6.42702C7.88076 6.05172 8.06503 5.70698 8.33561 5.4364C8.60618 5.16583 8.95092 4.98156 9.32622 4.90691C9.70152 4.83226 10.0905 4.87057 10.4441 5.01701C10.7976 5.16344 11.0998 5.41142 11.3123 5.72959C11.5249 6.04775 11.6384 6.42181 11.6384 6.80447C11.6384 7.31759 11.4346 7.8097 11.0717 8.17253C10.7089 8.53536 10.2168 8.7392 9.70367 8.7392ZM9.70367 10.6739C10.5615 10.6739 11.395 10.959 12.0732 11.4843C12.7514 12.0096 13.2358 12.7454 13.4503 13.576H5.95609C6.17164 12.7458 6.65646 12.0106 7.33461 11.4854C8.01277 10.9603 8.84595 10.6749 9.70367 10.6739ZM4.52825 15.4431C4.63607 15.486 4.7508 15.5089 4.86683 15.5108H14.5405C14.6583 15.5091 14.7748 15.4855 14.8839 15.4411C13.468 16.7293 11.6227 17.4431 9.70851 17.4431C7.79434 17.4431 5.94897 16.7293 4.53309 15.4411L4.52825 15.4431ZM19.3773 30.0213C19.3773 27.9167 20.0014 25.8593 21.1707 24.1094C22.3399 22.3595 24.0018 20.9956 25.9462 20.1902C27.8906 19.3848 30.0302 19.1741 32.0943 19.5847C34.1585 19.9953 36.0546 21.0088 37.5427 22.4969C39.0309 23.9851 40.0444 25.8812 40.455 27.9453C40.8655 30.0095 40.6548 32.149 39.8494 34.0934C39.044 36.0378 37.6801 37.6997 35.9302 38.869C34.1803 40.0382 32.123 40.6623 30.0184 40.6623C27.1972 40.659 24.4926 39.5368 22.4977 37.542C20.5028 35.5471 19.3807 32.8424 19.3773 30.0213ZM45.1577 56.0725C45.2655 56.1154 45.3802 56.1384 45.4963 56.1402H55.1699C55.2877 56.1386 55.4042 56.1149 55.5133 56.0705C54.0975 57.3587 52.2521 58.0725 50.3379 58.0725C48.4238 58.0725 46.5784 57.3587 45.1625 56.0705L45.1577 56.0725ZM50.3331 49.3686C49.9504 49.3686 49.5764 49.2552 49.2582 49.0426C48.94 48.83 48.6921 48.5278 48.5456 48.1743C48.3992 47.8208 48.3609 47.4317 48.4355 47.0564C48.5102 46.6811 48.6945 46.3364 48.965 46.0658C49.2356 45.7952 49.5803 45.611 49.9556 45.5363C50.3309 45.4617 50.72 45.5 51.0735 45.6464C51.427 45.7929 51.7292 46.0408 51.9418 46.359C52.1544 46.6772 52.2678 47.0512 52.2678 47.4339C52.2678 47.947 52.064 48.4391 51.7012 48.802C51.3383 49.1648 50.8462 49.3686 50.3331 49.3686ZM50.3331 51.3034C51.1909 51.3034 52.0245 51.5884 52.7027 52.1137C53.3809 52.6391 53.8652 53.3749 54.0797 54.2055H46.5855C46.8011 53.3753 47.2859 52.64 47.964 52.1149C48.6422 51.5897 49.4754 51.3043 50.3331 51.3034ZM56.0657 55.5153C56.1107 55.4066 56.135 55.2904 56.1373 55.1728C56.1397 54.4103 55.9909 53.6549 55.6993 52.9503C55.4077 52.2458 54.9792 51.6061 54.4386 51.0683C54.0531 50.6828 53.6155 50.3533 53.1385 50.0893C53.6613 49.5412 54.0117 48.8516 54.1463 48.1061C54.2809 47.3607 54.1937 46.5921 53.8956 45.8957C53.5974 45.1993 53.1015 44.6058 52.4691 44.1886C51.8368 43.7715 51.0959 43.5492 50.3384 43.5492C49.5809 43.5492 48.84 43.7715 48.2077 44.1886C47.5754 44.6058 47.0794 45.1993 46.7812 45.8957C46.4831 46.5921 46.3959 47.3607 46.5305 48.1061C46.6651 48.8516 47.0155 49.5412 47.5384 50.0893C46.6276 50.5897 45.8679 51.3253 45.3385 52.2195C44.8091 53.1138 44.5295 54.1337 44.5289 55.1728C44.5309 55.2892 44.5538 55.4042 44.5966 55.5124C43.5907 54.4021 42.9286 53.0238 42.6908 51.5446C42.453 50.0654 42.6497 48.549 43.2569 47.1794C43.8641 45.8099 44.8558 44.646 46.1117 43.829C47.3675 43.0121 48.8335 42.5772 50.3316 42.5772C51.8298 42.5772 53.2958 43.0121 54.5516 43.829C55.8074 44.646 56.7992 45.8099 57.4064 47.1794C58.0136 48.549 58.2103 50.0654 57.9725 51.5446C57.7346 53.0238 57.0726 54.4021 56.0667 55.5124L56.0657 55.5153Z" fill="black"/>
</svg>
