<svg width="60" height="60" viewBox="0 0 60 60" fill="none" xmlns="http://www.w3.org/2000/svg">
<path d="M33.6215 53.6845H4.73684C2.12479 53.6845 0 51.5597 0 48.9477V7.89505C0 5.28299 2.12479 3.1582 4.73684 3.1582H48.9474C51.5594 3.1582 53.6842 5.28299 53.6842 7.89505V27.8935C53.6842 28.7657 52.977 29.4725 52.1053 29.4725C51.2336 29.4725 50.5263 28.7657 50.5263 27.8935V7.89505C50.5263 7.02436 49.8181 6.3161 48.9474 6.3161H4.73684C3.86616 6.3161 3.15789 7.02436 3.15789 7.89505V48.9477C3.15789 49.8184 3.86616 50.5266 4.73684 50.5266H33.6215C34.4932 50.5266 35.2005 51.2334 35.2005 52.1056C35.2005 52.9778 34.4932 53.6845 33.6215 53.6845Z" fill="black"/>
<path d="M9.99887 9.47368C9.12613 9.47368 8.41992 8.76644 8.41992 7.89474L8.42095 1.57895C8.42095 0.706726 9.1282 0 9.9999 0C10.8726 0 11.5788 0.707242 11.5788 1.57895L11.5778 7.89474C11.5778 8.76696 10.8706 9.47368 9.99887 9.47368Z" fill="black"/>
<path d="M43.6854 9.47368C42.8137 9.47368 42.1065 8.76696 42.1065 7.89474L42.1055 1.57895C42.1055 0.707242 42.8117 0 43.6844 0C44.5561 0 45.2634 0.706726 45.2634 1.57895L45.2644 7.89474C45.2644 8.76644 44.5582 9.47368 43.6854 9.47368Z" fill="black"/>
<path d="M52.1053 15.7897H1.57895C0.707242 15.7897 0 15.083 0 14.2108C0 13.3386 0.707242 12.6318 1.57895 12.6318H52.1053C52.977 12.6318 53.6842 13.3386 53.6842 14.2108C53.6842 15.083 52.977 15.7897 52.1053 15.7897Z" fill="black"/>
<path d="M31.6209 47.3683H14.4735C13.6018 47.3683 12.8945 46.6616 12.8945 45.7894V20.5262C12.8945 19.654 13.6018 18.9473 14.4735 18.9473H34.2103C35.082 18.9473 35.7893 19.654 35.7893 20.5262V29.9999C35.7893 30.8721 35.082 31.5788 34.2103 31.5788C33.3386 31.5788 32.6314 30.8721 32.6314 29.9999V22.1052H16.0524V44.2104H31.6209C32.4926 44.2104 33.1998 44.9172 33.1998 45.7894C33.1998 46.6616 32.4926 47.3683 31.6209 47.3683Z" fill="black"/>
<path d="M21.0536 24.2109C21.9244 24.2109 22.6325 24.918 22.6325 25.7889V27.6613C22.6325 28.5327 21.925 29.2402 21.0536 29.2402C20.1827 29.2402 19.4746 28.5332 19.4746 27.6623V25.7899C19.4746 24.9184 20.1821 24.2109 21.0536 24.2109Z" fill="black"/>
<path d="M27.6317 24.2109C28.5026 24.2109 29.2106 24.918 29.2106 25.7889V27.6613C29.2106 28.5327 28.5031 29.2402 27.6317 29.2402C26.7608 29.2402 26.0527 28.5332 26.0527 27.6623V25.7899C26.0527 24.9184 26.7602 24.2109 27.6317 24.2109Z" fill="black"/>
<path d="M21.0536 30.7607C21.9244 30.7607 22.6325 31.4678 22.6325 32.3387V34.2111C22.6325 35.0825 21.925 35.79 21.0536 35.79C20.1827 35.79 19.4746 35.083 19.4746 34.2121V32.3397C19.4746 31.4682 20.1821 30.7607 21.0536 30.7607Z" fill="black"/>
<path d="M27.6317 30.7607C28.5026 30.7607 29.2106 31.4678 29.2106 32.3387V34.2111C29.2106 35.0825 28.5031 35.79 27.6317 35.79C26.7608 35.79 26.0527 35.083 26.0527 34.2121V32.3397C26.0527 31.4682 26.7602 30.7607 27.6317 30.7607Z" fill="black"/>
<path d="M27.2376 47.3682C26.3659 47.3682 25.6586 46.6615 25.6586 45.7893V41.0524H23.027V45.7893C23.027 46.6615 22.3198 47.3682 21.4481 47.3682C20.5764 47.3682 19.8691 46.6615 19.8691 45.7893V39.4735C19.8691 38.6013 20.5764 37.8945 21.4481 37.8945H27.2376C28.1093 37.8945 28.8165 38.6013 28.8165 39.4735V45.7893C28.8165 46.6615 28.1093 47.3682 27.2376 47.3682Z" fill="black"/>
<path d="M14.4743 47.3675H7.89535C7.02365 47.3675 6.31641 46.6607 6.31641 45.7885V28.9464C6.31641 28.2597 6.76049 27.6517 7.41427 27.4425L13.9932 25.3372C14.8269 25.0741 15.713 25.5295 15.9782 26.3601C16.2434 27.1907 15.786 28.0793 14.9554 28.3451L9.4743 30.0988V44.2096H14.4743C15.346 44.2096 16.0532 44.9163 16.0532 45.7885C16.0532 46.6607 15.346 47.3675 14.4743 47.3675Z" fill="black"/>
<path d="M45.0036 60.0004C36.7357 60.0004 30.0098 53.274 30.0098 45.0061C30.0098 36.7382 36.7357 30.0117 45.0036 30.0117C53.2715 30.0117 59.9985 36.7382 59.9985 45.0061C59.9985 53.274 53.2715 60.0004 45.0036 60.0004ZM45.0036 33.1696C38.4771 33.1696 33.1677 38.4795 33.1677 45.0061C33.1677 51.5326 38.4771 56.8425 45.0036 56.8425C51.5301 56.8425 56.8406 51.5326 56.8406 45.0061C56.8406 38.4795 51.5301 33.1696 45.0036 33.1696Z" fill="black"/>
<path d="M49.6601 54.2707C49.3774 54.2707 49.0936 54.2131 48.8223 54.0964L45.0054 52.4507L41.1907 54.0959C40.4999 54.3914 39.7248 54.3061 39.1173 53.8656C38.5098 53.4236 38.188 52.7138 38.2579 51.9655L38.6434 47.8279L35.9008 44.7086C35.4033 44.1432 35.246 43.3789 35.4783 42.664C35.7116 41.949 36.2873 41.4242 37.0213 41.2598L41.0735 40.348L43.1931 36.7753C43.5694 36.139 44.2643 35.7422 45.0054 35.7422C45.7466 35.7422 46.4415 36.138 46.8188 36.7753L48.9384 40.348L52.9917 41.2598C53.7246 41.4242 54.3002 41.949 54.5336 42.664C54.7659 43.3789 54.6086 44.1432 54.1121 44.7081L51.3685 47.8279L51.754 51.9644C51.8239 52.7138 51.5021 53.4236 50.8946 53.8656C50.5256 54.1334 50.0949 54.2707 49.6601 54.2707ZM45.0054 49.1525C45.2182 49.1525 45.431 49.1956 45.6304 49.2815L48.446 50.495L48.1613 47.443C48.1202 47.0102 48.26 46.58 48.5478 46.2536L50.5718 43.952L47.5815 43.2797C47.158 43.1846 46.792 42.9184 46.57 42.5447L45.0065 39.9085L43.4419 42.5447C43.2199 42.9184 42.8539 43.1846 42.4304 43.2797L39.44 43.952L41.4641 46.2536C41.7519 46.58 41.8917 47.0102 41.8506 47.443L41.5659 50.495L44.3804 49.2815C44.5799 49.1956 44.7926 49.1525 45.0054 49.1525Z" fill="black"/>
</svg>
