<svg width="59" height="60" viewBox="0 0 59 60" fill="none" xmlns="http://www.w3.org/2000/svg">
<path d="M57.8429 36.6783C57.2829 35.7433 54.985 32.9668 48.9285 36.4938L38.2816 42.6951C37.7662 42.9952 37.242 43.2101 36.6961 43.3417C36.8949 43.0153 37.0512 42.6481 37.1597 42.2433C37.707 40.2001 36.493 38.0671 34.3957 37.3871C34.3542 37.3738 34.312 37.3632 34.269 37.3553C31.2108 36.8037 28.1914 35.7122 25.7655 34.8351C24.9224 34.5301 24.1261 34.2424 23.4488 34.0227C20.7129 33.135 18.2438 34.2322 16.1891 35.4227L8.28967 39.9994L7.7285 39.0077C7.04008 37.7912 5.49002 37.3612 4.27334 38.05L1.28607 39.7408C0.0695073 40.4293 -0.360166 41.9793 0.328376 43.1958L9.11091 58.7139C9.44357 59.3017 9.98695 59.7252 10.6407 59.9064C10.8669 59.9692 11.0965 60 11.3245 60C11.7558 60 12.1815 59.8891 12.5661 59.6713L15.5533 57.9807C16.1412 57.648 16.5647 57.1048 16.746 56.451C16.9272 55.7973 16.8438 55.1133 16.511 54.5255L15.4412 52.6353L17.2188 51.609L30.8462 55.2605C31.6185 55.4675 32.3765 55.5708 33.1183 55.5708C34.5971 55.5707 36.011 55.16 37.3416 54.3408L56.6631 42.4433C58.4343 41.3529 58.9968 38.6049 57.8429 36.6783ZM14.8806 55.9342C14.8376 56.0898 14.7378 56.2185 14.5999 56.2965L11.6126 57.9872C11.4745 58.0653 11.313 58.0845 11.1574 58.0413C11.0019 57.9982 10.8731 57.8984 10.7951 57.7607L2.01259 42.2426C1.85243 41.9597 1.95622 41.5853 2.23928 41.4251L5.22643 39.7345C5.31704 39.6832 5.41683 39.659 5.51615 39.659C5.72711 39.659 5.93517 39.7686 6.04404 39.961L14.8266 55.479C14.9045 55.617 14.9237 55.7786 14.8806 55.9342ZM55.6481 40.7954L36.3266 52.6929C34.7998 53.6328 33.1245 53.8678 31.347 53.3911L17.3324 49.636C17.0845 49.5695 16.8203 49.6043 16.5981 49.7326L14.4876 50.951L9.24288 41.6839L17.1593 37.0974C18.9294 36.0719 20.8442 35.2124 22.8516 35.8637C23.4983 36.0734 24.2439 36.3431 25.1073 36.6552C27.5837 37.5504 30.6612 38.6632 33.8552 39.2473C34.9554 39.6326 35.5705 40.6951 35.2899 41.7424C34.9254 43.1027 33.7774 43.2709 32.8641 43.1658C31.2029 42.8319 29.6943 42.4041 28.1162 41.9565C27.4087 41.7558 26.6772 41.5482 25.9076 41.3421C25.3914 41.2041 24.8607 41.5103 24.7224 42.0264C24.5841 42.5427 24.8905 43.0733 25.4067 43.2117C26.1626 43.4142 26.8872 43.6197 27.5881 43.8186C29.2155 44.28 30.7709 44.7213 32.5102 45.0691C32.5155 45.0702 32.521 45.0714 32.5264 45.0722C32.9612 45.159 33.4075 45.2399 33.8694 45.3138C35.8552 45.6317 37.6169 45.3219 39.2555 44.3677L49.9024 38.1664C52.9551 36.3885 55.3027 36.2041 56.1824 37.6728C56.7879 38.6838 56.5183 40.2596 55.6481 40.7954ZM5.90638 42.4014C5.99154 42.9842 5.58812 43.5258 5.0053 43.6111C4.42249 43.6963 3.88092 43.2929 3.79564 42.7101C3.71036 42.1273 4.1139 41.5857 4.6966 41.5005C5.27966 41.4151 5.82122 41.8185 5.90638 42.4014ZM10.7316 33.0015L24.0927 33.0014C24.1341 33.1287 24.2018 33.2476 24.2934 33.3495C24.4769 33.5537 24.7386 33.6703 25.0132 33.6703H42.6883C42.9629 33.6703 43.2246 33.5537 43.4081 33.3495C43.4995 33.2476 43.5673 33.1289 43.6086 33.0015L56.9699 33.0014C57.2445 33.0014 57.5061 32.8847 57.6896 32.6806C57.8731 32.4764 57.9613 32.2037 57.932 31.9307C57.5268 28.1448 55.0261 25.0629 51.6523 23.779C52.8387 22.7763 53.5942 21.2787 53.5942 19.6072C53.5942 16.5955 51.144 14.1453 48.1323 14.1453C45.1206 14.1453 42.6704 16.5955 42.6704 19.6072C42.6704 21.2801 43.4271 22.7787 44.6152 23.7814C43.1069 24.3572 41.7517 25.2997 40.6781 26.541C39.7342 25.6363 38.612 24.9203 37.3709 24.4479C38.5573 23.4452 39.3127 21.9477 39.3127 20.2762C39.3127 17.2645 36.8626 14.8143 33.8509 14.8143C30.8392 14.8143 28.3889 17.2645 28.3889 20.2762C28.3889 21.9476 29.1443 23.4452 30.3307 24.4479C29.0895 24.9203 27.9673 25.6363 27.0234 26.5411C25.9498 25.2998 24.5946 24.3573 23.0864 23.7817C24.2747 22.779 25.0313 21.2802 25.0313 19.6073C25.0313 16.5956 22.5811 14.1455 19.5693 14.1455C16.5576 14.1455 14.1074 16.5956 14.1074 19.6073C14.1074 21.2787 14.8629 22.7764 16.0493 23.7791C12.6755 25.0631 10.1747 28.145 9.76957 31.9309C9.7403 32.2041 9.82848 32.4766 10.012 32.6808C10.1954 32.8849 10.457 33.0015 10.7316 33.0015ZM48.1322 16.0807C50.0767 16.0807 51.6586 17.6627 51.6586 19.6071C51.6586 21.5515 50.0766 23.1335 48.1322 23.1335C46.1878 23.1335 44.6058 21.5515 44.6058 19.6071C44.6058 17.6627 46.1878 16.0807 48.1322 16.0807ZM48.1322 25.0691C51.8223 25.0691 54.9563 27.5813 55.8189 31.0659L43.3611 31.066C43.0633 29.963 42.5828 28.9416 41.9533 28.0344C43.452 26.1664 45.7144 25.0691 48.1322 25.0691ZM33.8507 16.7496C35.7953 16.7496 37.3772 18.3316 37.3772 20.276C37.3772 22.2205 35.7952 23.8025 33.8507 23.8025C31.9063 23.8025 30.3242 22.2205 30.3242 20.276C30.3242 18.3316 31.9062 16.7496 33.8507 16.7496ZM33.8506 25.738C37.5407 25.738 40.6747 28.2503 41.5373 31.7348H26.1639C27.0265 28.2503 30.1604 25.738 33.8506 25.738ZM16.0427 19.6071C16.0427 17.6627 17.6247 16.0807 19.5691 16.0807C21.5135 16.0807 23.0956 17.6627 23.0956 19.6071C23.0956 21.5515 21.5136 23.1335 19.5691 23.1335C17.6245 23.1335 16.0427 21.5516 16.0427 19.6071ZM19.5692 25.0691C21.9868 25.0691 24.2491 26.1664 25.7479 28.0345C25.1185 28.9417 24.6379 29.963 24.3402 31.066L11.8825 31.0661C12.745 27.5813 15.879 25.0691 19.5692 25.0691ZM13.1016 6.35413L15.7359 8.47153L14.8492 11.733C14.7117 12.2389 14.8969 12.7647 15.321 13.073C15.745 13.3811 16.3025 13.3947 16.7411 13.1076L19.5689 11.2564L22.3968 13.1076C22.6073 13.2454 22.845 13.3138 23.0823 13.3138C23.3396 13.3138 23.5964 13.2333 23.8171 13.0729C24.2412 12.7646 24.4264 12.2387 24.2887 11.7329L23.402 8.47153L26.0365 6.35401C26.445 6.02546 26.6044 5.49103 26.4423 4.99253C26.2802 4.49391 25.8372 4.15532 25.3136 4.12992L21.938 3.9654L20.7383 0.805637C20.5525 0.316206 20.0935 0 19.5688 0C19.0443 0.000120967 18.5854 0.316327 18.3997 0.805637L17.2001 3.9654L13.8244 4.12992C13.3007 4.15532 12.8577 4.49403 12.6956 4.99265C12.5337 5.49115 12.693 6.02558 13.1016 6.35413ZM17.7426 5.8768C18.2392 5.85236 18.674 5.53627 18.8505 5.07152L19.5692 3.17876L20.2879 5.07152C20.4642 5.53627 20.8992 5.85236 21.3964 5.8768L23.4186 5.97526L21.8407 7.24348C21.4529 7.55496 21.2866 8.06653 21.4171 8.54665L21.9482 10.5004L20.2546 9.39172C19.8383 9.11882 19.3002 9.11906 18.8842 9.39148L17.1901 10.5004L17.7213 8.54665C17.8518 8.06641 17.6855 7.55496 17.2979 7.24372L15.7198 5.97526L17.7426 5.8768ZM27.3831 6.35413L30.0174 8.47153L29.1309 11.7328C28.9932 12.2385 29.1783 12.7645 29.6023 13.0727C30.0264 13.381 30.5838 13.3949 31.0228 13.1076L33.8505 11.2564L36.6786 13.1078C36.8889 13.2454 37.1265 13.3138 37.3637 13.3138C37.6211 13.3138 37.878 13.2331 38.0987 13.0727C38.5227 12.7646 38.7078 12.2387 38.5704 11.7329L37.6837 8.47153L40.3181 6.35413C40.7267 6.02558 40.886 5.49115 40.7239 4.99253C40.562 4.49403 40.1189 4.15532 39.5953 4.12992L36.2195 3.9654L35.0199 0.805637C34.8341 0.316327 34.3751 0 33.8507 0H33.8506C33.3261 0 32.8672 0.316206 32.6812 0.805637L31.4816 3.9654L28.1059 4.12992C27.5823 4.15532 27.1392 4.49403 26.9772 4.99253C26.8152 5.49115 26.9745 6.02558 27.3831 6.35413ZM32.0232 5.87667C32.5201 5.85272 32.9555 5.53652 33.1321 5.07152L33.8507 3.17864L34.5694 5.07152C34.746 5.53664 35.1813 5.85272 35.6778 5.87667L37.7001 5.97526L36.122 7.24372C35.7343 7.55521 35.5681 8.06677 35.6986 8.54665L36.2298 10.5004L34.5363 9.39184C34.328 9.25527 34.0893 9.18704 33.8506 9.18704C33.6122 9.18704 33.3736 9.25527 33.1656 9.39148L31.4717 10.5004L32.0029 8.54665C32.1334 8.06665 31.9672 7.55521 31.5795 7.24372L30.0013 5.97526L32.0232 5.87667ZM41.6647 6.35413L44.299 8.47153L43.4124 11.7328C43.2748 12.2387 43.46 12.7646 43.8839 13.0729C44.1046 13.2333 44.3614 13.3138 44.6188 13.3138C44.856 13.3138 45.0939 13.2454 45.3043 13.1076L48.132 11.2564L50.9599 13.1076C51.3984 13.3946 51.9559 13.3811 52.38 13.073C52.8041 12.7649 52.9895 12.2388 52.8519 11.7329L51.9652 8.47153L54.5996 6.35413C55.0083 6.02558 55.1676 5.49115 55.0055 4.99265C54.8435 4.49403 54.4004 4.15532 53.8769 4.12992L50.5012 3.9654L49.3016 0.805637C49.1157 0.316327 48.6568 0.000120967 48.1323 0C48.1323 0 48.1323 0 48.1322 0C47.6078 0 47.1487 0.316206 46.9628 0.805637L45.7632 3.9654L42.3875 4.12992C41.8639 4.15532 41.4209 4.49391 41.2588 4.99253C41.0968 5.49103 41.2559 6.02546 41.6647 6.35413ZM46.3057 5.8768C46.802 5.85236 47.2368 5.5364 47.4136 5.07152L48.1323 3.17864L48.851 5.07152C49.0273 5.53627 49.4623 5.85236 49.9595 5.8768L51.9817 5.97526L50.4038 7.24348C50.0157 7.55521 49.8495 8.06689 49.9802 8.54665L50.5115 10.5005L48.8177 9.39172C48.6094 9.25527 48.3707 9.18704 48.1322 9.18704C47.8936 9.18704 47.6552 9.25515 47.4473 9.39148L45.7532 10.5004L46.2844 8.54665C46.4149 8.06641 46.2486 7.55496 45.861 7.24372L44.2829 5.97526L46.3057 5.8768Z" fill="black"/>
</svg>
