<svg width="64" height="60" viewBox="0 0 64 60" fill="none" xmlns="http://www.w3.org/2000/svg">
<path d="M32.257 27.0891C33.1284 25.9242 33.9945 24.8982 34.8476 24.015C36.2169 25.0908 37.7146 25.6386 39.2753 25.6386C39.9632 25.6386 40.6629 25.5324 41.3692 25.3188C46.1808 23.8617 49.9416 18.011 50.6085 15.2828C50.6675 15.043 50.6098 14.7901 50.4539 14.5988C50.298 14.4075 50.0634 14.3014 49.8144 14.3106C43.779 14.549 37.2822 15.2252 34.8541 18.4238C33.9657 19.5939 33.6669 21.0209 33.9565 22.6719C33.4023 23.2314 32.844 23.8473 32.2845 24.5182C32.3671 21.6446 32.62 19.0711 32.9974 16.8605C36.0282 16.2459 38.244 14.8465 39.5806 12.691C41.3613 9.81996 41.516 5.74214 40.0392 0.570169C39.9724 0.334305 39.7981 0.142993 39.5701 0.0538893C39.3421 -0.0352148 39.0853 -0.0129386 38.8756 0.114166C30.9493 4.93496 27.3628 8.69306 27.5882 11.9427C27.7127 13.7366 29.0165 15.2645 31.4682 16.491C31.1484 18.3556 30.9231 20.422 30.7999 22.63C30.3216 22.005 29.8093 21.4349 29.2576 20.9187C29.445 19.4209 29.1279 18.1171 28.3063 17.0348C25.8782 13.8362 19.3815 13.1601 13.346 12.9216C13.1009 12.9111 12.8624 13.0185 12.7065 13.2099C12.5506 13.4012 12.4929 13.6541 12.5519 13.8939C13.2189 16.622 16.9796 22.4727 21.7912 23.9299C22.4975 24.1434 23.1972 24.2496 23.8851 24.2496C25.5401 24.2496 27.1243 23.635 28.5592 22.4256C29.3598 23.2472 30.0687 24.2103 30.7042 25.3306C30.6531 28.2986 30.775 31.4657 31.0882 34.7075C31.1275 35.1137 31.4695 35.4177 31.8704 35.4177C31.8953 35.4177 31.9216 35.4164 31.9464 35.4138C32.3789 35.3719 32.6947 34.9879 32.654 34.5555C32.3972 31.923 32.2727 29.4242 32.257 27.0891ZM22.2446 22.4256C18.7276 21.3603 15.5618 17.2038 14.4296 14.5451C19.502 14.7993 25.1523 15.4833 27.0523 17.9861C27.4283 18.4814 27.6485 19.0436 27.7153 19.6804C26.118 18.5849 24.2573 17.8328 22.0821 17.3886C21.6562 17.3021 21.2409 17.576 21.1544 18.0018C21.0679 18.4277 21.3417 18.8431 21.7676 18.9295C23.9991 19.3856 25.8336 20.1744 27.3694 21.3655C25.793 22.6208 24.0712 22.9785 22.2446 22.4256ZM48.7282 15.9328C47.596 18.5928 44.4302 22.7492 40.9132 23.8132C39.1652 24.3426 37.5141 24.036 35.9915 22.9091C38.0147 21.0969 39.9553 20.1207 41.7269 20.0434C42.1607 20.025 42.4974 19.6581 42.4778 19.2244C42.4594 18.7907 42.0951 18.4552 41.6588 18.4735C39.6474 18.5613 37.5626 19.5127 35.4228 21.3118C35.4556 20.574 35.681 19.9333 36.1042 19.3751C38.0055 16.871 43.6558 16.1857 48.7282 15.9328ZM29.1567 11.834C28.989 9.41506 32.2321 6.11166 38.7983 2.00894C39.8571 6.25056 39.6723 9.56182 38.2453 11.8615C37.239 13.4837 35.5853 14.5936 33.3249 15.1728C33.9657 12.2467 34.8423 10.1292 35.812 9.02458C36.099 8.6983 36.0662 8.20168 35.7399 7.91471C35.4136 7.62774 34.917 7.6605 34.6301 7.98678C33.414 9.37182 32.4496 11.7789 31.7787 14.8792C30.1159 13.9738 29.234 12.953 29.1567 11.834ZM28.4976 51.1892H24.3543C24.0974 48.5082 23.9559 46.4313 23.8406 44.7383C23.3689 37.8131 23.2588 37.5877 17.9846 32.6332C16.5773 31.3111 14.8254 29.6666 12.5637 27.4167C11.4735 26.3593 9.85649 26.2308 8.61165 27.0171L8.2382 13.8139C8.17268 11.5169 6.36439 9.71645 4.11976 9.71645C1.84891 9.71645 0 11.564 0 13.8362V35.4531C0 36.7111 0.351175 37.8236 1.07187 38.8535C3.87079 42.8514 7.8582 46.2688 11.4276 49.2918V51.1879H7.45199C7.01826 51.1879 6.66578 51.5404 6.66578 51.9741V59.2112C6.66578 59.6449 7.01826 59.9974 7.45199 59.9974H28.4976C28.9313 59.9974 29.2838 59.6449 29.2838 59.2112V51.9741C29.2838 51.5417 28.9313 51.1892 28.4976 51.1892ZM12.7222 48.3287C8.98248 45.1615 5.11562 41.8883 2.35995 37.9533C1.8227 37.1854 1.57243 36.3913 1.57243 35.4544V13.8375C1.57243 12.4328 2.71505 11.2902 4.11976 11.2902C5.50742 11.2902 6.62646 12.4184 6.66708 13.8598L7.11654 29.7387V29.7767C7.12964 30.6376 7.47557 31.4382 8.09144 32.0344L13.2922 37.074C13.6041 37.3767 14.102 37.3689 14.4034 37.057C14.7061 36.7451 14.6982 36.2472 14.3864 35.9458L9.18559 30.9062C8.87241 30.6022 8.69682 30.1934 8.68896 29.7531C8.68241 29.3128 8.84489 28.8974 9.13972 28.5934C9.79621 27.9369 10.8196 27.9173 11.463 28.541C13.7325 30.7987 15.4936 32.4524 16.9088 33.7811C19.409 36.1293 20.6643 37.3086 21.3024 38.6255C21.9367 39.9358 22.0493 41.5777 22.2721 44.8457C22.3861 46.5178 22.5263 48.5619 22.7753 51.1905H13V48.9288C13 48.6969 12.8978 48.478 12.7222 48.3287ZM27.7114 58.4276H8.2382V52.7629H27.7114V58.4276ZM59.0393 9.71776C56.7947 9.71776 54.9851 11.5169 54.9209 13.8152L54.5474 27.0144C53.3065 26.2308 51.6869 26.3606 50.5876 27.4259C48.3337 29.6679 46.5818 31.3124 45.1745 32.6345C39.9003 37.5877 39.7915 37.8144 39.3185 44.7396C39.2032 46.4339 39.0617 48.5095 38.8048 51.1905H34.6615C34.2278 51.1905 33.8753 51.543 33.8753 51.9767V59.2138C33.8753 59.6475 34.2278 60 34.6615 60H55.7071C56.1408 60 56.4933 59.6475 56.4933 59.2138V51.9767C56.4933 51.543 56.1408 51.1905 55.7071 51.1905H51.7315V49.2944C55.3009 46.2714 59.2883 42.854 62.0872 38.8561C62.8079 37.8262 63.1591 36.7137 63.1591 35.4557V13.8375C63.1591 11.5667 61.3115 9.71776 59.0393 9.71776ZM54.9209 58.4276H35.4477V52.7629H54.9209V58.4276ZM61.5867 35.4544C61.5867 36.3913 61.3364 37.1854 60.7991 37.9533C58.0448 41.8883 54.1766 45.1629 50.4369 48.3287C50.26 48.478 50.1591 48.6969 50.1591 48.9288V51.1905H40.3838C40.6341 48.5619 40.773 46.5178 40.887 44.8457C41.1098 41.5764 41.2211 39.9358 41.8567 38.6255C42.4948 37.3086 43.7501 36.1293 46.2503 33.7811C47.6655 32.4524 49.4266 30.7987 51.6883 28.5476C52.3395 27.9173 53.3629 27.9369 54.0102 28.5842C54.3129 28.8974 54.4767 29.3115 54.4701 29.7531C54.4636 30.1934 54.2867 30.6035 53.9735 30.9062L48.7727 35.9458C48.4608 36.2485 48.453 36.7451 48.7557 37.057C49.0584 37.3689 49.555 37.3767 49.8669 37.074L55.069 32.0344C55.6835 31.4382 56.0295 30.6363 56.0426 29.7767C56.0426 29.7636 56.0426 29.7505 56.0426 29.7387L56.492 13.8598C56.5326 12.4197 57.6517 11.2902 59.0393 11.2902C60.444 11.2902 61.5867 12.4328 61.5867 13.8375V35.4544Z" fill="black"/>
</svg>
