<svg width="60" height="60" viewBox="0 0 60 60" fill="none" xmlns="http://www.w3.org/2000/svg">
<path d="M55 4H53V3C53 2.20435 52.6839 1.44129 52.1213 0.87868C51.5587 0.316071 50.7956 1.26441e-07 50 1.26441e-07C49.2044 1.26441e-07 48.4413 0.316071 47.8787 0.87868C47.3161 1.44129 47 2.20435 47 3V4H43V3C43 2.20435 42.6839 1.44129 42.1213 0.87868C41.5587 0.31607 40.7956 0 40 0C39.2044 0 38.4413 0.31607 37.8787 0.87868C37.3161 1.44129 37 2.20435 37 3V4H33V3C33 2.20435 32.6839 1.44129 32.1213 0.87868C31.5587 0.31607 30.7956 0 30 0C29.2044 0 28.4413 0.31607 27.8787 0.87868C27.3161 1.44129 27 2.20435 27 3V4H23V3C23 2.20435 22.6839 1.44129 22.1213 0.87868C21.5587 0.31607 20.7956 0 20 0C19.2044 0 18.4413 0.31607 17.8787 0.87868C17.3161 1.44129 17 2.20435 17 3V4H13V3C13 2.20435 12.6839 1.44129 12.1213 0.87868C11.5587 0.31607 10.7956 0 10 0C9.20435 0 8.44129 0.31607 7.87868 0.87868C7.31607 1.44129 7 2.20435 7 3V4H5C3.6744 4.00159 2.40356 4.52888 1.46622 5.46622C0.528882 6.40356 0.00158786 7.6744 0 9L0 55C0.00158786 56.3256 0.528882 57.5964 1.46622 58.5338C2.40356 59.4711 3.6744 59.9984 5 60H55C56.3256 59.9984 57.5964 59.4711 58.5338 58.5338C59.4711 57.5964 59.9984 56.3256 60 55V9C59.9984 7.6744 59.4711 6.40356 58.5338 5.46622C57.5964 4.52888 56.3256 4.00159 55 4ZM49 3C49 2.73478 49.1054 2.48043 49.2929 2.29289C49.4804 2.10536 49.7348 2 50 2C50.2652 2 50.5196 2.10536 50.7071 2.29289C50.8946 2.48043 51 2.73478 51 3V7C51 7.26522 50.8946 7.51957 50.7071 7.70711C50.5196 7.89464 50.2652 8 50 8C49.7348 8 49.4804 7.89464 49.2929 7.70711C49.1054 7.51957 49 7.26522 49 7V3ZM39 3C39 2.73478 39.1054 2.48043 39.2929 2.29289C39.4804 2.10536 39.7348 2 40 2C40.2652 2 40.5196 2.10536 40.7071 2.29289C40.8946 2.48043 41 2.73478 41 3V7C41 7.26522 40.8946 7.51957 40.7071 7.70711C40.5196 7.89464 40.2652 8 40 8C39.7348 8 39.4804 7.89464 39.2929 7.70711C39.1054 7.51957 39 7.26522 39 7V3ZM29 3C29 2.73478 29.1054 2.48043 29.2929 2.29289C29.4804 2.10536 29.7348 2 30 2C30.2652 2 30.5196 2.10536 30.7071 2.29289C30.8946 2.48043 31 2.73478 31 3V7C31 7.26522 30.8946 7.51957 30.7071 7.70711C30.5196 7.89464 30.2652 8 30 8C29.7348 8 29.4804 7.89464 29.2929 7.70711C29.1054 7.51957 29 7.26522 29 7V3ZM19 3C19 2.73478 19.1054 2.48043 19.2929 2.29289C19.4804 2.10536 19.7348 2 20 2C20.2652 2 20.5196 2.10536 20.7071 2.29289C20.8946 2.48043 21 2.73478 21 3V7C21 7.26522 20.8946 7.51957 20.7071 7.70711C20.5196 7.89464 20.2652 8 20 8C19.7348 8 19.4804 7.89464 19.2929 7.70711C19.1054 7.51957 19 7.26522 19 7V3ZM9 3C9 2.73478 9.10536 2.48043 9.29289 2.29289C9.48043 2.10536 9.73478 2 10 2C10.2652 2 10.5196 2.10536 10.7071 2.29289C10.8946 2.48043 11 2.73478 11 3V7C11 7.26522 10.8946 7.51957 10.7071 7.70711C10.5196 7.89464 10.2652 8 10 8C9.73478 8 9.48043 7.89464 9.29289 7.70711C9.10536 7.51957 9 7.26522 9 7V3ZM58 55C58 55.7956 57.6839 56.5587 57.1213 57.1213C56.5587 57.6839 55.7956 58 55 58H5C4.20435 58 3.44129 57.6839 2.87868 57.1213C2.31607 56.5587 2 55.7956 2 55V14H58V55ZM58 12H2V9C2 8.20435 2.31607 7.44129 2.87868 6.87868C3.44129 6.31607 4.20435 6 5 6H7V7C7 7.79565 7.31607 8.55871 7.87868 9.12132C8.44129 9.68393 9.20435 10 10 10C10.7956 10 11.5587 9.68393 12.1213 9.12132C12.6839 8.55871 13 7.79565 13 7V6H17V7C17 7.79565 17.3161 8.55871 17.8787 9.12132C18.4413 9.68393 19.2044 10 20 10C20.7956 10 21.5587 9.68393 22.1213 9.12132C22.6839 8.55871 23 7.79565 23 7V6H27V7C27 7.79565 27.3161 8.55871 27.8787 9.12132C28.4413 9.68393 29.2044 10 30 10C30.7956 10 31.5587 9.68393 32.1213 9.12132C32.6839 8.55871 33 7.79565 33 7V6H37V7C37 7.79565 37.3161 8.55871 37.8787 9.12132C38.4413 9.68393 39.2044 10 40 10C40.7956 10 41.5587 9.68393 42.1213 9.12132C42.6839 8.55871 43 7.79565 43 7V6H47V7C47 7.79565 47.3161 8.55871 47.8787 9.12132C48.4413 9.68393 49.2044 10 50 10C50.7956 10 51.5587 9.68393 52.1213 9.12132C52.6839 8.55871 53 7.79565 53 7V6H55C55.7956 6 56.5587 6.31607 57.1213 6.87868C57.6839 7.44129 58 8.20435 58 9V12Z" fill="black"/>
<path d="M18 49.0004C21.4466 48.9964 24.7509 47.6255 27.188 45.1884C29.6251 42.7513 30.996 39.447 31 36.0004C30.9974 33.8428 31.6293 31.7321 32.8172 29.9309C34.0051 28.1298 35.6964 26.7177 37.6807 25.8705C39.665 25.0233 41.8547 24.7784 43.9771 25.1662C46.0996 25.554 48.0611 26.5574 49.6176 28.0516C51.1741 29.5458 52.2569 31.4647 52.7311 33.5695C53.2052 35.6744 53.05 37.8722 52.2845 39.8894C51.5191 41.9067 50.1773 43.6543 48.4262 44.9148C46.6751 46.1752 44.5919 46.8929 42.436 46.9784L43.707 45.7074C43.8892 45.5188 43.99 45.2662 43.9877 45.004C43.9854 44.7418 43.8802 44.491 43.6948 44.3056C43.5094 44.1202 43.2586 44.015 42.9964 44.0127C42.7342 44.0105 42.4816 44.1113 42.293 44.2934L39.293 47.2934C39.1055 47.4809 39.0002 47.7352 39.0002 48.0004C39.0002 48.2656 39.1055 48.5199 39.293 48.7074L42.293 51.7074C42.4816 51.8896 42.7342 51.9904 42.9964 51.9881C43.2586 51.9858 43.5094 51.8806 43.6948 51.6952C43.8802 51.5098 43.9854 51.259 43.9877 50.9968C43.99 50.7346 43.8892 50.482 43.707 50.2934L42.394 48.9804C44.9458 48.9016 47.4178 48.0728 49.5013 46.5975C51.5849 45.1222 53.1877 43.0658 54.1095 40.685C55.0313 38.3043 55.2313 35.7047 54.6845 33.2109C54.1378 30.7172 52.8685 28.4398 51.0351 26.6631C49.2018 24.8864 46.8856 23.6892 44.376 23.221C41.8663 22.7528 39.2743 23.0343 36.9236 24.0303C34.573 25.0264 32.5678 26.6929 31.1587 28.8218C29.7495 30.9506 28.9987 33.4474 29 36.0004C29.0026 38.158 28.3707 40.2687 27.1828 42.0699C25.9949 43.871 24.3036 45.2831 22.3193 46.1303C20.335 46.9775 18.1453 47.2224 16.0229 46.8346C13.9004 46.4468 11.9389 45.4434 10.3824 43.9492C8.82586 42.4551 7.74314 40.5361 7.26895 38.4313C6.79477 36.3265 6.95005 34.1286 7.71549 32.1114C8.48092 30.0941 9.8227 28.3465 11.5738 27.086C13.325 25.8256 15.4081 25.1079 17.564 25.0224L16.293 26.2934C16.1975 26.3857 16.1213 26.496 16.0689 26.618C16.0165 26.74 15.9889 26.8712 15.9877 27.004C15.9866 27.1368 16.0119 27.2685 16.0622 27.3914C16.1125 27.5143 16.1867 27.6259 16.2806 27.7198C16.3745 27.8137 16.4862 27.888 16.609 27.9382C16.7319 27.9885 16.8636 28.0138 16.9964 28.0127C17.1292 28.0115 17.2604 27.9839 17.3824 27.9315C17.5044 27.8791 17.6148 27.8029 17.707 27.7074L20.707 24.7074C20.8945 24.5199 20.9998 24.2656 20.9998 24.0004C20.9998 23.7352 20.8945 23.4809 20.707 23.2934L17.707 20.2934C17.5184 20.1112 17.2658 20.0105 17.0036 20.0127C16.7414 20.015 16.4906 20.1202 16.3052 20.3056C16.1198 20.491 16.0146 20.7418 16.0123 21.004C16.01 21.2662 16.1108 21.5188 16.293 21.7074L17.606 23.0204C14.1959 23.1241 10.9634 24.5649 8.60651 27.0316C6.24965 29.4984 4.95757 32.7931 5.00931 36.2044C5.06104 39.6157 6.45243 42.8698 8.88301 45.264C11.3136 47.6581 14.5883 49.0002 18 49.0004Z" fill="black"/>
</svg>
