<svg width="60" height="60" viewBox="0 0 60 60" fill="none" xmlns="http://www.w3.org/2000/svg">
<path d="M36.0481 10.8365H33.0239V7.82656C33.0239 7.56047 32.9177 7.30527 32.7287 7.11711C32.5396 6.92895 32.2832 6.82324 32.0159 6.82324H27.9836C27.7163 6.82324 27.4599 6.92895 27.2708 7.11711C27.0818 7.30527 26.9756 7.56047 26.9756 7.82656V10.8365H23.9514C23.6841 10.8365 23.4277 10.9422 23.2386 11.1304C23.0496 11.3186 22.9434 11.5738 22.9434 11.8399V15.8531C22.9434 16.1192 23.0496 16.3744 23.2386 16.5626C23.4277 16.7508 23.6841 16.8565 23.9514 16.8565H26.9756V19.8664C26.9756 20.1325 27.0818 20.3877 27.2708 20.5759C27.4599 20.764 27.7163 20.8697 27.9836 20.8697H32.0159C32.2832 20.8697 32.5396 20.764 32.7287 20.5759C32.9177 20.3877 33.0239 20.1325 33.0239 19.8664V16.8565H36.0481C36.3155 16.8565 36.5719 16.7508 36.7609 16.5626C36.95 16.3744 37.0562 16.1192 37.0562 15.8531V11.8399C37.0562 11.5738 36.95 11.3186 36.7609 11.1304C36.5719 10.9422 36.3155 10.8365 36.0481 10.8365ZM35.04 14.8498H32.0159C31.7485 14.8498 31.4921 14.9555 31.3031 15.1437C31.114 15.3318 31.0078 15.587 31.0078 15.8531V18.8631H28.9917V15.8531C28.9917 15.587 28.8855 15.3318 28.6965 15.1437C28.5074 14.9555 28.251 14.8498 27.9836 14.8498H24.9595V12.8432H27.9836C28.251 12.8432 28.5074 12.7375 28.6965 12.5493C28.8855 12.3611 28.9917 12.1059 28.9917 11.8399V8.82989H31.0078V11.8399C31.0078 12.1059 31.114 12.3611 31.3031 12.5493C31.4921 12.7375 31.7485 12.8432 32.0159 12.8432H35.04V14.8498Z" fill="black"/>
<path d="M57.9532 16.2153C57.9736 16.0388 57.9837 15.8612 57.9834 15.6835C57.9785 14.7638 57.658 13.8735 57.075 13.16C56.492 12.4465 55.6814 11.9527 54.7778 11.7605C53.7557 11.5669 52.6978 11.7669 51.8182 12.3201C50.9386 12.8733 50.303 13.7384 50.0399 14.7404L45.6045 27.4425C45.5388 27.4684 45.4748 27.4986 45.413 27.5328L36.5017 32.73C35.1381 33.5272 34.0071 34.6647 33.2204 36.0302C32.4337 37.3956 32.0185 38.9417 32.0159 40.5157V49.967C31.7485 49.967 31.4921 50.0727 31.3031 50.2609C31.114 50.4491 31.0078 50.7042 31.0078 50.9703V58.9969C31.0078 59.263 31.114 59.5182 31.3031 59.7064C31.4921 59.8945 31.7485 60.0002 32.0159 60.0002H46.1287C46.396 60.0002 46.6524 59.8945 46.8415 59.7064C47.0305 59.5182 47.1367 59.263 47.1367 58.9969V50.9703C47.1367 50.7042 47.0305 50.4491 46.8415 50.2609C46.6524 50.0727 46.396 49.967 46.1287 49.967V47.7597C46.1306 47.3359 46.2212 46.9172 46.3947 46.5303C46.5683 46.1433 46.821 45.7966 47.1367 45.5123L53.9512 39.4823C54.6966 38.8332 55.2302 37.9772 55.4834 37.0242L59.8584 20.7403C59.9518 20.4002 59.9993 20.0493 59.9995 19.6968C59.9956 18.9888 59.8044 18.2942 59.4452 17.6831C59.0859 17.0719 58.5714 16.5657 57.9532 16.2153ZM51.9653 15.3324C52.0891 14.8135 52.4047 14.3601 52.8494 14.0626C53.2941 13.765 53.835 13.6452 54.3645 13.727C54.8163 13.8212 55.222 14.0669 55.5137 14.423C55.8055 14.7791 55.9656 15.2241 55.9673 15.6835V15.7036C55.0669 15.7202 54.1965 16.0291 53.4887 16.5833C52.7809 17.1375 52.2743 17.9067 52.046 18.7738L49.2335 27.4124C48.8077 27.2113 48.3511 27.0825 47.8827 27.0311L51.9653 15.3324ZM45.1206 57.9936H33.0239V51.9737H45.1206V57.9936ZM57.9129 20.2185L53.5278 36.5125C53.3761 37.0787 53.0606 37.588 52.6206 37.9773L45.796 44.0073C45.2679 44.4813 44.8453 45.06 44.5554 45.7062C44.2655 46.3525 44.1146 47.052 44.1126 47.7597V49.967H34.032V40.5157C34.037 39.2916 34.361 38.0897 34.9723 37.0275C35.5837 35.9653 36.4615 35.0792 37.5199 34.4557L46.421 29.2685C46.6505 29.1354 46.9042 29.0488 47.1674 29.0136C47.4307 28.9783 47.6983 28.9953 47.955 29.0633C48.2117 29.1314 48.4523 29.2492 48.663 29.4102C48.8738 29.5711 49.0505 29.7718 49.1831 30.0009C49.4449 30.4645 49.5171 31.0107 49.3847 31.526C49.3147 31.7804 49.1949 32.0186 49.0324 32.2269C48.8698 32.4352 48.6675 32.6096 48.4371 32.74L42.661 36.061C42.4415 36.1998 42.2845 36.4177 42.2226 36.669C42.1608 36.9204 42.1989 37.1858 42.329 37.4098C42.4591 37.6339 42.6712 37.7992 42.9209 37.8713C43.1706 37.9434 43.4386 37.9167 43.669 37.7967L49.4452 34.4757C49.9069 34.215 50.3115 33.865 50.6352 33.4463C50.959 33.0276 51.1953 32.5486 51.3303 32.0377C51.6047 31.0111 51.4597 29.9181 50.927 28.9976L50.8665 28.9073L53.9814 19.3456C54.1052 18.8268 54.4209 18.3734 54.8655 18.0759C55.3102 17.7783 55.8512 17.6585 56.3806 17.7403C56.8325 17.8345 57.2381 18.0802 57.5299 18.4363C57.8216 18.7924 57.9817 19.2373 57.9834 19.6968C57.9868 19.8733 57.963 20.0492 57.9129 20.2185Z" fill="black"/>
<path d="M27.9837 49.9665V40.5152C27.9811 38.9412 27.5659 37.3951 26.7792 36.0296C25.9925 34.6642 24.8614 33.5267 23.4978 32.7294L14.5866 27.5222C14.5261 27.4921 14.4555 27.472 14.3951 27.4419L9.98985 14.8101C9.73382 13.7935 9.09823 12.9123 8.21243 12.3456C7.32663 11.779 6.25718 11.5696 5.22174 11.76C4.31811 11.9522 3.50759 12.4459 2.92456 13.1594C2.34153 13.8729 2.021 14.7633 2.01611 15.683C2.01585 15.8607 2.02595 16.0382 2.04636 16.2148C1.42818 16.5652 0.913605 17.0714 0.554383 17.6826C0.19516 18.2937 0.0039556 18.9882 0 19.6963C0.00195791 20.048 0.0459493 20.3983 0.131047 20.7397L4.5161 37.0136C4.76668 37.9706 5.30053 38.8306 6.04834 39.4818L12.8527 45.5118C13.1716 45.7941 13.4271 46.1402 13.6025 46.5274C13.778 46.9147 13.8694 47.3344 13.8709 47.7592V49.9665C13.6035 49.9665 13.3471 50.0722 13.1581 50.2604C12.969 50.4485 12.8628 50.7037 12.8628 50.9698V58.9964C12.8628 59.2625 12.969 59.5177 13.1581 59.7059C13.3471 59.894 13.6035 59.9997 13.8709 59.9997H27.9837C28.251 59.9997 28.5074 59.894 28.6965 59.7059C28.8855 59.5177 28.9917 59.2625 28.9917 58.9964V50.9698C28.9917 50.7037 28.8855 50.4485 28.6965 50.2604C28.5074 50.0722 28.251 49.9665 27.9837 49.9665ZM4.03223 15.683C4.03347 15.2249 4.19215 14.7811 4.48188 14.4252C4.77162 14.0693 5.17499 13.8227 5.62496 13.7265C6.16897 13.6479 6.72272 13.7769 7.17515 14.0877C7.62759 14.3985 7.94526 14.868 8.06446 15.4021L12.1169 27.0306C11.6484 27.0819 11.1919 27.2108 10.7661 27.4118L7.97373 18.8234C7.74649 17.9477 7.2389 17.1696 6.52775 16.6066C5.81661 16.0436 4.9406 15.7264 4.03223 15.7031V15.683ZM14.1934 44.0068L7.37898 37.9768C6.9365 37.5855 6.62073 37.0721 6.47173 36.5019L2.0766 20.218C2.03487 20.0473 2.01455 19.872 2.01611 19.6963C2.01736 19.2382 2.17603 18.7944 2.46577 18.4384C2.75551 18.0825 3.15887 17.836 3.60885 17.7398C4.14903 17.6591 4.69987 17.785 5.15059 18.0921C5.6013 18.3993 5.91846 18.8649 6.03826 19.3953L9.133 28.9068L9.07252 28.9971C8.53985 29.9176 8.39489 31.0106 8.66929 32.0371C8.80426 32.5481 9.04057 33.0271 9.36431 33.4458C9.68804 33.8645 10.0927 34.2145 10.5544 34.4752L16.3305 37.7962C16.5609 37.9162 16.829 37.9429 17.0787 37.8708C17.3284 37.7987 17.5404 37.6333 17.6705 37.4093C17.8007 37.1853 17.8388 36.9198 17.7769 36.6685C17.715 36.4171 17.558 36.1993 17.3386 36.0605L11.5624 32.7395C11.3321 32.609 11.1298 32.4347 10.9672 32.2264C10.8046 32.018 10.6849 31.7799 10.6148 31.5255C10.4824 31.0102 10.5546 30.464 10.8165 30.0004C10.9482 29.7718 11.1238 29.5713 11.3334 29.4102C11.543 29.2492 11.7824 29.1308 12.038 29.0619C12.2935 28.9929 12.5602 28.9748 12.8228 29.0084C13.0854 29.042 13.3388 29.1268 13.5685 29.2579L22.4797 34.4552C23.5381 35.0787 24.4159 35.9648 25.0272 37.027C25.6386 38.0892 25.9626 39.2911 25.9676 40.5152V49.9665H15.887V47.7592C15.8853 47.0504 15.7336 46.35 15.4418 45.7035C15.15 45.0569 14.7246 44.4788 14.1934 44.0068ZM26.9756 57.9931H14.8789V51.9732H26.9756V57.9931Z" fill="black"/>
<path d="M44.2603 2.9431C43.3245 2.01005 42.213 1.26983 40.9894 0.764818C39.7658 0.259804 38.4542 -9.31668e-05 37.1296 2.50531e-08C35.805 9.32169e-05 34.4934 0.260175 33.2699 0.765361C32.0464 1.27055 30.935 2.01092 29.9993 2.9441C29.0637 2.01089 27.9524 1.27052 26.7289 0.765356C25.5054 0.260194 24.1939 0.000170343 22.8693 0.000170343C21.5448 0.000170343 20.2332 0.260194 19.0097 0.765356C17.7863 1.27052 16.6749 2.01089 15.7393 2.9441C13.8526 4.82601 12.793 7.37601 12.793 10.0346C12.793 12.6931 13.8526 15.2431 15.7393 17.1251L29.2876 30.6097C29.4767 30.7978 29.733 30.9035 30.0003 30.9035C30.2676 30.9035 30.524 30.7978 30.713 30.6097L44.2613 17.1251C46.148 15.2428 47.2074 12.6926 47.2072 10.0339C47.2071 7.37514 46.1472 4.82505 44.2603 2.9431ZM29.9993 28.4817L17.1637 15.7064C16.0368 14.5832 15.2698 13.1528 14.9596 11.5959C14.6494 10.039 14.8099 8.42547 15.4209 6.95935C16.0319 5.49323 17.0659 4.24032 18.3922 3.35901C19.7185 2.47769 21.2776 2.00755 22.8723 2.008C23.9317 2.00438 24.9812 2.21074 25.9595 2.61503C26.9379 3.01933 27.8256 3.61347 28.5709 4.3628L29.2866 5.07516C29.4756 5.26325 29.732 5.36892 29.9993 5.36892C30.2666 5.36892 30.523 5.26325 30.712 5.07516L31.4297 4.36079C32.1781 3.61458 33.067 3.02257 34.0455 2.61864C35.024 2.21472 36.073 2.0068 37.1323 2.0068C38.1917 2.0068 39.2406 2.21472 40.2191 2.61864C41.1976 3.02257 42.0865 3.61458 42.8349 4.36079C44.3449 5.86575 45.193 7.90569 45.193 10.0326C45.193 12.1595 44.3449 14.1994 42.8349 15.7043L29.9993 28.4817Z" fill="black"/>
</svg>
