<svg width="56" height="60" viewBox="0 0 56 60" fill="none" xmlns="http://www.w3.org/2000/svg">
<path d="M54.453 18.4746C53.3358 14.4527 51.2289 10.7747 48.3248 7.7764C45.4207 4.77805 41.8119 2.55485 37.8277 1.30973L37.28 1.13891C32.7966 -0.263949 28.0084 -0.373087 23.4657 0.824048C18.447 2.14404 13.9637 4.99393 10.6384 8.97802C7.31317 12.9621 5.3109 17.8827 4.90963 23.0567L0.089149 33.9021C0.0278502 34.04 -0.00252202 34.1897 0.000163802 34.3406C0.00284963 34.4915 0.0385285 34.64 0.104696 34.7757C0.170864 34.9114 0.265918 35.0309 0.383188 35.1259C0.500458 35.221 0.637103 35.2892 0.783534 35.3258L4.89308 36.3532V47.7487C4.89458 49.0771 5.42298 50.3506 6.36233 51.2899C7.30168 52.2291 8.57527 52.7574 9.90364 52.7587H15.9035V58.9655C15.9035 59.2399 16.0125 59.503 16.2065 59.697C16.4005 59.891 16.6636 60 16.938 60H42.6264C42.9007 60 43.1639 59.891 43.3579 59.697C43.5519 59.503 43.6608 59.2399 43.6608 58.9655V51.726L52.0613 37.2159C53.6793 34.4053 54.7238 31.3017 55.1343 28.0848C55.5449 24.8679 55.3133 21.6015 54.453 18.4746ZM41.7312 50.9298C41.64 51.0873 41.5919 51.2661 41.5919 51.4481V57.9311H17.9725V51.7243C17.9725 51.4499 17.8635 51.1868 17.6695 50.9928C17.4755 50.7988 17.2124 50.6898 16.938 50.6898H9.90364C9.12386 50.689 8.37626 50.3788 7.82486 49.8274C7.27346 49.2761 6.96329 48.5285 6.9624 47.7487V35.5455C6.96239 35.3148 6.88527 35.0907 6.74328 34.9089C6.6013 34.727 6.40261 34.5979 6.17879 34.5419L2.48057 33.6172L6.87369 23.7328C6.92236 23.6233 6.95159 23.5061 6.96007 23.3865L6.96214 23.3591C7.20846 19.9104 8.23175 16.5621 9.9554 13.5649C11.679 10.5676 14.0584 7.99918 16.9153 6.05176C19.7722 4.10434 23.0326 2.82844 26.4524 2.31957C29.8723 1.8107 33.3629 2.08206 36.6631 3.11332L37.2107 3.28452C40.8688 4.4194 44.1827 6.45617 46.8475 9.20736C49.5122 11.9586 51.4421 15.3358 52.4596 19.0283C53.2469 21.8898 53.4588 24.879 53.0832 27.823C52.7075 30.7669 51.7516 33.6072 50.2709 36.1792L41.7312 50.9298Z" fill="black"/>
<path d="M47.425 17.2621C46.9459 15.6648 46.0634 14.2179 44.8624 13.061C43.6614 11.904 42.1825 11.0761 40.5685 10.6571C38.9544 10.238 37.2596 10.242 35.6475 10.6686C34.0354 11.0953 32.5604 11.9301 31.3649 13.0927L31.0592 13.3901C30.1525 12.4406 29.0628 11.6847 27.8558 11.1681C26.6489 10.6514 25.3497 10.3848 24.0369 10.3842C24.0043 10.3842 23.9722 10.3842 23.9389 10.3842L23.5946 10.3877C21.6358 10.4157 19.7307 11.0324 18.127 12.1577C16.5233 13.2829 15.2952 14.8645 14.6024 16.697C13.7629 18.9375 13.6982 21.3947 14.4188 23.6763C15.1394 25.9579 16.6036 27.9322 18.5777 29.2841L30.9371 37.7697C31.11 37.8884 31.3148 37.9517 31.5245 37.9514C31.7341 37.951 31.9387 37.8869 32.1111 37.7677L43.4795 29.9031C45.3448 28.6176 46.7537 26.773 47.503 24.6352C48.2524 22.4974 48.3035 20.1768 47.6489 18.0081L47.425 17.2621ZM42.3023 28.2029L31.5203 35.6617L19.7486 27.58C18.1555 26.489 16.9738 24.8957 16.3923 23.0544C15.8108 21.2132 15.863 19.2302 16.5406 17.422C17.0857 15.9803 18.0519 14.7358 19.3137 13.8505C20.5754 12.9652 22.0744 12.48 23.6156 12.458L23.9597 12.4545H24.0373C25.0986 12.4551 26.1482 12.6766 27.1192 13.105C28.0903 13.5335 28.9614 14.1594 29.6773 14.9429L30.2523 15.5732C30.3458 15.6756 30.4588 15.7582 30.5848 15.816C30.7108 15.8738 30.8471 15.9058 30.9856 15.9099C31.1242 15.914 31.2622 15.8902 31.3914 15.84C31.5205 15.7898 31.6383 15.7141 31.7377 15.6174L32.8073 14.5773C33.7479 13.6625 34.9084 13.0055 36.1768 12.6698C37.4453 12.334 38.7788 12.3309 40.0488 12.6606C41.3188 12.9903 42.4824 13.6417 43.4273 14.552C44.3722 15.4624 45.0666 16.6009 45.4435 17.8577L45.6673 18.6042C46.1953 20.3543 46.154 22.2269 45.5492 23.952C44.9445 25.6771 43.8075 27.1656 42.3023 28.2029Z" fill="black"/>
<path d="M36.2452 20.9466H34.5273V19.5345C34.5273 19.2601 34.4183 18.997 34.2243 18.803C34.0303 18.609 33.7672 18.5 33.4928 18.5H28.5997C28.3253 18.5 28.0622 18.609 27.8682 18.803C27.6742 18.997 27.5652 19.2601 27.5652 19.5345V20.9466H25.847C25.5726 20.9466 25.3095 21.0556 25.1155 21.2496C24.9215 21.4436 24.8125 21.7067 24.8125 21.9811V26.8741C24.8125 27.1485 24.9215 27.4116 25.1155 27.6056C25.3095 27.7996 25.5726 27.9086 25.847 27.9086H27.5648V29.3206C27.5648 29.595 27.6738 29.8581 27.8678 30.0521C28.0618 30.2461 28.3249 30.3551 28.5993 30.3551H33.4924C33.7668 30.3551 34.0299 30.2461 34.2239 30.0521C34.4179 29.8581 34.5269 29.595 34.5269 29.3206V27.9086H36.2448C36.5191 27.9086 36.7822 27.7996 36.9762 27.6056C37.1702 27.4116 37.2792 27.1485 37.2792 26.8741V21.9811C37.2792 21.7068 37.1703 21.4438 36.9764 21.2498C36.7825 21.0558 36.5194 20.9467 36.2452 20.9466ZM35.2107 25.8397H33.4928C33.2185 25.8397 32.9554 25.9486 32.7614 26.1426C32.5674 26.3366 32.4584 26.5998 32.4584 26.8741V28.2862H29.6341V26.8741C29.6341 26.5998 29.5252 26.3366 29.3312 26.1426C29.1372 25.9486 28.874 25.8397 28.5997 25.8397H26.8814V23.0156H28.5993C28.8736 23.0156 29.1368 22.9066 29.3308 22.7126C29.5248 22.5186 29.6338 22.2555 29.6338 21.9811V20.5689H32.458V21.9811C32.458 22.2555 32.567 22.5186 32.761 22.7126C32.955 22.9066 33.2181 23.0156 33.4924 23.0156H35.2103L35.2107 25.8397Z" fill="black"/>
</svg>
