<svg width="56" height="60" viewBox="0 0 56 60" fill="none" xmlns="http://www.w3.org/2000/svg">
<path d="M11.257 49.109C11.257 52.819 14.276 55.838 17.986 55.838H22.612C26.322 55.838 29.341 52.82 29.341 49.11V42.368C29.341 40.115 30.436 38.014 32.344 36.604C37.445 32.836 40.444 27.043 40.573 20.711C40.794 9.87895 31.845 0.400953 21.031 0.0129532C15.478 -0.182047 10.206 1.82995 6.205 5.68895C2.204 9.54895 0 14.734 0 20.288C0 26.829 3.181 33 8.51 36.797C10.229 38.022 11.256 40.037 11.256 42.188V49.11L11.257 49.109ZM22.612 53.838H17.986C15.379 53.838 13.257 51.717 13.257 49.109V43.62H27.34V49.11C27.34 51.717 25.22 53.838 22.612 53.838ZM16.268 26.627H14.586C13.659 26.627 12.904 25.873 12.904 24.945V23.174C12.904 22.247 13.658 21.492 14.586 21.492C15.514 21.492 16.268 22.246 16.268 23.174V26.626V26.627ZM20.297 28.627H22.326V41.62H18.269V28.627H20.297ZM9.671 35.168C4.868 31.746 2.001 26.183 2.001 20.288C2.001 15.282 3.987 10.609 7.594 7.12895C11.038 3.80695 15.52 1.99995 20.282 1.99995C20.507 1.99995 20.733 2.00395 20.959 2.01195C30.706 2.36095 38.771 10.906 38.572 20.67C38.456 26.378 35.752 31.599 31.155 34.996C28.942 36.631 27.604 39.015 27.385 41.621H24.325V28.628H26.007C28.037 28.628 29.689 26.977 29.689 24.946V23.175C29.689 21.145 28.038 19.493 26.007 19.493C23.976 19.493 22.325 21.144 22.325 23.175V26.627H18.268V23.175C18.268 21.145 16.617 19.493 14.586 19.493C12.555 19.493 10.904 21.144 10.904 23.175V24.946C10.904 26.976 12.555 28.628 14.586 28.628H16.268V41.621H13.223C13.054 39.042 11.763 36.658 9.671 35.168ZM24.325 26.627V23.175C24.325 22.248 25.079 21.493 26.007 21.493C26.935 21.493 27.689 22.247 27.689 23.175V24.946C27.689 25.873 26.935 26.628 26.007 26.628L24.325 26.627Z" fill="black"/>
<path d="M54.9415 43.2994L52.4555 38.9934C52.2615 38.6574 51.9485 38.4164 51.5735 38.3164C51.1985 38.2144 50.8075 38.2673 50.4725 38.4613L48.6565 39.5093C48.0655 39.0733 47.4275 38.7054 46.7505 38.4104V36.3104C46.7505 35.5114 46.0995 34.8604 45.2995 34.8604H40.3265C39.5265 34.8604 38.8745 35.5114 38.8745 36.3114V38.4094C38.1985 38.7044 37.5605 39.0723 36.9685 39.5093L35.1505 38.4594C34.4575 38.0614 33.5695 38.2994 33.1695 38.9924L30.6845 43.2984C30.2835 43.9904 30.5205 44.8804 31.2145 45.2824L33.0275 46.3284C32.9845 46.7004 32.9625 47.0694 32.9625 47.4304C32.9625 47.7914 32.9845 48.1604 33.0275 48.5324L31.2155 49.5793C30.8795 49.7733 30.6385 50.0863 30.5385 50.4613C30.4375 50.8363 30.4905 51.2274 30.6835 51.5624L33.1695 55.8694C33.5695 56.5614 34.4585 56.7994 35.1515 56.4004L36.9675 55.3514C37.5585 55.7874 38.1965 56.1554 38.8735 56.4504V58.5504C38.8735 59.3494 39.5245 60.0004 40.3255 60.0004H45.2985C46.0985 60.0004 46.7495 59.3494 46.7495 58.5484V56.4504C47.4255 56.1564 48.0635 55.7874 48.6555 55.3514L50.4715 56.3993C50.8065 56.5933 51.1975 56.6453 51.5725 56.5453C51.9475 56.4443 52.2605 56.2044 52.4545 55.8684L54.9405 51.5614C55.1335 51.2264 55.1855 50.8354 55.0855 50.4604C54.9855 50.0854 54.7455 49.7724 54.4095 49.5784L52.5965 48.5313C52.6395 48.1583 52.6615 47.7894 52.6615 47.4294C52.6615 47.0694 52.6395 46.7004 52.5965 46.3274L54.4105 45.2803C55.1025 44.8803 55.3405 43.9904 54.9405 43.2984L54.9415 43.2994ZM51.2715 44.7844C50.7535 45.0824 50.4785 45.6604 50.5695 46.2574C50.6315 46.6574 50.6625 47.0524 50.6625 47.4304C50.6625 47.8084 50.6315 48.2034 50.5695 48.6054C50.4785 49.2004 50.7535 49.7784 51.2715 50.0764L52.9365 51.0373L50.9985 54.3934L49.3285 53.4294C48.8135 53.1334 48.1795 53.1834 47.7115 53.5574C47.0955 54.0494 46.4095 54.4454 45.6695 54.7344C45.1115 54.9534 44.7515 55.4783 44.7515 56.0723V58.0014H40.8765V56.0714C40.8765 55.4774 40.5155 54.9524 39.9585 54.7354C39.2195 54.4464 38.5325 54.0503 37.9175 53.5583C37.4505 53.1833 36.8135 53.1334 36.2975 53.4314L34.6295 54.3944L32.6915 51.0383L34.3555 50.0774C34.8755 49.7784 35.1505 49.1994 35.0575 48.6044C34.9955 48.2064 34.9645 47.8114 34.9645 47.4314C34.9645 47.0514 34.9955 46.6563 35.0575 46.2593C35.1505 45.6633 34.8745 45.0854 34.3555 44.7854L32.6915 43.8254L34.6295 40.4694L36.3005 41.4343C36.8145 41.7303 37.4495 41.6804 37.9175 41.3064C38.5325 40.8144 39.2195 40.4184 39.9575 40.1304C40.5165 39.9124 40.8765 39.3874 40.8765 38.7924V36.8643H44.7515V38.7943C44.7515 39.3893 45.1125 39.9144 45.6705 40.1304C46.4095 40.4194 47.0955 40.8154 47.7115 41.3074C48.1795 41.6824 48.8155 41.7313 49.3305 41.4343L50.9985 40.4714L52.9365 43.8274L51.2725 44.7873L51.2715 44.7844Z" fill="black"/>
<path d="M42.8133 41.8975C39.7623 41.8975 37.2793 44.3795 37.2793 47.4305C37.2793 50.4815 39.7613 52.9645 42.8133 52.9645C45.8653 52.9645 48.3463 50.4825 48.3463 47.4305C48.3463 44.3785 45.8643 41.8975 42.8133 41.8975ZM42.8133 50.9645C40.8653 50.9645 39.2793 49.3795 39.2793 47.4305C39.2793 45.4815 40.8643 43.8975 42.8133 43.8975C44.7623 43.8975 46.3463 45.4825 46.3463 47.4305C46.3463 49.3785 44.7613 50.9645 42.8133 50.9645Z" fill="black"/>
</svg>
