<svg width="60" height="60" viewBox="0 0 60 60" fill="none" xmlns="http://www.w3.org/2000/svg">
<path d="M16.7061 48.8023V45.7992L11.38 42.8114V51.658C11.38 52.1057 11.0168 52.4688 10.5691 52.4688C10.1215 52.4688 9.75832 52.1057 9.75832 51.658V41.4268C9.75832 41.1391 9.9109 40.8725 10.1595 40.7275C10.4071 40.5807 10.7142 40.5786 10.9661 40.7195L17.9134 44.6173C18.1695 44.7608 18.3278 45.0312 18.3278 45.3246V48.8023C18.3278 49.2499 17.9646 49.6131 17.517 49.6131C17.0693 49.6131 16.7061 49.2499 16.7061 48.8023ZM1.79262 40.5431V30.8783C1.79262 28.1225 4.5143 26.8889 7.21172 26.8889H7.8859C6.80918 25.8953 6.10582 24.2977 6.10582 22.4936C6.10582 19.7254 7.76859 18.0059 10.4449 18.0059C13.1217 18.0059 14.7846 19.7254 14.7846 22.4936C14.7846 24.2977 14.0813 25.8953 13.0044 26.8889H19.3677C19.6263 26.8889 19.8316 26.8552 20.0771 26.7723L23.1067 25.749L25.1527 25.0348L29.5799 23.4709C29.9732 23.332 30.2687 23.1278 30.5374 22.8084L31.958 21.1195C33.5611 19.2123 34.827 17.7057 37.1892 17.7057L39.3138 17.6828C38.0701 16.6975 37.2394 14.9593 37.2394 12.9776C37.2394 10.1575 38.9333 8.40539 41.6598 8.40539C44.3868 8.40539 46.0807 10.1573 46.0807 12.9776C46.0807 14.9239 45.2803 16.6372 44.0735 17.6312H49.0048L49.0173 12.8382C49.0173 11.5658 49.8654 10.5321 51.048 10.2023V0.81082C51.048 0.36293 51.4112 0 51.8589 0H59.1894C59.4729 0 59.7357 0.148125 59.8825 0.390352C60.0298 0.632695 60.0393 0.934102 59.9084 1.18535L59.0558 2.82258L59.9084 4.4598C60.0393 4.71105 60.0298 5.01246 59.8825 5.2548C59.7357 5.49715 59.4729 5.64516 59.1894 5.64516H52.6697V10.2216C53.7861 10.5742 54.6033 11.6071 54.6033 12.8385V20.3604C54.6033 21.8994 53.3522 23.1516 51.815 23.1516L48.416 23.2873C47.7609 23.2881 47.1713 23.5345 46.7242 23.9824C46.2771 24.4303 46.0305 25.0213 46.0305 25.6463V31.0495L52.7509 34.9346C53.0017 35.0798 53.1558 35.3475 53.1558 35.6367V42.4167C53.1558 42.8644 52.7926 43.2275 52.345 43.2275C51.8973 43.2275 51.5341 42.8644 51.5341 42.4167V36.1043L44.8138 32.2192C44.563 32.074 44.4089 31.8063 44.4089 31.5171V25.6461C44.4089 24.5885 44.8239 23.5909 45.5766 22.8366C46.3303 22.0818 47.3275 21.6663 48.3838 21.6663L51.7828 21.5306C52.4585 21.5298 52.9816 21.0052 52.9816 20.3604V12.8385C52.9816 12.2127 52.4722 11.7035 51.8462 11.7035C51.1468 11.7035 50.6389 12.1807 50.6389 12.8385L50.6284 17.7912C50.6284 18.6292 49.9464 19.3184 49.1077 19.3273L37.1984 19.3276C35.6507 19.3276 34.8093 20.248 33.1997 22.1631L31.7781 23.8526C31.3188 24.3984 30.7921 24.7629 30.12 25.0004L27.1501 26.0496C27.3783 26.2875 27.5714 26.5657 27.7056 26.8876C27.8906 27.3313 27.9427 27.8039 27.8863 28.2683L32.1281 26.9584C32.5324 26.8336 32.8392 26.6378 33.1221 26.3229L35.3714 23.8208C35.5963 23.5706 35.9515 23.4851 36.2646 23.606C36.5782 23.7261 36.785 24.0273 36.785 24.3629V45.5583C36.785 46.0059 36.4219 46.3691 35.9742 46.3691C35.5266 46.3691 35.1634 46.0059 35.1634 45.5583V26.4772L34.3277 27.4068C33.8442 27.9446 33.2973 28.2943 32.6064 28.5074L26.1584 30.4985C26.1577 30.4987 26.157 30.4987 26.1562 30.4989L21.5225 32.152C21.0913 32.3057 20.6938 32.3742 20.2341 32.3742H18.0513C17.449 32.3742 16.8789 32.6128 16.4461 33.0468C16.0132 33.4801 15.7746 34.0519 15.7746 34.6557V38.7748L22.335 42.5675C22.5858 42.7127 22.7399 42.9804 22.7399 43.2696V48.8023C22.7399 49.2499 22.3767 49.6131 21.9291 49.6131C21.4814 49.6131 21.1182 49.2499 21.1182 48.8023V43.7373L14.5579 39.9445C14.3071 39.7993 14.153 39.5317 14.153 39.2425V34.6557C14.153 33.619 14.56 32.6408 15.2985 31.9008C16.038 31.1602 17.0156 30.7527 18.0513 30.7527H20.2341C20.507 30.7527 20.7224 30.7158 20.9779 30.6244L25.6468 28.96C25.8833 28.8605 26.0977 28.6453 26.2111 28.369C26.3245 28.0924 26.3241 27.7879 26.2084 27.5112C25.9703 26.9398 25.3131 26.6687 24.7441 26.9052C24.7273 26.9123 20.5962 28.3085 20.5962 28.3085C20.1823 28.4481 19.8033 28.5104 19.3678 28.5104H7.21184C6.82336 28.5104 3.41437 28.577 3.41437 30.8782V40.543C3.41437 41.5798 4.12922 42.4533 5.11523 42.7732V32.0918C5.11523 31.6441 5.4784 31.281 5.92605 31.281C6.37371 31.281 6.73687 31.6441 6.73687 32.0918V43.7166C6.73687 43.7184 6.73746 43.7201 6.73746 43.7218C6.73746 43.7236 6.73687 43.7252 6.73687 43.7271V51.6579C6.73687 52.1055 6.37371 52.4687 5.92605 52.4687C5.4784 52.4687 5.11523 52.1055 5.11523 51.6579V44.4546C3.22301 44.0896 1.79262 42.4748 1.79262 40.5431ZM52.6695 4.0234H57.8527L57.4225 3.19699C57.3 2.96238 57.3 2.68254 57.4225 2.44793L57.8527 1.62152H52.6695V4.0234ZM38.8609 12.9777C38.8609 15.1501 40.1162 16.9178 41.6597 16.9178C43.2032 16.9178 44.4589 15.1502 44.4589 12.9777C44.4589 10.4104 42.7054 10.0271 41.6597 10.0271C40.6145 10.0271 38.8609 10.4105 38.8609 12.9777ZM7.72746 22.4937C7.72746 24.6075 8.94633 26.3271 10.4449 26.3271C11.9435 26.3271 13.163 24.6076 13.163 22.4937C13.163 20 11.46 19.6276 10.4449 19.6276C9.42984 19.6276 7.72746 20 7.72746 22.4937ZM47.8315 43.2274C48.2791 43.2274 48.6423 42.8643 48.6423 42.4166V37.7386C48.6423 37.445 48.484 37.1748 48.2279 37.0312L41.1202 33.0442C40.87 32.9032 40.5622 32.9053 40.3141 33.0522C40.0655 33.1973 39.913 33.4639 39.913 33.7515V45.5579C39.913 46.0056 40.2762 46.3687 40.7238 46.3687C41.1715 46.3687 41.5346 46.0056 41.5346 45.5579V35.1362L47.0208 38.2137V42.4166C47.0207 42.8643 47.3838 43.2274 47.8315 43.2274ZM59.1892 46.2859H44.5946C44.147 46.2859 43.7838 46.6491 43.7838 47.0967V49.5376H30C29.5523 49.5376 29.1892 49.9008 29.1892 50.3484V52.2504H15.4054C14.9577 52.2504 14.5945 52.6136 14.5945 53.0612V55.3141H0.81082C0.363164 55.3141 0 55.6773 0 56.125V59.1893C0 59.6368 0.363164 60 0.81082 60C1.25848 60 1.62164 59.6368 1.62164 59.1892V56.9357H14.5946V59.1892C14.5946 59.6368 14.9578 60 15.4055 60C15.8531 60 16.2163 59.6368 16.2163 59.1892V53.8719H29.1893V59.1892C29.1893 59.6368 29.5525 60 30.0001 60C30.4478 60 30.8109 59.6368 30.8109 59.1892V51.1591H43.7839V59.1892C43.7839 59.6368 44.1471 60 44.5948 60C45.0424 60 45.4056 59.6368 45.4056 59.1892V47.9075H58.3786V59.1892C58.3786 59.6368 58.7418 60 59.1894 60C59.6371 60 60.0002 59.6368 60.0002 59.1892V47.0967C60 46.6491 59.6368 46.2859 59.1892 46.2859Z" fill="black"/>
</svg>
