<svg width="79" height="60" viewBox="0 0 79 60" fill="none" xmlns="http://www.w3.org/2000/svg">
<path d="M33.865 60H26.0123C25.2761 60 24.7853 59.5092 24.7853 58.773V53.2515C21.9632 52.638 19.3865 51.5337 17.0552 50.0614L13.2515 53.865C12.7607 54.3558 12.0245 54.3558 11.5337 53.865L6.01227 48.3436C5.52147 47.8528 5.52147 47.1166 6.01227 46.6258L9.81595 42.8221C8.22086 40.3681 7.23926 37.7914 6.62577 35.092H1.22699C0.490797 35.092 0 34.6012 0 33.865V26.0123C0 25.2761 0.490797 24.7853 1.22699 24.7853H6.74847C7.36196 21.9632 8.34356 19.3865 9.81595 17.0552L6.01227 13.2515C5.52147 12.7607 5.52147 12.0245 6.01227 11.5337L11.5337 6.01227C12.0245 5.52147 12.7607 5.52147 13.2515 6.01227L17.0552 9.81595C19.5092 8.22086 22.0859 7.23926 24.7853 6.62577V1.22699C24.7853 0.490797 25.2761 0 26.0123 0H33.865C34.6012 0 35.092 0.490797 35.092 1.22699V6.74847C37.9141 7.36196 40.4908 8.46626 42.8221 9.81595L46.6258 6.01227C47.1166 5.52147 47.8528 5.52147 48.3436 6.01227L53.865 11.5337C54.3558 12.0245 54.3558 12.7607 53.865 13.2515C53.3742 13.7423 52.638 13.7423 52.1472 13.2515L47.4847 8.58896L43.8037 12.2699C43.4356 12.638 42.6994 12.7607 42.2086 12.3926C39.6319 10.6748 36.8098 9.44785 33.6196 8.95705C33.0061 8.83435 32.638 8.34356 32.638 7.73006V2.45399H27.2393V7.73006C27.2393 8.34356 26.7485 8.83435 26.135 8.95705C23.1902 9.44785 20.3681 10.5521 17.546 12.3926C17.0552 12.7607 16.4417 12.638 15.9509 12.2699L12.2699 8.58896L8.58896 12.3926L12.2699 16.0736C12.638 16.4417 12.7607 17.1779 12.3926 17.6687C10.6748 20.2454 9.44785 23.0675 8.95705 26.2577C8.83436 26.8712 8.34356 27.2393 7.73006 27.2393H2.45399V32.638H7.73006C8.34356 32.638 8.83436 33.1288 8.95705 33.7423C9.44785 36.6871 10.5521 39.5092 12.3926 42.3313C12.7607 42.8221 12.638 43.4356 12.2699 43.9264L8.58896 47.6074L12.3926 51.411L16.0736 47.7301C16.4417 47.362 17.1779 47.2393 17.6687 47.6074C20.1227 49.4479 22.9448 50.5521 26.2577 51.1656C26.8712 51.2883 27.2393 51.7791 27.2393 52.3926V57.6687H32.638V52.3926C32.638 51.7791 33.0061 51.2883 33.6196 51.1656C36.6871 50.5521 39.5092 49.4479 42.2086 47.6074C42.6994 47.2393 43.3129 47.362 43.8037 47.7301L47.6074 51.5337L51.5337 47.4847C52.0245 46.9939 52.7607 46.9939 53.2515 47.4847C53.7423 47.9755 53.7423 48.7117 53.2515 49.2024L48.4663 54.1104C48.2209 54.3558 47.9755 54.4785 47.6074 54.4785C47.2393 54.4785 46.9939 54.3558 46.7485 54.1104L42.8221 50.184C40.3681 51.6564 37.7914 52.7607 35.092 53.3742V58.8957C35.092 59.5092 34.6012 60 33.865 60Z" fill="black"/>
<path d="M30.0617 47.8536C29.2028 47.8536 28.4666 47.7309 27.6077 47.6082C19.5095 46.5039 12.8838 39.8782 12.1476 31.6573C11.6568 26.6266 13.2519 21.7186 16.6874 17.915C20.123 14.1113 24.9083 12.0254 29.939 12.0254C30.4298 12.0254 31.0433 12.0254 31.7795 12.1481C32.393 12.2708 32.8838 12.8843 32.7611 13.6205C32.6384 14.3567 32.0249 14.7248 31.2887 14.6021C30.7979 14.4794 30.4298 14.4794 29.939 14.4794C25.6445 14.4794 21.4727 16.3199 18.5279 19.5101C15.5831 22.8229 14.2335 26.9947 14.6015 31.4119C15.3377 38.5285 20.8592 44.2953 27.9758 45.1542C29.0801 45.3996 30.0617 45.3996 31.4114 45.2769C32.1476 45.1542 32.6384 45.645 32.7611 46.3812C32.8838 46.9947 32.393 47.6082 31.6568 47.7309C31.0433 47.7309 30.5525 47.8536 30.0617 47.8536Z" fill="black"/>
<path d="M39.875 26.3806H32.145C31.4088 26.3806 30.918 25.8898 30.918 25.1536C30.918 24.4174 31.4088 23.9266 32.145 23.9266H39.6296L51.7769 19.5094C51.8996 19.5094 52.0223 19.3867 52.145 19.3867H62.8198C63.556 19.3867 64.0468 19.8775 64.0468 20.6137C64.0468 21.3499 63.556 21.8407 62.8198 21.8407H52.3904L40.2431 26.2579C40.1204 26.3806 39.9977 26.3806 39.875 26.3806Z" fill="black"/>
<path d="M52.27 41.9626C52.1473 41.9626 52.0246 41.9626 51.9019 41.8399L39.7546 37.4227H32.27C31.5338 37.4227 31.043 36.9319 31.043 36.1957C31.043 35.4595 31.5338 34.9688 32.27 34.9688H40C40.1227 34.9688 40.2454 34.9688 40.3681 35.0915L52.5154 39.5086L62.9448 39.3859C63.681 39.3859 64.1718 39.8767 64.1718 40.6129C64.1718 41.3491 63.681 41.8399 62.9448 41.8399L52.27 41.9626Z" fill="black"/>
<path d="M69.5683 31.9022H32.145C31.4088 31.9022 30.918 31.4114 30.918 30.6752C30.918 29.939 31.4088 29.4482 32.145 29.4482H69.5683C70.3045 29.4482 70.7953 29.939 70.7953 30.6752C70.7953 31.4114 70.3045 31.9022 69.5683 31.9022Z" fill="black"/>
<path d="M39.875 19.0183H32.145C31.4088 19.0183 30.918 18.5275 30.918 17.7913C30.918 17.0551 31.4088 16.5643 32.145 16.5643H39.6296L58.7707 8.83421C59.3842 8.58881 60.1204 8.83421 60.3658 9.57041C60.6112 10.1839 60.3658 10.9201 59.6296 11.1655L40.3658 18.8956C40.2431 19.0183 39.9977 19.0183 39.875 19.0183Z" fill="black"/>
<path d="M59.3842 52.2696C59.2615 52.2696 59.0161 52.2696 58.8934 52.1469L39.6296 44.4169H32.145C31.4088 44.4169 30.918 43.9261 30.918 43.1899C30.918 42.4537 31.4088 41.9629 32.145 41.9629H39.875C39.9977 41.9629 40.2431 41.9629 40.3658 42.0856L59.875 49.9384C60.4885 50.1837 60.8566 50.9199 60.6112 51.5334C60.3658 52.0242 59.875 52.2696 59.3842 52.2696Z" fill="black"/>
<path d="M66.8725 45.6444C64.0504 45.6444 61.8418 43.4358 61.8418 40.6137C61.8418 37.7916 64.0504 35.583 66.8725 35.583C69.6946 35.583 71.9031 37.7916 71.9031 40.6137C71.9031 43.4358 69.6946 45.6444 66.8725 45.6444ZM66.8725 38.037C65.4001 38.037 64.2958 39.1413 64.2958 40.6137C64.2958 42.0861 65.4001 43.1904 66.8725 43.1904C68.3449 43.1904 69.4492 42.0861 69.4492 40.6137C69.4492 39.1413 68.3449 38.037 66.8725 38.037Z" fill="black"/>
<path d="M73.4955 35.7049C70.6734 35.7049 68.4648 33.4963 68.4648 30.6742C68.4648 27.8521 70.6734 25.6436 73.4955 25.6436C76.3176 25.6436 78.5262 27.8521 78.5262 30.6742C78.5262 33.4963 76.3176 35.7049 73.4955 35.7049ZM73.4955 28.0975C72.0231 28.0975 70.9188 29.2018 70.9188 30.6742C70.9188 32.1466 72.0231 33.2509 73.4955 33.2509C74.9679 33.2509 76.0722 32.1466 76.0722 30.6742C76.0722 29.2018 74.9679 28.0975 73.4955 28.0975Z" fill="black"/>
<path d="M66.7475 25.2752C63.9254 25.2752 61.7168 23.0666 61.7168 20.2445C61.7168 17.4225 63.9254 15.2139 66.7475 15.2139C69.5696 15.2139 71.7781 17.4225 71.7781 20.2445C71.7781 23.0666 69.5696 25.2752 66.7475 25.2752ZM66.7475 17.6679C65.2751 17.6679 64.1708 18.7721 64.1708 20.2445C64.1708 21.7169 65.2751 22.8212 66.7475 22.8212C68.2199 22.8212 69.3242 21.7169 69.3242 20.2445C69.3242 18.7721 68.2199 17.6679 66.7475 17.6679Z" fill="black"/>
<path d="M63.1928 13.2518C60.3707 13.2518 58.1621 11.0432 58.1621 8.2211C58.1621 5.39902 60.3707 3.19043 63.1928 3.19043C66.0149 3.19043 68.2235 5.39902 68.2235 8.2211C68.2235 11.0432 66.0149 13.2518 63.1928 13.2518ZM63.1928 5.64442C61.7204 5.64442 60.6161 6.74871 60.6161 8.2211C60.6161 9.6935 61.7204 10.7978 63.1928 10.7978C64.6652 10.7978 65.7695 9.6935 65.7695 8.2211C65.7695 6.74871 64.6652 5.64442 63.1928 5.64442Z" fill="black"/>
<path d="M64.1733 57.6678C61.3512 57.6678 59.1426 55.4592 59.1426 52.6371C59.1426 49.815 61.3512 47.6064 64.1733 47.6064C66.9953 47.6064 69.2039 49.815 69.2039 52.6371C69.2039 55.4592 66.9953 57.6678 64.1733 57.6678ZM64.1733 50.0604C62.7009 50.0604 61.5966 51.1647 61.5966 52.6371C61.5966 54.1095 62.7009 55.2138 64.1733 55.2138C65.6456 55.2138 66.7499 54.1095 66.7499 52.6371C66.7499 51.1647 65.6456 50.0604 64.1733 50.0604Z" fill="black"/>
<path d="M31.5356 47.8536C30.7994 47.8536 30.3086 47.3628 30.3086 46.6266V13.2524C30.3086 12.5162 30.7994 12.0254 31.5356 12.0254C32.2718 12.0254 32.7626 12.5162 32.7626 13.2524V46.6266C32.7626 47.3628 32.2718 47.8536 31.5356 47.8536Z" fill="black"/>
</svg>
