<svg width="56" height="60" viewBox="0 0 56 60" fill="none" xmlns="http://www.w3.org/2000/svg">
<path d="M15.0811 44.873C14.3976 46.7904 19.7904 46.9413 21.0493 47.0001C22.3299 46.9653 28.1555 46.6759 27.4 44.7198C27.2125 44.2002 26.6397 43.9297 26.1197 44.1191C23.0015 45.2451 19.4673 45.2881 16.3472 44.2422C15.8228 44.0693 15.2569 44.3496 15.0811 44.873Z" fill="black"/>
<path d="M29.0584 47.2326C24.3393 49.458 18.6474 49.5889 13.8431 47.5764C12.6386 47.082 11.8678 48.9165 13.0775 49.4241C15.6009 50.4699 18.2835 51.0002 21.0501 51.0002C24.1361 51.0002 27.1141 50.343 29.9022 49.0471C30.4027 48.8137 30.62 48.219 30.387 47.718C30.1541 47.217 29.5594 47.0031 29.0584 47.2326Z" fill="black"/>
<path d="M17.4022 39.7422C18.5858 37.1885 18.7987 31.3535 15.5844 29.8643C12.3744 28.377 8.05898 32.3135 6.87636 34.8691C5.975 36.8154 6.24258 39.1143 7.51357 40.8037L0.410055 54.7559C-0.453348 56.3678 0.295416 58.5336 1.97113 59.2656C3.61521 60.0708 5.75011 59.2387 6.41981 57.5371C6.41982 57.5371 12.4643 43.0957 12.4643 43.0957C14.5746 42.9727 16.5014 41.6895 17.4022 39.7422ZM10.8773 41.708L4.57509 56.7647C3.85607 58.3965 1.41128 57.2818 2.1928 55.663C2.19277 55.6631 9.59853 41.1162 9.59853 41.1162C9.79287 40.7334 9.72256 40.2705 9.42275 39.9639C6.18569 36.7396 10.9549 31.7707 14.0942 31.5478C16.5381 31.6697 16.5982 36.5111 15.5875 38.9023C14.9291 40.3252 13.433 41.1943 11.87 41.0967C11.434 41.0596 11.0424 41.3115 10.8773 41.708Z" fill="black"/>
<path d="M35.7421 41.2059C37.0458 39.5291 37.3451 37.2254 36.4608 35.2586L33.5077 28.6922C33.2816 28.1893 32.6888 27.9646 32.1854 28.1902C31.6815 28.4168 31.4569 29.0086 31.6835 29.5125L34.6366 36.0789C35.2831 37.5154 34.9642 39.2273 33.8431 40.3387C33.537 40.6424 33.4598 41.1072 33.6517 41.4939L40.9125 56.1072C41.6729 57.7112 39.2331 58.8307 38.5257 57.1804C38.5258 57.1805 32.4105 42.0516 32.4105 42.0516C32.2489 41.6531 31.8534 41.4178 31.4188 41.4285C29.8485 41.5203 28.3519 40.6336 27.7055 39.1961L24.7523 32.6297C24.5263 32.1268 23.9345 31.9031 23.4301 32.1277C22.9262 32.3543 22.7015 32.9461 22.9281 33.45L25.8812 40.0164C26.7665 41.9832 28.6884 43.2879 30.808 43.4246L36.6713 57.9305C37.3198 59.6387 39.4462 60.4944 41.0971 59.7078C42.7794 58.9954 43.5521 56.8358 42.7035 55.2166C42.7035 55.2166 35.7421 41.2059 35.7421 41.2059Z" fill="black"/>
<path d="M31.4994 39.3676C32.2045 39.3813 32.7182 38.5996 32.411 37.9574C32.411 37.9574 29.1298 30.6615 29.1298 30.6615C28.5891 29.4749 26.7734 30.2843 27.3056 31.4819C27.3056 31.4818 30.5868 38.7777 30.5868 38.7777C30.7533 39.1479 31.118 39.3676 31.4994 39.3676Z" fill="black"/>
<path d="M42.0492 0C35.6322 0 30.1298 4.29852 28.528 10.3787C10.094 3.348 -7.07477 23.6914 2.9703 40.6623C3.25404 41.1409 3.87453 41.2895 4.34067 41.0098C4.81528 40.7266 4.97056 40.1133 4.68784 39.6387C-4.48391 24.134 11.4547 5.60259 28.1552 12.405C28.0725 13.1129 28.019 13.8134 28.0723 14.5195C16.3322 8.94821 2.41293 19.1295 4.16511 32.0208C4.32082 33.3203 6.28948 33.1001 6.15316 31.7997C4.56738 19.7992 17.9107 10.8743 28.3804 16.9127C29.2415 20.9866 31.8871 24.47 35.5908 26.405C35.8231 27.3335 35.9815 28.2852 36.0291 29.2197H37.0291L38.0277 29.1592C37.9969 28.5487 37.9311 27.9417 37.8357 27.3416C38.5182 27.5565 39.2114 27.7189 39.9135 27.8256C40.2615 30.6827 39.9261 33.6273 38.9671 36.3154C38.7816 36.835 39.0536 37.4072 39.5736 37.5928C40.0804 37.7756 40.6667 37.5119 40.8509 36.9853C41.8678 34.1354 42.2525 31.0306 41.9441 27.9949C60.5911 27.3592 60.6897 0.786869 42.0492 0ZM40.91 25.9443C34.1286 25.4637 28.906 18.595 30.2349 11.9286C33.0954 -2.41019 53.657 -0.61657 54.0492 14.0001C54.0497 20.9951 48.0282 26.6533 40.91 25.9443Z" fill="black"/>
<path d="M42.0491 12.9996H35.5491C34.2419 13.0049 34.2409 14.9943 35.5491 14.9996L39.635 14.9996L35.9255 18.7096C35.0059 19.6366 36.4102 21.0454 37.3397 20.1236L42.7561 14.7066C43.3867 14.1171 42.9138 12.9697 42.0491 12.9996Z" fill="black"/>
</svg>
