<svg width="62" height="60" viewBox="0 0 62 60" fill="none" xmlns="http://www.w3.org/2000/svg">
<path d="M39.5802 26.8884C45.4807 26.8884 50.2813 22.0882 50.2813 16.1874C50.2813 10.287 45.4808 5.48637 39.5802 5.48637C33.6797 5.48637 28.8792 10.2869 28.8792 16.1874C28.8792 22.0882 33.6797 26.8884 39.5802 26.8884ZM39.5802 7.46245C44.3912 7.46245 48.3052 11.3758 48.3052 16.1874C48.3052 20.9978 44.3912 24.9125 39.5802 24.9125C34.769 24.9125 30.855 20.9977 30.855 16.1874C30.855 11.3758 34.769 7.46245 39.5802 7.46245ZM25.2589 19.3853C25.5886 19.7151 25.6995 20.1271 25.5787 20.5777L25.2393 21.8452C24.7811 23.5558 25.7992 25.3193 27.5096 25.7777L28.7765 26.1174C29.227 26.2381 29.5295 26.5408 29.6502 26.9911L29.9895 28.2584C30.3284 29.5237 31.4042 30.4363 32.6783 30.603V40.4564C32.6783 40.813 32.8708 41.1426 33.1818 41.3173C33.493 41.4922 33.8743 41.4864 34.1792 41.3003L39.4702 38.088L44.7607 41.3003C44.9181 41.3966 45.0955 41.444 45.2736 41.444C45.4403 41.444 45.6075 41.4016 45.758 41.3173C46.0691 41.1425 46.2615 40.813 46.2615 40.4564V30.621C47.6309 30.5379 48.8126 29.5959 49.1709 28.2584L49.5103 26.9911C49.6309 26.5408 49.9334 26.2381 50.3833 26.1174L51.6508 25.7777C52.4776 25.5566 53.1699 25.0251 53.599 24.2812C54.0285 23.5376 54.1427 22.672 53.921 21.8452L53.5817 20.5784C53.4608 20.1271 53.5714 19.7152 53.901 19.3853L54.8287 18.4578C55.4343 17.8529 55.7676 17.0453 55.7676 16.1874C55.7676 15.328 55.4343 14.5218 54.8287 13.9159L53.9015 12.9894C53.5716 12.6592 53.4606 12.2466 53.5817 11.7962L53.921 10.5297C54.1427 9.70242 54.0282 8.83726 53.5988 8.09387C53.1695 7.34999 52.4775 6.81827 51.6508 6.59667L50.3833 6.25723C49.9397 6.13767 49.6296 5.82802 49.5103 5.38373L49.1709 4.11647C48.7956 2.71529 47.5192 1.73645 46.0676 1.73645C45.7884 1.73645 45.5094 1.77336 45.2382 1.8462L43.9715 2.18565C43.5289 2.30423 43.1029 2.19092 42.7784 1.86619L41.8508 0.938615C41.2453 0.33331 40.4392 0 39.5803 0C38.7215 0 37.9151 0.333433 37.3094 0.938615L36.3825 1.86619C36.0576 2.19092 35.6317 2.30521 35.1894 2.18565L33.9221 1.8462C33.651 1.77336 33.3721 1.73645 33.0933 1.73645C31.6414 1.73645 30.3649 2.71529 29.9896 4.11647L29.6502 5.38373C29.5308 5.82802 29.221 6.13767 28.7768 6.25723L27.5096 6.59667C26.6827 6.81827 25.9906 7.34999 25.5614 8.09387C25.1318 8.83738 25.0177 9.70242 25.2393 10.5297L25.5787 11.7962C25.6995 12.2468 25.589 12.6592 25.259 12.9894L24.3316 13.9169C23.726 14.5219 23.3928 15.3281 23.3928 16.1875C23.3928 17.0454 23.7261 17.8531 24.3313 18.4579L25.2589 19.3853ZM39.983 36.0879C39.6677 35.8958 39.2724 35.8958 38.9572 36.0879L34.6545 38.7005V30.332L35.1896 30.1892C35.632 30.0706 36.0574 30.1842 36.3825 30.5087L37.3098 31.4354C37.9151 32.0413 38.7214 32.374 39.5803 32.374C40.4392 32.374 41.2453 32.0413 41.8508 31.4354L42.778 30.5087C43.1029 30.1842 43.5261 30.0697 43.9712 30.1892L44.2854 30.2729V38.7006L39.983 36.0879ZM25.7286 15.3139L26.6561 14.3863C27.4769 13.5661 27.7879 12.4063 27.4873 11.2848L27.1478 10.0183C27.0628 9.7007 27.1072 9.36776 27.2725 9.08178C27.438 8.79532 27.7038 8.59003 28.021 8.5053L29.2882 8.1661C30.409 7.86553 31.2579 7.01693 31.5585 5.89547L31.898 4.62771C32.07 3.98537 32.7598 3.5818 33.4104 3.75471L34.6777 4.09415C34.9602 4.17079 35.2478 4.20868 35.5323 4.20868C36.3717 4.20868 37.1699 3.87292 37.7795 3.26332L38.7066 2.3355C39.171 1.87134 39.9895 1.87134 40.4532 2.3355L41.3808 3.26332C42.1969 4.07906 43.3648 4.39459 44.4826 4.09415L45.7496 3.75471C46.4025 3.57861 47.0901 3.98709 47.262 4.62771L47.6015 5.89547C47.9024 7.01693 48.751 7.86541 49.8718 8.1661L51.1391 8.5053C51.4562 8.59003 51.7219 8.79532 51.8876 9.08178C52.053 9.36776 52.0973 9.7007 52.0125 10.0183L51.6729 11.2848C51.3727 12.4051 51.6831 13.565 52.504 14.3875L53.4317 15.314C53.913 15.7957 53.913 16.5795 53.4317 17.061L52.5036 17.9884C51.6831 18.8102 51.3724 19.9684 51.6729 21.0904L52.0125 22.3569C52.0975 22.6743 52.0531 23.007 51.8879 23.2935C51.7223 23.5799 51.4564 23.785 51.1392 23.8692L49.8717 24.2089C48.7509 24.5097 47.9019 25.3588 47.6016 26.4795L47.2621 27.747C47.0902 28.388 46.4034 28.7954 45.7495 28.6195L44.4828 28.2804C43.367 27.981 42.1973 28.2957 41.381 29.1119L40.4538 30.0386C39.9893 30.503 39.1711 30.503 38.7067 30.0386L37.7794 29.1119C37.1696 28.5016 36.3718 28.1663 35.5326 28.1663C35.248 28.1663 34.9603 28.2042 34.6778 28.2804L33.4105 28.6195C32.758 28.7942 32.0699 28.3879 31.8981 27.747L31.5587 26.4795C31.2585 25.3588 30.4096 24.5097 29.2883 24.2089L28.0211 23.8692C27.3635 23.6936 26.9719 23.0151 27.1479 22.3569L27.4875 21.0894C27.788 19.9684 27.4773 18.8102 26.6565 17.9884L25.7287 17.061C25.2471 16.5795 25.2471 15.7956 25.7286 15.3139ZM34.6262 18.6209C34.2402 18.2351 34.2402 17.6099 34.6262 17.2237C35.0115 16.8377 35.6374 16.8377 36.0232 17.2237L37.696 18.8965L43.03 11.3801C43.3454 10.9356 43.9624 10.8305 44.4075 11.1469C44.8526 11.4623 44.9571 12.0786 44.6414 12.524L38.6303 20.9936C38.4618 21.2308 38.1976 21.3811 37.9076 21.4065C37.8798 21.4085 37.8522 21.4098 37.8246 21.4098C37.5638 21.4098 37.312 21.3063 37.126 21.1198L34.6262 18.6209ZM6.38333 48.6101C4.8681 48.6101 3.6353 49.8434 3.6353 51.358C3.6353 52.8736 4.8681 54.1061 6.38333 54.1061C7.89867 54.1061 9.13123 52.8736 9.13123 51.358C9.13123 49.8432 7.89867 48.6101 6.38333 48.6101ZM6.38333 52.1297C5.95768 52.1297 5.61149 51.7841 5.61149 51.358C5.61149 50.9326 5.95768 50.5858 6.38333 50.5858C6.80885 50.5858 7.15541 50.9326 7.15541 51.358C7.15541 51.7841 6.80885 52.1297 6.38333 52.1297ZM60.11 40.7482C58.991 39.5963 57.0443 38.9706 55.193 40.1386L44.405 45.0776C43.6965 44.5435 42.8186 44.2232 41.8655 44.2232H37.0296C35.4451 44.2232 34.1171 43.5447 33.1894 42.2599C31.8814 40.4489 29.9755 39.122 27.8219 38.5249C24.7777 37.6809 21.5332 38.341 19.0655 40.288H16.5786L17.0063 38.8818C17.0826 38.6317 17.0562 38.3613 16.9329 38.1299C16.8095 37.8988 16.5994 37.7261 16.3485 37.6492L6.9099 34.7782C6.38713 34.6181 5.83603 34.9137 5.67722 35.4354L0.0427071 53.9563C-0.0334465 54.2063 -0.00708097 54.4772 0.116408 54.7079C0.239897 54.9393 0.449841 55.1119 0.700375 55.1883L7.72123 57.3243C8.05282 57.4246 8.3957 57.4752 8.73955 57.4752C10.2971 57.4752 11.6504 56.4735 12.108 54.9823L12.2143 54.6328H18.4528L37.1302 59.7454C37.7515 59.915 38.3673 60 38.9719 60C40.3503 60 41.6688 59.56 42.856 58.6961L60.304 45.9799C60.3928 45.9143 60.4698 45.8362 60.5327 45.7454C61.8118 43.9115 61.2418 41.9134 60.11 40.7482ZM8.73955 55.4987C8.58921 55.4987 8.43849 55.4769 8.29403 55.4336L2.22075 53.5853L7.28012 36.9563L14.8284 39.2529L10.2181 54.4058C10.0174 55.0599 9.42322 55.4987 8.73955 55.4987ZM58.9943 44.4889L41.6924 57.0988C40.4867 57.9771 39.0895 58.2339 37.6517 57.8399L18.8463 52.6918C18.7614 52.6686 18.6735 52.6569 18.5856 52.6569H12.8156L15.9773 42.2642H19.4185C19.6536 42.2642 19.8808 42.181 20.0593 42.0277C22.0586 40.3253 24.7622 39.7282 27.2939 40.4288C29.0163 40.9073 30.5415 41.9676 31.5876 43.4167C32.8837 45.2106 34.8162 46.1989 37.0296 46.1989H41.8655C43.1121 46.1989 44.1266 47.2142 44.1266 48.4603C44.1266 49.7075 43.1121 50.7218 41.8655 50.7218H28.4213C27.8757 50.7218 27.4334 51.1638 27.4334 51.71C27.4334 52.2556 27.8757 52.6981 28.4213 52.6981H41.8655C44.2018 52.6981 46.1028 50.7971 46.1028 48.4603C46.1028 47.816 45.9539 47.2072 45.6955 46.6601L56.0793 41.9062C56.1243 41.8851 56.1677 41.8615 56.2093 41.8336C57.2026 41.1833 58.1678 41.5846 58.6924 42.1254C59.1947 42.6421 59.5576 43.5587 58.9943 44.4889Z" fill="black"/>
</svg>
