<svg width="60" height="60" viewBox="0 0 60 60" fill="none" xmlns="http://www.w3.org/2000/svg">
<path d="M22.5 23.4375V21.5625C22.5 20.3193 22.0061 19.127 21.1271 18.2479C20.248 17.3689 19.0557 16.875 17.8125 16.875C16.5693 16.875 15.377 17.3689 14.4979 18.2479C13.6189 19.127 13.125 20.3193 13.125 21.5625V23.4375C13.125 24.6807 13.6189 25.873 14.4979 26.7521C15.377 27.6311 16.5693 28.125 17.8125 28.125C19.0557 28.125 20.248 27.6311 21.1271 26.7521C22.0061 25.873 22.5 24.6807 22.5 23.4375ZM15 23.4375V21.5625C15 20.8166 15.2963 20.1012 15.8238 19.5738C16.3512 19.0463 17.0666 18.75 17.8125 18.75C18.5584 18.75 19.2738 19.0463 19.8012 19.5738C20.3287 20.1012 20.625 20.8166 20.625 21.5625V23.4375C20.625 24.1834 20.3287 24.8988 19.8012 25.4262C19.2738 25.9537 18.5584 26.25 17.8125 26.25C17.0666 26.25 16.3512 25.9537 15.8238 25.4262C15.2963 24.8988 15 24.1834 15 23.4375Z" fill="black"/>
<path d="M51.5625 60C51.8111 60 52.0496 59.9012 52.2254 59.7254C52.4012 59.5496 52.5 59.3111 52.5 59.0625V40.3125C52.5 40.0639 52.4012 39.8254 52.2254 39.6496C52.0496 39.4738 51.8111 39.375 51.5625 39.375H37.5V35.625H44.0625C44.2843 35.6249 44.4988 35.5463 44.6681 35.4029C44.8373 35.2596 44.9503 35.0609 44.9869 34.8422L46.8619 23.5922C46.8843 23.4579 46.8773 23.3203 46.8412 23.189C46.8051 23.0577 46.7408 22.9358 46.6528 22.8318C46.5649 22.7279 46.4553 22.6444 46.3318 22.5871C46.2082 22.5297 46.0737 22.5 45.9375 22.5H29.0625C28.8407 22.5001 28.6262 22.5787 28.4569 22.7221C28.2877 22.8654 28.1747 23.0641 28.1381 23.2828L26.2631 34.5328C26.2407 34.6671 26.2477 34.8047 26.2838 34.936C26.3199 35.0673 26.3842 35.1892 26.4722 35.2932C26.5601 35.3971 26.6697 35.4806 26.7932 35.5379C26.9168 35.5953 27.0513 35.625 27.1875 35.625H35.625V39.375H31.3538C31.6912 38.8075 31.8711 38.1602 31.875 37.5C31.875 37.2692 31.7899 37.0465 31.6359 36.8746C31.482 36.7026 31.27 36.5935 31.0406 36.5681L22.9781 35.6728L18.5325 30.3375C18.4446 30.2319 18.3345 30.147 18.2101 30.0886C18.0856 30.0303 17.9499 30.0001 17.8125 30H15.9375C14.6948 30.0015 13.5033 30.4958 12.6246 31.3746C11.7458 32.2533 11.2515 33.4448 11.25 34.6875V45.9375C11.2534 46.9551 11.5914 47.9434 12.2119 48.75H9.375V32.8125C9.375 32.5639 9.27623 32.3254 9.10041 32.1496C8.9246 31.9738 8.68614 31.875 8.4375 31.875C8.18886 31.875 7.9504 31.9738 7.77459 32.1496C7.59877 32.3254 7.5 32.5639 7.5 32.8125V49.6875C7.5 49.9361 7.59877 50.1746 7.77459 50.3504C7.9504 50.5262 8.18886 50.625 8.4375 50.625H13.125V58.125H10.3125C10.0639 58.125 9.8254 58.2238 9.64959 58.3996C9.47377 58.5754 9.375 58.8139 9.375 59.0625C9.375 59.3111 9.47377 59.5496 9.64959 59.7254C9.8254 59.9012 10.0639 60 10.3125 60H17.8125C18.0611 60 18.2996 59.9012 18.4754 59.7254C18.6512 59.5496 18.75 59.3111 18.75 59.0625C18.75 58.8139 18.6512 58.5754 18.4754 58.3996C18.2996 58.2238 18.0611 58.125 17.8125 58.125H15V50.625H21.9553L26.1862 58.0313C26.2053 58.0639 26.2266 58.0952 26.25 58.125C26.6879 58.7058 27.2543 59.1774 27.9049 59.5027C28.5555 59.828 29.2726 59.9982 30 60H32.8125C32.9742 60 33.1332 59.9581 33.274 59.8785C33.4147 59.7988 33.5325 59.6841 33.6158 59.5455C33.6992 59.4069 33.7452 59.249 33.7495 59.0874C33.7538 58.9257 33.7162 58.7657 33.6403 58.6228L26.3184 44.85C26.2816 44.7822 26.2366 44.7192 26.1844 44.6625C25.7449 44.1791 25.2094 43.7927 24.6121 43.528C24.0149 43.2632 23.3689 43.126 22.7156 43.125H19.6875V41.25H50.625V59.0625C50.625 59.3111 50.7238 59.5496 50.8996 59.7254C51.0754 59.9012 51.3139 60 51.5625 60ZM29.8566 24.375H44.8303L43.2684 33.75H28.2947L29.8566 24.375ZM16.6697 35.0391C16.5927 34.9429 16.4976 34.8629 16.3897 34.8035C16.2818 34.7441 16.1633 34.7065 16.0409 34.6929C15.9185 34.6794 15.7946 34.69 15.6764 34.7243C15.5581 34.7586 15.4477 34.8159 15.3516 34.8928C15.2554 34.9698 15.1754 35.0649 15.116 35.1728C15.0566 35.2807 15.019 35.3992 15.0054 35.5216C14.9919 35.644 15.0025 35.7679 15.0368 35.8861C15.0711 36.0044 15.1284 36.1148 15.2053 36.2109L17.8125 39.4687V44.0625C17.8125 44.3111 17.9113 44.5496 18.0871 44.7254C18.2629 44.9012 18.5014 45 18.75 45H22.7156C23.0894 45.0009 23.4592 45.0759 23.8038 45.2207C24.1483 45.3655 24.4607 45.5773 24.7228 45.8438L31.2525 58.125H30C29.5727 58.1239 29.1512 58.0259 28.7672 57.8385C28.3832 57.6512 28.0467 57.3792 27.7828 57.0431L23.3138 49.2188C23.2313 49.076 23.1127 48.9574 22.9698 48.8751C22.8269 48.7928 22.6649 48.7497 22.5 48.75H15.9375C15.1916 48.75 14.4762 48.4537 13.9488 47.9262C13.4213 47.3988 13.125 46.6834 13.125 45.9375V34.6875C13.125 33.9416 13.4213 33.2262 13.9488 32.6988C14.4762 32.1713 15.1916 31.875 15.9375 31.875H17.3737L21.78 37.1625C21.935 37.3487 22.1561 37.4676 22.3969 37.4944L29.8116 38.3184C29.6579 38.6351 29.4183 38.9021 29.12 39.089C28.8218 39.2758 28.477 39.3749 28.125 39.375H20.1375L16.6697 35.0391Z" fill="black"/>
<path d="M1.51136 24.1792L30.0001 2.12357L43.4889 12.5626C43.6274 12.6699 43.7933 12.7361 43.9677 12.7539C44.142 12.7716 44.3178 12.7402 44.4752 12.663C44.6325 12.5859 44.7651 12.4663 44.8579 12.3176C44.9507 12.1689 45 11.9972 45.0001 11.822V7.50013H50.6251V17.6345C50.6251 17.7777 50.6579 17.919 50.7209 18.0475C50.784 18.1761 50.8756 18.2884 50.9889 18.3761L58.4889 24.1792C58.6855 24.3314 58.9346 24.3992 59.1813 24.3677C59.4279 24.3362 59.652 24.2081 59.8042 24.0114C59.9563 23.8147 60.0241 23.5656 59.9927 23.319C59.9612 23.0723 59.833 22.8482 59.6364 22.6961L52.5001 17.1742V6.56263C52.5001 6.31399 52.4013 6.07554 52.2255 5.89972C52.0497 5.72391 51.8112 5.62513 51.5626 5.62513H44.0626C43.814 5.62513 43.5755 5.72391 43.3997 5.89972C43.2239 6.07554 43.1251 6.31399 43.1251 6.56263V9.91045L30.5739 0.196071C30.4096 0.0689655 30.2078 0 30.0001 0C29.7924 0 29.5906 0.0689655 29.4264 0.196071L0.363859 22.6961C0.167184 22.8482 0.0390136 23.0723 0.00754267 23.319C-0.0239283 23.5656 0.0438786 23.8147 0.196047 24.0114C0.348215 24.2081 0.572279 24.3362 0.818948 24.3677C1.06562 24.3992 1.31468 24.3314 1.51136 24.1792Z" fill="black"/>
<path d="M37.4997 52.5C37.3635 52.5 37.229 52.5297 37.1055 52.5871C36.9819 52.6444 36.8724 52.7279 36.7844 52.8318C36.6964 52.9358 36.6321 53.0577 36.596 53.189C36.5599 53.3203 36.5529 53.4579 36.5754 53.5922L37.5128 59.2172C37.5494 59.4359 37.6624 59.6346 37.8316 59.7779C38.0009 59.9213 38.2154 59.9999 38.4372 60H44.0622C44.284 59.9999 44.4986 59.9213 44.6678 59.7779C44.8371 59.6346 44.95 59.4359 44.9866 59.2172L45.9241 53.5922C45.9466 53.4579 45.9395 53.3203 45.9034 53.189C45.8673 53.0577 45.803 52.9358 45.7151 52.8318C45.6271 52.7279 45.5175 52.6444 45.394 52.5871C45.2704 52.5297 45.1359 52.5 44.9997 52.5H42.1872V51.1266L44.5825 49.5328C44.6882 49.4659 44.7794 49.3786 44.8507 49.276C44.9221 49.1733 44.9722 49.0575 44.9982 48.9352C45.0241 48.8129 45.0253 48.6866 45.0017 48.5638C44.9781 48.4411 44.9302 48.3242 44.8608 48.2203C44.7914 48.1163 44.7019 48.0272 44.5976 47.9583C44.4932 47.8895 44.3762 47.8421 44.2533 47.8192C44.1304 47.7962 44.0042 47.798 43.882 47.8246C43.7598 47.8511 43.6442 47.9019 43.5419 47.9738L42.1872 48.8737V46.875C42.1872 46.6264 42.0885 46.3879 41.9126 46.2121C41.7368 46.0363 41.4984 45.9375 41.2497 45.9375C41.0011 45.9375 40.7626 46.0363 40.5868 46.2121C40.411 46.3879 40.3122 46.6264 40.3122 46.875V48.8737L38.9575 47.9709C38.8553 47.899 38.7396 47.8483 38.6175 47.8218C38.4953 47.7952 38.3691 47.7934 38.2462 47.8164C38.1233 47.8393 38.0062 47.8866 37.9019 47.9555C37.7976 48.0244 37.708 48.1135 37.6386 48.2174C37.5692 48.3214 37.5213 48.4382 37.4977 48.561C37.4742 48.6838 37.4754 48.81 37.5013 48.9323C37.5272 49.0546 37.5773 49.1705 37.6487 49.2732C37.7201 49.3758 37.8113 49.4631 37.9169 49.53L40.3122 51.1266V52.5H37.4997ZM43.2682 58.125H39.2313L38.6069 54.375H43.8925L43.2682 58.125Z" fill="black"/>
</svg>
