<svg width="66" height="60" viewBox="0 0 66 60" fill="none" xmlns="http://www.w3.org/2000/svg">
<path d="M35.1087 31.6037C35.1087 31.1831 34.858 30.8028 34.4712 30.637L23.4664 25.9208C23.2019 25.8075 22.9024 25.8075 22.6379 25.9208L11.6331 30.637C11.2464 30.8028 10.9956 31.183 10.9956 31.6037V40.5021C10.9956 47.357 15.8791 52.9958 22.8715 54.2145C22.9313 54.2249 22.9916 54.2302 23.0521 54.2302C23.1125 54.2302 23.1729 54.2249 23.2327 54.2145C30.225 52.9958 35.1085 47.3571 35.1085 40.5021V31.6037H35.1087ZM33.0054 40.5021C33.0054 46.2568 28.9221 51.0054 23.0522 52.1098C17.1825 51.0055 13.099 46.257 13.099 40.5021V32.2972L23.0522 28.0316L33.0054 32.2972V40.5021ZM23.0522 34.2789C23.633 34.2789 24.1039 34.7497 24.1039 35.3305V35.4731C25.0369 35.7533 25.8119 36.4211 26.2096 37.3683C26.4346 37.9038 26.1827 38.5203 25.6471 38.7451C25.1124 38.9699 24.4952 38.7183 24.2704 38.1826C23.9489 37.4171 23.1454 37.3754 22.7216 37.4718C22.5378 37.5135 21.9402 37.6917 21.9665 38.2342C21.973 38.3656 21.9923 38.7653 23.2295 38.9685C25.2014 39.2922 26.2906 40.1929 26.467 41.6459C26.5567 42.3839 26.3562 43.0606 25.8873 43.6028C25.4674 44.0882 24.8334 44.4428 24.104 44.6165V44.7355C24.104 45.3163 23.6331 45.7872 23.0523 45.7872C22.4716 45.7872 22.0007 45.3163 22.0007 44.7355V44.598C20.8255 44.2794 19.9341 43.4345 19.648 42.2862C19.5076 41.7227 19.8506 41.1519 20.4142 41.0115C20.9782 40.8708 21.5484 41.2142 21.6889 41.7776C21.8518 42.4307 22.5641 42.6465 23.1243 42.633C23.6179 42.6213 24.0999 42.4544 24.2966 42.2268C24.361 42.1524 24.3996 42.0681 24.3793 41.8995C24.3565 41.7129 24.3035 41.2763 22.8888 41.0441C20.3525 40.6274 19.9062 39.1685 19.8659 38.3361C19.8016 37.0135 20.6501 35.8973 22.0007 35.4881V35.3306C22.0006 34.7497 22.4714 34.2789 23.0522 34.2789ZM14.5694 40.0329C14.5694 44.7104 18.3748 48.5158 23.0522 48.5158C27.7295 48.5158 31.5349 44.7104 31.5349 40.0329C31.5349 35.3555 27.7295 31.5502 23.0522 31.5502C18.3748 31.5502 14.5694 35.3555 14.5694 40.0329ZM29.4318 40.0329C29.4318 43.5507 26.5698 46.4125 23.0523 46.4125C19.5346 46.4125 16.6728 43.5506 16.6728 40.0329C16.6728 36.5153 19.5347 33.6535 23.0523 33.6535C26.5698 33.6535 29.4318 36.5153 29.4318 40.0329ZM44.7847 54.4889C44.646 54.0522 44.2405 53.7555 43.7824 53.7555H42.6027L42.6091 14.8534C42.6091 14.1612 42.5412 13.4764 42.4112 12.804C45.9557 12.9863 46.8782 10.9126 47.0927 10.1607C47.6302 8.27628 46.5266 6.08465 44.7778 5.56264L27.1415 0.297318C25.2718 -0.260974 23.3727 -0.0300066 21.65 0.96485L11.8351 6.63151L10.5889 6.29761L10.8916 5.12766C11.2123 3.88763 10.4645 2.61764 9.22439 2.29663L6.5289 1.59912C5.28914 1.27863 4.01901 2.02622 3.698 3.26624L0.0746882 17.2684C-0.0804295 17.8678 0.00777726 18.4927 0.323402 19.0284C0.638633 19.564 1.1425 19.9444 1.74194 20.0994L4.43731 20.7969C4.63173 20.8471 4.82681 20.8712 5.01887 20.8712C6.05211 20.8712 6.99793 20.1754 7.26847 19.1298L7.50443 18.218L14.3951 20.0734C15.3239 20.3235 16.3275 20.5344 17.3481 20.5344C18.4334 20.5344 19.5377 20.2958 20.5912 19.6125C20.7111 19.5347 20.8359 19.4521 20.9644 19.3657V19.4299C20.9644 21.0369 22.2719 22.3443 23.8789 22.3443C25.486 22.3443 26.7933 21.0368 26.7933 19.4299V15.5459C27.2988 15.2634 27.8145 14.9939 28.3378 14.7473C28.3806 14.7271 28.4222 14.7041 28.4617 14.6783C30.0814 13.628 30.6225 11.5451 29.6935 9.93617C29.6257 9.81865 29.5536 9.70691 29.4775 9.60096C29.7087 9.62778 29.9413 9.67326 30.1768 9.73728L35.0078 11.0516C36.1361 12.0087 36.7804 13.3825 36.7804 14.8537L36.7867 53.7555H35.6066C35.1485 53.7555 34.743 54.0522 34.6043 54.4889L33.2897 58.6302C33.1884 58.9499 33.2453 59.2987 33.4434 59.5695C33.6415 59.8402 33.9567 60 34.2921 60H45.0971C45.4324 60 45.7476 59.84 45.9457 59.5695C46.1438 59.2987 46.2008 58.9499 46.0994 58.6302L44.7847 54.4889ZM4.96418 18.7608L2.26881 18.0633C2.1977 18.0449 2.15708 17.9976 2.13565 17.9613C2.11422 17.925 2.09253 17.8666 2.11094 17.7954L5.73425 3.79325C5.75949 3.69545 5.85151 3.6288 5.94905 3.6288C5.96679 3.6288 5.98454 3.6309 6.00215 3.6355L8.69752 4.33288C8.81307 4.36285 8.88537 4.48563 8.8554 4.60091L8.29395 6.77085C8.29395 6.77098 8.29382 6.77111 8.29382 6.77125C8.29382 6.77138 8.29382 6.77164 8.29369 6.77177L5.23222 18.6029C5.20225 18.7182 5.08039 18.7905 4.96418 18.7608ZM24.6899 19.4299C24.6899 19.8771 24.326 20.241 23.8788 20.241C23.4316 20.241 23.0676 19.8771 23.0676 19.4299V17.9121C23.5813 17.5574 24.1236 17.1891 24.6899 16.8216V19.4299ZM26.1289 8.11223L25.1387 8.55799C25.1321 8.56101 25.1066 8.57311 25.1003 8.57626C23.8663 9.19292 22.751 9.86151 21.5703 10.5693C21.0357 10.8898 20.4828 11.2212 19.9178 11.5473C19.4148 11.8377 19.2424 12.4809 19.5329 12.9838C19.7276 13.3212 20.0811 13.5098 20.4447 13.5098C20.6229 13.5098 20.8038 13.4643 20.9694 13.3687C21.5493 13.0339 22.1098 12.6979 22.6517 12.3731C23.7828 11.695 24.8524 11.0545 25.9981 10.4793C26.853 10.1443 27.4833 10.3145 27.8722 10.9878C28.2376 11.621 28.0204 12.4236 27.3691 12.8788C24.9769 14.0155 22.796 15.5355 21.0404 16.7592C20.4314 17.1837 19.9056 17.5502 19.4466 17.848C18.3575 18.5545 17.0523 18.6109 14.9419 18.0425L8.0313 16.1818L10.062 8.33386L11.7115 8.77581C11.9808 8.84785 12.2679 8.81012 12.5095 8.67078L22.7016 2.7863C23.9282 2.07802 25.2197 1.91843 26.5397 2.31266L44.1761 7.57799C44.8326 7.77386 45.2921 8.80486 45.07 9.58374C44.7394 10.743 42.9395 11.0296 40.3727 10.3313L30.729 7.70774C29.183 7.28747 27.6791 7.41945 26.1289 8.11223ZM38.8837 14.8534C38.8837 13.8287 38.6626 12.8384 38.2519 11.934L39.8207 12.3609C39.9382 12.3928 40.051 12.4202 40.165 12.4486C40.3902 13.228 40.506 14.0342 40.506 14.8533L40.4995 53.7555H38.89L38.8837 14.8534ZM35.7291 57.8967L36.376 55.8588H43.013L43.6599 57.8967H35.7291ZM4.94262 16.5067C4.99823 16.9813 4.65868 17.411 4.18399 17.4666C3.70944 17.5222 3.27971 17.1825 3.2241 16.708C3.1685 16.2334 3.50818 15.8037 3.98273 15.7481C4.45729 15.6926 4.88702 16.0322 4.94262 16.5067ZM62.4889 33.2213C64.1751 31.3391 65.2028 28.8555 65.2028 26.1356C65.2028 20.2731 60.4333 15.5035 54.5707 15.5035C48.708 15.5035 43.9385 20.2731 43.9385 26.1356C43.9385 28.8555 44.9664 31.3391 46.6524 33.2213C45.1077 33.5252 43.9387 34.8893 43.9387 36.5219V38.2196C43.9387 39.1149 44.2908 39.929 44.8629 40.5323C44.2907 41.1357 43.9387 41.9497 43.9387 42.8449V44.5428C43.9387 45.438 44.2908 46.252 44.8629 46.8554C44.2907 47.4587 43.9387 48.2727 43.9387 49.1681V50.8659C43.9387 52.7209 45.4478 54.2302 47.303 54.2302H61.8385C63.6936 54.2302 65.2028 52.721 65.2028 50.8659V49.1681C65.2028 48.2728 64.8506 47.4587 64.2785 46.8554C64.8508 46.252 65.2028 45.438 65.2028 44.5428V42.8449C65.2028 41.9497 64.8506 41.1357 64.2785 40.5323C64.8508 39.929 65.2028 39.115 65.2028 38.2196V36.5219C65.2028 34.8893 64.0338 33.5252 62.4889 33.2213ZM54.5707 17.6069C59.2735 17.6069 63.0995 21.4329 63.0995 26.1357C63.0995 30.8385 59.2736 34.6644 54.5707 34.6644C49.8677 34.6644 46.0418 30.8385 46.0418 26.1357C46.0418 21.4329 49.8677 17.6069 54.5707 17.6069ZM46.042 36.522C46.042 35.8268 46.6077 35.261 47.303 35.261H49.122C50.7165 36.2167 52.5803 36.7677 54.5707 36.7677C56.561 36.7677 58.4248 36.2167 60.0194 35.261H61.8385C62.5337 35.261 63.0995 35.8268 63.0995 36.522V38.2198C63.0995 38.915 62.5337 39.4808 61.8385 39.4808H47.303C46.6077 39.4808 46.042 38.915 46.042 38.2198V36.522ZM63.0995 42.845V44.5429C63.0995 45.2382 62.5337 45.8038 61.8385 45.8038H47.303C46.6077 45.8038 46.042 45.2382 46.042 44.5429V42.845C46.042 42.1498 46.6077 41.5841 47.303 41.5841H61.8385C62.5337 41.5841 63.0995 42.1496 63.0995 42.845ZM63.0995 50.8659C63.0995 51.5612 62.5337 52.1269 61.8385 52.1269H47.303C46.6077 52.1269 46.042 51.5612 46.042 50.8659V49.1681C46.042 48.4728 46.6077 47.907 47.303 47.907H61.8385C62.5337 47.907 63.0995 48.4728 63.0995 49.1681V50.8659ZM56.4049 29.1629C56.5616 28.9817 56.6165 28.7788 56.5834 28.5049C56.5252 28.0257 56.2254 27.4371 54.4091 27.1389C51.5037 26.6619 50.8245 25.1323 50.7663 23.9332C50.6871 22.3044 51.7899 20.9386 53.519 20.5078V20.0731C53.519 19.4923 53.9899 19.0215 54.5707 19.0215C55.1514 19.0215 55.6223 19.4923 55.6223 20.0731V20.4984C56.7426 20.7646 57.8021 21.4877 58.3608 22.818C58.5857 23.3536 58.3339 23.97 57.7984 24.1948C57.2631 24.4196 56.6465 24.168 56.4216 23.6323C55.9905 22.6059 54.933 22.3428 54.0769 22.5369C53.8666 22.5846 52.8203 22.871 52.867 23.831C52.8795 24.0857 52.9122 24.7616 54.7497 25.0633C57.1427 25.4562 58.462 26.5288 58.6712 28.2514C58.7761 29.1154 58.5425 29.9063 57.9955 30.5386C57.4511 31.168 56.5994 31.6133 55.6222 31.7992V32.1979C55.6222 32.7787 55.1513 33.2496 54.5705 33.2496C53.9898 33.2496 53.5189 32.7787 53.5189 32.1979V31.7816C51.9986 31.4482 50.8358 30.4074 50.4765 28.967C50.3361 28.4035 50.6789 27.8327 51.2425 27.6921C51.8058 27.5516 52.3768 27.8946 52.5173 28.4581C52.7706 29.4743 53.831 29.8108 54.6704 29.7916C55.3977 29.7744 56.0946 29.5216 56.4049 29.1629Z" fill="black"/>
</svg>
