<svg width="60" height="60" viewBox="0 0 60 60" fill="none" xmlns="http://www.w3.org/2000/svg">
<path d="M54.588 19.6062H59.1211C59.6065 19.6062 60 19.2127 60 18.7273C60 18.2419 59.6065 17.8484 59.1211 17.8484H55.1711L56.5277 14.2304C56.9618 13.0731 57.1819 11.8595 57.1819 10.6234V7.39418H59.1211C59.6065 7.39418 60 7.00066 60 6.51527C60 6.02988 59.6065 5.63637 59.1211 5.63637H57.1801C57.1613 4.25859 56.18 3.06668 54.8809 2.85539C54.2225 2.74828 53.5571 2.87848 52.9995 3.2148C52.5893 2.5377 51.9151 2.0448 51.1234 1.91602C50.4649 1.80879 49.7998 1.9391 49.242 2.27543C48.8318 1.59832 48.1576 1.10543 47.3659 0.976641C46.7163 0.870937 46.06 0.996211 45.5068 1.3227C45.3555 1.07473 45.1644 0.849375 44.9377 0.656484C44.3203 0.131484 43.5029 -0.0941016 42.695 0.0372656C41.3832 0.250664 40.3941 1.46344 40.3941 2.85832V5.63648H34.4092C34.0988 5.07703 33.5024 4.69711 32.8185 4.69711H27.1821C26.4982 4.69711 25.9018 5.07703 25.5914 5.63648H21.5457C20.8891 5.63648 20.2404 5.56066 19.6065 5.41219V0.878906C19.6065 0.393516 19.213 0 18.7276 0C18.2422 0 17.8487 0.393516 17.8487 0.878906V4.82895L14.2305 3.47227C13.0732 3.0382 11.8596 2.81813 10.6235 2.81813H7.39418V0.878906C7.39418 0.393516 7.00066 0 6.51527 0C6.02988 0 5.63637 0.393516 5.63637 0.878906V2.81988C4.25848 2.83875 3.06668 3.81996 2.85539 5.1191C2.74816 5.77781 2.87848 6.44285 3.2148 7.00055C2.5377 7.4107 2.0448 8.085 1.91602 8.8766C1.80879 9.53531 1.9391 10.2004 2.27543 10.758C1.59832 11.1682 1.10543 11.8424 0.976641 12.6341C0.870937 13.284 0.996328 13.9402 1.3227 14.4932C1.07461 14.6445 0.849375 14.8357 0.656484 15.0625C0.131484 15.6798 -0.0942187 16.4972 0.0372656 17.3051C0.250664 18.6169 1.46344 19.6061 2.85832 19.6061H5.63648V25.5911C5.07703 25.9015 4.69711 26.4979 4.69711 27.1818V32.8181C4.69711 33.502 5.07703 34.0984 5.63648 34.4088V38.4545C5.63648 39.1111 5.56066 39.7598 5.41219 40.3937H0.878906C0.393516 40.3937 0 40.7872 0 41.2726C0 41.758 0.393516 42.1515 0.878906 42.1515H4.82895L3.47227 45.7695C3.0382 46.9268 2.81813 48.1404 2.81813 49.3765V52.6058H0.878906C0.393516 52.6058 0 52.9993 0 53.4847C0 53.9701 0.393516 54.3636 0.878906 54.3636H2.81988C2.83875 55.7415 3.81996 56.9333 5.1191 57.1446C5.77793 57.2517 6.44285 57.1215 7.00066 56.7852C7.41082 57.4623 8.085 57.9552 8.87672 58.084C9.53566 58.1911 10.2006 58.0609 10.7583 57.7246C11.1684 58.4017 11.8426 58.8946 12.6343 59.0234C13.2845 59.1291 13.9404 59.0037 14.4935 58.6773C14.6448 58.9253 14.8359 59.1506 15.0627 59.3435C15.5647 59.7704 16.1989 59.9994 16.8529 59.9994C17.0031 59.9994 17.1544 59.9873 17.3053 59.9629C18.6171 59.7495 19.6063 58.5367 19.6063 57.1418V54.3636H25.5912C25.9016 54.9231 26.498 55.303 27.1819 55.303H32.8182C33.5021 55.303 34.0985 54.9231 34.4089 54.3636H38.4546C39.1113 54.3636 39.76 54.4395 40.3938 54.5879V59.1211C40.3938 59.6065 40.7873 60 41.2727 60C41.7581 60 42.1516 59.6065 42.1516 59.1211V55.1711L45.7696 56.5277C46.927 56.9618 48.1405 57.1819 49.3766 57.1819H52.6059V59.1211C52.6059 59.6065 52.9995 60 53.4848 60C53.9702 60 54.3637 59.6065 54.3637 59.1211V57.1801C55.7416 57.1613 56.9334 56.18 57.1447 54.8809C57.252 54.2221 57.1216 53.5571 56.7853 52.9993C57.4624 52.5892 57.9553 51.915 58.0841 51.1233C58.1913 50.4645 58.061 49.7995 57.7247 49.2417C58.4018 48.8316 58.8947 48.1573 59.0235 47.3657C59.1292 46.7157 59.0038 46.0596 58.6774 45.5066C58.9255 45.3553 59.1507 45.1641 59.3436 44.9373C59.8686 44.32 60.0943 43.5026 59.9629 42.6947C59.7495 41.3829 58.5367 40.3937 57.1418 40.3937H54.3636V34.4087C54.9231 34.0983 55.303 33.5019 55.303 32.818V27.1816C55.303 26.4977 54.9231 25.9014 54.3636 25.5909V21.5453C54.3636 20.8888 54.4396 20.2402 54.588 19.6062ZM40.3937 7.39418V12.1516C40.3937 12.637 40.7872 13.0305 41.2726 13.0305C41.758 13.0305 42.1515 12.637 42.1515 12.1516V2.8582C42.1515 2.32453 42.5141 1.84746 42.9769 1.77211C43.2797 1.72289 43.5713 1.80223 43.7985 1.99547C44.0227 2.18613 44.1512 2.46398 44.1512 2.75777V5.5759C44.1512 6.06129 44.5447 6.4548 45.0301 6.4548C45.5155 6.4548 45.909 6.06129 45.909 5.5759V3.69703C45.909 3.40324 46.0376 3.12539 46.2618 2.93473C46.4889 2.74148 46.781 2.66215 47.0832 2.71148C47.5461 2.78684 47.9087 3.26379 47.9087 3.79758V6.51527C47.9087 7.00066 48.3022 7.39418 48.7876 7.39418C49.273 7.39418 49.6665 7.00066 49.6665 6.51527V4.63641C49.6665 4.34262 49.7951 4.06477 50.0193 3.8741C50.2464 3.68098 50.5384 3.60164 50.8407 3.65086C51.3036 3.72621 51.6662 4.20316 51.6662 4.73695V7.45465C51.6662 7.94004 52.0597 8.33355 52.5451 8.33355C53.0305 8.33355 53.424 7.94004 53.424 7.45465V5.5759C53.424 5.28211 53.5526 5.00426 53.7768 4.81359C54.0039 4.62035 54.2955 4.54113 54.5982 4.59035C55.0611 4.6657 55.4237 5.14277 55.4237 5.67645V10.6236C55.4237 11.6482 55.2412 12.654 54.8816 13.6134L53.2597 17.9385C52.8257 19.0957 52.6056 20.3093 52.6056 21.5455V25.3636H51.6057C51.1204 25.3636 50.7268 25.7571 50.7268 26.2425C50.7268 26.7279 51.1204 27.1214 51.6057 27.1214H53.4845C53.5179 27.1214 53.545 27.1485 53.545 27.1819V32.8182C53.545 32.8516 53.5179 32.8787 53.4845 32.8787H41.2724C41.239 32.8787 41.2119 32.8516 41.2119 32.8182V27.1819C41.2119 27.1485 41.239 27.1214 41.2724 27.1214H47.8481C48.3335 27.1214 48.727 26.7279 48.727 26.2425C48.727 25.7571 48.3335 25.3636 47.8481 25.3636H42.1513V23.4504C42.1513 21.4155 41.5547 19.445 40.4259 17.752L39.8238 16.8488C38.8883 15.4454 38.3937 13.8121 38.3937 12.1255V9.3334C38.3937 8.26406 39.2636 7.39406 40.3329 7.39406L40.3937 7.39418ZM34.4088 40.3938C34.0984 39.8344 33.502 39.4545 32.8181 39.4545H27.1818C26.4979 39.4545 25.9015 39.8344 25.5911 40.3938H20.5239C19.9218 39.206 19.6062 37.895 19.6062 36.5497V34.4089C20.1656 34.0985 20.5455 33.5021 20.5455 32.8182V27.1819C20.5455 26.498 20.1656 25.9016 19.6062 25.5912V20.524C20.794 19.9219 22.105 19.6063 23.4503 19.6063H25.5912C25.9016 20.1657 26.498 20.5457 27.1819 20.5457H32.8182C33.5021 20.5457 34.0985 20.1657 34.4089 19.6063H39.4763C40.0784 20.7941 40.3939 22.1051 40.3939 23.4504V25.5912C39.8345 25.9016 39.4546 26.498 39.4546 27.1819V32.8182C39.4546 33.5021 39.8345 34.0985 40.3939 34.4089V39.4761C39.2061 40.0782 37.8952 40.3938 36.5498 40.3938H34.4088ZM21.6384 42.1761L21.622 42.1515H25.3635V52.6058H22.8125C23.1616 52.0417 23.3637 51.3773 23.3637 50.6666V47.8745C23.3638 45.8396 22.7672 43.8693 21.6384 42.1761ZM7.39418 25.3636V22.8127C7.95832 23.1618 8.62266 23.3638 9.3334 23.3638H12.1255C14.1604 23.3638 16.1307 22.7672 17.8237 21.6384L17.8484 21.622V25.3635H7.39418V25.3636ZM38.3616 17.8239L38.378 17.8485H34.6365V7.39418H37.1875C36.8384 7.95832 36.6363 8.62266 36.6363 9.33352V12.1256C36.6362 14.1604 37.2328 16.1307 38.3616 17.8239ZM42.1515 34.6364H52.6058V37.1873C52.0417 36.8382 51.3773 36.6362 50.6666 36.6362H47.8745C45.8396 36.6362 43.8693 37.2328 42.1762 38.3616L42.1516 38.378V34.6364H42.1515ZM27.1819 6.4548H32.8182C32.8516 6.4548 32.8787 6.48188 32.8787 6.51527V18.7274C32.8787 18.7608 32.8516 18.7879 32.8182 18.7879H27.1819C27.1485 18.7879 27.1214 18.7608 27.1214 18.7274V6.51527C27.1214 6.48188 27.1485 6.4548 27.1819 6.4548ZM12.1515 19.6062C12.6369 19.6062 13.0304 19.2127 13.0304 18.7273C13.0304 18.2419 12.6369 17.8484 12.1515 17.8484H2.8582C2.32453 17.8484 1.84746 17.4858 1.77223 17.0229C1.72301 16.7203 1.80223 16.4285 1.99547 16.2014C2.18613 15.9772 2.46398 15.8487 2.75777 15.8487H5.5759C6.06129 15.8487 6.4548 15.4552 6.4548 14.9698C6.4548 14.4844 6.06129 14.0909 5.5759 14.0909H3.69703C3.40324 14.0909 3.12539 13.9623 2.93473 13.7381C2.7416 13.511 2.66227 13.2192 2.71148 12.9165C2.78684 12.4538 3.26379 12.0912 3.79746 12.0912H6.51516C7.00055 12.0912 7.39406 11.6977 7.39406 11.2123C7.39406 10.7269 7.00055 10.3334 6.51516 10.3334H4.63641C4.34262 10.3334 4.06477 10.2048 3.8741 9.98062C3.68098 9.75352 3.60164 9.46172 3.65086 9.15902C3.72621 8.69613 4.20316 8.33355 4.73684 8.33355H7.45453C7.93992 8.33355 8.33344 7.94004 8.33344 7.45465C8.33344 6.96926 7.93992 6.57574 7.45453 6.57574H5.5759C5.28211 6.57574 5.00426 6.44719 4.81359 6.22301C4.62047 5.9959 4.54113 5.7041 4.59035 5.40141C4.6657 4.93863 5.14266 4.57605 5.67633 4.57605H10.6235C11.6481 4.57605 12.654 4.75852 13.6133 5.11816L17.9385 6.74016C19.0958 7.17422 20.3093 7.39418 21.5455 7.39418H25.3636V17.8485H23.4504C21.4157 17.8485 19.4452 18.4451 17.7521 19.5738L16.8489 20.1759C15.4454 21.1116 13.8122 21.606 12.1256 21.606H9.3334C8.26406 21.606 7.39418 20.736 7.39418 19.6668V19.6063H12.1515V19.6062ZM19.6063 52.6058V47.8484C19.6063 47.363 19.2128 46.9695 18.7274 46.9695C18.242 46.9695 17.8485 47.363 17.8485 47.8484V57.1418C17.8485 57.6755 17.4859 58.1525 17.023 58.2278C16.7203 58.2771 16.4286 58.1978 16.2014 58.0045C15.9772 57.8139 15.8487 57.536 15.8487 57.2423V54.4242C15.8487 53.9388 15.4552 53.5453 14.9698 53.5453C14.4844 53.5453 14.0909 53.9388 14.0909 54.4242V56.303C14.0909 56.5968 13.9623 56.8746 13.7381 57.0653C13.511 57.2584 13.2191 57.3379 12.9165 57.2885C12.4536 57.2132 12.0912 56.7362 12.0912 56.2025V53.4848C12.0912 52.9995 11.6977 52.6059 11.2123 52.6059C10.7269 52.6059 10.3334 52.9995 10.3334 53.4848V55.3636C10.3334 55.6574 10.2048 55.9352 9.98062 56.1259C9.75352 56.319 9.46172 56.3984 9.15902 56.3491C8.69613 56.2738 8.33367 55.7968 8.33367 55.2632V52.5455C8.33367 52.0601 7.94016 51.6666 7.45477 51.6666C6.96937 51.6666 6.57586 52.0601 6.57586 52.5455V54.4242C6.57586 54.718 6.4473 54.9959 6.22313 55.1865C5.99602 55.3796 5.7041 55.4591 5.40152 55.4098C4.93863 55.3344 4.57617 54.8575 4.57617 54.3238V49.3766C4.57617 48.352 4.75863 47.3462 5.11828 46.3868L6.74016 42.0618C7.17422 40.9045 7.3943 39.6909 7.3943 38.4547V34.6366H8.39414C8.87953 34.6366 9.27305 34.2431 9.27305 33.7577C9.27305 33.2723 8.87953 32.8788 8.39414 32.8788H6.51527C6.48188 32.8788 6.4548 32.8518 6.4548 32.8184V27.182C6.4548 27.1486 6.48188 27.1215 6.51527 27.1215H18.7274C18.7608 27.1215 18.7879 27.1486 18.7879 27.182V32.8184C18.7879 32.8518 18.7608 32.8788 18.7274 32.8788H12.1516C11.6663 32.8788 11.2727 33.2723 11.2727 33.7577C11.2727 34.2431 11.6663 34.6366 12.1516 34.6366H17.8485V36.5498C17.8485 38.5847 18.4451 40.5552 19.5738 42.2482L20.1759 43.1515C21.1114 44.5548 21.6061 46.1882 21.6061 47.8747V50.6668C21.6061 51.7362 20.7362 52.6061 19.6669 52.6061H19.6063V52.6058ZM32.8181 53.5452H27.1818C27.1484 53.5452 27.1213 53.5181 27.1213 53.4847V41.2726C27.1213 41.2392 27.1484 41.2121 27.1818 41.2121H32.8181C32.8515 41.2121 32.8786 41.2392 32.8786 41.2726V53.4847C32.8786 53.5181 32.8515 53.5452 32.8181 53.5452ZM47.8485 40.3938C47.3631 40.3938 46.9696 40.7873 46.9696 41.2727C46.9696 41.7581 47.3631 42.1516 47.8485 42.1516H57.1419C57.6756 42.1516 58.1527 42.5142 58.2279 42.9771C58.2771 43.2797 58.1979 43.5715 58.0046 43.7986C57.814 44.0228 57.5361 44.1513 57.2423 44.1513H54.4242C53.9388 44.1513 53.5453 44.5448 53.5453 45.0302C53.5453 45.5156 53.9388 45.9091 54.4242 45.9091H56.303C56.5968 45.9091 56.8746 46.0377 57.0653 46.2619C57.2584 46.489 57.3377 46.7808 57.2885 47.0835C57.2132 47.5464 56.7362 47.9089 56.2025 47.9089H53.4848C52.9995 47.9089 52.6059 48.3025 52.6059 48.7879C52.6059 49.2732 52.9995 49.6668 53.4848 49.6668H55.3636C55.6574 49.6668 55.9352 49.7953 56.1259 50.0195C56.319 50.2466 56.3984 50.5384 56.3491 50.8411C56.2738 51.304 55.7968 51.6664 55.2632 51.6664H52.5455C52.0601 51.6664 51.6666 52.06 51.6666 52.5454C51.6666 53.0307 52.0601 53.4243 52.5455 53.4243H54.4242C54.718 53.4243 54.9959 53.5528 55.1865 53.777C55.3796 54.0041 55.459 54.2959 55.4098 54.5986C55.3344 55.0615 54.8575 55.4239 54.3238 55.4239H49.3766C48.3521 55.4239 47.3462 55.2415 46.3868 54.8818L42.0616 53.26C40.9044 52.8259 39.6908 52.6058 38.4546 52.6058H34.6365V42.1515H36.5497C38.5845 42.1515 40.555 41.5549 42.248 40.4262L43.1512 39.8241C44.5547 38.8884 46.1879 38.394 47.8745 38.394H50.6666C51.7359 38.394 52.6058 39.264 52.6058 40.3332V40.3937H47.8485V40.3938Z" fill="black"/>
</svg>
