<svg width="60" height="60" viewBox="0 0 60 60" fill="none" xmlns="http://www.w3.org/2000/svg">
<path d="M0.000109312 59.1599C-0.00169279 59.2707 0.0188034 59.3807 0.0603792 59.4835C0.101955 59.5862 0.163762 59.6795 0.242125 59.7579C0.320488 59.8362 0.413807 59.898 0.516534 59.9396C0.619262 59.9812 0.7293 60.0017 0.840107 59.9999H59.16C59.2708 60.0017 59.3808 59.9812 59.4835 59.9396C59.5863 59.898 59.6796 59.8362 59.758 59.7579C59.8363 59.6795 59.8981 59.5862 59.9397 59.4835C59.9813 59.3807 60.0018 59.2707 60 59.1599V55.0066C59.9979 53.4063 59.5211 51.8426 58.6298 50.5134C57.7386 49.1843 56.473 48.1494 54.9933 47.5399C55.8706 46.8846 56.5193 45.9696 56.8473 44.9249C57.1753 43.8801 57.166 42.7586 56.8207 41.7194C56.4754 40.6802 55.8117 39.7762 54.9236 39.1355C54.0356 38.4948 52.9684 38.15 51.8733 38.15C50.7783 38.15 49.711 38.4948 48.823 39.1355C47.935 39.7762 47.2712 40.6802 46.926 41.7194C46.5807 42.7586 46.5714 43.8801 46.8994 44.9249C47.2274 45.9696 47.876 46.8846 48.7533 47.5399C46.9352 48.2984 45.4545 49.6914 44.5867 51.4599C43.7154 49.6931 42.2325 48.3026 40.4134 47.5466C41.2906 46.8912 41.9393 45.9763 42.2673 44.9315C42.5953 43.8868 42.586 42.7653 42.2407 41.7261C41.8954 40.6869 41.2317 39.7828 40.3437 39.1421C39.4556 38.5014 38.3884 38.1566 37.2934 38.1566C36.1983 38.1566 35.1311 38.5014 34.243 39.1421C33.355 39.7828 32.6913 40.6869 32.346 41.7261C32.0007 42.7653 31.9914 43.8868 32.3194 44.9315C32.6474 45.9763 33.2961 46.8912 34.1734 47.5466C32.355 48.3004 30.8721 49.6886 30 51.4532C29.1288 49.6864 27.6458 48.2959 25.8267 47.5399C26.663 46.9058 27.2881 46.0338 27.6201 45.0382C27.952 44.0426 27.9754 42.9699 27.6871 41.9608C27.3988 40.9517 26.8122 40.0532 26.0044 39.3833C25.1965 38.7134 24.2051 38.3032 23.1601 38.2066V33.56H54.62C54.841 33.56 55.053 33.4722 55.2092 33.3159C55.3655 33.1596 55.4533 32.9476 55.4533 32.7266V29C55.4533 28.7789 55.3655 28.567 55.2092 28.4107C55.053 28.2544 54.841 28.1666 54.62 28.1666H53.1933C53.1964 28.1245 53.1964 28.0821 53.1933 28.04V0.840026C53.1969 0.621905 53.1141 0.411209 52.963 0.253863C52.8119 0.0965169 52.6047 0.0052762 52.3867 2.77626e-05H16.1001C15.9898 -0.000875782 15.8805 0.0202838 15.7786 0.0622615C15.6766 0.104239 15.5841 0.166187 15.5064 0.244458C15.4288 0.322729 15.3676 0.415742 15.3264 0.518023C15.2852 0.620304 15.265 0.729787 15.2667 0.840026V6.84001C14.119 6.95031 13.0274 7.38898 12.1224 8.10352C11.2175 8.81806 10.5377 9.77821 10.1642 10.8691C9.79072 11.9599 9.73948 13.1353 10.0166 14.2545C10.2937 15.3737 10.8874 16.3894 11.7267 17.18H11.4134C10.5032 17.1817 9.60232 17.3629 8.76217 17.713C7.92203 18.0631 7.15912 18.5754 6.51707 19.2205C5.87503 19.8657 5.36642 20.631 5.02034 21.4729C4.67425 22.3147 4.49747 23.2165 4.5001 24.1266V39.6333C3.95748 40.156 3.53525 40.7906 3.26278 41.493C2.99031 42.1955 2.87415 42.9488 2.92237 43.7007C2.97059 44.4526 3.18204 45.1849 3.54201 45.8468C3.90198 46.5087 4.40182 47.0842 5.00676 47.5333C3.52656 48.1439 2.26076 49.18 1.36954 50.5103C0.478327 51.8406 0.00174776 53.4053 0.000109312 55.0066V59.1599ZM51.8667 39.8266C52.5681 39.8266 53.2538 40.0346 53.8371 40.4243C54.4203 40.814 54.8749 41.3679 55.1433 42.016C55.4118 42.6641 55.482 43.3772 55.3452 44.0652C55.2083 44.7532 54.8705 45.3851 54.3745 45.8811C53.8785 46.3771 53.2466 46.7149 52.5586 46.8518C51.8706 46.9886 51.1575 46.9184 50.5094 46.6499C49.8613 46.3815 49.3074 45.9269 48.9177 45.3437C48.528 44.7604 48.32 44.0747 48.32 43.3733C48.32 42.4309 48.6944 41.5271 49.3607 40.8607C50.0271 40.1943 50.9309 39.8199 51.8733 39.8199L51.8667 39.8266ZM51.8667 48.5866C53.5706 48.5883 55.2042 49.266 56.409 50.4709C57.6139 51.6757 58.2915 53.3093 58.2933 55.0132V58.3466H45.4133V55.0132C45.416 54.1646 45.5859 53.3249 45.9135 52.5421C46.241 51.7593 46.7198 51.0487 47.3223 50.4512C47.9248 49.8536 48.6393 49.3807 49.4248 49.0596C50.2103 48.7385 51.0514 48.5755 51.9 48.5799L51.8667 48.5866ZM37.2934 39.8199C37.9948 39.8199 38.6805 40.0279 39.2638 40.4177C39.847 40.8074 40.3016 41.3613 40.57 42.0093C40.8385 42.6574 40.9087 43.3705 40.7719 44.0585C40.635 44.7465 40.2972 45.3784 39.8012 45.8745C39.3052 46.3705 38.6733 46.7083 37.9853 46.8451C37.2973 46.982 36.5842 46.9117 35.9361 46.6433C35.288 46.3748 34.7341 45.9203 34.3444 45.337C33.9547 44.7538 33.7467 44.0681 33.7467 43.3666C33.7485 42.4265 34.1227 41.5254 34.7874 40.8607C35.4522 40.1959 36.3533 39.8217 37.2934 39.8199ZM37.2934 48.5799C38.9973 48.5817 40.6309 49.2593 41.8357 50.4642C43.0406 51.669 43.7182 53.3027 43.72 55.0066V58.3399H30.8334V55.0066C30.8369 54.1574 31.0079 53.3173 31.3367 52.5344C31.6655 51.7514 32.1456 51.0411 32.7494 50.4441C33.3533 49.847 34.069 49.375 34.8556 49.0552C35.6422 48.7353 36.4842 48.5738 37.3334 48.5799H37.2934ZM29.1667 55.0066V58.3399H16.2534V55.0066C16.3073 53.3301 17.0111 51.7403 18.2161 50.5734C19.4211 49.4065 21.0327 48.7541 22.7101 48.7541C24.3874 48.7541 25.999 49.4065 27.204 50.5734C28.409 51.7403 29.1128 53.3301 29.1667 55.0066ZM26.2534 43.3666C26.2534 44.0681 26.0454 44.7538 25.6557 45.337C25.266 45.9203 24.712 46.3748 24.064 46.6433C23.4159 46.9117 22.7028 46.982 22.0148 46.8451C21.3268 46.7083 20.6949 46.3705 20.1989 45.8745C19.7028 45.3784 19.3651 44.7465 19.2282 44.0585C19.0914 43.3705 19.1616 42.6574 19.43 42.0093C19.6985 41.3613 20.1531 40.8074 20.7363 40.4177C21.3196 40.0279 22.0053 39.8199 22.7067 39.8199C23.1725 39.8199 23.6337 39.9117 24.064 40.0899C24.4943 40.2681 24.8853 40.5294 25.2146 40.8587C25.5439 41.1881 25.8052 41.579 25.9834 42.0093C26.1616 42.4396 26.2534 42.9008 26.2534 43.3666ZM53.7867 31.8933H23.1934V29.8333H53.7867V31.8933ZM51.5533 1.67336V28.04C51.5502 28.0821 51.5502 28.1245 51.5533 28.1666H23.1934V24H28.5934C28.7216 24.0015 28.8485 23.9735 28.9641 23.918C29.0798 23.8625 29.181 23.781 29.26 23.68L34.34 17.1067C34.6277 16.7448 34.8392 16.3286 34.9618 15.8829C35.0844 15.4372 35.1155 14.9714 35.0534 14.5133C34.9905 14.0551 34.8344 13.6147 34.5948 13.2191C34.3551 12.8235 34.037 12.4813 33.66 12.2133C32.924 11.7091 32.0225 11.5069 31.1416 11.6483C30.2608 11.7897 29.4679 12.2641 28.9267 12.9733L25.5534 17.1867H20.0001C20.8074 16.4227 21.3867 15.4494 21.6733 14.3755C21.9599 13.3015 21.9425 12.1691 21.6231 11.1044C21.3037 10.0397 20.6949 9.08474 19.8644 8.34589C19.034 7.60704 18.0147 7.1134 16.9201 6.92001V1.67336H51.5533ZM11.5534 12.8533C11.5534 11.9923 11.8087 11.1507 12.2871 10.4348C12.7654 9.71885 13.4453 9.16088 14.2408 8.83139C15.0363 8.50189 15.9116 8.41568 16.756 8.58366C17.6005 8.75163 18.3762 9.16624 18.985 9.77507C19.5938 10.3839 20.0084 11.1596 20.1764 12.004C20.3444 12.8485 20.2582 13.7238 19.9287 14.5193C19.5992 15.3147 19.0412 15.9946 18.3253 16.473C17.6094 16.9513 16.7677 17.2067 15.9067 17.2067C15.3323 17.2111 14.7626 17.1017 14.2306 16.8849C13.6985 16.6681 13.2147 16.3481 12.8069 15.9434C12.3991 15.5388 12.0755 15.0574 11.8546 14.527C11.6338 13.9967 11.5201 13.4278 11.5201 12.8533H11.5534ZM6.2201 24.1266C6.22185 22.7351 6.77498 21.4009 7.75835 20.4163C8.74171 19.4317 10.0752 18.8768 11.4668 18.8733H25.9534C26.0813 18.8772 26.2084 18.8509 26.3242 18.7965C26.4401 18.742 26.5414 18.661 26.62 18.56L30.24 14.0333C30.5164 13.6702 30.9182 13.4233 31.367 13.3407C31.8157 13.2581 32.2792 13.3458 32.6667 13.5867C32.8601 13.7247 33.0232 13.9009 33.146 14.1044C33.2687 14.3078 33.3485 14.5343 33.3803 14.7698C33.4122 15.0053 33.3955 15.2448 33.3312 15.4736C33.2669 15.7023 33.1565 15.9155 33.0067 16.1L28.1734 22.3533H22.3601C22.139 22.3533 21.9271 22.4411 21.7708 22.5974C21.6145 22.7537 21.5267 22.9656 21.5267 23.1866V38.2933C20.5589 38.5156 19.6749 39.0103 18.9794 39.7191C18.2838 40.4279 17.8057 41.321 17.6017 42.2928C17.3976 43.2647 17.4761 44.2747 17.8279 45.2033C18.1797 46.132 18.79 46.9405 19.5867 47.5333C17.7686 48.2917 16.2879 49.6848 15.4201 51.4532C14.5481 49.6845 13.0624 48.2935 11.2401 47.5399C11.8673 47.0742 12.3816 46.4731 12.7446 45.7813C13.1077 45.0895 13.3101 44.3248 13.337 43.544C13.3639 42.7632 13.2146 41.9864 12.9 41.2713C12.5854 40.5561 12.1138 39.9211 11.5201 39.4133V24.6666C11.5201 24.4456 11.4323 24.2337 11.276 24.0774C11.1197 23.9211 10.9078 23.8333 10.6868 23.8333C10.4657 23.8333 10.2538 23.9211 10.0975 24.0774C9.94122 24.2337 9.85342 24.4456 9.85342 24.6666V38.4533C9.29945 38.2545 8.7153 38.153 8.12676 38.1533C7.45454 38.1539 6.78886 38.2853 6.16676 38.5399L6.2201 24.1266ZM8.18009 39.8199C8.88155 39.8199 9.56726 40.0279 10.1505 40.4177C10.7338 40.8074 11.1883 41.3613 11.4568 42.0093C11.7252 42.6574 11.7954 43.3705 11.6586 44.0585C11.5218 44.7465 11.184 45.3784 10.688 45.8745C10.1919 46.3705 9.55999 46.7083 8.87201 46.8451C8.18402 46.982 7.47091 46.9117 6.82284 46.6433C6.17478 46.3748 5.62086 45.9203 5.23115 45.337C4.84144 44.7538 4.63343 44.0681 4.63343 43.3666C4.63505 42.4357 5.00194 41.5425 5.65521 40.8793C6.30848 40.216 7.19595 39.8357 8.12676 39.8199H8.18009ZM1.67344 55.0066C1.72732 53.3301 2.43118 51.7403 3.63615 50.5734C4.84113 49.4065 6.45272 48.7541 8.13009 48.7541C9.80746 48.7541 11.4191 49.4065 12.624 50.5734C13.829 51.7403 14.5329 53.3301 14.5867 55.0066V58.3399H1.67344V55.0066Z" fill="black"/>
</svg>
