<svg width="58" height="60" viewBox="0 0 58 60" fill="none" xmlns="http://www.w3.org/2000/svg">
<path d="M55.2782 27.9141H55.0886V7.02844H55.2782C55.836 7.02428 56.3696 6.79977 56.7626 6.40383C57.1556 6.00789 57.3761 5.47265 57.3761 4.91478C57.3761 4.35692 57.1556 3.82168 56.7626 3.42574C56.3696 3.02981 55.836 2.80529 55.2782 2.80113H41.0516V2.71992C41.0508 1.99891 40.764 1.30766 40.2542 0.797778C39.7445 0.287892 39.0533 0.000992427 38.3323 0L34.3491 0C33.628 0.000837402 32.9366 0.287669 32.4267 0.797572C31.9168 1.30747 31.63 1.99881 31.6291 2.71992V2.80078H17.4066C16.8487 2.80494 16.3151 3.02945 15.9221 3.42539C15.5291 3.82132 15.3086 4.35657 15.3086 4.91443C15.3086 5.4723 15.5291 6.00754 15.9221 6.40348C16.3151 6.79941 16.8487 7.02393 17.4066 7.02809H17.5928V20.1531H2.75719C2.02663 20.1535 1.32606 20.4437 0.809165 20.9599C0.292274 21.4762 0.00127226 22.1764 0 22.907V29.5153C0.00124132 30.2459 0.292233 30.9461 0.809131 31.4624C1.32603 31.9787 2.02662 32.2688 2.75719 32.2692H3.94606V42.8134C3.94702 43.7331 4.31278 44.6148 4.96309 45.2651C5.6134 45.9154 6.49513 46.2812 7.4148 46.2822H11.2322C12.1519 46.2812 13.0336 45.9154 13.6839 45.2651C14.3342 44.6148 14.7 43.7331 14.7009 42.8134V25.329H17.5936V27.9141H17.4074C16.8495 27.9182 16.3159 28.1427 15.9229 28.5387C15.5299 28.9346 15.3094 29.4699 15.3094 30.0277C15.3094 30.5856 15.5299 31.1208 15.9229 31.5168C16.3159 31.9127 16.8495 32.1372 17.4074 32.1414H34.2056L27.8694 37.5867C27.7028 37.7318 27.6004 37.937 27.5845 38.1573C27.5686 38.3777 27.6404 38.5954 27.7844 38.763C27.9284 38.9305 28.1329 39.0343 28.3531 39.0517C28.5734 39.0691 28.7916 38.9987 28.9601 38.8559L36.3407 32.5127L43.7214 38.8557C43.8896 39.0004 44.1085 39.0722 44.3297 39.0555C44.551 39.0387 44.7565 38.9348 44.9012 38.7665C45.0458 38.5982 45.1176 38.3794 45.1009 38.1581C45.0841 37.9369 44.9802 37.7313 44.8119 37.5867L38.4756 32.1414H55.2782C55.836 32.1372 56.3696 31.9127 56.7626 31.5168C57.1556 31.1208 57.3761 30.5856 57.3761 30.0277C57.3761 29.4699 57.1556 28.9346 56.7626 28.5387C56.3696 28.1427 55.836 27.9182 55.2782 27.9141ZM33.3023 2.71992C33.3027 2.44242 33.413 2.17638 33.6093 1.98016C33.8055 1.78395 34.0716 1.6736 34.3491 1.67332H38.3323C38.6098 1.6736 38.8758 1.78395 39.0721 1.98016C39.2683 2.17638 39.3787 2.44242 39.379 2.71992V2.80078H33.3023V2.71992ZM16.9664 4.91473C16.9666 4.79799 17.013 4.68607 17.0956 4.60354C17.1781 4.521 17.2901 4.47458 17.4068 4.47445H55.2782C55.3949 4.47445 55.5069 4.52084 55.5895 4.60341C55.672 4.68597 55.7184 4.79796 55.7184 4.91473C55.7184 5.03149 55.672 5.14348 55.5895 5.22605C55.5069 5.30861 55.3949 5.355 55.2782 5.355H17.4066C17.2898 5.35491 17.1779 5.30849 17.0953 5.22595C17.0127 5.14341 16.9663 5.03148 16.9662 4.91473H16.9664ZM13.8635 23.6558C13.6416 23.6559 13.4288 23.744 13.2719 23.9009C13.1151 24.0578 13.0269 24.2706 13.0269 24.4925V42.8136C13.0264 43.2896 12.8371 43.7458 12.5006 44.0824C12.164 44.4189 11.7078 44.6082 11.2318 44.6087H10.1614V33.5329C10.1614 33.311 10.0733 33.0982 9.91641 32.9413C9.75952 32.7844 9.54672 32.6963 9.32484 32.6963C9.10296 32.6963 8.89017 32.7844 8.73328 32.9413C8.57638 33.0982 8.48824 33.311 8.48824 33.5329V44.6087H7.41445C6.93851 44.6082 6.4822 44.4189 6.14565 44.0824C5.80909 43.7459 5.61979 43.2896 5.61926 42.8136V25.6847C5.61926 25.4628 5.53112 25.25 5.37422 25.0931C5.21733 24.9362 5.00454 24.8481 4.78266 24.8481C4.56078 24.8481 4.34798 24.9362 4.19109 25.0931C4.0342 25.25 3.94606 25.4628 3.94606 25.6847V30.5961H2.75719C2.47026 30.5963 2.19498 30.4826 1.99176 30.2801C1.78855 30.0775 1.67398 29.8026 1.6732 29.5157V22.9073C1.67398 22.6204 1.78855 22.3455 1.99176 22.143C2.19498 21.9404 2.47026 21.8267 2.75719 21.8269H20.4888C20.6788 21.8275 20.8607 21.9034 20.9947 22.0381C21.1287 22.1727 21.2039 22.3549 21.2037 22.5449V22.9378C21.2039 23.1278 21.1287 23.31 20.9947 23.4446C20.8607 23.5793 20.6788 23.6552 20.4888 23.6558H13.8635ZM19.2659 25.3291H20.4887C21.052 25.3279 21.5968 25.1278 22.0269 24.7642C22.4571 24.4005 22.745 23.8966 22.84 23.3414L29.4717 21.1935C29.6817 21.1242 29.8557 20.9746 29.9557 20.7774C30.0558 20.5802 30.0737 20.3514 30.0055 20.1411C29.9374 19.9307 29.7888 19.7559 29.5921 19.6548C29.3955 19.5537 29.1668 19.5345 28.9561 19.6015L22.6942 21.6298C22.5136 21.1933 22.2077 20.8201 21.8152 20.5573C21.4227 20.2945 20.9612 20.1539 20.4888 20.1532H19.266V7.0282H53.4154V27.9141H19.266L19.2659 25.3291ZM55.2776 30.4675H17.4066C17.2898 30.4675 17.1778 30.4211 17.0952 30.3385C17.0127 30.2559 16.9663 30.144 16.9663 30.0272C16.9663 29.9104 17.0127 29.7984 17.0952 29.7159C17.1778 29.6333 17.2898 29.5869 17.4066 29.5869H55.2782C55.3949 29.5869 55.5069 29.6333 55.5895 29.7159C55.672 29.7984 55.7184 29.9104 55.7184 30.0272C55.7184 30.144 55.672 30.2559 55.5895 30.3385C55.5069 30.4211 55.3949 30.4675 55.2782 30.4675H55.2776ZM50.1635 50.4463C50.8586 49.8298 51.3498 49.0165 51.5718 48.1144C51.7938 47.2122 51.7361 46.2638 51.4064 45.3952C51.0767 44.5266 50.4906 43.7788 49.7259 43.2511C48.9613 42.7234 48.0542 42.4408 47.1251 42.4408C46.196 42.4408 45.2889 42.7234 44.5242 43.2511C43.7595 43.7788 43.1734 44.5266 42.8437 45.3952C42.5141 46.2638 42.4564 47.2122 42.6784 48.1144C42.9004 49.0165 43.3915 49.8298 44.0866 50.4463C43.6187 50.6094 43.1646 50.81 42.7288 51.0461C41.7813 50.2983 40.71 49.7225 39.5636 49.3448C40.37 48.6809 40.9518 47.7841 41.2292 46.777C41.5067 45.7699 41.4663 44.7017 41.1137 43.7184C40.761 42.7351 40.1132 41.8848 39.2589 41.2836C38.4046 40.6824 37.3855 40.3598 36.3409 40.3598C35.2963 40.3598 34.2772 40.6824 33.4229 41.2836C32.5686 41.8848 31.9208 42.7351 31.5681 43.7184C31.2155 44.7017 31.1751 45.7699 31.4526 46.777C31.73 47.7841 32.3118 48.6809 33.1182 49.3448C31.9722 49.7225 30.9013 50.2984 29.9542 51.0462C29.519 50.8099 29.0655 50.6093 28.598 50.4462C29.2931 49.8297 29.7843 49.0164 30.0063 48.1142C30.2283 47.212 30.1706 46.2636 29.8409 45.395C29.5112 44.5263 28.9251 43.7785 28.1604 43.2508C27.3957 42.7231 26.4886 42.4405 25.5595 42.4405C24.6304 42.4405 23.7232 42.7231 22.9585 43.2508C22.1938 43.7785 21.6077 44.5263 21.278 45.395C20.9483 46.2636 20.8907 47.212 21.1127 48.1142C21.3347 49.0164 21.8258 49.8297 22.521 50.4462C20.7126 51.0785 19.1453 52.2569 18.0356 53.8185C16.9259 55.38 16.3285 57.2477 16.326 59.1634C16.326 59.2733 16.3477 59.3821 16.3897 59.4836C16.4318 59.5851 16.4935 59.6774 16.5712 59.7551C16.6489 59.8327 16.7412 59.8944 16.8427 59.9364C16.9442 59.9784 17.053 60 17.1629 60H55.5184C55.7403 60 55.9531 59.9118 56.11 59.7549C56.2669 59.598 56.355 59.3852 56.355 59.1633C56.3527 57.248 55.7558 55.3807 54.6468 53.8193C53.5377 52.2578 51.9712 51.0792 50.1635 50.4463ZM44.2192 47.0238C44.2192 46.449 44.3896 45.8871 44.709 45.4092C45.0283 44.9313 45.4822 44.5588 46.0133 44.3388C46.5443 44.1188 47.1287 44.0613 47.6924 44.1734C48.2562 44.2856 48.774 44.5624 49.1805 44.9688C49.5869 45.3752 49.8637 45.8931 49.9758 46.4568C50.088 47.0206 50.0304 47.605 49.8105 48.136C49.5905 48.667 49.218 49.1209 48.7401 49.4403C48.2621 49.7596 47.7002 49.9301 47.1254 49.9301C46.3549 49.9292 45.6162 49.6228 45.0713 49.0779C44.5265 48.5331 44.22 47.7944 44.2192 47.0238ZM32.9434 45.4352C32.9427 44.7631 33.1414 44.1059 33.5143 43.5468C33.8872 42.9876 34.4175 42.5516 35.0382 42.2939C35.659 42.0363 36.3422 41.9685 37.0015 42.0992C37.6607 42.2299 38.2664 42.5532 38.7419 43.0282C39.2174 43.5032 39.5413 44.1086 39.6726 44.7677C39.804 45.4268 39.7369 46.1101 39.4799 46.7311C39.2228 47.3521 38.7873 47.8829 38.2285 48.2564C37.6698 48.6298 37.0128 48.8291 36.3407 48.8291C35.4406 48.8281 34.5776 48.4703 33.9408 47.8341C33.304 47.198 32.9453 46.3353 32.9434 45.4352ZM22.6532 47.0238C22.6532 46.449 22.8236 45.8871 23.143 45.4092C23.4623 44.9313 23.9162 44.5588 24.4472 44.3388C24.9783 44.1188 25.5626 44.0613 26.1264 44.1734C26.6902 44.2856 27.208 44.5624 27.6144 44.9688C28.0209 45.3752 28.2977 45.8931 28.4098 46.4568C28.522 47.0206 28.4644 47.605 28.2444 48.136C28.0245 48.667 27.652 49.1209 27.174 49.4403C26.6961 49.7596 26.1342 49.9301 25.5594 49.9301C24.7889 49.9292 24.0502 49.6227 23.5053 49.0779C22.9605 48.5331 22.654 47.7943 22.6532 47.0238ZM25.5594 51.6033C26.6263 51.6026 27.6812 51.8288 28.654 52.2668C27.1428 53.9458 26.2257 56.0751 26.0439 58.3267H18.0452C18.2534 56.4788 19.1344 54.7721 20.5202 53.5321C21.9061 52.2921 23.6998 51.6055 25.5594 51.6033ZM27.7233 58.3267C27.931 56.1848 28.9288 54.1969 30.5222 52.7505C32.1156 51.3042 34.1905 50.5029 36.3424 50.5029C38.4944 50.5029 40.5693 51.3042 42.1627 52.7505C43.7561 54.1969 44.7539 56.1848 44.9616 58.3267H27.7233ZM46.6409 58.3267C46.459 56.0749 45.5415 53.9455 44.0298 52.2667C45.1161 51.7787 46.3024 51.5544 47.4919 51.6121C48.6814 51.6698 49.8405 52.0079 50.8745 52.5987C51.9085 53.1895 52.7882 54.0163 53.442 55.0117C54.0957 56.0072 54.5048 57.143 54.6361 58.3267H46.6409ZM9.32484 19.2899C10.2834 19.2892 11.2202 19.0044 12.0169 18.4714C12.8135 17.9384 13.4343 17.1811 13.8007 16.2954C14.167 15.4096 14.2625 14.4351 14.0751 13.4951C13.8877 12.5551 13.4258 11.6917 12.7478 11.0141C12.0698 10.3366 11.2061 9.87529 10.2659 9.68855C9.32574 9.5018 8.35132 9.598 7.46582 9.96498C6.58032 10.332 5.8235 10.9532 5.29105 11.7503C4.75861 12.5473 4.47443 13.4844 4.47445 14.4429C4.47594 15.7285 4.98755 16.961 5.89695 17.8698C6.80635 18.7785 8.03921 19.2893 9.32484 19.2899ZM9.32484 11.2691C9.9524 11.2698 10.5657 11.4566 11.0871 11.8058C11.6085 12.155 12.0147 12.6509 12.2544 13.2309C12.494 13.8109 12.5563 14.449 12.4334 15.0644C12.3106 15.6798 12.008 16.2449 11.564 16.6884C11.12 17.1319 10.5544 17.4338 9.93889 17.556C9.32334 17.6781 8.68539 17.6151 8.10567 17.3747C7.52596 17.1344 7.0305 16.7276 6.68193 16.2058C6.33335 15.6839 6.1473 15.0704 6.1473 14.4429C6.14827 13.6008 6.48347 12.7935 7.07928 12.1984C7.67508 11.6033 8.48275 11.2691 9.32484 11.2691ZM25.7293 9.03012C25.1217 9.03009 24.5277 9.21026 24.0225 9.54782C23.5173 9.88538 23.1235 10.3652 22.8909 10.9265C22.6584 11.4879 22.5975 12.1056 22.716 12.7016C22.8346 13.2975 23.1272 13.845 23.5568 14.2746C23.9865 14.7043 24.5339 14.9969 25.1298 15.1155C25.7258 15.234 26.3435 15.1732 26.9049 14.9406C27.4662 14.7081 27.9461 14.3144 28.2836 13.8091C28.6212 13.3039 28.8014 12.7099 28.8014 12.1023C28.8005 11.2878 28.4765 10.507 27.9006 9.93101C27.3247 9.35507 26.5438 9.03108 25.7293 9.03012ZM25.7293 13.5012C25.4527 13.5012 25.1822 13.4191 24.9522 13.2654C24.7221 13.1117 24.5428 12.8932 24.437 12.6376C24.3311 12.382 24.3034 12.1008 24.3573 11.8294C24.4113 11.558 24.5446 11.3088 24.7402 11.1132C24.9358 10.9175 25.1851 10.7843 25.4564 10.7303C25.7278 10.6763 26.0091 10.704 26.2647 10.8099C26.5203 10.9158 26.7387 11.0951 26.8925 11.3251C27.0462 11.5552 27.1282 11.8256 27.1282 12.1023C27.1278 12.4732 26.9802 12.8287 26.718 13.091C26.4558 13.3532 26.1002 13.5007 25.7293 13.5012ZM46.9566 19.7673C46.3489 19.7672 45.7548 19.9472 45.2495 20.2847C44.7442 20.6222 44.3503 21.102 44.1176 21.6633C43.885 22.2247 43.824 22.8425 43.9425 23.4385C44.0609 24.0345 44.3535 24.582 44.7831 25.0117C45.2127 25.4415 45.7601 25.7342 46.3561 25.8528C46.9521 25.9714 47.5698 25.9107 48.1313 25.6782C48.6927 25.4457 49.1726 25.052 49.5102 24.5467C49.8479 24.0415 50.0281 23.4475 50.0282 22.8398C50.0269 22.0254 49.7028 21.2447 49.127 20.6688C48.5511 20.0928 47.7704 19.7687 46.956 19.7673H46.9566ZM46.9566 24.2385C46.6799 24.2386 46.4094 24.1566 46.1792 24.0029C45.9491 23.8493 45.7698 23.6308 45.6638 23.3752C45.5579 23.1196 45.5301 22.8383 45.5841 22.5669C45.638 22.2955 45.7712 22.0462 45.9669 21.8505C46.1625 21.6549 46.4118 21.5216 46.6832 21.4676C46.9545 21.4136 47.2358 21.4413 47.4915 21.5472C47.7471 21.6531 47.9656 21.8325 48.1193 22.0626C48.273 22.2926 48.355 22.5631 48.355 22.8398C48.354 23.2106 48.2063 23.5658 47.9442 23.8279C47.682 24.09 47.3267 24.2376 46.956 24.2385H46.9566ZM42.772 21.8947C42.8522 21.986 42.9115 22.0936 42.9459 22.2101C42.9802 22.3266 42.9888 22.4492 42.971 22.5693C42.9532 22.6895 42.9095 22.8043 42.8429 22.9058C42.7762 23.0074 42.6883 23.0932 42.5851 23.1573L40.007 24.7595C39.9137 24.8182 39.8097 24.8578 39.701 24.8762C39.5923 24.8946 39.481 24.8913 39.3736 24.8665C39.2662 24.8417 39.1647 24.7959 39.075 24.7318C38.9853 24.6677 38.9092 24.5865 38.851 24.4929C38.7929 24.3992 38.7537 24.295 38.736 24.1862C38.7182 24.0774 38.7221 23.9662 38.7474 23.8589C38.7728 23.7516 38.8191 23.6504 38.8837 23.5611C38.9483 23.4717 39.0299 23.396 39.1239 23.3384L39.7215 22.9669C34.8953 22.0984 31.0407 19.9123 28.2489 16.4555C28.1094 16.2829 28.0443 16.0619 28.0678 15.8413C28.0912 15.6206 28.2014 15.4183 28.374 15.2789C28.5466 15.1395 28.7676 15.0743 28.9882 15.0978C29.2089 15.1213 29.4112 15.2314 29.5506 15.4041C32.1245 18.5907 35.5677 20.5363 40.0461 21.3266L39.5096 20.7158C39.3632 20.5491 39.289 20.3311 39.3034 20.1096C39.3177 19.8882 39.4195 19.6816 39.5862 19.5352C39.7529 19.3887 39.9709 19.3145 40.1924 19.3289C40.4138 19.3432 40.6204 19.445 40.7668 19.6117L42.772 21.8947ZM31.6884 13.2993L32.8853 12.1024L31.6878 10.9056C31.5309 10.7486 31.4427 10.5358 31.4427 10.3138C31.4427 10.0918 31.5309 9.87895 31.6878 9.72199C31.8448 9.56504 32.0577 9.47686 32.2796 9.47686C32.5016 9.47686 32.7145 9.56504 32.8714 9.72199L34.0684 10.9188L35.2652 9.72199C35.3429 9.64428 35.4352 9.58263 35.5368 9.54057C35.6383 9.49851 35.7471 9.47686 35.857 9.47686C35.9669 9.47686 36.0758 9.49851 36.1773 9.54057C36.2789 9.58263 36.3711 9.64428 36.4488 9.72199C36.5265 9.79971 36.5882 9.89197 36.6302 9.99351C36.6723 10.0951 36.694 10.2039 36.694 10.3138C36.694 10.4237 36.6723 10.5325 36.6302 10.6341C36.5882 10.7356 36.5265 10.8279 36.4488 10.9056L35.252 12.1023L36.4488 13.2991C36.5265 13.3769 36.5882 13.4691 36.6302 13.5707C36.6723 13.6722 36.694 13.781 36.694 13.8909C36.694 14.0008 36.6723 14.1097 36.6302 14.2112C36.5882 14.3128 36.5265 14.405 36.4488 14.4827C36.3711 14.5605 36.2789 14.6221 36.1773 14.6642C36.0758 14.7062 35.9669 14.7279 35.857 14.7279C35.7471 14.7279 35.6383 14.7062 35.5368 14.6642C35.4352 14.6221 35.3429 14.5605 35.2652 14.4827L34.0684 13.2858L32.8714 14.4827C32.7145 14.6397 32.5016 14.7279 32.2796 14.7279C32.0577 14.7279 31.8448 14.6397 31.6878 14.4827C31.5309 14.3258 31.4427 14.1129 31.4427 13.8909C31.4427 13.669 31.5309 13.4561 31.6878 13.2991L31.6884 13.2993ZM44.3002 14.4821C44.2225 14.5599 44.1302 14.6216 44.0287 14.6637C43.9271 14.7058 43.8183 14.7275 43.7084 14.7275C43.5984 14.7275 43.4896 14.7058 43.388 14.6637C43.2865 14.6216 43.1942 14.5599 43.1166 14.4821L41.9177 13.2844L40.7189 14.4821C40.5614 14.6362 40.3494 14.7219 40.1291 14.7207C39.9088 14.7194 39.6978 14.6312 39.5421 14.4754C39.3864 14.3195 39.2984 14.1085 39.2973 13.8881C39.2963 13.6678 39.3822 13.4559 39.5364 13.2986L40.734 12.102L39.5364 10.9055C39.3822 10.7481 39.2963 10.5362 39.2973 10.3159C39.2984 10.0955 39.3864 9.88452 39.5421 9.72865C39.6978 9.57278 39.9088 9.48463 40.1291 9.48337C40.3494 9.4821 40.5614 9.5678 40.7189 9.72188L41.9177 10.9195L43.1166 9.72188C43.194 9.64287 43.2863 9.58 43.3882 9.5369C43.49 9.4938 43.5994 9.47134 43.71 9.4708C43.8207 9.47026 43.9303 9.49166 44.0326 9.53377C44.1348 9.57587 44.2278 9.63784 44.3059 9.71609C44.3841 9.79434 44.446 9.88731 44.488 9.98964C44.53 10.092 44.5513 10.2016 44.5507 10.3122C44.5501 10.4228 44.5275 10.5322 44.4843 10.634C44.4411 10.7359 44.3782 10.8281 44.2991 10.9055L43.1014 12.102L44.2991 13.2986C44.3769 13.3762 44.4386 13.4684 44.4807 13.5699C44.5228 13.6715 44.5445 13.7803 44.5446 13.8902C44.5446 14.0001 44.523 14.1089 44.481 14.2105C44.4389 14.312 44.3773 14.4043 44.2996 14.482L44.3002 14.4821Z" fill="black"/>
</svg>
