<svg width="60" height="60" viewBox="0 0 60 60" fill="none" xmlns="http://www.w3.org/2000/svg">
<path d="M0.000546819 57C0.000546819 57.7956 0.316617 58.5587 0.879226 59.1213C1.44184 59.6839 2.2049 60 3.00055 60H57.0005C57.7962 60 58.5593 59.6839 59.1219 59.1213C59.6845 58.5587 60.0005 57.7956 60.0005 57C60.0005 51.748 44.9085 49 30.0005 49C28.6315 49 27.2625 49.024 25.9005 49.07C25.0204 45.9017 23.75 42.855 22.1185 40H57.0005C57.7962 40 58.5593 39.6839 59.1219 39.1213C59.6845 38.5587 60.0005 37.7956 60.0005 37V11C60.0005 10.2044 59.6845 9.44129 59.1219 8.87868C58.5593 8.31607 57.7962 8 57.0005 8H49.0005V6C48.999 4.40919 48.3663 2.88399 47.2414 1.75911C46.1166 0.63424 44.5914 0.00158843 43.0005 0L35.0005 0C33.4097 0.00158843 31.8845 0.63424 30.7597 1.75911C29.6348 2.88399 29.0021 4.40919 29.0005 6V8H21.0005C20.2049 8 19.4418 8.31607 18.8792 8.87868C18.3166 9.44129 18.0005 10.2044 18.0005 11V23.46C16.91 23.2701 15.7926 23.2973 14.7125 23.54C14.7721 22.9027 15.0585 22.308 15.5195 21.864C15.7392 21.6597 15.8959 21.3969 15.971 21.1065C16.0462 20.816 16.0366 20.5102 15.9435 20.225C15.8521 19.9335 15.6791 19.6742 15.4451 19.4778C15.211 19.2815 14.9255 19.1563 14.6225 19.117C8.72255 18.296 6.79555 21.933 6.24355 23.517C2.38355 24.4 0.118547 28.049 0.000546819 33.657C-0.00807628 33.986 0.085469 34.3096 0.26831 34.5832C0.451151 34.8568 0.7143 35.0671 1.02155 35.185C1.32604 35.3073 1.66107 35.3317 1.98008 35.2548C2.29908 35.178 2.58621 35.0036 2.80155 34.756C3.2995 34.1815 3.8521 33.6567 4.45155 33.189C4.10149 35.1383 4.1042 37.1346 4.45955 39.083C4.51647 39.4306 4.6881 39.7491 4.94708 39.9878C5.20606 40.2265 5.5375 40.3716 5.88855 40.4C5.93855 40.4 5.98855 40.407 6.04055 40.407C6.36868 40.4084 6.68916 40.3079 6.95782 40.1195C7.22647 39.9311 7.43007 39.664 7.54055 39.355C8.10303 37.7691 9.16082 36.4063 10.5575 35.468C12.7807 40.0923 14.5697 44.9129 15.9015 49.868C6.86355 51.058 0.000546819 53.459 0.000546819 57ZM58.0005 57C58.0005 57.2652 57.8952 57.5196 57.7077 57.7071C57.5201 57.8946 57.2658 58 57.0005 58H3.00055C2.73533 58 2.48098 57.8946 2.29344 57.7071C2.1059 57.5196 2.00055 57.2652 2.00055 57C2.00055 54.494 12.6525 51 30.0005 51C47.3485 51 58.0005 54.494 58.0005 57ZM57.0005 38H20.8795C20.5865 37.566 20.2925 37.156 20.0005 36.765V29.992C20.3084 30.02 20.6145 30.0647 20.9175 30.126C21.1841 30.1793 21.4599 30.1638 21.7188 30.081C21.9777 29.9981 22.2113 29.8507 22.3974 29.6525C22.5835 29.4544 22.7161 29.2121 22.7826 28.9485C22.8491 28.6849 22.8474 28.4087 22.7775 28.146C22.3741 26.5314 21.3842 25.1248 20.0005 24.2V22.816C20.3208 22.9344 20.6591 22.9967 21.0005 23H33.0005V24C33.0005 25.0609 33.422 26.0783 34.1721 26.8284C34.9223 27.5786 35.9397 28 37.0005 28H41.0005C42.0614 28 43.0788 27.5786 43.829 26.8284C44.5791 26.0783 45.0005 25.0609 45.0005 24V23H57.0005C57.342 22.9967 57.6803 22.9344 58.0005 22.816V37C58.0005 37.2652 57.8952 37.5196 57.7077 37.7071C57.5201 37.8946 57.2658 38 57.0005 38ZM18.0005 34.363C17.1271 33.4101 16.1813 32.5261 15.1715 31.719C15.922 30.8968 16.9115 30.3306 18.0005 30.1V34.363ZM35.0005 23H43.0005V24C43.0005 24.5304 42.7898 25.0391 42.4148 25.4142C42.0397 25.7893 41.531 26 41.0005 26H37.0005C36.4701 26 35.9614 25.7893 35.5863 25.4142C35.2113 25.0391 35.0005 24.5304 35.0005 24V23ZM31.0005 6C31.0005 4.93913 31.422 3.92172 32.1721 3.17157C32.9223 2.42143 33.9397 2 35.0005 2H43.0005C44.0614 2 45.0788 2.42143 45.829 3.17157C46.5791 3.92172 47.0005 4.93913 47.0005 6V8H45.0005V6C45.0005 5.46957 44.7898 4.96086 44.4148 4.58579C44.0397 4.21071 43.531 4 43.0005 4H35.0005C34.4701 4 33.9614 4.21071 33.5863 4.58579C33.2113 4.96086 33.0005 5.46957 33.0005 6V8H31.0005V6ZM43.0005 8H35.0005V6H43.0005V8ZM20.0005 11C20.0005 10.7348 20.1059 10.4804 20.2934 10.2929C20.481 10.1054 20.7353 10 21.0005 10H57.0005C57.2658 10 57.5201 10.1054 57.7077 10.2929C57.8952 10.4804 58.0005 10.7348 58.0005 11V20C58.0005 20.2652 57.8952 20.5196 57.7077 20.7071C57.5201 20.8946 57.2658 21 57.0005 21H21.0005C20.7353 21 20.481 20.8946 20.2934 20.7071C20.1059 20.5196 20.0005 20.2652 20.0005 20V11ZM6.24855 37.353C6.041 35.4484 6.28492 33.5218 6.96055 31.729C7.02234 31.5772 7.04587 31.4125 7.02906 31.2495C7.01225 31.0864 6.95562 30.93 6.86415 30.794C6.77268 30.6579 6.64918 30.5465 6.50452 30.4694C6.35985 30.3924 6.19846 30.352 6.03455 30.352C5.73455 30.352 4.24055 30.472 2.05455 32.636C2.28355 29.784 3.31855 25.926 7.17355 25.377C7.38211 25.3458 7.57571 25.2502 7.72723 25.1035C7.87875 24.9568 7.98061 24.7664 8.01855 24.559C8.09355 24.146 8.88055 20.692 13.6045 21.021C13.2092 21.5893 12.9299 22.23 12.7827 22.9065C12.6354 23.5829 12.6232 24.2818 12.7465 24.963C12.7653 25.1088 12.8159 25.2486 12.8948 25.3726C12.9737 25.4965 13.0789 25.6016 13.203 25.6803C13.3272 25.759 13.4671 25.8093 13.6129 25.8278C13.7587 25.8462 13.9067 25.8323 14.0465 25.787C16.0265 25.155 17.6255 25.159 18.7965 25.797C19.6638 26.3033 20.3214 27.1032 20.6505 28.052C18.9599 27.7465 17.2156 28.018 15.6977 28.8228C14.1798 29.6276 12.9764 30.9191 12.2805 32.49C10.9991 32.8519 9.80419 33.4693 8.76757 34.3051C7.73095 35.1408 6.8741 36.1775 6.24855 37.353ZM12.3485 34.566C12.6223 34.4662 12.9031 34.3866 13.1885 34.328C13.3676 34.2982 13.5353 34.2201 13.6734 34.1023C13.8115 33.9844 13.9149 33.8312 13.9725 33.659C13.9805 33.635 14.0135 33.54 14.0725 33.398C16.6365 35.462 21.1905 40.198 23.8465 49.159C21.8155 49.264 19.8215 49.419 17.9055 49.627C16.5347 44.4413 14.6726 39.3982 12.3445 34.566H12.3485Z" fill="black"/>
</svg>
