<svg width="48" height="50" viewBox="0 0 48 50" fill="none" xmlns="http://www.w3.org/2000/svg">
<path d="M46.463 48.0557H0.972284C0.437528 48.0557 0 48.4932 0 49.0279C0 49.5627 0.437528 50.0002 0.972284 50.0002H46.463C46.9978 50.0002 47.4353 49.5627 47.4353 49.0279C47.4353 48.4932 46.9978 48.0557 46.463 48.0557Z" fill="#666666"/>
<path d="M2.07824 34.0303C1.54348 34.0303 1.10596 34.4678 1.10596 35.0026V44.9928C1.10596 45.5275 1.54348 45.9651 2.07824 45.9651H8.95715C9.49191 45.9651 9.92944 45.5275 9.92944 44.9928V35.0026C9.92944 34.4678 9.49191 34.0303 8.95715 34.0303H2.07824ZM7.98487 44.0326H3.05053V35.987H7.98487V44.0326Z" fill="#666666"/>
<path d="M13.6605 30.7002C13.1258 30.7002 12.6882 31.1377 12.6882 31.6725V44.9928C12.6882 45.5275 13.1258 45.9651 13.6605 45.9651H20.5394C21.0742 45.9651 21.5117 45.5275 21.5117 44.9928V31.6725C21.5117 31.1377 21.0742 30.7002 20.5394 30.7002H13.6605ZM19.5671 44.0326H14.6328V32.6569H19.5671V44.0326Z" fill="#666666"/>
<path d="M25.7169 25.3281C25.1822 25.3281 24.7446 25.7657 24.7446 26.3004V45.0047C24.7446 45.5395 25.1822 45.977 25.7169 45.977H32.5958C33.1306 45.977 33.5681 45.5395 33.5681 45.0047V26.3004C33.5681 25.7657 33.1306 25.3281 32.5958 25.3281H25.7169ZM31.6235 44.0324H26.6892V27.2727H31.6235V44.0324Z" fill="#666666"/>
<path d="M37.1655 15.1315V45.0049C37.1655 45.5397 37.6031 45.9772 38.1378 45.9772H45.0167C45.5515 45.9772 45.989 45.5397 45.989 45.0049V15.1315C45.989 14.5967 45.5515 14.1592 45.0167 14.1592H38.1378C37.6031 14.1592 37.1655 14.5846 37.1655 15.1315ZM39.1101 16.1037H44.0444V44.0326H39.1101V16.1037Z" fill="#666666"/>
<path d="M1.89591 30.5543H1.95668L2.91681 30.4935C11.4 29.9466 19.555 27.0662 26.5069 22.1805C33.1792 17.4892 38.4781 11.1329 41.8933 3.74358L43.06 6.81843C43.2058 7.20734 43.5826 7.45041 43.9715 7.45041C44.0809 7.45041 44.2024 7.42611 44.3118 7.38965C44.8101 7.19519 45.0653 6.63613 44.8709 6.13783L42.8048 0.63227C42.7075 0.389199 42.5252 0.194742 42.2943 0.0853603C42.0634 -0.0240217 41.796 -0.0240213 41.553 0.0610535L36.0474 2.15146C35.5491 2.34592 35.2939 2.90498 35.4883 3.40328C35.6828 3.90158 36.2419 4.1568 36.7401 3.96234L40.2768 2.6133C37.0075 9.82036 31.8787 16.0187 25.4009 20.5763C18.7407 25.2554 10.926 28.0142 2.79527 28.5368L1.83514 28.5976C1.30039 28.6341 0.887166 29.0959 0.923626 29.6306C0.960087 30.1532 1.39761 30.5543 1.89591 30.5543Z" fill="#666666"/>
</svg>
