<svg width="50" height="50" viewBox="0 0 50 50" fill="none" xmlns="http://www.w3.org/2000/svg">
<path d="M20.9678 34.6777H22.5807V36.2906H20.9678V34.6777Z" fill="#666666"/>
<path d="M27.4194 34.6777H29.0323V36.2906H27.4194V34.6777Z" fill="#666666"/>
<path d="M24.1936 34.6777H25.8065V36.2906H24.1936V34.6777Z" fill="#666666"/>
<path d="M20.9678 31.4512H22.5807V33.0641H20.9678V31.4512Z" fill="#666666"/>
<path d="M27.4194 31.4512H29.0323V33.0641H27.4194V31.4512Z" fill="#666666"/>
<path d="M24.1936 31.4512H25.8065V33.0641H24.1936V31.4512Z" fill="#666666"/>
<path d="M24.1936 37.9033H25.8065V39.5162H24.1936V37.9033Z" fill="#666666"/>
<path d="M24.1936 41.1289H25.8065V42.7418H24.1936V41.1289Z" fill="#666666"/>
<path d="M20.9678 37.9033H22.5807V39.5162H20.9678V37.9033Z" fill="#666666"/>
<path d="M27.4194 37.9033H29.0323V39.5162H27.4194V37.9033Z" fill="#666666"/>
<path d="M20.9678 41.1289H22.5807V42.7418H20.9678V41.1289Z" fill="#666666"/>
<path d="M27.4194 41.1289H29.0323V42.7418H27.4194V41.1289Z" fill="#666666"/>
<path d="M37.9033 35.4837H32.2581V29.032C32.2581 28.8182 32.1732 28.613 32.0219 28.4618C31.8707 28.3106 31.6656 28.2256 31.4517 28.2256H18.5485C18.3346 28.2256 18.1294 28.3106 17.9782 28.4618C17.827 28.613 17.742 28.8182 17.742 29.032V35.4837H12.0968C11.883 35.4837 11.6778 35.5686 11.5266 35.7199C11.3754 35.8711 11.2904 36.0762 11.2904 36.2901V48.3869H9.67749V49.9998H40.3227V48.3869H38.7097V36.2901C38.7097 36.0762 38.6248 35.8711 38.4735 35.7199C38.3223 35.5686 38.1172 35.4837 37.9033 35.4837ZM37.0968 37.0966V48.3869H32.2581V37.0966H37.0968ZM30.6452 29.8385V48.3869H28.2259V45.9675H29.0323V44.3546H20.9678V45.9675H21.7743V48.3869H19.3549V29.8385H30.6452ZM26.613 45.9675V48.3869H23.3872V45.9675H26.613ZM12.9033 37.0966H17.742V48.3869H12.9033V37.0966Z" fill="#666666"/>
<path d="M33.8708 38.71H35.4838V40.3229H33.8708V38.71Z" fill="#666666"/>
<path d="M33.8708 41.9355H35.4838V43.5485H33.8708V41.9355Z" fill="#666666"/>
<path d="M33.8708 45.1611H35.4838V46.774H33.8708V45.1611Z" fill="#666666"/>
<path d="M14.5161 38.71H16.129V40.3229H14.5161V38.71Z" fill="#666666"/>
<path d="M14.5161 41.9355H16.129V43.5485H14.5161V41.9355Z" fill="#666666"/>
<path d="M14.5161 45.1611H16.129V46.774H14.5161V45.1611Z" fill="#666666"/>
<path d="M37.0967 2.41895H38.7096V4.03185H37.0967V2.41895Z" fill="#666666"/>
<path d="M39.5161 2.41895H41.129V4.03185H39.5161V2.41895Z" fill="#666666"/>
<path d="M41.9355 2.41895H43.5485V4.03185H41.9355V2.41895Z" fill="#666666"/>
<path d="M37.0967 5.64551H38.7096V7.25841H37.0967V5.64551Z" fill="#666666"/>
<path d="M39.5161 5.64551H41.129V7.25841H39.5161V5.64551Z" fill="#666666"/>
<path d="M41.9355 5.64551H43.5485V7.25841H41.9355V5.64551Z" fill="#666666"/>
<path d="M37.0967 8.87109H38.7096V10.484H37.0967V8.87109Z" fill="#666666"/>
<path d="M39.5161 8.87109H41.129V10.484H39.5161V8.87109Z" fill="#666666"/>
<path d="M41.9355 8.87109H43.5485V10.484H41.9355V8.87109Z" fill="#666666"/>
<path d="M45.9678 11.3682V1.6129C45.9674 1.18527 45.7973 0.775266 45.495 0.47288C45.1926 0.170494 44.7826 0.000426997 44.3549 0H36.2904C35.8628 0.000426997 35.4528 0.170494 35.1504 0.47288C34.848 0.775266 34.6779 1.18527 34.6775 1.6129V11.3682C32.1487 12.2508 30.6453 13.699 30.6453 15.3226C30.6453 18.081 34.8055 20.1613 40.3227 20.1613C45.8399 20.1613 50.0001 18.081 50.0001 15.3226C50.0001 13.699 48.4966 12.2508 45.9678 11.3682ZM36.2904 1.6129H44.3549V14.5161H42.742V12.9032H43.5485V11.2903H37.0969V12.9032H37.9033V14.5161H36.2904V1.6129ZM41.1291 12.9032V14.5161H39.5162V12.9032H41.1291ZM40.3227 18.5484C35.7069 18.5484 32.2582 16.8453 32.2582 15.3226C32.2582 14.5312 33.1849 13.7027 34.6775 13.087V15.3226C34.6775 15.5365 34.7625 15.7416 34.9137 15.8928C35.065 16.0441 35.2701 16.129 35.484 16.129H45.1614C45.3753 16.129 45.5804 16.0441 45.7316 15.8928C45.8829 15.7416 45.9678 15.5365 45.9678 15.3226V13.087C47.4604 13.7027 48.3872 14.5312 48.3872 15.3226C48.3872 16.8453 44.9385 18.5484 40.3227 18.5484Z" fill="#666666"/>
<path d="M6.45166 2.41895H8.06456V4.03185H6.45166V2.41895Z" fill="#666666"/>
<path d="M8.87085 2.41895H10.4838V4.03185H8.87085V2.41895Z" fill="#666666"/>
<path d="M11.2903 2.41895H12.9032V4.03185H11.2903V2.41895Z" fill="#666666"/>
<path d="M6.45166 5.64551H8.06456V7.25841H6.45166V5.64551Z" fill="#666666"/>
<path d="M8.87085 5.64551H10.4838V7.25841H8.87085V5.64551Z" fill="#666666"/>
<path d="M11.2903 5.64551H12.9032V7.25841H11.2903V5.64551Z" fill="#666666"/>
<path d="M6.45166 8.87109H8.06456V10.484H6.45166V8.87109Z" fill="#666666"/>
<path d="M8.87085 8.87109H10.4838V10.484H8.87085V8.87109Z" fill="#666666"/>
<path d="M11.2903 8.87109H12.9032V10.484H11.2903V8.87109Z" fill="#666666"/>
<path d="M9.67742 20.1613C15.1946 20.1613 19.3548 18.081 19.3548 15.3226C19.3548 13.699 17.8514 12.2508 15.3226 11.3682V1.6129C15.3222 1.18527 15.1521 0.775266 14.8497 0.47288C14.5473 0.170494 14.1373 0.000426997 13.7097 0H5.64516C5.21752 0.000426997 4.80752 0.170494 4.50514 0.47288C4.20275 0.775266 4.03269 1.18527 4.03226 1.6129V11.3682C1.50348 12.2508 0 13.699 0 15.3226C0 18.081 4.16023 20.1613 9.67742 20.1613ZM5.64516 1.6129H13.7097V14.5161H12.0968V12.9032H12.9032V11.2903H6.45161V12.9032H7.25806V14.5161H5.64516V1.6129ZM10.4839 12.9032V14.5161H8.87097V12.9032H10.4839ZM4.03226 13.087V15.3226C4.03226 15.5365 4.11722 15.7416 4.26846 15.8928C4.4197 16.0441 4.62483 16.129 4.83871 16.129H14.5161C14.73 16.129 14.9351 16.0441 15.0864 15.8928C15.2376 15.7416 15.3226 15.5365 15.3226 15.3226V13.087C16.8152 13.7027 17.7419 14.5312 17.7419 15.3226C17.7419 16.8453 14.2933 18.5484 9.67742 18.5484C5.06159 18.5484 1.6129 16.8453 1.6129 15.3226C1.6129 14.5312 2.53965 13.7027 4.03226 13.087Z" fill="#666666"/>
<path d="M14.71 21.4834L15.9342 20.4334L20.7747 26.0769L19.5505 27.1269L14.71 21.4834Z" fill="#666666"/>
<path d="M29.2261 26.0986L34.0666 20.4551L35.2908 21.5051L30.4503 27.1486L29.2261 26.0986Z" fill="#666666"/>
</svg>
