<svg width="1800" height="426" viewBox="0 0 1800 426" fill="none" xmlns="http://www.w3.org/2000/svg">
<path d="M196.055 238.093C196.059 238.94 195.516 239.697 194.707 239.962L173.527 246.942C173.385 246.989 173.244 247.019 173.103 247.031C171.986 247.143 170.955 246.27 170.946 245.085L170.454 147.973V147.686L170.022 62.5738C170.014 61.1625 168.567 60.2216 167.275 60.7819L113.918 83.9021C112.621 84.4624 111.171 83.513 111.171 82.1016V65.5975C111.171 64.9175 111.522 64.2888 112.099 63.9296L192.319 14.1307C193.624 13.3224 195.315 14.2548 195.319 15.7944L195.725 139.081V139.145L195.944 204.456L196.055 238.093Z" fill="black"/>
<path d="M253.163 222.029L232.564 228.645C231.619 228.949 230.647 228.248 230.643 227.251L230.194 128.949V128.936L229.668 12.4241C229.646 7.27053 232.744 2.51475 237.588 0.748437C238.914 0.26516 240.339 0 241.815 0C243.925 0 245.932 0.538877 247.694 1.4926C251.627 3.62244 253.972 7.84362 253.976 12.3129C254.014 49.1873 254.053 86.0702 254.087 122.945V123.081C254.121 155.594 254.155 188.114 254.19 220.626C254.181 221.268 253.77 221.832 253.163 222.029Z" fill="#FC6E27"/>
<path d="M229.685 412.48C229.642 419.178 234.533 424.776 240.818 425.118C241.144 425.135 241.473 425.144 241.803 425.144C242.303 425.144 242.795 425.122 243.283 425.084C249.346 424.583 253.959 419.062 253.972 412.596C254.036 369.738 254.1 326.876 254.164 284.018C254.173 278.048 250.232 272.895 244.738 271.693C237.442 270.093 230.596 275.987 230.545 283.912L229.685 412.48Z" fill="#FC6E27"/>
<path d="M373.635 332.031C373.613 335.273 373.1 340.961 370.165 347.265C366.93 354.197 362.45 358.624 359.741 360.54C338.043 375.868 314.612 388.578 291.939 402.435C290.629 403.235 288.948 402.298 288.948 400.763V256.678C297.377 253.65 305.563 250.503 313.478 247.256V354.741C313.478 356.195 315.006 357.144 316.311 356.503L347.037 341.444C347.701 341.119 348.124 340.456 348.137 339.72L349.793 256.443L350.307 230.487L350.328 229.499C350.358 228.182 351.646 227.267 352.895 227.669L354.68 228.242L372.24 233.887C373.049 234.148 373.601 234.897 373.601 235.748C373.605 237.467 373.613 240.67 373.618 244.913C373.665 266.117 373.746 313.354 373.635 332.031Z" fill="black"/>
<path d="M197.633 282.069V400.763C197.633 402.298 195.951 403.235 194.642 402.435C171.968 388.578 148.537 375.867 126.839 360.539C124.131 358.623 119.651 354.197 116.416 347.264C113.481 340.96 112.967 335.272 112.95 332.03C112.924 327.942 112.907 322.48 112.899 316.223C112.89 308.765 112.89 300.177 112.894 291.427C120.69 291.401 128.902 291.072 137.464 290.443L137.939 314.406L138.443 339.72C138.461 340.456 138.884 341.119 139.543 341.444L170.274 356.502C171.579 357.144 173.102 356.194 173.102 354.74V286.376C181.095 285.161 189.285 283.724 197.633 282.069Z" fill="black"/>
<path d="M373.531 242.603C365.932 246.521 357.978 250.37 349.707 254.138C338.188 259.377 326.054 264.449 313.393 269.295C305.417 272.348 297.236 275.312 288.862 278.169C278.879 281.573 268.627 284.828 258.153 287.907C256.792 288.305 255.436 288.702 254.079 289.092C246.125 291.38 238.231 293.514 230.418 295.49C219.28 298.3 208.3 300.797 197.543 302.974C189.225 304.663 181.04 306.16 173.013 307.465C160.899 309.44 149.146 310.984 137.854 312.101C129.223 312.956 120.862 313.563 112.81 313.918C51.9434 316.63 8.71447 305.211 1.35917 280.205C-9.65881 242.749 46.7789 187.664 153.613 149.084C64.7799 182.275 21.3926 228.499 30.6349 259.928C36.3771 279.443 67.7023 289.284 112.81 289.117C120.606 289.092 128.817 288.762 137.374 288.134C148.688 287.308 160.613 285.953 173.013 284.071C181.006 282.856 189.195 281.419 197.543 279.764C215.305 276.24 233.785 271.72 252.616 266.185C265.097 262.516 277.211 258.56 288.862 254.373C297.291 251.349 305.477 248.202 313.393 244.956C326.464 239.597 338.787 233.973 350.22 228.186C351.697 227.438 353.156 226.69 354.598 225.937C409.863 197.176 442.921 164.741 435.895 140.855C431.043 124.351 407.899 114.767 373.596 112.299C373.6 110.991 373.6 109.699 373.596 108.429C426.426 108.142 463.194 119.651 469.92 142.532C478.2 170.681 438.916 208.954 373.531 242.603Z" fill="#FC6E27"/>
<path d="M373.686 111.187C373.699 138.708 373.618 174.398 373.601 181.908C373.601 182.759 373.049 183.508 372.24 183.769L352.895 189.987C351.642 190.389 350.358 189.474 350.328 188.157L348.788 110.61L348.74 108.249L348.137 77.9353C348.124 77.1997 347.701 76.5368 347.037 76.2118L316.311 61.1532C315.006 60.5117 313.478 61.4612 313.478 62.9153V201.218C313.478 202.069 312.931 202.826 312.118 203.087L299.564 207.12L291.515 209.703C290.249 210.114 288.948 209.168 288.948 207.834V16.8928C288.948 15.3575 290.629 14.4209 291.939 15.2206C314.612 29.0774 338.043 41.788 359.741 57.116C362.45 59.032 366.93 63.4584 370.165 70.3911C373.1 76.6951 373.613 82.3832 373.635 85.625C373.669 90.9496 373.682 98.605 373.686 107.313C373.69 108.583 373.69 109.874 373.686 111.187Z" fill="black"/>
<path d="M1190.14 280.785C991.075 280.785 792.007 280.785 592.943 280.785C591.394 280.785 589.837 280.88 588.301 280.743C584.381 280.388 582.161 278.07 581.964 274.118C581.857 271.962 581.87 269.79 581.959 267.63C582.109 263.939 584.27 261.596 587.89 261.091C588.652 260.984 589.435 261.01 590.209 261.001C591.758 260.988 593.307 260.993 594.851 260.993C991.588 260.993 1388.33 260.993 1785.07 260.993C1786.92 260.993 1788.78 261.018 1790.64 260.997C1792.58 260.98 1794.27 261.647 1795.82 262.755C1797.28 263.798 1798.24 265.154 1798.25 267.006C1798.27 269.632 1798.34 272.262 1798.22 274.884C1798.1 277.244 1796.82 278.912 1794.6 279.823C1793.17 280.413 1791.72 280.875 1790.12 280.798C1788.58 280.726 1787.03 280.785 1785.48 280.785C1587.03 280.785 1388.59 280.785 1190.14 280.785Z" fill="black"/>
<path d="M1000.76 342.114C1000.68 342.999 1000.68 343.923 1000.5 344.813C999.433 350.103 998.286 355.376 997.238 360.667C996.429 364.76 994.345 368.096 991.432 370.991C990.319 372.094 989.04 372.826 987.555 373.416C983.007 375.216 978.266 375.772 973.456 375.781C952.096 375.828 930.736 375.824 909.376 375.777C905.499 375.768 901.678 375.212 897.99 373.886C893.014 372.094 890.742 368.327 890.228 363.357C889.989 361.065 890.22 358.764 890.686 356.454C892.372 348.132 894.417 339.89 895.889 331.512C897.305 323.463 902.431 318.417 910.463 316.539C913.022 315.94 915.636 315.667 918.289 315.667C940.577 315.692 962.866 315.696 985.155 315.658C987.82 315.654 990.409 316.051 992.946 316.731C999.917 318.596 1004.07 323.959 1003.33 331.585C1003.3 331.893 1003.28 332.205 1003.21 332.504C1001.55 339.736 1003.03 338.624 996.16 338.684C989.66 338.74 983.156 338.714 976.657 338.684C974.368 338.676 974.368 338.624 973.846 336.216C973.495 334.587 973.058 334.091 971.484 333.869C970.418 333.719 969.327 333.689 968.249 333.685C955.404 333.672 942.554 333.732 929.709 333.65C924.095 333.616 923.672 334.741 922.747 339.514C921.716 344.817 920.411 350.069 919.256 355.351C918.734 357.746 919.504 358.913 921.84 359.226C923.064 359.388 924.309 359.422 925.546 359.427C938.237 359.439 950.932 359.439 963.623 359.427C964.86 359.427 966.097 359.328 967.329 359.226C968.471 359.127 969.357 358.511 970.076 357.66C970.589 357.053 970.919 356.347 970.756 355.539C970.551 354.491 969.639 354.641 968.929 354.637C962.43 354.611 955.926 354.619 949.426 354.615C948.19 354.615 946.949 354.637 945.712 354.585C944.446 354.534 944.095 354.093 944.36 352.836C944.993 349.812 945.635 346.793 946.345 343.786C946.837 341.699 946.893 341.708 949.186 341.644C949.961 341.622 950.735 341.639 951.51 341.639C966.37 341.639 981.231 341.627 996.087 341.657C997.606 341.652 999.181 341.31 1000.76 342.114Z" fill="black"/>
<path d="M1237.81 317.061C1234.66 316.141 1231.49 315.649 1228.22 315.666C1217.39 315.709 1206.55 315.684 1195.72 315.684C1184.59 315.684 1173.45 315.709 1162.3 315.671C1158.55 315.658 1154.83 316.064 1151.38 317.45C1146.67 319.34 1142.6 322.052 1141.21 327.415C1140.67 329.506 1139.91 331.538 1139.42 333.637C1138.02 339.655 1136.67 345.681 1135.39 351.72C1134.85 354.282 1134.47 356.886 1134.14 359.491C1133.89 361.488 1134.03 363.489 1134.4 365.482C1135.07 369.092 1137.06 371.598 1140.37 373.211C1144.37 375.161 1148.65 375.764 1152.99 375.777C1174.65 375.841 1196.31 375.841 1217.98 375.781C1222.79 375.764 1227.51 374.998 1232.02 373.151C1233.49 372.543 1234.72 371.739 1235.76 370.529C1238.42 367.428 1240.39 363.973 1241.23 359.957C1242.84 352.263 1244.32 344.543 1245.97 336.862C1246.5 334.433 1246.8 332.017 1246.93 329.545C1247.26 323.335 1242.69 318.481 1237.81 317.061ZM1216.89 340.797C1216.02 345.018 1215.06 349.218 1214.08 353.418C1213.53 355.761 1212.65 356.45 1210.22 356.621C1209.3 356.685 1208.37 356.651 1207.45 356.651C1194.78 356.655 1182.1 356.655 1169.43 356.651C1168.51 356.651 1167.57 356.689 1166.65 356.625C1164.2 356.458 1163.45 355.552 1163.63 353.024C1163.67 352.562 1163.72 352.1 1163.82 351.651C1164.8 347.131 1165.84 342.619 1166.78 338.09C1167.18 336.131 1168.33 335.147 1170.26 335.002C1171.65 334.899 1173.04 334.822 1174.42 334.818C1180.45 334.801 1186.48 334.809 1192.5 334.809C1198.99 334.814 1205.48 334.762 1211.97 334.826C1217.41 334.882 1217.97 335.571 1216.89 340.797Z" fill="black"/>
<path d="M1123.29 327.654C1123.17 322.479 1120.57 318.955 1115.7 317.151C1112.46 315.949 1109.11 315.662 1105.67 315.667C1080.14 315.692 1054.62 315.679 1029.08 315.684C1028 315.684 1026.92 315.688 1025.83 315.701C1024.77 315.718 1024.1 316.252 1023.86 317.283C1023.24 319.995 1022.58 322.693 1022.02 325.413C1020.07 334.938 1018.2 344.479 1016.23 353.999C1014.88 360.496 1013.39 366.967 1012 373.459C1011.63 375.216 1012.07 375.768 1013.84 375.777C1021.73 375.811 1029.62 375.819 1037.51 375.785C1040.12 375.772 1040.17 375.657 1040.73 372.89C1041.55 368.806 1042.34 364.713 1043.2 360.637C1043.66 358.486 1043.95 358.178 1045.87 358.165C1053.61 358.122 1061.34 358.161 1069.08 358.126C1070.46 358.122 1071.42 358.665 1072.2 359.747C1074 362.258 1075.87 364.721 1077.62 367.262C1079.3 369.678 1081.15 371.949 1083 374.224C1084.01 375.473 1085.12 375.819 1086.59 375.815C1095.41 375.79 1104.23 375.802 1113.05 375.79C1113.51 375.79 1114.01 375.79 1114.41 375.606C1114.82 375.426 1115.09 374.977 1114.86 374.489C1114.67 374.079 1114.41 373.694 1114.14 373.33C1110.07 367.942 1106 362.557 1101.41 356.497C1104.68 356.514 1107.16 356.133 1109.5 355.385C1114.95 353.636 1119.06 350.42 1120.34 344.475C1121.22 340.408 1122.17 336.353 1122.96 332.269C1123.26 330.764 1123.32 329.19 1123.29 327.654ZM1094.09 335.211C1093.79 336.717 1093.49 338.235 1093.02 339.698C1092.51 341.306 1091.35 342.26 1089.6 342.337C1088.83 342.375 1088.05 342.375 1087.28 342.375C1075.37 342.375 1063.47 342.379 1051.56 342.371C1050.63 342.371 1049.7 342.375 1048.78 342.281C1048.1 342.217 1047.6 341.699 1047.68 341.049C1048.01 338.453 1048.4 335.862 1048.82 333.274C1048.94 332.56 1049.57 332.32 1050.21 332.29C1051.6 332.235 1052.99 332.218 1054.38 332.213C1059.94 332.209 1065.51 332.213 1071.08 332.213C1076.96 332.213 1082.83 332.209 1088.71 332.218C1089.79 332.218 1090.88 332.188 1091.95 332.325C1093.62 332.543 1094.41 333.629 1094.09 335.211Z" fill="black"/>
<path d="M1482.76 317.737C1481.51 317.129 1480.23 316.646 1478.84 316.351C1476.41 315.833 1473.96 315.671 1471.48 315.675C1458.65 315.688 1445.82 315.679 1432.99 315.679H1414.43C1407.64 315.679 1400.83 315.671 1394.03 315.684C1390.02 315.692 1389.64 315.217 1388.86 319.652C1387.89 325.114 1386.76 330.554 1385.66 335.994C1383.12 348.38 1380.55 360.765 1378 373.146C1377.56 375.293 1377.85 375.777 1379.86 375.785C1387.75 375.819 1395.63 375.819 1403.52 375.781C1405.51 375.772 1405.83 375.512 1406.34 373.454C1407.11 370.311 1407.71 367.12 1408.47 363.977C1409.43 360.025 1408.69 360.179 1413.26 360.179C1429.96 360.179 1446.65 360.184 1463.35 360.175C1465.05 360.175 1466.75 360.077 1468.45 360.089C1471.93 360.111 1475.11 358.909 1478.34 357.853C1479.53 357.459 1480.53 356.732 1481.27 355.684C1483.17 353.05 1484.91 350.368 1485.74 347.139C1487.07 341.909 1488.13 336.623 1488.92 331.285C1489.08 330.225 1489.11 329.134 1489.14 328.056C1489.29 323.219 1487.08 319.815 1482.76 317.737ZM1459.26 339.039C1458.52 343.068 1457.9 343.641 1453.76 343.654C1440.95 343.701 1428.13 343.671 1415.31 343.667C1414.85 343.667 1414.38 343.667 1413.93 343.577C1413.23 343.44 1412.85 342.914 1412.96 342.264C1413.33 339.984 1413.7 337.696 1414.2 335.447C1414.7 333.244 1414.84 333.167 1417.43 333.159C1423.92 333.129 1430.4 333.146 1436.89 333.146C1442.91 333.146 1448.93 333.137 1454.95 333.154C1456.03 333.154 1457.11 333.184 1458.18 333.321C1459.03 333.432 1459.58 334.099 1459.58 334.908C1459.59 336.285 1459.52 337.683 1459.26 339.039Z" fill="black"/>
<path d="M1372.06 315.68C1370.74 321.761 1369.71 327.197 1368.35 332.547C1366.44 340.027 1365.44 347.678 1363.82 355.21C1362.87 359.589 1361.77 363.866 1359.4 367.784C1357.89 370.273 1356.04 372.09 1353.35 373.228C1348.99 375.075 1344.4 375.738 1339.77 375.76C1318.89 375.854 1298 375.837 1277.12 375.768C1273.25 375.756 1269.45 375.071 1265.8 373.604C1261.27 371.787 1259.07 368.314 1258.52 363.708C1258.25 361.424 1258.37 359.11 1258.9 356.809C1260.43 350.035 1261.87 343.243 1263.29 336.439C1264.41 330.999 1265.43 325.542 1266.5 320.089C1266.62 319.482 1266.75 318.879 1266.9 318.28C1267.52 315.859 1267.62 315.769 1269.95 315.68C1270.41 315.662 1270.88 315.675 1271.34 315.675C1278.15 315.675 1284.95 315.671 1291.76 315.684C1292.68 315.684 1293.61 315.701 1294.51 315.881C1294.84 315.949 1295.3 316.475 1295.33 316.826C1295.39 317.574 1295.28 318.357 1295.13 319.101C1293.08 329.233 1291 339.36 1288.94 349.492C1288.7 350.698 1288.45 351.912 1288.37 353.136C1288.28 354.564 1289.03 355.454 1290.5 355.676C1291.71 355.86 1292.96 355.916 1294.19 355.916C1305.79 355.933 1317.4 355.924 1329 355.924C1329.77 355.924 1330.54 355.95 1331.32 355.89C1334.8 355.633 1335.44 355.094 1336.11 351.523C1338.23 340.151 1340.96 328.912 1343.51 317.634C1343.9 315.898 1344.05 315.709 1346.04 315.697C1352.08 315.654 1358.11 315.675 1364.14 315.675C1366.58 315.68 1369.03 315.68 1372.06 315.68Z" fill="black"/>
<path d="M1188.92 280.978C989.637 280.978 790.347 280.952 591.061 281.08C583.35 281.085 581.579 277.86 581.639 271.907C581.729 262.9 583.581 260.505 591.099 260.424C593.286 260.398 595.468 260.419 597.654 260.419C994.511 260.419 1391.37 260.419 1788.23 260.419C1797.84 260.419 1802.75 268.46 1798.4 277.047C1796.53 280.751 1793.16 281.333 1789.53 281.298C1787.36 281.277 1785.2 280.99 1783.04 280.99C1585 280.978 1386.96 280.978 1188.92 280.978Z" fill="#FC6E27"/>
<path d="M1796.45 118.872L1790.88 155.417C1786.97 181.039 1778.47 199.032 1765.38 209.407C1752.29 219.779 1730.98 224.966 1701.48 224.966H1673.33C1648.12 224.966 1630.19 221.233 1619.55 213.765C1608.89 206.302 1603.57 193.69 1603.57 175.924C1603.57 169.796 1604.15 162.957 1605.33 155.413L1610.9 118.868C1614.8 93.2499 1623.31 75.2533 1636.4 64.8778C1649.49 54.5023 1670.69 49.3188 1700.01 49.3188H1728.15C1753.17 49.3188 1771.09 53.0525 1781.94 60.5155C1792.79 67.9827 1798.21 80.518 1798.21 98.1212C1798.21 104.417 1797.63 111.328 1796.45 118.872ZM1743.4 122.644C1743.98 117.615 1744.42 114.039 1744.71 111.918C1745.01 109.797 1745.16 107.714 1745.16 105.67C1745.16 97.9715 1742.96 92.7453 1738.56 89.991C1734.16 87.2411 1725.9 85.8639 1713.79 85.8639H1703.24C1688.19 85.8639 1678.27 88.1862 1673.49 92.818C1668.7 97.454 1665.13 107.398 1662.79 122.64L1658.39 151.876C1657.22 158.796 1656.63 164.531 1656.63 169.086C1656.63 176.476 1658.83 181.544 1663.22 184.294C1667.62 187.044 1675.78 188.421 1687.7 188.421H1698.25C1713.49 188.421 1723.5 186.103 1728.3 181.467C1733.08 176.831 1736.65 166.969 1738.99 151.88L1743.4 122.644Z" fill="black"/>
<path d="M762.853 51.2692L742.747 171.16C736.692 207.034 712.478 224.971 670.109 224.971H640.923C619.734 224.971 604.279 222.062 594.553 216.237C584.823 210.417 579.958 200.82 579.958 187.446C579.958 185.56 580.121 183.315 580.446 180.719C580.771 178.123 581.041 176.04 581.255 174.466L585.144 152.047H640.273C640.273 152.047 637.132 172.439 636.683 176.93C636.559 178.183 636.704 172.341 636.704 173.756C636.704 175.172 636.704 176.117 636.704 176.587C636.704 184.457 641.997 188.387 652.596 188.387H663.948C670.862 188.387 675.945 186.971 679.189 184.14C682.432 181.309 684.589 176.51 685.676 169.745L705.457 51.2692H762.853Z" fill="black"/>
<path d="M941.692 224.855L888.788 224.581L883.769 199.776L808.277 200.323L793.108 224.936L739.644 224.962L836.534 52.5735L902.146 52.5308L941.692 224.855ZM877.265 162.786L863.115 100.533L834.523 162.816L877.265 162.786Z" fill="black"/>
<path d="M1130.79 51.7565L1048.24 224.97H968.826L938.938 51.7565H991.598L1014.25 162.204L1078.42 51.7565H1130.79Z" fill="black"/>
<path d="M1201.42 52.6249L1173.66 224.966H1118.46L1146.21 52.6249H1201.42Z" fill="black"/>
<path d="M1591.1 120.04L1585.68 156.131C1581.88 181.63 1573.7 199.477 1561.16 209.672C1548.61 219.873 1527.98 224.97 1499.29 224.97H1396.64L1422.02 51.2048H1524.66C1548.99 51.2048 1566.43 54.9085 1576.98 62.3202C1587.54 69.7276 1592.81 82.1987 1592.81 99.7249C1592.81 105.781 1592.24 112.551 1591.1 120.04ZM1539.49 123.384C1540.63 116.374 1541.2 110.558 1541.2 105.935C1541.2 98.2879 1539.06 93.0702 1534.79 90.2775C1530.51 87.4933 1522.57 86.0948 1510.98 86.0948H1466.78L1451.67 190.068H1495.87C1510.5 190.068 1520.15 187.72 1524.81 183.015C1529.46 178.315 1532.93 168.239 1535.21 152.778L1539.49 123.384Z" fill="black"/>
<path d="M1392.24 120.04L1386.82 156.131C1383.02 181.63 1374.84 199.477 1362.3 209.672C1349.75 219.873 1329.13 224.97 1300.43 224.97H1197.78L1223.16 51.2048H1325.81C1350.13 51.2048 1367.58 54.9085 1378.13 62.3202C1388.68 69.7276 1393.95 82.1987 1393.95 99.7249C1393.95 105.781 1393.38 112.551 1392.24 120.04ZM1340.63 123.384C1341.77 116.374 1342.34 110.558 1342.34 105.935C1342.34 98.2879 1340.2 93.0702 1335.92 90.2775C1331.65 87.4933 1323.71 86.0948 1312.12 86.0948H1267.92L1252.81 190.068H1297C1311.64 190.068 1321.29 187.72 1325.95 183.015C1330.6 178.315 1334.07 168.239 1336.35 152.778L1340.63 123.384Z" fill="black"/>
</svg>
