<svg width="51" height="50" viewBox="0 0 51 50" fill="none" xmlns="http://www.w3.org/2000/svg">
<path d="M49.4695 33.6873C52.376 24.9018 49.9459 14.9524 42.8039 8.54057C43.4809 5.58322 42.7339 3.07052 40.6486 1.4868C38.0381 -0.49555 33.9487 -0.495649 31.3375 1.4868C30.8927 1.82248 30.496 2.21741 30.1583 2.66061C24.4957 1.88427 18.7425 3.16505 13.944 6.27023C13.8992 6.2929 13.857 6.32038 13.8181 6.35217C12.6031 7.1503 11.4645 8.0591 10.417 9.06696C7.88119 7.90215 4.60964 8.15876 2.39868 9.83769C-0.0925427 11.7296 -0.675046 14.9471 0.800311 18.6653C1.40399 20.188 2.28477 22.0771 3.21682 23.9944C2.88484 27.5189 3.34468 31.0729 4.56274 34.3968C5.78079 37.7207 7.72627 40.7304 10.2569 43.2058C10.2668 43.2157 10.2758 43.225 10.286 43.234C11.3174 44.2393 12.4377 45.1491 13.6332 45.9524C17.535 48.5887 22.1359 49.9983 26.8449 50C28.399 49.9992 29.9494 49.8476 31.4742 49.5475C35.5917 48.7393 39.422 46.8561 42.5763 44.089C45.7306 41.3219 48.0967 37.7695 49.4343 33.7924C49.4488 33.7584 49.4605 33.7232 49.4695 33.6873ZM32.1766 2.59233C33.2288 1.79319 34.6111 1.39367 35.9931 1.39367C37.3752 1.39367 38.7573 1.79309 39.8095 2.59233C41.5263 3.89618 42.0628 5.9862 41.3731 8.55719C41.363 8.58707 41.3549 8.61763 41.349 8.64863C41.2391 9.04013 41.1085 9.42551 40.9577 9.80315C40.2603 11.5611 39.1355 13.9209 38.1694 15.8862C38.1669 15.8909 38.1646 15.8961 38.1622 15.9004C37.7324 16.7747 37.3341 17.5705 37.0194 18.1993C36.9242 18.3898 36.7779 18.55 36.5967 18.6621C36.4156 18.7741 36.2069 18.8335 35.9939 18.8336C35.7809 18.8337 35.5721 18.7745 35.3909 18.6626C35.2097 18.5507 35.0632 18.3906 34.9679 18.2002C33.9443 16.1551 32.0385 12.3483 31.0291 9.80315C30.0785 7.40822 30.0911 5.35046 31.0311 3.83918C31.0622 3.8003 31.0891 3.75816 31.1111 3.71349C31.4015 3.28314 31.7616 2.90422 32.1766 2.59233ZM29.4145 3.96565C28.6932 5.72622 28.7872 7.916 29.7391 10.3149C30.6459 12.601 32.1915 15.7541 33.7274 18.822C33.938 19.2427 34.2616 19.5965 34.6619 19.8437C35.0622 20.0908 35.5234 20.2217 35.9939 20.2216C36.4644 20.2215 36.9255 20.0905 37.3258 19.8431C37.726 19.5958 38.0494 19.2419 38.2599 18.8212C38.4093 18.5227 38.5586 18.2236 38.7077 17.924C38.7436 18.0282 38.7797 18.1319 38.8146 18.2383C39.4951 20.3115 41.4389 21.8528 43.154 23.2128C44.2198 24.0579 45.3221 24.932 45.4539 25.5088C45.6254 26.2646 45.3393 26.5056 45.2315 26.5964C43.9105 27.7088 38.7902 26.5978 36.4423 25.6218C34.6087 24.8603 32.9499 25.2022 31.4864 25.504C30.1226 25.785 28.9449 26.0277 27.7742 25.4219C26.85 24.9428 26.5074 24.6515 26.3834 24.5146C26.6589 24.3266 26.9484 24.1599 27.2493 24.016C28.1348 23.5595 29.2371 22.9914 29.6701 21.9327C30.4528 20.0173 29.4382 18.6695 28.5429 17.4805C27.5259 16.1298 26.9368 15.2258 27.6105 13.7215C27.9874 12.8809 27.9529 10.4185 27.0295 9.76475C26.7215 9.54703 26.2415 9.46044 25.767 9.81809C25.546 9.91062 25.2633 10.0931 24.8191 10.3864C24.3169 10.7181 23.6564 11.1727 23.018 11.6123C21.9744 12.3305 20.7913 13.1445 20.4263 13.3312C19.8359 13.6334 19.3179 13.6921 18.8429 13.5107C17.3485 12.9405 16.254 10.1064 15.3743 7.8302C15.2868 7.60377 15.202 7.38486 15.1179 7.16981C19.3922 4.53596 24.4249 3.40803 29.4145 3.96565ZM13.9332 7.95391C13.9812 8.07751 14.0295 8.20241 14.0789 8.32997C15.1087 10.9955 16.2759 14.0165 18.3469 14.807C19.198 15.1321 20.1102 15.0509 21.0573 14.5665C21.5026 14.3389 22.6209 13.5694 23.8036 12.7554C24.7121 12.1302 25.9425 11.2834 26.2689 11.1145C26.2803 11.1119 26.2916 11.1088 26.3029 11.1053C26.4672 11.6444 26.5107 12.7817 26.3437 13.1539C25.301 15.4821 26.4836 17.0531 27.4337 18.3149C28.3244 19.4972 28.8462 20.279 28.3852 21.4073C28.146 21.9922 27.3315 22.412 26.6129 22.7829C25.7524 23.2264 24.9396 23.6453 24.9386 24.4892C24.9379 25.2177 25.5742 25.845 27.1357 26.6541C28.7432 27.4863 30.2801 27.1696 31.766 26.8631C33.1569 26.5761 34.4705 26.3058 35.9095 26.9033C36.7697 27.2609 40.3345 28.443 43.1735 28.4428C44.3731 28.4428 45.4437 28.2316 46.1251 27.6578C46.5995 27.2581 47.1029 26.5077 46.8064 25.201C46.5658 24.1475 45.4408 23.2552 44.0157 22.1255C42.4536 20.8868 40.6831 19.4831 40.1325 17.8056C39.9463 17.2377 39.7537 16.717 39.5476 16.2238C40.6164 14.0426 41.5962 11.955 42.2472 10.3148C42.2868 10.2158 42.3238 10.1169 42.3602 10.0179C48.6715 16.0262 50.7975 25.0668 48.2019 33.1015C47.264 33.8378 46.0662 34.6948 44.8456 35.1271C39.7828 36.9171 37.7195 40.3737 38.852 45.1412C37.7037 45.864 36.4921 46.4809 35.2321 46.9844C34.8909 46.4839 34.4798 46.0349 34.0113 45.6511C33.2895 45.0672 32.5029 44.825 31.8088 44.6112C30.8687 44.3216 30.1252 44.0927 29.6261 43.112C28.2887 40.4854 27.3724 40.1616 26.1272 39.9675C26.0556 39.9563 25.9849 39.9452 25.9143 39.9333C26.5687 38.5504 27.1634 37.2305 27.6078 36.1102C29.0833 32.392 28.5007 29.1745 26.0095 27.2826C23.3988 25.2999 19.3089 25.2998 16.6983 27.2826C14.7586 28.7557 13.9768 31.0325 14.4214 33.7235C12.8654 36.167 11.5457 38.7532 10.4803 41.4471C9.37 40.2523 8.39387 38.9394 7.56936 37.5321C8.7209 35.9883 9.64404 33.5957 10.333 31.8093C10.4008 31.6332 10.4664 31.4629 10.5298 31.3004C11.0323 30.0081 11.808 29.1331 12.4924 28.3619C13.8218 26.8631 15.0774 25.4474 13.1231 22.2251C12.8385 21.7331 12.6154 21.2079 12.4589 20.6615C12.7768 19.9517 13.0654 19.2785 13.3086 18.6654C14.784 14.9472 14.2014 11.7297 11.7102 9.83779C11.6938 9.82522 11.6767 9.81384 11.66 9.80147C12.3763 9.13625 13.1356 8.51899 13.9332 7.95391ZM15.8372 33.771C15.8339 33.7493 15.8296 33.7279 15.8243 33.7066C15.384 31.4317 15.9667 29.5808 17.5373 28.388C18.5894 27.589 19.9718 27.1895 21.3538 27.1895C22.7357 27.1895 24.118 27.589 25.1701 28.388C27.1568 29.8968 27.5644 32.4577 26.3181 35.5989C25.3977 37.9193 23.8022 41.15 22.3793 43.9951C22.2841 44.1856 22.1376 44.3458 21.9564 44.4577C21.7753 44.5697 21.5665 44.629 21.3535 44.629C21.1405 44.629 20.9317 44.5697 20.7505 44.4577C20.5693 44.3458 20.4229 44.1856 20.3276 43.9951C18.8131 40.973 17.2877 37.863 16.3894 35.5992C16.1512 35.0075 15.9664 34.3957 15.8372 33.771ZM3.2378 10.9428C4.28998 10.1437 5.67231 9.74417 7.05425 9.74417C8.14986 9.7354 9.23051 9.99877 10.1992 10.5106C10.2147 10.5195 10.2303 10.5279 10.2462 10.5355C10.4637 10.6564 10.6724 10.7926 10.8707 10.9428C12.8573 12.4515 13.2649 15.0124 12.0187 18.1537C11.7564 18.8145 11.4385 19.5505 11.0865 20.3287C11.0851 20.3319 11.0836 20.3351 11.0823 20.3386C10.1987 22.2919 9.09608 24.5186 8.08031 26.55C7.98457 26.7398 7.83804 26.8993 7.65703 27.0108C7.47601 27.1223 7.26761 27.1814 7.05501 27.1816C6.84241 27.1817 6.63394 27.1228 6.4528 27.0115C6.27165 26.9002 6.12494 26.7409 6.02898 26.5511C4.60617 23.7056 3.01107 20.4754 2.09021 18.154C0.843559 15.0124 1.25119 12.4515 3.2378 10.9428ZM4.78837 27.1729C4.99963 27.5929 5.32346 27.9459 5.7237 28.1926C6.12395 28.4392 6.58485 28.5697 7.05498 28.5696C7.52511 28.5695 7.98595 28.4387 8.38608 28.1919C8.7862 27.9451 9.10986 27.5919 9.32092 27.1718C10.0908 25.6323 10.9101 23.9811 11.6502 22.4142C11.7404 22.5999 11.8348 22.7765 11.9357 22.9436C13.3602 25.2926 12.7233 26.0108 11.4541 27.4417C10.7302 28.258 9.82901 29.2739 9.23641 30.798C9.17258 30.9618 9.10657 31.1332 9.03848 31.3104C8.45776 32.8144 7.70316 34.7712 6.82851 36.1606C5.35423 33.1865 4.56019 29.9216 4.50394 26.6026C4.59921 26.7939 4.69402 26.9839 4.78837 27.1724V27.1729ZM26.8588 48.5979C22.4226 48.6006 18.0866 47.2784 14.4067 44.8007C13.3959 44.1212 12.4419 43.3607 11.5542 42.5267C12.4646 40.1173 13.5852 37.7926 14.9029 35.5794C14.9643 35.7556 15.0289 35.9326 15.0997 36.1112C16.0175 38.4245 17.5587 41.5667 19.088 44.6181C19.2987 45.0388 19.6223 45.3925 20.0226 45.6397C20.4229 45.8869 20.8841 46.0177 21.3546 46.0176C21.8251 46.0175 22.2862 45.8864 22.6864 45.6391C23.0866 45.3917 23.4101 45.0378 23.6205 44.617C24.1692 43.5197 24.7431 42.3656 25.2957 41.2257C25.5181 41.2772 25.723 41.3098 25.9136 41.3395C26.7329 41.4672 27.2741 41.5515 28.3896 43.7423C29.1551 45.2466 30.348 45.6142 31.4004 45.9383C32.0303 46.1323 32.6252 46.3155 33.1397 46.7318C33.4099 46.9535 33.6552 47.204 33.8713 47.4787C31.6074 48.2193 29.2407 48.597 26.8588 48.5979ZM45.481 38.7008C44.0266 40.8693 42.2025 42.7654 40.0919 44.3026C39.3786 40.5062 41.0915 37.9266 45.3084 36.4356C46.0038 36.1788 46.6694 35.848 47.294 35.4487C46.7808 36.5811 46.1744 37.6688 45.481 38.7008ZM35.9932 10.7557C36.7593 10.7557 37.5082 10.5285 38.1452 10.1029C38.7821 9.67729 39.2786 9.07236 39.5718 8.36459C39.8649 7.65683 39.9416 6.87803 39.7922 6.12667C39.6427 5.37531 39.2738 4.68515 38.7321 4.14345C38.1904 3.60175 37.5002 3.23285 36.7489 3.08339C35.9975 2.93394 35.2187 3.01064 34.511 3.30381C33.8032 3.59697 33.1983 4.09343 32.7727 4.7304C32.347 5.36737 32.1199 6.11625 32.1199 6.88232C32.1211 7.90924 32.5295 8.89376 33.2557 9.6199C33.9818 10.346 34.9663 10.7545 35.9932 10.7557ZM35.9932 4.39654C36.4849 4.39658 36.9655 4.5424 37.3742 4.81557C37.783 5.08873 38.1015 5.47697 38.2897 5.93119C38.4778 6.38541 38.527 6.88522 38.431 7.3674C38.3351 7.84958 38.0983 8.29248 37.7507 8.64011C37.403 8.98773 36.9601 9.22446 36.4779 9.32035C35.9957 9.41625 35.4959 9.36701 35.0417 9.17887C34.5875 8.99072 34.1993 8.67211 33.9262 8.26333C33.653 7.85455 33.5073 7.37396 33.5073 6.88232C33.508 6.22325 33.7702 5.5914 34.2362 5.12538C34.7023 4.65937 35.3342 4.39725 35.9932 4.39654ZM21.3538 36.5514C22.1199 36.5514 22.8687 36.3242 23.5057 35.8986C24.1427 35.473 24.6391 34.868 24.9323 34.1603C25.2255 33.4525 25.3022 32.6737 25.1527 31.9223C25.0032 31.171 24.6343 30.4808 24.0926 29.9391C23.5509 29.3974 22.8607 29.0285 22.1094 28.8791C21.358 28.7296 20.5792 28.8063 19.8714 29.0995C19.1637 29.3927 18.5587 29.8892 18.1331 30.5262C17.7075 31.1631 17.4804 31.912 17.4804 32.6781C17.4816 33.705 17.8901 34.6895 18.6162 35.4156C19.3423 36.1418 20.3269 36.5502 21.3538 36.5514ZM21.3538 30.1923C21.8454 30.1923 22.326 30.3381 22.7348 30.6113C23.1436 30.8844 23.4622 31.2726 23.6503 31.7268C23.8385 32.1811 23.8877 32.6809 23.7918 33.1631C23.6959 33.6453 23.4591 34.0882 23.1115 34.4358C22.7638 34.7835 22.3209 35.0202 21.8387 35.1161C21.3565 35.212 20.8567 35.1628 20.4025 34.9747C19.9483 34.7865 19.5601 34.4679 19.2869 34.0591C19.0138 33.6504 18.868 33.1698 18.868 32.6781C18.8687 32.0191 19.1309 31.3872 19.5969 30.9212C20.0629 30.4552 20.6947 30.1931 21.3538 30.1923ZM10.9276 15.2324C10.9276 14.4663 10.7004 13.7175 10.2748 13.0805C9.84921 12.4435 9.24427 11.9471 8.5365 11.6539C7.82873 11.3607 7.04992 11.284 6.29856 11.4335C5.5472 11.583 4.85703 11.9519 4.31534 12.4936C3.77364 13.0353 3.40475 13.7255 3.25531 14.4768C3.10586 15.2282 3.18258 16.007 3.47576 16.7148C3.76894 17.4225 4.26542 18.0274 4.9024 18.453C5.53938 18.8786 6.28827 19.1058 7.05435 19.1058C8.08125 19.1046 9.06574 18.6961 9.79186 17.97C10.518 17.2438 10.9264 16.2593 10.9276 15.2324ZM4.56857 15.2324C4.56857 14.7408 4.71436 14.2602 4.9875 13.8514C5.26064 13.4426 5.64886 13.124 6.10308 12.9359C6.5573 12.7477 7.05711 12.6985 7.5393 12.7944C8.02149 12.8903 8.46442 13.1271 8.81206 13.4747C9.1597 13.8224 9.39645 14.2653 9.49237 14.7475C9.58828 15.2297 9.53905 15.7295 9.35091 16.1837C9.16277 16.6379 8.84416 17.0261 8.43538 17.2993C8.02659 17.5724 7.54599 17.7182 7.05435 17.7182C6.3953 17.7175 5.76344 17.4554 5.29742 16.9894C4.8314 16.5233 4.56928 15.8915 4.56857 15.2324Z" fill="#666666"/>
</svg>
