<svg width="79" height="50" viewBox="0 0 79 50" fill="none" xmlns="http://www.w3.org/2000/svg">
<path d="M68.1053 22.0006C70.4113 20.3802 71.9383 17.6846 71.9383 14.6463C71.9383 9.67591 67.9184 5.65597 62.948 5.65597C57.9776 5.65597 53.9576 9.67591 53.9576 14.6463C53.9576 17.6846 55.469 20.3802 57.7906 22.0006C55.8118 22.6862 54.0044 23.7457 52.4774 25.1169C50.3739 23.325 47.8965 21.9539 45.1854 21.1437C48.473 19.1493 50.6856 15.5189 50.6856 11.3898C50.6856 5.09505 45.5905 0 39.2957 0C33.0009 0 27.9059 5.11063 27.9059 11.3898C27.9059 15.5189 30.1028 19.1493 33.406 21.1437C30.7261 21.9539 28.2798 23.3094 26.192 25.0701C24.665 23.7301 22.8887 22.6862 20.9411 22.0162C23.2471 20.3958 24.7741 17.7002 24.7741 14.6619C24.7741 9.69149 20.7541 5.67155 15.7837 5.67155C10.8133 5.67155 6.79339 9.69149 6.79339 14.6619C6.79339 17.7002 8.30477 20.3958 10.6264 22.0162C4.44063 24.1508 0 30.0249 0 36.9274V37.9558C0 37.9869 0.0311624 38.0181 0.0623247 38.0181H19.1181C19.009 38.875 18.9467 39.7632 18.9467 40.6513V41.7108C18.9467 46.2917 22.655 50 27.2359 50H51.3867C55.9676 50 59.6759 46.2917 59.6759 41.7108V40.6513C59.6759 39.7632 59.6136 38.875 59.5045 38.0181H78.6849C78.7161 38.0181 78.7473 37.9869 78.7473 37.9558V36.9274C78.7161 30.0093 74.2911 24.1352 68.1053 22.0006ZM56.4506 14.6307C56.4506 11.0471 59.3643 8.13337 62.948 8.13337C66.5316 8.13337 69.4453 11.0471 69.4453 14.6307C69.4453 18.1677 66.5939 21.0502 63.0726 21.1281C63.0259 21.1281 62.9947 21.1281 62.948 21.1281C62.9012 21.1281 62.8701 21.1281 62.8233 21.1281C59.2864 21.0658 56.4506 18.1832 56.4506 14.6307ZM30.3677 11.3898C30.3677 6.48177 34.3565 2.49299 39.2646 2.49299C44.1726 2.49299 48.1614 6.48177 48.1614 11.3898C48.1614 16.1265 44.4375 20.0062 39.7787 20.2711C39.6074 20.2711 39.436 20.2711 39.2646 20.2711C39.0932 20.2711 38.9218 20.2711 38.7504 20.2711C34.0916 20.0062 30.3677 16.1265 30.3677 11.3898ZM9.23964 14.6307C9.23964 11.0471 12.1533 8.13337 15.737 8.13337C19.3207 8.13337 22.2343 11.0471 22.2343 14.6307C22.2343 18.1677 19.383 21.0502 15.8616 21.1281C15.8149 21.1281 15.7837 21.1281 15.737 21.1281C15.6902 21.1281 15.6591 21.1281 15.6123 21.1281C12.091 21.0658 9.23964 18.1832 9.23964 14.6307ZM19.5544 35.5095H2.52415C3.2253 28.8719 8.83453 23.6678 15.6435 23.6211C15.6747 23.6211 15.7058 23.6211 15.737 23.6211C15.7682 23.6211 15.7993 23.6211 15.8305 23.6211C19.0714 23.6366 22.0318 24.8364 24.3222 26.784C22.0785 29.2147 20.4113 32.2063 19.5544 35.5095ZM57.1518 41.7108C57.1518 44.905 54.5497 47.507 51.3556 47.507H27.2047C24.0106 47.507 21.4085 44.905 21.4085 41.7108V40.6513C21.4085 30.9754 29.1368 23.0601 38.7504 22.7797C38.9218 22.7953 39.1088 22.7953 39.2801 22.7953C39.4515 22.7953 39.6385 22.7953 39.8099 22.7797C49.4235 23.0601 57.1518 30.9754 57.1518 40.6513V41.7108ZM59.0059 35.5095C58.149 32.2219 56.5129 29.277 54.2848 26.8464C56.5908 24.852 59.5824 23.6522 62.8545 23.6211C62.8856 23.6211 62.9168 23.6211 62.948 23.6211C62.9791 23.6211 63.0103 23.6211 63.0414 23.6211C69.8504 23.6678 75.4596 28.8719 76.1608 35.5095H59.0059Z" fill="#666666"/>
</svg>
