<svg width="242" height="405" viewBox="0 0 242 405" fill="none" xmlns="http://www.w3.org/2000/svg">
<path d="M236.36 212.729L28.36 400.01C26.8726 401.36 25.103 402.432 23.1532 403.163C21.2035 403.895 19.1122 404.271 17 404.271C14.8878 404.271 12.7965 403.895 10.8468 403.163C8.89702 402.432 7.12741 401.36 5.64 400.01C4.14034 398.671 2.95004 397.077 2.13774 395.322C1.32544 393.566 0.907227 391.683 0.907227 389.781C0.907227 387.88 1.32544 385.997 2.13774 384.241C2.95004 382.486 4.14034 380.892 5.64 379.553L202.44 202.5L5.64 25.4473C2.62714 22.7345 0.93454 19.0553 0.93454 15.2189C0.93454 13.3193 1.35007 11.4383 2.15744 9.68327C2.96481 7.92827 4.14818 6.33364 5.64 4.99042C7.13182 3.6472 8.90285 2.5817 10.852 1.85476C12.8012 1.12781 14.8903 0.753662 17 0.753662C21.2608 0.753662 25.3471 2.27767 28.36 4.99042L236.36 192.272C237.86 193.611 239.05 195.204 239.862 196.96C240.675 198.715 241.093 200.598 241.093 202.5C241.093 204.402 240.675 206.285 239.862 208.04C239.05 209.796 237.86 211.389 236.36 212.729Z" fill="black"/>
</svg>
