<svg width="50" height="50" viewBox="0 0 50 50" fill="none" xmlns="http://www.w3.org/2000/svg">
<path d="M40.9627 8.86571L26.178 8.86565C25.6024 8.82112 25.0996 9.25165 25.0551 9.82734C25.0106 10.403 25.4411 10.9058 26.0168 10.9503C26.0705 10.9544 26.1244 10.9544 26.178 10.9503L38.4419 10.9577L9.17558 40.224C8.76735 40.6322 8.76735 41.2942 9.17565 41.7025C9.58394 42.1108 10.2458 42.1107 10.6541 41.7025L39.9204 12.4362L39.9204 24.6926C39.8759 25.2683 40.3064 25.7711 40.8821 25.8156C41.4578 25.86 41.9605 25.4296 42.005 24.8539C42.0091 24.8002 42.0092 24.7463 42.005 24.6926L42.005 9.90789C42.0034 9.33309 41.5377 8.86743 40.9627 8.86571Z" fill="#FC6E27"/>
</svg>
